<svg xmlns="http://www.w3.org/2000/svg" width="552" height="552" viewBox="0 0 552 552" shape-rendering="crispEdges"><rect x="104" y="16" width="8" height="8" fill="#111827" /><rect x="256" y="16" width="8" height="8" fill="#111827" /><rect x="336" y="16" width="8" height="8" fill="#111827" /><rect x="360" y="16" width="8" height="8" fill="#111827" /><rect x="216" y="24" width="8" height="8" fill="#111827" /><rect x="248" y="24" width="8" height="8" fill="#111827" /><rect x="272" y="24" width="8" height="8" fill="#111827" /><rect x="344" y="24" width="8" height="8" fill="#111827" /><rect x="352" y="24" width="8" height="8" fill="#111827" /><rect x="360" y="24" width="8" height="8" fill="#111827" /><rect x="104" y="32" width="8" height="8" fill="#111827" /><rect x="248" y="32" width="8" height="8" fill="#111827" /><rect x="280" y="32" width="8" height="8" fill="#111827" /><rect x="352" y="32" width="8" height="8" fill="#111827" /><rect x="432" y="32" width="8" height="8" fill="#111827" /><rect x="112" y="40" width="8" height="8" fill="#111827" /><rect x="136" y="40" width="8" height="8" fill="#111827" /><rect x="216" y="40" width="8" height="8" fill="#111827" /><rect x="264" y="40" width="8" height="8" fill="#111827" /><rect x="288" y="40" width="8" height="8" fill="#111827" /><rect x="392" y="40" width="8" height="8" fill="#111827" /><rect x="112" y="48" width="8" height="8" fill="#111827" /><rect x="144" y="48" width="8" height="8" fill="#111827" /><rect x="248" y="48" width="8" height="8" fill="#111827" /><rect x="312" y="48" width="8" height="8" fill="#111827" /><rect x="320" y="48" width="8" height="8" fill="#111827" /><rect x="392" y="48" width="8" height="8" fill="#111827" /><rect x="432" y="48" width="8" height="8" fill="#111827" /><rect x="112" y="56" width="8" height="8" fill="#111827" /><rect x="144" y="56" width="8" height="8" fill="#111827" /><rect x="224" y="56" width="8" height="8" fill="#111827" /><rect x="248" y="56" width="8" height="8" fill="#111827" /><rect x="344" y="56" width="8" height="8" fill="#111827" /><rect x="104" y="72" width="8" height="8" fill="#111827" /><rect x="192" y="72" width="8" height="8" fill="#111827" /><rect x="216" y="72" width="8" height="8" fill="#111827" /><rect x="424" y="72" width="8" height="8" fill="#111827" /><rect x="192" y="80" width="8" height="8" fill="#111827" /><rect x="352" y="80" width="8" height="8" fill="#111827" /><rect x="392" y="80" width="8" height="8" fill="#111827" /><rect x="144" y="88" width="8" height="8" fill="#111827" /><rect x="192" y="88" width="8" height="8" fill="#111827" /><rect x="272" y="88" width="8" height="8" fill="#111827" /><rect x="344" y="88" width="8" height="8" fill="#111827" /><rect x="352" y="88" width="8" height="8" fill="#111827" /><rect x="432" y="88" width="8" height="8" fill="#111827" /><rect x="472" y="88" width="8" height="8" fill="#111827" /><rect x="520" y="88" width="8" height="8" fill="#111827" /><rect x="24" y="96" width="8" height="8" fill="#111827" /><rect x="80" y="96" width="8" height="8" fill="#111827" /><rect x="104" y="96" width="8" height="8" fill="#111827" /><rect x="136" y="96" width="8" height="8" fill="#111827" /><rect x="144" y="96" width="8" height="8" fill="#111827" /><rect x="160" y="96" width="8" height="8" fill="#111827" /><rect x="176" y="96" width="8" height="8" fill="#111827" /><rect x="184" y="96" width="8" height="8" fill="#111827" /><rect x="248" y="96" width="8" height="8" fill="#111827" /><rect x="264" y="96" width="8" height="8" fill="#111827" /><rect x="280" y="96" width="8" height="8" fill="#111827" /><rect x="320" y="96" width="8" height="8" fill="#111827" /><rect x="352" y="96" width="8" height="8" fill="#111827" /><rect x="432" y="96" width="8" height="8" fill="#111827" /><rect x="472" y="96" width="8" height="8" fill="#111827" /><rect x="496" y="96" width="8" height="8" fill="#111827" /><rect x="512" y="96" width="8" height="8" fill="#111827" /><rect x="528" y="96" width="8" height="8" fill="#111827" /><rect x="136" y="104" width="8" height="8" fill="#111827" /><rect x="184" y="104" width="8" height="8" fill="#111827" /><rect x="248" y="104" width="8" height="8" fill="#111827" /><rect x="256" y="104" width="8" height="8" fill="#111827" /><rect x="264" y="104" width="8" height="8" fill="#111827" /><rect x="272" y="104" width="8" height="8" fill="#111827" /><rect x="320" y="104" width="8" height="8" fill="#111827" /><rect x="352" y="104" width="8" height="8" fill="#111827" /><rect x="424" y="104" width="8" height="8" fill="#111827" /><rect x="504" y="104" width="8" height="8" fill="#111827" /><rect x="160" y="112" width="8" height="8" fill="#111827" /><rect x="280" y="112" width="8" height="8" fill="#111827" /><rect x="352" y="112" width="8" height="8" fill="#111827" /><rect x="424" y="112" width="8" height="8" fill="#111827" /><rect x="448" y="112" width="8" height="8" fill="#111827" /><rect x="496" y="112" width="8" height="8" fill="#111827" /><rect x="504" y="112" width="8" height="8" fill="#111827" /><rect x="512" y="112" width="8" height="8" fill="#111827" /><rect x="16" y="120" width="8" height="8" fill="#111827" /><rect x="48" y="120" width="8" height="8" fill="#111827" /><rect x="56" y="120" width="8" height="8" fill="#111827" /><rect x="168" y="120" width="8" height="8" fill="#111827" /><rect x="248" y="120" width="8" height="8" fill="#111827" /><rect x="288" y="120" width="8" height="8" fill="#111827" /><rect x="312" y="120" width="8" height="8" fill="#111827" /><rect x="424" y="120" width="8" height="8" fill="#111827" /><rect x="136" y="128" width="8" height="8" fill="#111827" /><rect x="168" y="128" width="8" height="8" fill="#111827" /><rect x="184" y="128" width="8" height="8" fill="#111827" /><rect x="256" y="128" width="8" height="8" fill="#111827" /><rect x="272" y="128" width="8" height="8" fill="#111827" /><rect x="352" y="128" width="8" height="8" fill="#111827" /><rect x="424" y="128" width="8" height="8" fill="#111827" /><rect x="448" y="128" width="8" height="8" fill="#111827" /><rect x="496" y="128" width="8" height="8" fill="#111827" /><rect x="504" y="128" width="8" height="8" fill="#111827" /><rect x="48" y="136" width="8" height="8" fill="#111827" /><rect x="56" y="136" width="8" height="8" fill="#111827" /><rect x="104" y="136" width="8" height="8" fill="#111827" /><rect x="136" y="136" width="8" height="8" fill="#111827" /><rect x="184" y="136" width="8" height="8" fill="#111827" /><rect x="208" y="136" width="8" height="8" fill="#111827" /><rect x="216" y="136" width="8" height="8" fill="#111827" /><rect x="304" y="136" width="8" height="8" fill="#111827" /><rect x="352" y="136" width="8" height="8" fill="#111827" /><rect x="392" y="136" width="8" height="8" fill="#111827" /><rect x="408" y="136" width="8" height="8" fill="#111827" /><rect x="424" y="136" width="8" height="8" fill="#111827" /><rect x="448" y="136" width="8" height="8" fill="#111827" /><rect x="504" y="136" width="8" height="8" fill="#111827" /><rect x="528" y="136" width="8" height="8" fill="#111827" /><rect x="48" y="144" width="8" height="8" fill="#111827" /><rect x="120" y="144" width="8" height="8" fill="#111827" /><rect x="232" y="144" width="8" height="8" fill="#111827" /><rect x="248" y="144" width="8" height="8" fill="#111827" /><rect x="280" y="144" width="8" height="8" fill="#111827" /><rect x="304" y="144" width="8" height="8" fill="#111827" /><rect x="312" y="144" width="8" height="8" fill="#111827" /><rect x="352" y="144" width="8" height="8" fill="#111827" /><rect x="416" y="144" width="8" height="8" fill="#111827" /><rect x="424" y="144" width="8" height="8" fill="#111827" /><rect x="432" y="144" width="8" height="8" fill="#111827" /><rect x="448" y="144" width="8" height="8" fill="#111827" /><rect x="512" y="144" width="8" height="8" fill="#111827" /><rect x="24" y="152" width="8" height="8" fill="#111827" /><rect x="144" y="152" width="8" height="8" fill="#111827" /><rect x="192" y="152" width="8" height="8" fill="#111827" /><rect x="216" y="152" width="8" height="8" fill="#111827" /><rect x="240" y="152" width="8" height="8" fill="#111827" /><rect x="288" y="152" width="8" height="8" fill="#111827" /><rect x="424" y="152" width="8" height="8" fill="#111827" /><rect x="448" y="152" width="8" height="8" fill="#111827" /><rect x="464" y="152" width="8" height="8" fill="#111827" /><rect x="504" y="152" width="8" height="8" fill="#111827" /><rect x="520" y="152" width="8" height="8" fill="#111827" /><rect x="16" y="160" width="8" height="8" fill="#111827" /><rect x="56" y="160" width="8" height="8" fill="#111827" /><rect x="88" y="160" width="8" height="8" fill="#111827" /><rect x="104" y="160" width="8" height="8" fill="#111827" /><rect x="112" y="160" width="8" height="8" fill="#111827" /><rect x="136" y="160" width="8" height="8" fill="#111827" /><rect x="168" y="160" width="8" height="8" fill="#111827" /><rect x="208" y="160" width="8" height="8" fill="#111827" /><rect x="240" y="160" width="8" height="8" fill="#111827" /><rect x="248" y="160" width="8" height="8" fill="#111827" /><rect x="280" y="160" width="8" height="8" fill="#111827" /><rect x="288" y="160" width="8" height="8" fill="#111827" /><rect x="296" y="160" width="8" height="8" fill="#111827" /><rect x="352" y="160" width="8" height="8" fill="#111827" /><rect x="416" y="160" width="8" height="8" fill="#111827" /><rect x="424" y="160" width="8" height="8" fill="#111827" /><rect x="448" y="160" width="8" height="8" fill="#111827" /><rect x="88" y="168" width="8" height="8" fill="#111827" /><rect x="136" y="168" width="8" height="8" fill="#111827" /><rect x="144" y="168" width="8" height="8" fill="#111827" /><rect x="168" y="168" width="8" height="8" fill="#111827" /><rect x="184" y="168" width="8" height="8" fill="#111827" /><rect x="208" y="168" width="8" height="8" fill="#111827" /><rect x="232" y="168" width="8" height="8" fill="#111827" /><rect x="296" y="168" width="8" height="8" fill="#111827" /><rect x="304" y="168" width="8" height="8" fill="#111827" /><rect x="328" y="168" width="8" height="8" fill="#111827" /><rect x="352" y="168" width="8" height="8" fill="#111827" /><rect x="392" y="168" width="8" height="8" fill="#111827" /><rect x="408" y="168" width="8" height="8" fill="#111827" /><rect x="24" y="176" width="8" height="8" fill="#111827" /><rect x="56" y="176" width="8" height="8" fill="#111827" /><rect x="112" y="176" width="8" height="8" fill="#111827" /><rect x="128" y="176" width="8" height="8" fill="#111827" /><rect x="160" y="176" width="8" height="8" fill="#111827" /><rect x="280" y="176" width="8" height="8" fill="#111827" /><rect x="304" y="176" width="8" height="8" fill="#111827" /><rect x="328" y="176" width="8" height="8" fill="#111827" /><rect x="384" y="176" width="8" height="8" fill="#111827" /><rect x="416" y="176" width="8" height="8" fill="#111827" /><rect x="456" y="176" width="8" height="8" fill="#111827" /><rect x="96" y="184" width="8" height="8" fill="#111827" /><rect x="112" y="184" width="8" height="8" fill="#111827" /><rect x="152" y="184" width="8" height="8" fill="#111827" /><rect x="224" y="184" width="8" height="8" fill="#111827" /><rect x="232" y="184" width="8" height="8" fill="#111827" /><rect x="280" y="184" width="8" height="8" fill="#111827" /><rect x="328" y="184" width="8" height="8" fill="#111827" /><rect x="376" y="184" width="8" height="8" fill="#111827" /><rect x="408" y="184" width="8" height="8" fill="#111827" /><rect x="416" y="184" width="8" height="8" fill="#111827" /><rect x="432" y="184" width="8" height="8" fill="#111827" /><rect x="448" y="184" width="8" height="8" fill="#111827" /><rect x="48" y="192" width="8" height="8" fill="#111827" /><rect x="120" y="192" width="8" height="8" fill="#111827" /><rect x="136" y="192" width="8" height="8" fill="#111827" /><rect x="176" y="192" width="8" height="8" fill="#111827" /><rect x="208" y="192" width="8" height="8" fill="#111827" /><rect x="304" y="192" width="8" height="8" fill="#111827" /><rect x="344" y="192" width="8" height="8" fill="#111827" /><rect x="352" y="192" width="8" height="8" fill="#111827" /><rect x="24" y="200" width="8" height="8" fill="#111827" /><rect x="48" y="200" width="8" height="8" fill="#111827" /><rect x="56" y="200" width="8" height="8" fill="#111827" /><rect x="96" y="200" width="8" height="8" fill="#111827" /><rect x="136" y="200" width="8" height="8" fill="#111827" /><rect x="152" y="200" width="8" height="8" fill="#111827" /><rect x="200" y="200" width="8" height="8" fill="#111827" /><rect x="224" y="200" width="8" height="8" fill="#111827" /><rect x="232" y="200" width="8" height="8" fill="#111827" /><rect x="240" y="200" width="8" height="8" fill="#111827" /><rect x="304" y="200" width="8" height="8" fill="#111827" /><rect x="328" y="200" width="8" height="8" fill="#111827" /><rect x="336" y="200" width="8" height="8" fill="#111827" /><rect x="440" y="200" width="8" height="8" fill="#111827" /><rect x="448" y="200" width="8" height="8" fill="#111827" /><rect x="464" y="200" width="8" height="8" fill="#111827" /><rect x="504" y="200" width="8" height="8" fill="#111827" /><rect x="512" y="200" width="8" height="8" fill="#111827" /><rect x="32" y="208" width="8" height="8" fill="#111827" /><rect x="48" y="208" width="8" height="8" fill="#111827" /><rect x="104" y="208" width="8" height="8" fill="#111827" /><rect x="112" y="208" width="8" height="8" fill="#111827" /><rect x="144" y="208" width="8" height="8" fill="#111827" /><rect x="168" y="208" width="8" height="8" fill="#111827" /><rect x="280" y="208" width="8" height="8" fill="#111827" /><rect x="320" y="208" width="8" height="8" fill="#111827" /><rect x="464" y="208" width="8" height="8" fill="#111827" /><rect x="504" y="208" width="8" height="8" fill="#111827" /><rect x="16" y="216" width="8" height="8" fill="#111827" /><rect x="32" y="216" width="8" height="8" fill="#111827" /><rect x="88" y="216" width="8" height="8" fill="#111827" /><rect x="96" y="216" width="8" height="8" fill="#111827" /><rect x="104" y="216" width="8" height="8" fill="#111827" /><rect x="128" y="216" width="8" height="8" fill="#111827" /><rect x="136" y="216" width="8" height="8" fill="#111827" /><rect x="152" y="216" width="8" height="8" fill="#111827" /><rect x="224" y="216" width="8" height="8" fill="#111827" /><rect x="280" y="216" width="8" height="8" fill="#111827" /><rect x="312" y="216" width="8" height="8" fill="#111827" /><rect x="336" y="216" width="8" height="8" fill="#111827" /><rect x="392" y="216" width="8" height="8" fill="#111827" /><rect x="400" y="216" width="8" height="8" fill="#111827" /><rect x="424" y="216" width="8" height="8" fill="#111827" /><rect x="448" y="216" width="8" height="8" fill="#111827" /><rect x="488" y="216" width="8" height="8" fill="#111827" /><rect x="24" y="224" width="8" height="8" fill="#111827" /><rect x="56" y="224" width="8" height="8" fill="#111827" /><rect x="88" y="224" width="8" height="8" fill="#111827" /><rect x="104" y="224" width="8" height="8" fill="#111827" /><rect x="120" y="224" width="8" height="8" fill="#111827" /><rect x="168" y="224" width="8" height="8" fill="#111827" /><rect x="208" y="224" width="8" height="8" fill="#111827" /><rect x="216" y="224" width="8" height="8" fill="#111827" /><rect x="224" y="224" width="8" height="8" fill="#111827" /><rect x="232" y="224" width="8" height="8" fill="#111827" /><rect x="280" y="224" width="8" height="8" fill="#111827" /><rect x="424" y="224" width="8" height="8" fill="#111827" /><rect x="440" y="224" width="8" height="8" fill="#111827" /><rect x="448" y="224" width="8" height="8" fill="#111827" /><rect x="456" y="224" width="8" height="8" fill="#111827" /><rect x="72" y="232" width="8" height="8" fill="#111827" /><rect x="104" y="232" width="8" height="8" fill="#111827" /><rect x="112" y="232" width="8" height="8" fill="#111827" /><rect x="184" y="232" width="8" height="8" fill="#111827" /><rect x="192" y="232" width="8" height="8" fill="#111827" /><rect x="208" y="232" width="8" height="8" fill="#111827" /><rect x="296" y="232" width="8" height="8" fill="#111827" /><rect x="304" y="232" width="8" height="8" fill="#111827" /><rect x="408" y="232" width="8" height="8" fill="#111827" /><rect x="480" y="232" width="8" height="8" fill="#111827" /><rect x="16" y="240" width="8" height="8" fill="#111827" /><rect x="96" y="240" width="8" height="8" fill="#111827" /><rect x="128" y="240" width="8" height="8" fill="#111827" /><rect x="192" y="240" width="8" height="8" fill="#111827" /><rect x="216" y="240" width="8" height="8" fill="#111827" /><rect x="288" y="240" width="8" height="8" fill="#111827" /><rect x="304" y="240" width="8" height="8" fill="#111827" /><rect x="336" y="240" width="8" height="8" fill="#111827" /><rect x="384" y="240" width="8" height="8" fill="#111827" /><rect x="416" y="240" width="8" height="8" fill="#111827" /><rect x="464" y="240" width="8" height="8" fill="#111827" /><rect x="472" y="240" width="8" height="8" fill="#111827" /><rect x="16" y="248" width="8" height="8" fill="#111827" /><rect x="24" y="248" width="8" height="8" fill="#111827" /><rect x="40" y="248" width="8" height="8" fill="#111827" /><rect x="56" y="248" width="8" height="8" fill="#111827" /><rect x="88" y="248" width="8" height="8" fill="#111827" /><rect x="96" y="248" width="8" height="8" fill="#111827" /><rect x="168" y="248" width="8" height="8" fill="#111827" /><rect x="216" y="248" width="8" height="8" fill="#111827" /><rect x="240" y="248" width="8" height="8" fill="#111827" /><rect x="280" y="248" width="8" height="8" fill="#111827" /><rect x="288" y="248" width="8" height="8" fill="#111827" /><rect x="328" y="248" width="8" height="8" fill="#111827" /><rect x="384" y="248" width="8" height="8" fill="#111827" /><rect x="408" y="248" width="8" height="8" fill="#111827" /><rect x="424" y="248" width="8" height="8" fill="#111827" /><rect x="432" y="248" width="8" height="8" fill="#111827" /><rect x="440" y="248" width="8" height="8" fill="#111827" /><rect x="448" y="248" width="8" height="8" fill="#111827" /><rect x="456" y="248" width="8" height="8" fill="#111827" /><rect x="480" y="248" width="8" height="8" fill="#111827" /><rect x="160" y="256" width="8" height="8" fill="#111827" /><rect x="176" y="256" width="8" height="8" fill="#111827" /><rect x="200" y="256" width="8" height="8" fill="#111827" /><rect x="208" y="256" width="8" height="8" fill="#111827" /><rect x="304" y="256" width="8" height="8" fill="#111827" /><rect x="336" y="256" width="8" height="8" fill="#111827" /><rect x="384" y="256" width="8" height="8" fill="#111827" /><rect x="408" y="256" width="8" height="8" fill="#111827" /><rect x="416" y="256" width="8" height="8" fill="#111827" /><rect x="448" y="256" width="8" height="8" fill="#111827" /><rect x="96" y="264" width="8" height="8" fill="#111827" /><rect x="128" y="264" width="8" height="8" fill="#111827" /><rect x="136" y="264" width="8" height="8" fill="#111827" /><rect x="176" y="264" width="8" height="8" fill="#111827" /><rect x="184" y="264" width="8" height="8" fill="#111827" /><rect x="208" y="264" width="8" height="8" fill="#111827" /><rect x="448" y="264" width="8" height="8" fill="#111827" /><rect x="24" y="272" width="8" height="8" fill="#111827" /><rect x="168" y="272" width="8" height="8" fill="#111827" /><rect x="232" y="272" width="8" height="8" fill="#111827" /><rect x="296" y="272" width="8" height="8" fill="#111827" /><rect x="328" y="272" width="8" height="8" fill="#111827" /><rect x="16" y="280" width="8" height="8" fill="#111827" /><rect x="24" y="280" width="8" height="8" fill="#111827" /><rect x="32" y="280" width="8" height="8" fill="#111827" /><rect x="128" y="280" width="8" height="8" fill="#111827" /><rect x="208" y="280" width="8" height="8" fill="#111827" /><rect x="296" y="280" width="8" height="8" fill="#111827" /><rect x="384" y="280" width="8" height="8" fill="#111827" /><rect x="88" y="288" width="8" height="8" fill="#111827" /><rect x="160" y="288" width="8" height="8" fill="#111827" /><rect x="448" y="288" width="8" height="8" fill="#111827" /><rect x="456" y="288" width="8" height="8" fill="#111827" /><rect x="24" y="296" width="8" height="8" fill="#111827" /><rect x="40" y="296" width="8" height="8" fill="#111827" /><rect x="152" y="296" width="8" height="8" fill="#111827" /><rect x="168" y="296" width="8" height="8" fill="#111827" /><rect x="208" y="296" width="8" height="8" fill="#111827" /><rect x="288" y="296" width="8" height="8" fill="#111827" /><rect x="304" y="296" width="8" height="8" fill="#111827" /><rect x="384" y="296" width="8" height="8" fill="#111827" /><rect x="416" y="296" width="8" height="8" fill="#111827" /><rect x="440" y="296" width="8" height="8" fill="#111827" /><rect x="480" y="296" width="8" height="8" fill="#111827" /><rect x="496" y="296" width="8" height="8" fill="#111827" /><rect x="16" y="304" width="8" height="8" fill="#111827" /><rect x="24" y="304" width="8" height="8" fill="#111827" /><rect x="32" y="304" width="8" height="8" fill="#111827" /><rect x="56" y="304" width="8" height="8" fill="#111827" /><rect x="96" y="304" width="8" height="8" fill="#111827" /><rect x="264" y="304" width="8" height="8" fill="#111827" /><rect x="304" y="304" width="8" height="8" fill="#111827" /><rect x="328" y="304" width="8" height="8" fill="#111827" /><rect x="408" y="304" width="8" height="8" fill="#111827" /><rect x="16" y="312" width="8" height="8" fill="#111827" /><rect x="40" y="312" width="8" height="8" fill="#111827" /><rect x="80" y="312" width="8" height="8" fill="#111827" /><rect x="120" y="312" width="8" height="8" fill="#111827" /><rect x="152" y="312" width="8" height="8" fill="#111827" /><rect x="240" y="312" width="8" height="8" fill="#111827" /><rect x="456" y="312" width="8" height="8" fill="#111827" /><rect x="464" y="312" width="8" height="8" fill="#111827" /><rect x="472" y="312" width="8" height="8" fill="#111827" /><rect x="32" y="320" width="8" height="8" fill="#111827" /><rect x="72" y="320" width="8" height="8" fill="#111827" /><rect x="88" y="320" width="8" height="8" fill="#111827" /><rect x="128" y="320" width="8" height="8" fill="#111827" /><rect x="264" y="320" width="8" height="8" fill="#111827" /><rect x="328" y="320" width="8" height="8" fill="#111827" /><rect x="408" y="320" width="8" height="8" fill="#111827" /><rect x="48" y="328" width="8" height="8" fill="#111827" /><rect x="72" y="328" width="8" height="8" fill="#111827" /><rect x="128" y="328" width="8" height="8" fill="#111827" /><rect x="200" y="328" width="8" height="8" fill="#111827" /><rect x="208" y="328" width="8" height="8" fill="#111827" /><rect x="248" y="328" width="8" height="8" fill="#111827" /><rect x="304" y="328" width="8" height="8" fill="#111827" /><rect x="336" y="328" width="8" height="8" fill="#111827" /><rect x="528" y="328" width="8" height="8" fill="#111827" /><rect x="88" y="336" width="8" height="8" fill="#111827" /><rect x="120" y="336" width="8" height="8" fill="#111827" /><rect x="256" y="336" width="8" height="8" fill="#111827" /><rect x="272" y="336" width="8" height="8" fill="#111827" /><rect x="352" y="336" width="8" height="8" fill="#111827" /><rect x="384" y="336" width="8" height="8" fill="#111827" /><rect x="464" y="336" width="8" height="8" fill="#111827" /><rect x="472" y="336" width="8" height="8" fill="#111827" /><rect x="528" y="336" width="8" height="8" fill="#111827" /><rect x="40" y="344" width="8" height="8" fill="#111827" /><rect x="96" y="344" width="8" height="8" fill="#111827" /><rect x="336" y="344" width="8" height="8" fill="#111827" /><rect x="344" y="344" width="8" height="8" fill="#111827" /><rect x="480" y="344" width="8" height="8" fill="#111827" /><rect x="32" y="352" width="8" height="8" fill="#111827" /><rect x="256" y="352" width="8" height="8" fill="#111827" /><rect x="304" y="352" width="8" height="8" fill="#111827" /><rect x="408" y="352" width="8" height="8" fill="#111827" /><rect x="472" y="352" width="8" height="8" fill="#111827" /><rect x="96" y="360" width="8" height="8" fill="#111827" /><rect x="264" y="360" width="8" height="8" fill="#111827" /><rect x="312" y="360" width="8" height="8" fill="#111827" /><rect x="472" y="360" width="8" height="8" fill="#111827" /><rect x="480" y="360" width="8" height="8" fill="#111827" /><rect x="32" y="368" width="8" height="8" fill="#111827" /><rect x="40" y="368" width="8" height="8" fill="#111827" /><rect x="88" y="368" width="8" height="8" fill="#111827" /><rect x="96" y="368" width="8" height="8" fill="#111827" /><rect x="104" y="368" width="8" height="8" fill="#111827" /><rect x="112" y="368" width="8" height="8" fill="#111827" /><rect x="256" y="368" width="8" height="8" fill="#111827" /><rect x="336" y="368" width="8" height="8" fill="#111827" /><rect x="344" y="368" width="8" height="8" fill="#111827" /><rect x="456" y="368" width="8" height="8" fill="#111827" /><rect x="40" y="376" width="8" height="8" fill="#111827" /><rect x="264" y="376" width="8" height="8" fill="#111827" /><rect x="272" y="376" width="8" height="8" fill="#111827" /><rect x="336" y="376" width="8" height="8" fill="#111827" /><rect x="352" y="376" width="8" height="8" fill="#111827" /><rect x="520" y="376" width="8" height="8" fill="#111827" /><rect x="40" y="384" width="8" height="8" fill="#111827" /><rect x="80" y="384" width="8" height="8" fill="#111827" /><rect x="248" y="384" width="8" height="8" fill="#111827" /><rect x="272" y="384" width="8" height="8" fill="#111827" /><rect x="336" y="384" width="8" height="8" fill="#111827" /><rect x="344" y="384" width="8" height="8" fill="#111827" /><rect x="352" y="384" width="8" height="8" fill="#111827" /><rect x="480" y="384" width="8" height="8" fill="#111827" /><rect x="512" y="384" width="8" height="8" fill="#111827" /><rect x="520" y="384" width="8" height="8" fill="#111827" /><rect x="528" y="384" width="8" height="8" fill="#111827" /><rect x="40" y="392" width="8" height="8" fill="#111827" /><rect x="72" y="392" width="8" height="8" fill="#111827" /><rect x="272" y="392" width="8" height="8" fill="#111827" /><rect x="320" y="392" width="8" height="8" fill="#111827" /><rect x="520" y="392" width="8" height="8" fill="#111827" /><rect x="80" y="400" width="8" height="8" fill="#111827" /><rect x="112" y="400" width="8" height="8" fill="#111827" /><rect x="312" y="400" width="8" height="8" fill="#111827" /><rect x="320" y="400" width="8" height="8" fill="#111827" /><rect x="344" y="400" width="8" height="8" fill="#111827" /><rect x="368" y="400" width="8" height="8" fill="#111827" /><rect x="392" y="400" width="8" height="8" fill="#111827" /><rect x="432" y="400" width="8" height="8" fill="#111827" /><rect x="472" y="400" width="8" height="8" fill="#111827" /><rect x="512" y="400" width="8" height="8" fill="#111827" /><rect x="224" y="408" width="8" height="8" fill="#111827" /><rect x="256" y="408" width="8" height="8" fill="#111827" /><rect x="344" y="408" width="8" height="8" fill="#111827" /><rect x="392" y="408" width="8" height="8" fill="#111827" /><rect x="400" y="408" width="8" height="8" fill="#111827" /><rect x="504" y="408" width="8" height="8" fill="#111827" /><rect x="520" y="408" width="8" height="8" fill="#111827" /><rect x="528" y="408" width="8" height="8" fill="#111827" /><rect x="32" y="416" width="8" height="8" fill="#111827" /><rect x="40" y="416" width="8" height="8" fill="#111827" /><rect x="72" y="416" width="8" height="8" fill="#111827" /><rect x="104" y="416" width="8" height="8" fill="#111827" /><rect x="216" y="416" width="8" height="8" fill="#111827" /><rect x="224" y="416" width="8" height="8" fill="#111827" /><rect x="248" y="416" width="8" height="8" fill="#111827" /><rect x="256" y="416" width="8" height="8" fill="#111827" /><rect x="264" y="416" width="8" height="8" fill="#111827" /><rect x="320" y="416" width="8" height="8" fill="#111827" /><rect x="344" y="416" width="8" height="8" fill="#111827" /><rect x="432" y="416" width="8" height="8" fill="#111827" /><rect x="472" y="416" width="8" height="8" fill="#111827" /><rect x="520" y="416" width="8" height="8" fill="#111827" /><rect x="80" y="424" width="8" height="8" fill="#111827" /><rect x="104" y="424" width="8" height="8" fill="#111827" /><rect x="192" y="424" width="8" height="8" fill="#111827" /><rect x="216" y="424" width="8" height="8" fill="#111827" /><rect x="312" y="424" width="8" height="8" fill="#111827" /><rect x="512" y="424" width="8" height="8" fill="#111827" /><rect x="528" y="424" width="8" height="8" fill="#111827" /><rect x="112" y="432" width="8" height="8" fill="#111827" /><rect x="144" y="432" width="8" height="8" fill="#111827" /><rect x="392" y="432" width="8" height="8" fill="#111827" /><rect x="472" y="432" width="8" height="8" fill="#111827" /><rect x="504" y="432" width="8" height="8" fill="#111827" /><rect x="520" y="432" width="8" height="8" fill="#111827" /><rect x="192" y="440" width="8" height="8" fill="#111827" /><rect x="224" y="440" width="8" height="8" fill="#111827" /><rect x="256" y="440" width="8" height="8" fill="#111827" /><rect x="272" y="440" width="8" height="8" fill="#111827" /><rect x="400" y="440" width="8" height="8" fill="#111827" /><rect x="472" y="440" width="8" height="8" fill="#111827" /><rect x="480" y="440" width="8" height="8" fill="#111827" /><rect x="176" y="448" width="8" height="8" fill="#111827" /><rect x="184" y="448" width="8" height="8" fill="#111827" /><rect x="272" y="448" width="8" height="8" fill="#111827" /><rect x="320" y="448" width="8" height="8" fill="#111827" /><rect x="352" y="448" width="8" height="8" fill="#111827" /><rect x="392" y="448" width="8" height="8" fill="#111827" /><rect x="472" y="448" width="8" height="8" fill="#111827" /><rect x="104" y="456" width="8" height="8" fill="#111827" /><rect x="152" y="456" width="8" height="8" fill="#111827" /><rect x="168" y="456" width="8" height="8" fill="#111827" /><rect x="192" y="456" width="8" height="8" fill="#111827" /><rect x="248" y="456" width="8" height="8" fill="#111827" /><rect x="264" y="456" width="8" height="8" fill="#111827" /><rect x="320" y="456" width="8" height="8" fill="#111827" /><rect x="392" y="456" width="8" height="8" fill="#111827" /><rect x="432" y="456" width="8" height="8" fill="#111827" /><rect x="448" y="456" width="8" height="8" fill="#111827" /><rect x="472" y="456" width="8" height="8" fill="#111827" /><rect x="512" y="456" width="8" height="8" fill="#111827" /><rect x="528" y="456" width="8" height="8" fill="#111827" /><rect x="80" y="464" width="8" height="8" fill="#111827" /><rect x="104" y="464" width="8" height="8" fill="#111827" /><rect x="112" y="464" width="8" height="8" fill="#111827" /><rect x="152" y="464" width="8" height="8" fill="#111827" /><rect x="184" y="464" width="8" height="8" fill="#111827" /><rect x="248" y="464" width="8" height="8" fill="#111827" /><rect x="520" y="464" width="8" height="8" fill="#111827" /><rect x="136" y="472" width="8" height="8" fill="#111827" /><rect x="160" y="472" width="8" height="8" fill="#111827" /><rect x="184" y="472" width="8" height="8" fill="#111827" /><rect x="200" y="472" width="8" height="8" fill="#111827" /><rect x="344" y="472" width="8" height="8" fill="#111827" /><rect x="392" y="472" width="8" height="8" fill="#111827" /><rect x="400" y="472" width="8" height="8" fill="#111827" /><rect x="512" y="472" width="8" height="8" fill="#111827" /><rect x="120" y="480" width="8" height="8" fill="#111827" /><rect x="144" y="480" width="8" height="8" fill="#111827" /><rect x="168" y="480" width="8" height="8" fill="#111827" /><rect x="176" y="480" width="8" height="8" fill="#111827" /><rect x="208" y="480" width="8" height="8" fill="#111827" /><rect x="216" y="480" width="8" height="8" fill="#111827" /><rect x="320" y="480" width="8" height="8" fill="#111827" /><rect x="360" y="480" width="8" height="8" fill="#111827" /><rect x="392" y="480" width="8" height="8" fill="#111827" /><rect x="448" y="480" width="8" height="8" fill="#111827" /><rect x="144" y="488" width="8" height="8" fill="#111827" /><rect x="152" y="488" width="8" height="8" fill="#111827" /><rect x="208" y="488" width="8" height="8" fill="#111827" /><rect x="224" y="488" width="8" height="8" fill="#111827" /><rect x="312" y="488" width="8" height="8" fill="#111827" /><rect x="344" y="488" width="8" height="8" fill="#111827" /><rect x="360" y="488" width="8" height="8" fill="#111827" /><rect x="368" y="488" width="8" height="8" fill="#111827" /><rect x="408" y="488" width="8" height="8" fill="#111827" /><rect x="440" y="488" width="8" height="8" fill="#111827" /><rect x="448" y="488" width="8" height="8" fill="#111827" /><rect x="520" y="488" width="8" height="8" fill="#111827" /><rect x="112" y="496" width="8" height="8" fill="#111827" /><rect x="120" y="496" width="8" height="8" fill="#111827" /><rect x="160" y="496" width="8" height="8" fill="#111827" /><rect x="168" y="496" width="8" height="8" fill="#111827" /><rect x="224" y="496" width="8" height="8" fill="#111827" /><rect x="232" y="496" width="8" height="8" fill="#111827" /><rect x="240" y="496" width="8" height="8" fill="#111827" /><rect x="320" y="496" width="8" height="8" fill="#111827" /><rect x="360" y="496" width="8" height="8" fill="#111827" /><rect x="448" y="496" width="8" height="8" fill="#111827" /><rect x="512" y="496" width="8" height="8" fill="#111827" /><rect x="120" y="504" width="8" height="8" fill="#111827" /><rect x="152" y="504" width="8" height="8" fill="#111827" /><rect x="168" y="504" width="8" height="8" fill="#111827" /><rect x="200" y="504" width="8" height="8" fill="#111827" /><rect x="264" y="504" width="8" height="8" fill="#111827" /><rect x="416" y="504" width="8" height="8" fill="#111827" /><rect x="432" y="504" width="8" height="8" fill="#111827" /><rect x="440" y="504" width="8" height="8" fill="#111827" /><rect x="448" y="504" width="8" height="8" fill="#111827" /><rect x="488" y="504" width="8" height="8" fill="#111827" /><rect x="504" y="504" width="8" height="8" fill="#111827" /><rect x="120" y="512" width="8" height="8" fill="#111827" /><rect x="184" y="512" width="8" height="8" fill="#111827" /><rect x="232" y="512" width="8" height="8" fill="#111827" /><rect x="248" y="512" width="8" height="8" fill="#111827" /><rect x="296" y="512" width="8" height="8" fill="#111827" /><rect x="360" y="512" width="8" height="8" fill="#111827" /><rect x="368" y="512" width="8" height="8" fill="#111827" /><rect x="408" y="512" width="8" height="8" fill="#111827" /><rect x="512" y="512" width="8" height="8" fill="#111827" /><rect x="104" y="520" width="8" height="8" fill="#111827" /><rect x="144" y="520" width="8" height="8" fill="#111827" /><rect x="232" y="520" width="8" height="8" fill="#111827" /><rect x="256" y="520" width="8" height="8" fill="#111827" /><rect x="312" y="520" width="8" height="8" fill="#111827" /><rect x="320" y="520" width="8" height="8" fill="#111827" /><rect x="328" y="520" width="8" height="8" fill="#111827" /><rect x="392" y="520" width="8" height="8" fill="#111827" /><rect x="416" y="520" width="8" height="8" fill="#111827" /><rect x="424" y="520" width="8" height="8" fill="#111827" /><rect x="448" y="520" width="8" height="8" fill="#111827" /><rect x="496" y="520" width="8" height="8" fill="#111827" /><rect x="528" y="520" width="8" height="8" fill="#111827" /><rect x="96" y="528" width="8" height="8" fill="#111827" /><rect x="160" y="528" width="8" height="8" fill="#111827" /><rect x="216" y="528" width="8" height="8" fill="#111827" /><rect x="232" y="528" width="8" height="8" fill="#111827" /><rect x="248" y="528" width="8" height="8" fill="#111827" /><rect x="312" y="528" width="8" height="8" fill="#111827" /><rect x="344" y="528" width="8" height="8" fill="#111827" /><rect x="360" y="528" width="8" height="8" fill="#111827" /><rect x="392" y="528" width="8" height="8" fill="#111827" /><rect x="416" y="528" width="8" height="8" fill="#111827" /><rect x="432" y="528" width="8" height="8" fill="#111827" /></svg>