<svg xmlns="http://www.w3.org/2000/svg" width="552" height="552" viewBox="0 0 552 552" shape-rendering="crispEdges"><rect x="248" y="16" width="8" height="8" fill="#111827" /><rect x="320" y="16" width="8" height="8" fill="#111827" /><rect x="248" y="24" width="8" height="8" fill="#111827" /><rect x="320" y="24" width="8" height="8" fill="#111827" /><rect x="272" y="32" width="8" height="8" fill="#111827" /><rect x="280" y="32" width="8" height="8" fill="#111827" /><rect x="352" y="32" width="8" height="8" fill="#111827" /><rect x="360" y="32" width="8" height="8" fill="#111827" /><rect x="392" y="32" width="8" height="8" fill="#111827" /><rect x="400" y="32" width="8" height="8" fill="#111827" /><rect x="432" y="32" width="8" height="8" fill="#111827" /><rect x="144" y="40" width="8" height="8" fill="#111827" /><rect x="280" y="40" width="8" height="8" fill="#111827" /><rect x="288" y="40" width="8" height="8" fill="#111827" /><rect x="352" y="40" width="8" height="8" fill="#111827" /><rect x="368" y="40" width="8" height="8" fill="#111827" /><rect x="392" y="40" width="8" height="8" fill="#111827" /><rect x="432" y="40" width="8" height="8" fill="#111827" /><rect x="112" y="48" width="8" height="8" fill="#111827" /><rect x="216" y="48" width="8" height="8" fill="#111827" /><rect x="320" y="48" width="8" height="8" fill="#111827" /><rect x="352" y="48" width="8" height="8" fill="#111827" /><rect x="360" y="48" width="8" height="8" fill="#111827" /><rect x="312" y="56" width="8" height="8" fill="#111827" /><rect x="104" y="72" width="8" height="8" fill="#111827" /><rect x="424" y="72" width="8" height="8" fill="#111827" /><rect x="104" y="80" width="8" height="8" fill="#111827" /><rect x="176" y="80" width="8" height="8" fill="#111827" /><rect x="248" y="80" width="8" height="8" fill="#111827" /><rect x="352" y="80" width="8" height="8" fill="#111827" /><rect x="424" y="80" width="8" height="8" fill="#111827" /><rect x="136" y="88" width="8" height="8" fill="#111827" /><rect x="192" y="88" width="8" height="8" fill="#111827" /><rect x="224" y="88" width="8" height="8" fill="#111827" /><rect x="248" y="88" width="8" height="8" fill="#111827" /><rect x="264" y="88" width="8" height="8" fill="#111827" /><rect x="272" y="88" width="8" height="8" fill="#111827" /><rect x="288" y="88" width="8" height="8" fill="#111827" /><rect x="312" y="88" width="8" height="8" fill="#111827" /><rect x="344" y="88" width="8" height="8" fill="#111827" /><rect x="424" y="88" width="8" height="8" fill="#111827" /><rect x="472" y="88" width="8" height="8" fill="#111827" /><rect x="504" y="88" width="8" height="8" fill="#111827" /><rect x="520" y="88" width="8" height="8" fill="#111827" /><rect x="16" y="96" width="8" height="8" fill="#111827" /><rect x="48" y="96" width="8" height="8" fill="#111827" /><rect x="72" y="96" width="8" height="8" fill="#111827" /><rect x="104" y="96" width="8" height="8" fill="#111827" /><rect x="136" y="96" width="8" height="8" fill="#111827" /><rect x="176" y="96" width="8" height="8" fill="#111827" /><rect x="192" y="96" width="8" height="8" fill="#111827" /><rect x="248" y="96" width="8" height="8" fill="#111827" /><rect x="272" y="96" width="8" height="8" fill="#111827" /><rect x="280" y="96" width="8" height="8" fill="#111827" /><rect x="288" y="96" width="8" height="8" fill="#111827" /><rect x="320" y="96" width="8" height="8" fill="#111827" /><rect x="424" y="96" width="8" height="8" fill="#111827" /><rect x="472" y="96" width="8" height="8" fill="#111827" /><rect x="480" y="96" width="8" height="8" fill="#111827" /><rect x="504" y="96" width="8" height="8" fill="#111827" /><rect x="512" y="96" width="8" height="8" fill="#111827" /><rect x="56" y="104" width="8" height="8" fill="#111827" /><rect x="136" y="104" width="8" height="8" fill="#111827" /><rect x="224" y="104" width="8" height="8" fill="#111827" /><rect x="352" y="104" width="8" height="8" fill="#111827" /><rect x="424" y="104" width="8" height="8" fill="#111827" /><rect x="440" y="104" width="8" height="8" fill="#111827" /><rect x="520" y="104" width="8" height="8" fill="#111827" /><rect x="528" y="104" width="8" height="8" fill="#111827" /><rect x="24" y="112" width="8" height="8" fill="#111827" /><rect x="56" y="112" width="8" height="8" fill="#111827" /><rect x="104" y="112" width="8" height="8" fill="#111827" /><rect x="160" y="112" width="8" height="8" fill="#111827" /><rect x="176" y="112" width="8" height="8" fill="#111827" /><rect x="248" y="112" width="8" height="8" fill="#111827" /><rect x="264" y="112" width="8" height="8" fill="#111827" /><rect x="352" y="112" width="8" height="8" fill="#111827" /><rect x="424" y="112" width="8" height="8" fill="#111827" /><rect x="448" y="112" width="8" height="8" fill="#111827" /><rect x="512" y="112" width="8" height="8" fill="#111827" /><rect x="16" y="120" width="8" height="8" fill="#111827" /><rect x="136" y="120" width="8" height="8" fill="#111827" /><rect x="144" y="120" width="8" height="8" fill="#111827" /><rect x="344" y="120" width="8" height="8" fill="#111827" /><rect x="424" y="120" width="8" height="8" fill="#111827" /><rect x="432" y="120" width="8" height="8" fill="#111827" /><rect x="504" y="120" width="8" height="8" fill="#111827" /><rect x="128" y="128" width="8" height="8" fill="#111827" /><rect x="136" y="128" width="8" height="8" fill="#111827" /><rect x="152" y="128" width="8" height="8" fill="#111827" /><rect x="176" y="128" width="8" height="8" fill="#111827" /><rect x="184" y="128" width="8" height="8" fill="#111827" /><rect x="192" y="128" width="8" height="8" fill="#111827" /><rect x="208" y="128" width="8" height="8" fill="#111827" /><rect x="216" y="128" width="8" height="8" fill="#111827" /><rect x="256" y="128" width="8" height="8" fill="#111827" /><rect x="264" y="128" width="8" height="8" fill="#111827" /><rect x="288" y="128" width="8" height="8" fill="#111827" /><rect x="344" y="128" width="8" height="8" fill="#111827" /><rect x="448" y="128" width="8" height="8" fill="#111827" /><rect x="56" y="136" width="8" height="8" fill="#111827" /><rect x="104" y="136" width="8" height="8" fill="#111827" /><rect x="176" y="136" width="8" height="8" fill="#111827" /><rect x="192" y="136" width="8" height="8" fill="#111827" /><rect x="216" y="136" width="8" height="8" fill="#111827" /><rect x="256" y="136" width="8" height="8" fill="#111827" /><rect x="344" y="136" width="8" height="8" fill="#111827" /><rect x="352" y="136" width="8" height="8" fill="#111827" /><rect x="392" y="136" width="8" height="8" fill="#111827" /><rect x="408" y="136" width="8" height="8" fill="#111827" /><rect x="424" y="136" width="8" height="8" fill="#111827" /><rect x="528" y="136" width="8" height="8" fill="#111827" /><rect x="232" y="144" width="8" height="8" fill="#111827" /><rect x="248" y="144" width="8" height="8" fill="#111827" /><rect x="280" y="144" width="8" height="8" fill="#111827" /><rect x="288" y="144" width="8" height="8" fill="#111827" /><rect x="296" y="144" width="8" height="8" fill="#111827" /><rect x="320" y="144" width="8" height="8" fill="#111827" /><rect x="352" y="144" width="8" height="8" fill="#111827" /><rect x="416" y="144" width="8" height="8" fill="#111827" /><rect x="424" y="144" width="8" height="8" fill="#111827" /><rect x="456" y="144" width="8" height="8" fill="#111827" /><rect x="512" y="144" width="8" height="8" fill="#111827" /><rect x="528" y="144" width="8" height="8" fill="#111827" /><rect x="24" y="152" width="8" height="8" fill="#111827" /><rect x="136" y="152" width="8" height="8" fill="#111827" /><rect x="152" y="152" width="8" height="8" fill="#111827" /><rect x="184" y="152" width="8" height="8" fill="#111827" /><rect x="192" y="152" width="8" height="8" fill="#111827" /><rect x="224" y="152" width="8" height="8" fill="#111827" /><rect x="288" y="152" width="8" height="8" fill="#111827" /><rect x="344" y="152" width="8" height="8" fill="#111827" /><rect x="392" y="152" width="8" height="8" fill="#111827" /><rect x="432" y="152" width="8" height="8" fill="#111827" /><rect x="448" y="152" width="8" height="8" fill="#111827" /><rect x="504" y="152" width="8" height="8" fill="#111827" /><rect x="520" y="152" width="8" height="8" fill="#111827" /><rect x="528" y="152" width="8" height="8" fill="#111827" /><rect x="16" y="160" width="8" height="8" fill="#111827" /><rect x="96" y="160" width="8" height="8" fill="#111827" /><rect x="112" y="160" width="8" height="8" fill="#111827" /><rect x="120" y="160" width="8" height="8" fill="#111827" /><rect x="168" y="160" width="8" height="8" fill="#111827" /><rect x="176" y="160" width="8" height="8" fill="#111827" /><rect x="216" y="160" width="8" height="8" fill="#111827" /><rect x="232" y="160" width="8" height="8" fill="#111827" /><rect x="240" y="160" width="8" height="8" fill="#111827" /><rect x="280" y="160" width="8" height="8" fill="#111827" /><rect x="304" y="160" width="8" height="8" fill="#111827" /><rect x="344" y="160" width="8" height="8" fill="#111827" /><rect x="416" y="160" width="8" height="8" fill="#111827" /><rect x="424" y="160" width="8" height="8" fill="#111827" /><rect x="448" y="160" width="8" height="8" fill="#111827" /><rect x="456" y="160" width="8" height="8" fill="#111827" /><rect x="24" y="168" width="8" height="8" fill="#111827" /><rect x="48" y="168" width="8" height="8" fill="#111827" /><rect x="120" y="168" width="8" height="8" fill="#111827" /><rect x="136" y="168" width="8" height="8" fill="#111827" /><rect x="176" y="168" width="8" height="8" fill="#111827" /><rect x="216" y="168" width="8" height="8" fill="#111827" /><rect x="232" y="168" width="8" height="8" fill="#111827" /><rect x="256" y="168" width="8" height="8" fill="#111827" /><rect x="296" y="168" width="8" height="8" fill="#111827" /><rect x="352" y="168" width="8" height="8" fill="#111827" /><rect x="376" y="168" width="8" height="8" fill="#111827" /><rect x="384" y="168" width="8" height="8" fill="#111827" /><rect x="392" y="168" width="8" height="8" fill="#111827" /><rect x="424" y="168" width="8" height="8" fill="#111827" /><rect x="504" y="168" width="8" height="8" fill="#111827" /><rect x="48" y="176" width="8" height="8" fill="#111827" /><rect x="112" y="176" width="8" height="8" fill="#111827" /><rect x="160" y="176" width="8" height="8" fill="#111827" /><rect x="176" y="176" width="8" height="8" fill="#111827" /><rect x="248" y="176" width="8" height="8" fill="#111827" /><rect x="280" y="176" width="8" height="8" fill="#111827" /><rect x="304" y="176" width="8" height="8" fill="#111827" /><rect x="320" y="176" width="8" height="8" fill="#111827" /><rect x="344" y="176" width="8" height="8" fill="#111827" /><rect x="384" y="176" width="8" height="8" fill="#111827" /><rect x="392" y="176" width="8" height="8" fill="#111827" /><rect x="424" y="176" width="8" height="8" fill="#111827" /><rect x="464" y="176" width="8" height="8" fill="#111827" /><rect x="504" y="176" width="8" height="8" fill="#111827" /><rect x="512" y="176" width="8" height="8" fill="#111827" /><rect x="48" y="184" width="8" height="8" fill="#111827" /><rect x="96" y="184" width="8" height="8" fill="#111827" /><rect x="152" y="184" width="8" height="8" fill="#111827" /><rect x="184" y="184" width="8" height="8" fill="#111827" /><rect x="240" y="184" width="8" height="8" fill="#111827" /><rect x="288" y="184" width="8" height="8" fill="#111827" /><rect x="344" y="184" width="8" height="8" fill="#111827" /><rect x="352" y="184" width="8" height="8" fill="#111827" /><rect x="392" y="184" width="8" height="8" fill="#111827" /><rect x="416" y="184" width="8" height="8" fill="#111827" /><rect x="440" y="184" width="8" height="8" fill="#111827" /><rect x="448" y="184" width="8" height="8" fill="#111827" /><rect x="96" y="192" width="8" height="8" fill="#111827" /><rect x="144" y="192" width="8" height="8" fill="#111827" /><rect x="168" y="192" width="8" height="8" fill="#111827" /><rect x="176" y="192" width="8" height="8" fill="#111827" /><rect x="208" y="192" width="8" height="8" fill="#111827" /><rect x="216" y="192" width="8" height="8" fill="#111827" /><rect x="280" y="192" width="8" height="8" fill="#111827" /><rect x="328" y="192" width="8" height="8" fill="#111827" /><rect x="352" y="192" width="8" height="8" fill="#111827" /><rect x="384" y="192" width="8" height="8" fill="#111827" /><rect x="392" y="192" width="8" height="8" fill="#111827" /><rect x="456" y="192" width="8" height="8" fill="#111827" /><rect x="512" y="192" width="8" height="8" fill="#111827" /><rect x="16" y="200" width="8" height="8" fill="#111827" /><rect x="48" y="200" width="8" height="8" fill="#111827" /><rect x="88" y="200" width="8" height="8" fill="#111827" /><rect x="120" y="200" width="8" height="8" fill="#111827" /><rect x="136" y="200" width="8" height="8" fill="#111827" /><rect x="176" y="200" width="8" height="8" fill="#111827" /><rect x="192" y="200" width="8" height="8" fill="#111827" /><rect x="208" y="200" width="8" height="8" fill="#111827" /><rect x="216" y="200" width="8" height="8" fill="#111827" /><rect x="232" y="200" width="8" height="8" fill="#111827" /><rect x="240" y="200" width="8" height="8" fill="#111827" /><rect x="296" y="200" width="8" height="8" fill="#111827" /><rect x="304" y="200" width="8" height="8" fill="#111827" /><rect x="328" y="200" width="8" height="8" fill="#111827" /><rect x="392" y="200" width="8" height="8" fill="#111827" /><rect x="416" y="200" width="8" height="8" fill="#111827" /><rect x="448" y="200" width="8" height="8" fill="#111827" /><rect x="488" y="200" width="8" height="8" fill="#111827" /><rect x="504" y="200" width="8" height="8" fill="#111827" /><rect x="32" y="208" width="8" height="8" fill="#111827" /><rect x="40" y="208" width="8" height="8" fill="#111827" /><rect x="232" y="208" width="8" height="8" fill="#111827" /><rect x="296" y="208" width="8" height="8" fill="#111827" /><rect x="304" y="208" width="8" height="8" fill="#111827" /><rect x="328" y="208" width="8" height="8" fill="#111827" /><rect x="456" y="208" width="8" height="8" fill="#111827" /><rect x="464" y="208" width="8" height="8" fill="#111827" /><rect x="504" y="208" width="8" height="8" fill="#111827" /><rect x="512" y="208" width="8" height="8" fill="#111827" /><rect x="16" y="216" width="8" height="8" fill="#111827" /><rect x="24" y="216" width="8" height="8" fill="#111827" /><rect x="40" y="216" width="8" height="8" fill="#111827" /><rect x="48" y="216" width="8" height="8" fill="#111827" /><rect x="88" y="216" width="8" height="8" fill="#111827" /><rect x="104" y="216" width="8" height="8" fill="#111827" /><rect x="112" y="216" width="8" height="8" fill="#111827" /><rect x="136" y="216" width="8" height="8" fill="#111827" /><rect x="144" y="216" width="8" height="8" fill="#111827" /><rect x="152" y="216" width="8" height="8" fill="#111827" /><rect x="184" y="216" width="8" height="8" fill="#111827" /><rect x="216" y="216" width="8" height="8" fill="#111827" /><rect x="232" y="216" width="8" height="8" fill="#111827" /><rect x="240" y="216" width="8" height="8" fill="#111827" /><rect x="384" y="216" width="8" height="8" fill="#111827" /><rect x="392" y="216" width="8" height="8" fill="#111827" /><rect x="408" y="216" width="8" height="8" fill="#111827" /><rect x="448" y="216" width="8" height="8" fill="#111827" /><rect x="456" y="216" width="8" height="8" fill="#111827" /><rect x="496" y="216" width="8" height="8" fill="#111827" /><rect x="24" y="224" width="8" height="8" fill="#111827" /><rect x="120" y="224" width="8" height="8" fill="#111827" /><rect x="136" y="224" width="8" height="8" fill="#111827" /><rect x="144" y="224" width="8" height="8" fill="#111827" /><rect x="160" y="224" width="8" height="8" fill="#111827" /><rect x="176" y="224" width="8" height="8" fill="#111827" /><rect x="216" y="224" width="8" height="8" fill="#111827" /><rect x="232" y="224" width="8" height="8" fill="#111827" /><rect x="240" y="224" width="8" height="8" fill="#111827" /><rect x="296" y="224" width="8" height="8" fill="#111827" /><rect x="320" y="224" width="8" height="8" fill="#111827" /><rect x="424" y="224" width="8" height="8" fill="#111827" /><rect x="448" y="224" width="8" height="8" fill="#111827" /><rect x="456" y="224" width="8" height="8" fill="#111827" /><rect x="464" y="224" width="8" height="8" fill="#111827" /><rect x="488" y="224" width="8" height="8" fill="#111827" /><rect x="24" y="232" width="8" height="8" fill="#111827" /><rect x="40" y="232" width="8" height="8" fill="#111827" /><rect x="48" y="232" width="8" height="8" fill="#111827" /><rect x="88" y="232" width="8" height="8" fill="#111827" /><rect x="104" y="232" width="8" height="8" fill="#111827" /><rect x="112" y="232" width="8" height="8" fill="#111827" /><rect x="128" y="232" width="8" height="8" fill="#111827" /><rect x="168" y="232" width="8" height="8" fill="#111827" /><rect x="192" y="232" width="8" height="8" fill="#111827" /><rect x="232" y="232" width="8" height="8" fill="#111827" /><rect x="240" y="232" width="8" height="8" fill="#111827" /><rect x="296" y="232" width="8" height="8" fill="#111827" /><rect x="304" y="232" width="8" height="8" fill="#111827" /><rect x="328" y="232" width="8" height="8" fill="#111827" /><rect x="448" y="232" width="8" height="8" fill="#111827" /><rect x="480" y="232" width="8" height="8" fill="#111827" /><rect x="24" y="240" width="8" height="8" fill="#111827" /><rect x="40" y="240" width="8" height="8" fill="#111827" /><rect x="48" y="240" width="8" height="8" fill="#111827" /><rect x="72" y="240" width="8" height="8" fill="#111827" /><rect x="128" y="240" width="8" height="8" fill="#111827" /><rect x="232" y="240" width="8" height="8" fill="#111827" /><rect x="280" y="240" width="8" height="8" fill="#111827" /><rect x="304" y="240" width="8" height="8" fill="#111827" /><rect x="328" y="240" width="8" height="8" fill="#111827" /><rect x="456" y="240" width="8" height="8" fill="#111827" /><rect x="464" y="240" width="8" height="8" fill="#111827" /><rect x="472" y="240" width="8" height="8" fill="#111827" /><rect x="480" y="240" width="8" height="8" fill="#111827" /><rect x="40" y="248" width="8" height="8" fill="#111827" /><rect x="128" y="248" width="8" height="8" fill="#111827" /><rect x="152" y="248" width="8" height="8" fill="#111827" /><rect x="208" y="248" width="8" height="8" fill="#111827" /><rect x="216" y="248" width="8" height="8" fill="#111827" /><rect x="224" y="248" width="8" height="8" fill="#111827" /><rect x="288" y="248" width="8" height="8" fill="#111827" /><rect x="328" y="248" width="8" height="8" fill="#111827" /><rect x="384" y="248" width="8" height="8" fill="#111827" /><rect x="408" y="248" width="8" height="8" fill="#111827" /><rect x="424" y="248" width="8" height="8" fill="#111827" /><rect x="432" y="248" width="8" height="8" fill="#111827" /><rect x="448" y="248" width="8" height="8" fill="#111827" /><rect x="456" y="248" width="8" height="8" fill="#111827" /><rect x="480" y="248" width="8" height="8" fill="#111827" /><rect x="496" y="248" width="8" height="8" fill="#111827" /><rect x="24" y="256" width="8" height="8" fill="#111827" /><rect x="136" y="256" width="8" height="8" fill="#111827" /><rect x="200" y="256" width="8" height="8" fill="#111827" /><rect x="232" y="256" width="8" height="8" fill="#111827" /><rect x="240" y="256" width="8" height="8" fill="#111827" /><rect x="304" y="256" width="8" height="8" fill="#111827" /><rect x="328" y="256" width="8" height="8" fill="#111827" /><rect x="384" y="256" width="8" height="8" fill="#111827" /><rect x="408" y="256" width="8" height="8" fill="#111827" /><rect x="416" y="256" width="8" height="8" fill="#111827" /><rect x="448" y="256" width="8" height="8" fill="#111827" /><rect x="456" y="256" width="8" height="8" fill="#111827" /><rect x="16" y="264" width="8" height="8" fill="#111827" /><rect x="24" y="264" width="8" height="8" fill="#111827" /><rect x="120" y="264" width="8" height="8" fill="#111827" /><rect x="128" y="264" width="8" height="8" fill="#111827" /><rect x="144" y="264" width="8" height="8" fill="#111827" /><rect x="168" y="264" width="8" height="8" fill="#111827" /><rect x="184" y="264" width="8" height="8" fill="#111827" /><rect x="200" y="264" width="8" height="8" fill="#111827" /><rect x="208" y="264" width="8" height="8" fill="#111827" /><rect x="304" y="264" width="8" height="8" fill="#111827" /><rect x="408" y="264" width="8" height="8" fill="#111827" /><rect x="448" y="264" width="8" height="8" fill="#111827" /><rect x="456" y="264" width="8" height="8" fill="#111827" /><rect x="24" y="272" width="8" height="8" fill="#111827" /><rect x="32" y="272" width="8" height="8" fill="#111827" /><rect x="88" y="272" width="8" height="8" fill="#111827" /><rect x="232" y="272" width="8" height="8" fill="#111827" /><rect x="328" y="272" width="8" height="8" fill="#111827" /><rect x="416" y="272" width="8" height="8" fill="#111827" /><rect x="16" y="280" width="8" height="8" fill="#111827" /><rect x="32" y="280" width="8" height="8" fill="#111827" /><rect x="40" y="280" width="8" height="8" fill="#111827" /><rect x="128" y="280" width="8" height="8" fill="#111827" /><rect x="152" y="280" width="8" height="8" fill="#111827" /><rect x="184" y="280" width="8" height="8" fill="#111827" /><rect x="208" y="280" width="8" height="8" fill="#111827" /><rect x="240" y="280" width="8" height="8" fill="#111827" /><rect x="384" y="280" width="8" height="8" fill="#111827" /><rect x="448" y="280" width="8" height="8" fill="#111827" /><rect x="24" y="288" width="8" height="8" fill="#111827" /><rect x="240" y="288" width="8" height="8" fill="#111827" /><rect x="304" y="288" width="8" height="8" fill="#111827" /><rect x="328" y="288" width="8" height="8" fill="#111827" /><rect x="336" y="288" width="8" height="8" fill="#111827" /><rect x="384" y="288" width="8" height="8" fill="#111827" /><rect x="416" y="288" width="8" height="8" fill="#111827" /><rect x="448" y="288" width="8" height="8" fill="#111827" /><rect x="24" y="296" width="8" height="8" fill="#111827" /><rect x="48" y="296" width="8" height="8" fill="#111827" /><rect x="80" y="296" width="8" height="8" fill="#111827" /><rect x="168" y="296" width="8" height="8" fill="#111827" /><rect x="208" y="296" width="8" height="8" fill="#111827" /><rect x="296" y="296" width="8" height="8" fill="#111827" /><rect x="304" y="296" width="8" height="8" fill="#111827" /><rect x="384" y="296" width="8" height="8" fill="#111827" /><rect x="408" y="296" width="8" height="8" fill="#111827" /><rect x="448" y="296" width="8" height="8" fill="#111827" /><rect x="480" y="296" width="8" height="8" fill="#111827" /><rect x="488" y="296" width="8" height="8" fill="#111827" /><rect x="496" y="296" width="8" height="8" fill="#111827" /><rect x="40" y="304" width="8" height="8" fill="#111827" /><rect x="88" y="304" width="8" height="8" fill="#111827" /><rect x="96" y="304" width="8" height="8" fill="#111827" /><rect x="128" y="304" width="8" height="8" fill="#111827" /><rect x="264" y="304" width="8" height="8" fill="#111827" /><rect x="272" y="304" width="8" height="8" fill="#111827" /><rect x="280" y="304" width="8" height="8" fill="#111827" /><rect x="304" y="304" width="8" height="8" fill="#111827" /><rect x="328" y="304" width="8" height="8" fill="#111827" /><rect x="336" y="304" width="8" height="8" fill="#111827" /><rect x="416" y="304" width="8" height="8" fill="#111827" /><rect x="56" y="312" width="8" height="8" fill="#111827" /><rect x="80" y="312" width="8" height="8" fill="#111827" /><rect x="96" y="312" width="8" height="8" fill="#111827" /><rect x="128" y="312" width="8" height="8" fill="#111827" /><rect x="152" y="312" width="8" height="8" fill="#111827" /><rect x="232" y="312" width="8" height="8" fill="#111827" /><rect x="264" y="312" width="8" height="8" fill="#111827" /><rect x="304" y="312" width="8" height="8" fill="#111827" /><rect x="328" y="312" width="8" height="8" fill="#111827" /><rect x="384" y="312" width="8" height="8" fill="#111827" /><rect x="408" y="312" width="8" height="8" fill="#111827" /><rect x="448" y="312" width="8" height="8" fill="#111827" /><rect x="472" y="312" width="8" height="8" fill="#111827" /><rect x="56" y="320" width="8" height="8" fill="#111827" /><rect x="72" y="320" width="8" height="8" fill="#111827" /><rect x="208" y="320" width="8" height="8" fill="#111827" /><rect x="240" y="320" width="8" height="8" fill="#111827" /><rect x="296" y="320" width="8" height="8" fill="#111827" /><rect x="328" y="320" width="8" height="8" fill="#111827" /><rect x="384" y="320" width="8" height="8" fill="#111827" /><rect x="408" y="320" width="8" height="8" fill="#111827" /><rect x="416" y="320" width="8" height="8" fill="#111827" /><rect x="464" y="320" width="8" height="8" fill="#111827" /><rect x="48" y="328" width="8" height="8" fill="#111827" /><rect x="56" y="328" width="8" height="8" fill="#111827" /><rect x="120" y="328" width="8" height="8" fill="#111827" /><rect x="200" y="328" width="8" height="8" fill="#111827" /><rect x="208" y="328" width="8" height="8" fill="#111827" /><rect x="240" y="328" width="8" height="8" fill="#111827" /><rect x="288" y="328" width="8" height="8" fill="#111827" /><rect x="296" y="328" width="8" height="8" fill="#111827" /><rect x="304" y="328" width="8" height="8" fill="#111827" /><rect x="328" y="328" width="8" height="8" fill="#111827" /><rect x="336" y="328" width="8" height="8" fill="#111827" /><rect x="384" y="328" width="8" height="8" fill="#111827" /><rect x="464" y="328" width="8" height="8" fill="#111827" /><rect x="472" y="328" width="8" height="8" fill="#111827" /><rect x="520" y="328" width="8" height="8" fill="#111827" /><rect x="528" y="328" width="8" height="8" fill="#111827" /><rect x="40" y="336" width="8" height="8" fill="#111827" /><rect x="88" y="336" width="8" height="8" fill="#111827" /><rect x="240" y="336" width="8" height="8" fill="#111827" /><rect x="256" y="336" width="8" height="8" fill="#111827" /><rect x="304" y="336" width="8" height="8" fill="#111827" /><rect x="336" y="336" width="8" height="8" fill="#111827" /><rect x="344" y="336" width="8" height="8" fill="#111827" /><rect x="352" y="336" width="8" height="8" fill="#111827" /><rect x="408" y="336" width="8" height="8" fill="#111827" /><rect x="472" y="336" width="8" height="8" fill="#111827" /><rect x="80" y="344" width="8" height="8" fill="#111827" /><rect x="128" y="344" width="8" height="8" fill="#111827" /><rect x="264" y="344" width="8" height="8" fill="#111827" /><rect x="272" y="344" width="8" height="8" fill="#111827" /><rect x="384" y="344" width="8" height="8" fill="#111827" /><rect x="472" y="344" width="8" height="8" fill="#111827" /><rect x="512" y="344" width="8" height="8" fill="#111827" /><rect x="72" y="352" width="8" height="8" fill="#111827" /><rect x="88" y="352" width="8" height="8" fill="#111827" /><rect x="256" y="352" width="8" height="8" fill="#111827" /><rect x="336" y="352" width="8" height="8" fill="#111827" /><rect x="352" y="352" width="8" height="8" fill="#111827" /><rect x="384" y="352" width="8" height="8" fill="#111827" /><rect x="408" y="352" width="8" height="8" fill="#111827" /><rect x="504" y="352" width="8" height="8" fill="#111827" /><rect x="512" y="352" width="8" height="8" fill="#111827" /><rect x="240" y="360" width="8" height="8" fill="#111827" /><rect x="344" y="360" width="8" height="8" fill="#111827" /><rect x="504" y="360" width="8" height="8" fill="#111827" /><rect x="96" y="368" width="8" height="8" fill="#111827" /><rect x="112" y="368" width="8" height="8" fill="#111827" /><rect x="256" y="368" width="8" height="8" fill="#111827" /><rect x="264" y="368" width="8" height="8" fill="#111827" /><rect x="320" y="368" width="8" height="8" fill="#111827" /><rect x="456" y="368" width="8" height="8" fill="#111827" /><rect x="112" y="376" width="8" height="8" fill="#111827" /><rect x="272" y="376" width="8" height="8" fill="#111827" /><rect x="352" y="376" width="8" height="8" fill="#111827" /><rect x="520" y="376" width="8" height="8" fill="#111827" /><rect x="32" y="384" width="8" height="8" fill="#111827" /><rect x="72" y="384" width="8" height="8" fill="#111827" /><rect x="80" y="384" width="8" height="8" fill="#111827" /><rect x="272" y="384" width="8" height="8" fill="#111827" /><rect x="328" y="384" width="8" height="8" fill="#111827" /><rect x="344" y="384" width="8" height="8" fill="#111827" /><rect x="352" y="384" width="8" height="8" fill="#111827" /><rect x="472" y="384" width="8" height="8" fill="#111827" /><rect x="504" y="384" width="8" height="8" fill="#111827" /><rect x="512" y="384" width="8" height="8" fill="#111827" /><rect x="520" y="384" width="8" height="8" fill="#111827" /><rect x="72" y="392" width="8" height="8" fill="#111827" /><rect x="80" y="392" width="8" height="8" fill="#111827" /><rect x="216" y="392" width="8" height="8" fill="#111827" /><rect x="392" y="392" width="8" height="8" fill="#111827" /><rect x="472" y="392" width="8" height="8" fill="#111827" /><rect x="512" y="392" width="8" height="8" fill="#111827" /><rect x="40" y="400" width="8" height="8" fill="#111827" /><rect x="80" y="400" width="8" height="8" fill="#111827" /><rect x="216" y="400" width="8" height="8" fill="#111827" /><rect x="264" y="400" width="8" height="8" fill="#111827" /><rect x="272" y="400" width="8" height="8" fill="#111827" /><rect x="312" y="400" width="8" height="8" fill="#111827" /><rect x="392" y="400" width="8" height="8" fill="#111827" /><rect x="472" y="400" width="8" height="8" fill="#111827" /><rect x="512" y="400" width="8" height="8" fill="#111827" /><rect x="520" y="400" width="8" height="8" fill="#111827" /><rect x="40" y="408" width="8" height="8" fill="#111827" /><rect x="136" y="408" width="8" height="8" fill="#111827" /><rect x="144" y="408" width="8" height="8" fill="#111827" /><rect x="216" y="408" width="8" height="8" fill="#111827" /><rect x="256" y="408" width="8" height="8" fill="#111827" /><rect x="264" y="408" width="8" height="8" fill="#111827" /><rect x="272" y="408" width="8" height="8" fill="#111827" /><rect x="392" y="408" width="8" height="8" fill="#111827" /><rect x="400" y="408" width="8" height="8" fill="#111827" /><rect x="472" y="408" width="8" height="8" fill="#111827" /><rect x="480" y="408" width="8" height="8" fill="#111827" /><rect x="520" y="408" width="8" height="8" fill="#111827" /><rect x="72" y="416" width="8" height="8" fill="#111827" /><rect x="216" y="416" width="8" height="8" fill="#111827" /><rect x="256" y="416" width="8" height="8" fill="#111827" /><rect x="272" y="416" width="8" height="8" fill="#111827" /><rect x="352" y="416" width="8" height="8" fill="#111827" /><rect x="472" y="416" width="8" height="8" fill="#111827" /><rect x="504" y="416" width="8" height="8" fill="#111827" /><rect x="520" y="416" width="8" height="8" fill="#111827" /><rect x="32" y="424" width="8" height="8" fill="#111827" /><rect x="80" y="424" width="8" height="8" fill="#111827" /><rect x="104" y="424" width="8" height="8" fill="#111827" /><rect x="224" y="424" width="8" height="8" fill="#111827" /><rect x="472" y="424" width="8" height="8" fill="#111827" /><rect x="512" y="424" width="8" height="8" fill="#111827" /><rect x="528" y="424" width="8" height="8" fill="#111827" /><rect x="72" y="432" width="8" height="8" fill="#111827" /><rect x="112" y="432" width="8" height="8" fill="#111827" /><rect x="168" y="432" width="8" height="8" fill="#111827" /><rect x="248" y="432" width="8" height="8" fill="#111827" /><rect x="256" y="432" width="8" height="8" fill="#111827" /><rect x="472" y="432" width="8" height="8" fill="#111827" /><rect x="520" y="432" width="8" height="8" fill="#111827" /><rect x="144" y="440" width="8" height="8" fill="#111827" /><rect x="320" y="440" width="8" height="8" fill="#111827" /><rect x="400" y="440" width="8" height="8" fill="#111827" /><rect x="472" y="440" width="8" height="8" fill="#111827" /><rect x="512" y="440" width="8" height="8" fill="#111827" /><rect x="80" y="448" width="8" height="8" fill="#111827" /><rect x="160" y="448" width="8" height="8" fill="#111827" /><rect x="176" y="448" width="8" height="8" fill="#111827" /><rect x="312" y="448" width="8" height="8" fill="#111827" /><rect x="472" y="448" width="8" height="8" fill="#111827" /><rect x="72" y="456" width="8" height="8" fill="#111827" /><rect x="144" y="456" width="8" height="8" fill="#111827" /><rect x="152" y="456" width="8" height="8" fill="#111827" /><rect x="176" y="456" width="8" height="8" fill="#111827" /><rect x="216" y="456" width="8" height="8" fill="#111827" /><rect x="224" y="456" width="8" height="8" fill="#111827" /><rect x="256" y="456" width="8" height="8" fill="#111827" /><rect x="312" y="456" width="8" height="8" fill="#111827" /><rect x="392" y="456" width="8" height="8" fill="#111827" /><rect x="448" y="456" width="8" height="8" fill="#111827" /><rect x="472" y="456" width="8" height="8" fill="#111827" /><rect x="512" y="456" width="8" height="8" fill="#111827" /><rect x="112" y="464" width="8" height="8" fill="#111827" /><rect x="168" y="464" width="8" height="8" fill="#111827" /><rect x="224" y="464" width="8" height="8" fill="#111827" /><rect x="320" y="464" width="8" height="8" fill="#111827" /><rect x="392" y="464" width="8" height="8" fill="#111827" /><rect x="512" y="464" width="8" height="8" fill="#111827" /><rect x="112" y="472" width="8" height="8" fill="#111827" /><rect x="152" y="472" width="8" height="8" fill="#111827" /><rect x="200" y="472" width="8" height="8" fill="#111827" /><rect x="344" y="472" width="8" height="8" fill="#111827" /><rect x="512" y="472" width="8" height="8" fill="#111827" /><rect x="160" y="480" width="8" height="8" fill="#111827" /><rect x="176" y="480" width="8" height="8" fill="#111827" /><rect x="184" y="480" width="8" height="8" fill="#111827" /><rect x="192" y="480" width="8" height="8" fill="#111827" /><rect x="208" y="480" width="8" height="8" fill="#111827" /><rect x="248" y="480" width="8" height="8" fill="#111827" /><rect x="312" y="480" width="8" height="8" fill="#111827" /><rect x="320" y="480" width="8" height="8" fill="#111827" /><rect x="352" y="480" width="8" height="8" fill="#111827" /><rect x="368" y="480" width="8" height="8" fill="#111827" /><rect x="448" y="480" width="8" height="8" fill="#111827" /><rect x="144" y="488" width="8" height="8" fill="#111827" /><rect x="176" y="488" width="8" height="8" fill="#111827" /><rect x="184" y="488" width="8" height="8" fill="#111827" /><rect x="208" y="488" width="8" height="8" fill="#111827" /><rect x="360" y="488" width="8" height="8" fill="#111827" /><rect x="448" y="488" width="8" height="8" fill="#111827" /><rect x="512" y="488" width="8" height="8" fill="#111827" /><rect x="520" y="488" width="8" height="8" fill="#111827" /><rect x="528" y="488" width="8" height="8" fill="#111827" /><rect x="120" y="496" width="8" height="8" fill="#111827" /><rect x="168" y="496" width="8" height="8" fill="#111827" /><rect x="184" y="496" width="8" height="8" fill="#111827" /><rect x="240" y="496" width="8" height="8" fill="#111827" /><rect x="296" y="496" width="8" height="8" fill="#111827" /><rect x="344" y="496" width="8" height="8" fill="#111827" /><rect x="360" y="496" width="8" height="8" fill="#111827" /><rect x="416" y="496" width="8" height="8" fill="#111827" /><rect x="448" y="496" width="8" height="8" fill="#111827" /><rect x="512" y="496" width="8" height="8" fill="#111827" /><rect x="112" y="504" width="8" height="8" fill="#111827" /><rect x="200" y="504" width="8" height="8" fill="#111827" /><rect x="224" y="504" width="8" height="8" fill="#111827" /><rect x="240" y="504" width="8" height="8" fill="#111827" /><rect x="392" y="504" width="8" height="8" fill="#111827" /><rect x="400" y="504" width="8" height="8" fill="#111827" /><rect x="416" y="504" width="8" height="8" fill="#111827" /><rect x="440" y="504" width="8" height="8" fill="#111827" /><rect x="448" y="504" width="8" height="8" fill="#111827" /><rect x="480" y="504" width="8" height="8" fill="#111827" /><rect x="488" y="504" width="8" height="8" fill="#111827" /><rect x="512" y="504" width="8" height="8" fill="#111827" /><rect x="96" y="512" width="8" height="8" fill="#111827" /><rect x="176" y="512" width="8" height="8" fill="#111827" /><rect x="184" y="512" width="8" height="8" fill="#111827" /><rect x="256" y="512" width="8" height="8" fill="#111827" /><rect x="264" y="512" width="8" height="8" fill="#111827" /><rect x="272" y="512" width="8" height="8" fill="#111827" /><rect x="352" y="512" width="8" height="8" fill="#111827" /><rect x="392" y="512" width="8" height="8" fill="#111827" /><rect x="432" y="512" width="8" height="8" fill="#111827" /><rect x="488" y="512" width="8" height="8" fill="#111827" /><rect x="104" y="520" width="8" height="8" fill="#111827" /><rect x="112" y="520" width="8" height="8" fill="#111827" /><rect x="144" y="520" width="8" height="8" fill="#111827" /><rect x="200" y="520" width="8" height="8" fill="#111827" /><rect x="232" y="520" width="8" height="8" fill="#111827" /><rect x="264" y="520" width="8" height="8" fill="#111827" /><rect x="272" y="520" width="8" height="8" fill="#111827" /><rect x="312" y="520" width="8" height="8" fill="#111827" /><rect x="328" y="520" width="8" height="8" fill="#111827" /><rect x="360" y="520" width="8" height="8" fill="#111827" /><rect x="392" y="520" width="8" height="8" fill="#111827" /><rect x="416" y="520" width="8" height="8" fill="#111827" /><rect x="424" y="520" width="8" height="8" fill="#111827" /><rect x="448" y="520" width="8" height="8" fill="#111827" /><rect x="480" y="520" width="8" height="8" fill="#111827" /><rect x="496" y="520" width="8" height="8" fill="#111827" /><rect x="512" y="520" width="8" height="8" fill="#111827" /><rect x="528" y="520" width="8" height="8" fill="#111827" /><rect x="128" y="528" width="8" height="8" fill="#111827" /><rect x="136" y="528" width="8" height="8" fill="#111827" /><rect x="160" y="528" width="8" height="8" fill="#111827" /><rect x="168" y="528" width="8" height="8" fill="#111827" /><rect x="224" y="528" width="8" height="8" fill="#111827" /><rect x="240" y="528" width="8" height="8" fill="#111827" /><rect x="336" y="528" width="8" height="8" fill="#111827" /><rect x="344" y="528" width="8" height="8" fill="#111827" /><rect x="392" y="528" width="8" height="8" fill="#111827" /><rect x="448" y="528" width="8" height="8" fill="#111827" /><rect x="512" y="528" width="8" height="8" fill="#111827" /></svg>