<svg xmlns="http://www.w3.org/2000/svg" width="552" height="552" viewBox="0 0 552 552" shape-rendering="crispEdges"><rect x="16" y="16" width="8" height="8" fill="#111827" /><rect x="24" y="16" width="8" height="8" fill="#111827" /><rect x="32" y="16" width="8" height="8" fill="#111827" /><rect x="40" y="16" width="8" height="8" fill="#111827" /><rect x="48" y="16" width="8" height="8" fill="#111827" /><rect x="56" y="16" width="8" height="8" fill="#111827" /><rect x="64" y="16" width="8" height="8" fill="#111827" /><rect x="96" y="16" width="8" height="8" fill="#111827" /><rect x="336" y="16" width="8" height="8" fill="#111827" /><rect x="480" y="16" width="8" height="8" fill="#111827" /><rect x="488" y="16" width="8" height="8" fill="#111827" /><rect x="496" y="16" width="8" height="8" fill="#111827" /><rect x="504" y="16" width="8" height="8" fill="#111827" /><rect x="512" y="16" width="8" height="8" fill="#111827" /><rect x="520" y="16" width="8" height="8" fill="#111827" /><rect x="528" y="16" width="8" height="8" fill="#111827" /><rect x="16" y="24" width="8" height="8" fill="#111827" /><rect x="64" y="24" width="8" height="8" fill="#111827" /><rect x="104" y="24" width="8" height="8" fill="#111827" /><rect x="216" y="24" width="8" height="8" fill="#111827" /><rect x="328" y="24" width="8" height="8" fill="#111827" /><rect x="352" y="24" width="8" height="8" fill="#111827" /><rect x="480" y="24" width="8" height="8" fill="#111827" /><rect x="528" y="24" width="8" height="8" fill="#111827" /><rect x="16" y="32" width="8" height="8" fill="#111827" /><rect x="32" y="32" width="8" height="8" fill="#111827" /><rect x="40" y="32" width="8" height="8" fill="#111827" /><rect x="48" y="32" width="8" height="8" fill="#111827" /><rect x="64" y="32" width="8" height="8" fill="#111827" /><rect x="216" y="32" width="8" height="8" fill="#111827" /><rect x="224" y="32" width="8" height="8" fill="#111827" /><rect x="256" y="32" width="8" height="8" fill="#111827" /><rect x="264" y="32" width="8" height="8" fill="#111827" /><rect x="272" y="32" width="8" height="8" fill="#111827" /><rect x="288" y="32" width="8" height="8" fill="#111827" /><rect x="320" y="32" width="8" height="8" fill="#111827" /><rect x="360" y="32" width="8" height="8" fill="#111827" /><rect x="400" y="32" width="8" height="8" fill="#111827" /><rect x="432" y="32" width="8" height="8" fill="#111827" /><rect x="480" y="32" width="8" height="8" fill="#111827" /><rect x="496" y="32" width="8" height="8" fill="#111827" /><rect x="504" y="32" width="8" height="8" fill="#111827" /><rect x="512" y="32" width="8" height="8" fill="#111827" /><rect x="528" y="32" width="8" height="8" fill="#111827" /><rect x="16" y="40" width="8" height="8" fill="#111827" /><rect x="32" y="40" width="8" height="8" fill="#111827" /><rect x="40" y="40" width="8" height="8" fill="#111827" /><rect x="48" y="40" width="8" height="8" fill="#111827" /><rect x="64" y="40" width="8" height="8" fill="#111827" /><rect x="104" y="40" width="8" height="8" fill="#111827" /><rect x="136" y="40" width="8" height="8" fill="#111827" /><rect x="216" y="40" width="8" height="8" fill="#111827" /><rect x="224" y="40" width="8" height="8" fill="#111827" /><rect x="280" y="40" width="8" height="8" fill="#111827" /><rect x="352" y="40" width="8" height="8" fill="#111827" /><rect x="400" y="40" width="8" height="8" fill="#111827" /><rect x="480" y="40" width="8" height="8" fill="#111827" /><rect x="496" y="40" width="8" height="8" fill="#111827" /><rect x="504" y="40" width="8" height="8" fill="#111827" /><rect x="512" y="40" width="8" height="8" fill="#111827" /><rect x="528" y="40" width="8" height="8" fill="#111827" /><rect x="16" y="48" width="8" height="8" fill="#111827" /><rect x="32" y="48" width="8" height="8" fill="#111827" /><rect x="40" y="48" width="8" height="8" fill="#111827" /><rect x="48" y="48" width="8" height="8" fill="#111827" /><rect x="64" y="48" width="8" height="8" fill="#111827" /><rect x="216" y="48" width="8" height="8" fill="#111827" /><rect x="424" y="48" width="8" height="8" fill="#111827" /><rect x="480" y="48" width="8" height="8" fill="#111827" /><rect x="496" y="48" width="8" height="8" fill="#111827" /><rect x="504" y="48" width="8" height="8" fill="#111827" /><rect x="512" y="48" width="8" height="8" fill="#111827" /><rect x="528" y="48" width="8" height="8" fill="#111827" /><rect x="16" y="56" width="8" height="8" fill="#111827" /><rect x="64" y="56" width="8" height="8" fill="#111827" /><rect x="184" y="56" width="8" height="8" fill="#111827" /><rect x="216" y="56" width="8" height="8" fill="#111827" /><rect x="224" y="56" width="8" height="8" fill="#111827" /><rect x="320" y="56" width="8" height="8" fill="#111827" /><rect x="344" y="56" width="8" height="8" fill="#111827" /><rect x="392" y="56" width="8" height="8" fill="#111827" /><rect x="480" y="56" width="8" height="8" fill="#111827" /><rect x="528" y="56" width="8" height="8" fill="#111827" /><rect x="16" y="64" width="8" height="8" fill="#111827" /><rect x="24" y="64" width="8" height="8" fill="#111827" /><rect x="32" y="64" width="8" height="8" fill="#111827" /><rect x="40" y="64" width="8" height="8" fill="#111827" /><rect x="48" y="64" width="8" height="8" fill="#111827" /><rect x="56" y="64" width="8" height="8" fill="#111827" /><rect x="64" y="64" width="8" height="8" fill="#111827" /><rect x="480" y="64" width="8" height="8" fill="#111827" /><rect x="488" y="64" width="8" height="8" fill="#111827" /><rect x="496" y="64" width="8" height="8" fill="#111827" /><rect x="504" y="64" width="8" height="8" fill="#111827" /><rect x="512" y="64" width="8" height="8" fill="#111827" /><rect x="520" y="64" width="8" height="8" fill="#111827" /><rect x="528" y="64" width="8" height="8" fill="#111827" /><rect x="112" y="72" width="8" height="8" fill="#111827" /><rect x="184" y="72" width="8" height="8" fill="#111827" /><rect x="312" y="72" width="8" height="8" fill="#111827" /><rect x="352" y="72" width="8" height="8" fill="#111827" /><rect x="392" y="72" width="8" height="8" fill="#111827" /><rect x="432" y="72" width="8" height="8" fill="#111827" /><rect x="104" y="80" width="8" height="8" fill="#111827" /><rect x="168" y="80" width="8" height="8" fill="#111827" /><rect x="344" y="80" width="8" height="8" fill="#111827" /><rect x="80" y="88" width="8" height="8" fill="#111827" /><rect x="264" y="88" width="8" height="8" fill="#111827" /><rect x="272" y="88" width="8" height="8" fill="#111827" /><rect x="280" y="88" width="8" height="8" fill="#111827" /><rect x="312" y="88" width="8" height="8" fill="#111827" /><rect x="320" y="88" width="8" height="8" fill="#111827" /><rect x="480" y="88" width="8" height="8" fill="#111827" /><rect x="488" y="88" width="8" height="8" fill="#111827" /><rect x="496" y="88" width="8" height="8" fill="#111827" /><rect x="160" y="96" width="8" height="8" fill="#111827" /><rect x="192" y="96" width="8" height="8" fill="#111827" /><rect x="224" y="96" width="8" height="8" fill="#111827" /><rect x="272" y="96" width="8" height="8" fill="#111827" /><rect x="312" y="96" width="8" height="8" fill="#111827" /><rect x="392" y="96" width="8" height="8" fill="#111827" /><rect x="504" y="96" width="8" height="8" fill="#111827" /><rect x="528" y="96" width="8" height="8" fill="#111827" /><rect x="104" y="104" width="8" height="8" fill="#111827" /><rect x="144" y="104" width="8" height="8" fill="#111827" /><rect x="152" y="104" width="8" height="8" fill="#111827" /><rect x="176" y="104" width="8" height="8" fill="#111827" /><rect x="264" y="104" width="8" height="8" fill="#111827" /><rect x="272" y="104" width="8" height="8" fill="#111827" /><rect x="280" y="104" width="8" height="8" fill="#111827" /><rect x="344" y="104" width="8" height="8" fill="#111827" /><rect x="352" y="104" width="8" height="8" fill="#111827" /><rect x="520" y="104" width="8" height="8" fill="#111827" /><rect x="16" y="112" width="8" height="8" fill="#111827" /><rect x="56" y="112" width="8" height="8" fill="#111827" /><rect x="152" y="112" width="8" height="8" fill="#111827" /><rect x="160" y="112" width="8" height="8" fill="#111827" /><rect x="176" y="112" width="8" height="8" fill="#111827" /><rect x="192" y="112" width="8" height="8" fill="#111827" /><rect x="200" y="112" width="8" height="8" fill="#111827" /><rect x="208" y="112" width="8" height="8" fill="#111827" /><rect x="280" y="112" width="8" height="8" fill="#111827" /><rect x="288" y="112" width="8" height="8" fill="#111827" /><rect x="312" y="112" width="8" height="8" fill="#111827" /><rect x="440" y="112" width="8" height="8" fill="#111827" /><rect x="448" y="112" width="8" height="8" fill="#111827" /><rect x="512" y="112" width="8" height="8" fill="#111827" /><rect x="520" y="112" width="8" height="8" fill="#111827" /><rect x="48" y="120" width="8" height="8" fill="#111827" /><rect x="112" y="120" width="8" height="8" fill="#111827" /><rect x="152" y="120" width="8" height="8" fill="#111827" /><rect x="168" y="120" width="8" height="8" fill="#111827" /><rect x="184" y="120" width="8" height="8" fill="#111827" /><rect x="208" y="120" width="8" height="8" fill="#111827" /><rect x="216" y="120" width="8" height="8" fill="#111827" /><rect x="272" y="120" width="8" height="8" fill="#111827" /><rect x="288" y="120" width="8" height="8" fill="#111827" /><rect x="392" y="120" width="8" height="8" fill="#111827" /><rect x="400" y="120" width="8" height="8" fill="#111827" /><rect x="440" y="120" width="8" height="8" fill="#111827" /><rect x="488" y="120" width="8" height="8" fill="#111827" /><rect x="496" y="120" width="8" height="8" fill="#111827" /><rect x="504" y="120" width="8" height="8" fill="#111827" /><rect x="512" y="120" width="8" height="8" fill="#111827" /><rect x="528" y="120" width="8" height="8" fill="#111827" /><rect x="16" y="128" width="8" height="8" fill="#111827" /><rect x="48" y="128" width="8" height="8" fill="#111827" /><rect x="104" y="128" width="8" height="8" fill="#111827" /><rect x="136" y="128" width="8" height="8" fill="#111827" /><rect x="144" y="128" width="8" height="8" fill="#111827" /><rect x="160" y="128" width="8" height="8" fill="#111827" /><rect x="448" y="128" width="8" height="8" fill="#111827" /><rect x="128" y="136" width="8" height="8" fill="#111827" /><rect x="144" y="136" width="8" height="8" fill="#111827" /><rect x="208" y="136" width="8" height="8" fill="#111827" /><rect x="248" y="136" width="8" height="8" fill="#111827" /><rect x="280" y="136" width="8" height="8" fill="#111827" /><rect x="288" y="136" width="8" height="8" fill="#111827" /><rect x="296" y="136" width="8" height="8" fill="#111827" /><rect x="352" y="136" width="8" height="8" fill="#111827" /><rect x="392" y="136" width="8" height="8" fill="#111827" /><rect x="488" y="136" width="8" height="8" fill="#111827" /><rect x="512" y="136" width="8" height="8" fill="#111827" /><rect x="128" y="144" width="8" height="8" fill="#111827" /><rect x="176" y="144" width="8" height="8" fill="#111827" /><rect x="200" y="144" width="8" height="8" fill="#111827" /><rect x="208" y="144" width="8" height="8" fill="#111827" /><rect x="232" y="144" width="8" height="8" fill="#111827" /><rect x="248" y="144" width="8" height="8" fill="#111827" /><rect x="320" y="144" width="8" height="8" fill="#111827" /><rect x="392" y="144" width="8" height="8" fill="#111827" /><rect x="440" y="144" width="8" height="8" fill="#111827" /><rect x="456" y="144" width="8" height="8" fill="#111827" /><rect x="464" y="144" width="8" height="8" fill="#111827" /><rect x="488" y="144" width="8" height="8" fill="#111827" /><rect x="504" y="144" width="8" height="8" fill="#111827" /><rect x="512" y="144" width="8" height="8" fill="#111827" /><rect x="520" y="144" width="8" height="8" fill="#111827" /><rect x="528" y="144" width="8" height="8" fill="#111827" /><rect x="16" y="152" width="8" height="8" fill="#111827" /><rect x="24" y="152" width="8" height="8" fill="#111827" /><rect x="104" y="152" width="8" height="8" fill="#111827" /><rect x="120" y="152" width="8" height="8" fill="#111827" /><rect x="144" y="152" width="8" height="8" fill="#111827" /><rect x="184" y="152" width="8" height="8" fill="#111827" /><rect x="192" y="152" width="8" height="8" fill="#111827" /><rect x="248" y="152" width="8" height="8" fill="#111827" /><rect x="352" y="152" width="8" height="8" fill="#111827" /><rect x="528" y="152" width="8" height="8" fill="#111827" /><rect x="128" y="160" width="8" height="8" fill="#111827" /><rect x="160" y="160" width="8" height="8" fill="#111827" /><rect x="224" y="160" width="8" height="8" fill="#111827" /><rect x="280" y="160" width="8" height="8" fill="#111827" /><rect x="288" y="160" width="8" height="8" fill="#111827" /><rect x="320" y="160" width="8" height="8" fill="#111827" /><rect x="344" y="160" width="8" height="8" fill="#111827" /><rect x="416" y="160" width="8" height="8" fill="#111827" /><rect x="440" y="160" width="8" height="8" fill="#111827" /><rect x="448" y="160" width="8" height="8" fill="#111827" /><rect x="24" y="168" width="8" height="8" fill="#111827" /><rect x="88" y="168" width="8" height="8" fill="#111827" /><rect x="112" y="168" width="8" height="8" fill="#111827" /><rect x="120" y="168" width="8" height="8" fill="#111827" /><rect x="128" y="168" width="8" height="8" fill="#111827" /><rect x="168" y="168" width="8" height="8" fill="#111827" /><rect x="216" y="168" width="8" height="8" fill="#111827" /><rect x="280" y="168" width="8" height="8" fill="#111827" /><rect x="296" y="168" width="8" height="8" fill="#111827" /><rect x="352" y="168" width="8" height="8" fill="#111827" /><rect x="376" y="168" width="8" height="8" fill="#111827" /><rect x="408" y="168" width="8" height="8" fill="#111827" /><rect x="416" y="168" width="8" height="8" fill="#111827" /><rect x="432" y="168" width="8" height="8" fill="#111827" /><rect x="440" y="168" width="8" height="8" fill="#111827" /><rect x="464" y="168" width="8" height="8" fill="#111827" /><rect x="504" y="168" width="8" height="8" fill="#111827" /><rect x="512" y="168" width="8" height="8" fill="#111827" /><rect x="96" y="176" width="8" height="8" fill="#111827" /><rect x="104" y="176" width="8" height="8" fill="#111827" /><rect x="112" y="176" width="8" height="8" fill="#111827" /><rect x="128" y="176" width="8" height="8" fill="#111827" /><rect x="144" y="176" width="8" height="8" fill="#111827" /><rect x="168" y="176" width="8" height="8" fill="#111827" /><rect x="192" y="176" width="8" height="8" fill="#111827" /><rect x="224" y="176" width="8" height="8" fill="#111827" /><rect x="232" y="176" width="8" height="8" fill="#111827" /><rect x="288" y="176" width="8" height="8" fill="#111827" /><rect x="296" y="176" width="8" height="8" fill="#111827" /><rect x="336" y="176" width="8" height="8" fill="#111827" /><rect x="384" y="176" width="8" height="8" fill="#111827" /><rect x="16" y="184" width="8" height="8" fill="#111827" /><rect x="88" y="184" width="8" height="8" fill="#111827" /><rect x="112" y="184" width="8" height="8" fill="#111827" /><rect x="144" y="184" width="8" height="8" fill="#111827" /><rect x="152" y="184" width="8" height="8" fill="#111827" /><rect x="160" y="184" width="8" height="8" fill="#111827" /><rect x="184" y="184" width="8" height="8" fill="#111827" /><rect x="192" y="184" width="8" height="8" fill="#111827" /><rect x="208" y="184" width="8" height="8" fill="#111827" /><rect x="232" y="184" width="8" height="8" fill="#111827" /><rect x="328" y="184" width="8" height="8" fill="#111827" /><rect x="344" y="184" width="8" height="8" fill="#111827" /><rect x="376" y="184" width="8" height="8" fill="#111827" /><rect x="416" y="184" width="8" height="8" fill="#111827" /><rect x="464" y="184" width="8" height="8" fill="#111827" /><rect x="512" y="184" width="8" height="8" fill="#111827" /><rect x="16" y="192" width="8" height="8" fill="#111827" /><rect x="96" y="192" width="8" height="8" fill="#111827" /><rect x="128" y="192" width="8" height="8" fill="#111827" /><rect x="136" y="192" width="8" height="8" fill="#111827" /><rect x="152" y="192" width="8" height="8" fill="#111827" /><rect x="168" y="192" width="8" height="8" fill="#111827" /><rect x="192" y="192" width="8" height="8" fill="#111827" /><rect x="216" y="192" width="8" height="8" fill="#111827" /><rect x="224" y="192" width="8" height="8" fill="#111827" /><rect x="280" y="192" width="8" height="8" fill="#111827" /><rect x="312" y="192" width="8" height="8" fill="#111827" /><rect x="320" y="192" width="8" height="8" fill="#111827" /><rect x="344" y="192" width="8" height="8" fill="#111827" /><rect x="376" y="192" width="8" height="8" fill="#111827" /><rect x="392" y="192" width="8" height="8" fill="#111827" /><rect x="408" y="192" width="8" height="8" fill="#111827" /><rect x="416" y="192" width="8" height="8" fill="#111827" /><rect x="448" y="192" width="8" height="8" fill="#111827" /><rect x="456" y="192" width="8" height="8" fill="#111827" /><rect x="16" y="200" width="8" height="8" fill="#111827" /><rect x="144" y="200" width="8" height="8" fill="#111827" /><rect x="176" y="200" width="8" height="8" fill="#111827" /><rect x="184" y="200" width="8" height="8" fill="#111827" /><rect x="200" y="200" width="8" height="8" fill="#111827" /><rect x="208" y="200" width="8" height="8" fill="#111827" /><rect x="224" y="200" width="8" height="8" fill="#111827" /><rect x="232" y="200" width="8" height="8" fill="#111827" /><rect x="240" y="200" width="8" height="8" fill="#111827" /><rect x="288" y="200" width="8" height="8" fill="#111827" /><rect x="376" y="200" width="8" height="8" fill="#111827" /><rect x="40" y="208" width="8" height="8" fill="#111827" /><rect x="56" y="208" width="8" height="8" fill="#111827" /><rect x="176" y="208" width="8" height="8" fill="#111827" /><rect x="192" y="208" width="8" height="8" fill="#111827" /><rect x="200" y="208" width="8" height="8" fill="#111827" /><rect x="208" y="208" width="8" height="8" fill="#111827" /><rect x="232" y="208" width="8" height="8" fill="#111827" /><rect x="312" y="208" width="8" height="8" fill="#111827" /><rect x="320" y="208" width="8" height="8" fill="#111827" /><rect x="392" y="208" width="8" height="8" fill="#111827" /><rect x="440" y="208" width="8" height="8" fill="#111827" /><rect x="464" y="208" width="8" height="8" fill="#111827" /><rect x="512" y="208" width="8" height="8" fill="#111827" /><rect x="16" y="216" width="8" height="8" fill="#111827" /><rect x="40" y="216" width="8" height="8" fill="#111827" /><rect x="48" y="216" width="8" height="8" fill="#111827" /><rect x="88" y="216" width="8" height="8" fill="#111827" /><rect x="120" y="216" width="8" height="8" fill="#111827" /><rect x="184" y="216" width="8" height="8" fill="#111827" /><rect x="208" y="216" width="8" height="8" fill="#111827" /><rect x="240" y="216" width="8" height="8" fill="#111827" /><rect x="288" y="216" width="8" height="8" fill="#111827" /><rect x="392" y="216" width="8" height="8" fill="#111827" /><rect x="400" y="216" width="8" height="8" fill="#111827" /><rect x="416" y="216" width="8" height="8" fill="#111827" /><rect x="456" y="216" width="8" height="8" fill="#111827" /><rect x="464" y="216" width="8" height="8" fill="#111827" /><rect x="16" y="224" width="8" height="8" fill="#111827" /><rect x="24" y="224" width="8" height="8" fill="#111827" /><rect x="48" y="224" width="8" height="8" fill="#111827" /><rect x="88" y="224" width="8" height="8" fill="#111827" /><rect x="112" y="224" width="8" height="8" fill="#111827" /><rect x="144" y="224" width="8" height="8" fill="#111827" /><rect x="160" y="224" width="8" height="8" fill="#111827" /><rect x="200" y="224" width="8" height="8" fill="#111827" /><rect x="280" y="224" width="8" height="8" fill="#111827" /><rect x="288" y="224" width="8" height="8" fill="#111827" /><rect x="296" y="224" width="8" height="8" fill="#111827" /><rect x="384" y="224" width="8" height="8" fill="#111827" /><rect x="448" y="224" width="8" height="8" fill="#111827" /><rect x="464" y="224" width="8" height="8" fill="#111827" /><rect x="16" y="232" width="8" height="8" fill="#111827" /><rect x="40" y="232" width="8" height="8" fill="#111827" /><rect x="96" y="232" width="8" height="8" fill="#111827" /><rect x="128" y="232" width="8" height="8" fill="#111827" /><rect x="144" y="232" width="8" height="8" fill="#111827" /><rect x="184" y="232" width="8" height="8" fill="#111827" /><rect x="288" y="232" width="8" height="8" fill="#111827" /><rect x="296" y="232" width="8" height="8" fill="#111827" /><rect x="336" y="232" width="8" height="8" fill="#111827" /><rect x="464" y="232" width="8" height="8" fill="#111827" /><rect x="32" y="240" width="8" height="8" fill="#111827" /><rect x="96" y="240" width="8" height="8" fill="#111827" /><rect x="144" y="240" width="8" height="8" fill="#111827" /><rect x="200" y="240" width="8" height="8" fill="#111827" /><rect x="208" y="240" width="8" height="8" fill="#111827" /><rect x="456" y="240" width="8" height="8" fill="#111827" /><rect x="464" y="240" width="8" height="8" fill="#111827" /><rect x="24" y="248" width="8" height="8" fill="#111827" /><rect x="32" y="248" width="8" height="8" fill="#111827" /><rect x="80" y="248" width="8" height="8" fill="#111827" /><rect x="88" y="248" width="8" height="8" fill="#111827" /><rect x="96" y="248" width="8" height="8" fill="#111827" /><rect x="128" y="248" width="8" height="8" fill="#111827" /><rect x="160" y="248" width="8" height="8" fill="#111827" /><rect x="184" y="248" width="8" height="8" fill="#111827" /><rect x="200" y="248" width="8" height="8" fill="#111827" /><rect x="208" y="248" width="8" height="8" fill="#111827" /><rect x="232" y="248" width="8" height="8" fill="#111827" /><rect x="296" y="248" width="8" height="8" fill="#111827" /><rect x="328" y="248" width="8" height="8" fill="#111827" /><rect x="472" y="248" width="8" height="8" fill="#111827" /><rect x="496" y="248" width="8" height="8" fill="#111827" /><rect x="88" y="256" width="8" height="8" fill="#111827" /><rect x="152" y="256" width="8" height="8" fill="#111827" /><rect x="160" y="256" width="8" height="8" fill="#111827" /><rect x="176" y="256" width="8" height="8" fill="#111827" /><rect x="328" y="256" width="8" height="8" fill="#111827" /><rect x="384" y="256" width="8" height="8" fill="#111827" /><rect x="416" y="256" width="8" height="8" fill="#111827" /><rect x="440" y="256" width="8" height="8" fill="#111827" /><rect x="448" y="256" width="8" height="8" fill="#111827" /><rect x="40" y="264" width="8" height="8" fill="#111827" /><rect x="184" y="264" width="8" height="8" fill="#111827" /><rect x="296" y="264" width="8" height="8" fill="#111827" /><rect x="416" y="264" width="8" height="8" fill="#111827" /><rect x="128" y="272" width="8" height="8" fill="#111827" /><rect x="152" y="272" width="8" height="8" fill="#111827" /><rect x="168" y="272" width="8" height="8" fill="#111827" /><rect x="208" y="272" width="8" height="8" fill="#111827" /><rect x="232" y="272" width="8" height="8" fill="#111827" /><rect x="336" y="272" width="8" height="8" fill="#111827" /><rect x="384" y="272" width="8" height="8" fill="#111827" /><rect x="416" y="272" width="8" height="8" fill="#111827" /><rect x="456" y="272" width="8" height="8" fill="#111827" /><rect x="16" y="280" width="8" height="8" fill="#111827" /><rect x="24" y="280" width="8" height="8" fill="#111827" /><rect x="40" y="280" width="8" height="8" fill="#111827" /><rect x="88" y="280" width="8" height="8" fill="#111827" /><rect x="96" y="280" width="8" height="8" fill="#111827" /><rect x="168" y="280" width="8" height="8" fill="#111827" /><rect x="176" y="280" width="8" height="8" fill="#111827" /><rect x="192" y="280" width="8" height="8" fill="#111827" /><rect x="208" y="280" width="8" height="8" fill="#111827" /><rect x="416" y="280" width="8" height="8" fill="#111827" /><rect x="16" y="288" width="8" height="8" fill="#111827" /><rect x="88" y="288" width="8" height="8" fill="#111827" /><rect x="120" y="288" width="8" height="8" fill="#111827" /><rect x="128" y="288" width="8" height="8" fill="#111827" /><rect x="168" y="288" width="8" height="8" fill="#111827" /><rect x="240" y="288" width="8" height="8" fill="#111827" /><rect x="328" y="288" width="8" height="8" fill="#111827" /><rect x="408" y="288" width="8" height="8" fill="#111827" /><rect x="416" y="288" width="8" height="8" fill="#111827" /><rect x="448" y="288" width="8" height="8" fill="#111827" /><rect x="16" y="296" width="8" height="8" fill="#111827" /><rect x="32" y="296" width="8" height="8" fill="#111827" /><rect x="152" y="296" width="8" height="8" fill="#111827" /><rect x="376" y="296" width="8" height="8" fill="#111827" /><rect x="456" y="296" width="8" height="8" fill="#111827" /><rect x="472" y="296" width="8" height="8" fill="#111827" /><rect x="496" y="296" width="8" height="8" fill="#111827" /><rect x="32" y="304" width="8" height="8" fill="#111827" /><rect x="48" y="304" width="8" height="8" fill="#111827" /><rect x="72" y="304" width="8" height="8" fill="#111827" /><rect x="80" y="304" width="8" height="8" fill="#111827" /><rect x="120" y="304" width="8" height="8" fill="#111827" /><rect x="232" y="304" width="8" height="8" fill="#111827" /><rect x="384" y="304" width="8" height="8" fill="#111827" /><rect x="440" y="304" width="8" height="8" fill="#111827" /><rect x="456" y="304" width="8" height="8" fill="#111827" /><rect x="464" y="304" width="8" height="8" fill="#111827" /><rect x="80" y="312" width="8" height="8" fill="#111827" /><rect x="88" y="312" width="8" height="8" fill="#111827" /><rect x="160" y="312" width="8" height="8" fill="#111827" /><rect x="232" y="312" width="8" height="8" fill="#111827" /><rect x="264" y="312" width="8" height="8" fill="#111827" /><rect x="288" y="312" width="8" height="8" fill="#111827" /><rect x="328" y="312" width="8" height="8" fill="#111827" /><rect x="408" y="312" width="8" height="8" fill="#111827" /><rect x="416" y="312" width="8" height="8" fill="#111827" /><rect x="456" y="312" width="8" height="8" fill="#111827" /><rect x="464" y="312" width="8" height="8" fill="#111827" /><rect x="480" y="312" width="8" height="8" fill="#111827" /><rect x="488" y="312" width="8" height="8" fill="#111827" /><rect x="528" y="312" width="8" height="8" fill="#111827" /><rect x="32" y="320" width="8" height="8" fill="#111827" /><rect x="88" y="320" width="8" height="8" fill="#111827" /><rect x="200" y="320" width="8" height="8" fill="#111827" /><rect x="208" y="320" width="8" height="8" fill="#111827" /><rect x="280" y="320" width="8" height="8" fill="#111827" /><rect x="296" y="320" width="8" height="8" fill="#111827" /><rect x="328" y="320" width="8" height="8" fill="#111827" /><rect x="384" y="320" width="8" height="8" fill="#111827" /><rect x="448" y="320" width="8" height="8" fill="#111827" /><rect x="456" y="320" width="8" height="8" fill="#111827" /><rect x="488" y="320" width="8" height="8" fill="#111827" /><rect x="232" y="328" width="8" height="8" fill="#111827" /><rect x="264" y="328" width="8" height="8" fill="#111827" /><rect x="296" y="328" width="8" height="8" fill="#111827" /><rect x="376" y="328" width="8" height="8" fill="#111827" /><rect x="416" y="328" width="8" height="8" fill="#111827" /><rect x="456" y="328" width="8" height="8" fill="#111827" /><rect x="464" y="328" width="8" height="8" fill="#111827" /><rect x="32" y="336" width="8" height="8" fill="#111827" /><rect x="80" y="336" width="8" height="8" fill="#111827" /><rect x="88" y="336" width="8" height="8" fill="#111827" /><rect x="96" y="336" width="8" height="8" fill="#111827" /><rect x="248" y="336" width="8" height="8" fill="#111827" /><rect x="408" y="336" width="8" height="8" fill="#111827" /><rect x="464" y="336" width="8" height="8" fill="#111827" /><rect x="40" y="344" width="8" height="8" fill="#111827" /><rect x="88" y="344" width="8" height="8" fill="#111827" /><rect x="96" y="344" width="8" height="8" fill="#111827" /><rect x="248" y="344" width="8" height="8" fill="#111827" /><rect x="296" y="344" width="8" height="8" fill="#111827" /><rect x="304" y="344" width="8" height="8" fill="#111827" /><rect x="328" y="344" width="8" height="8" fill="#111827" /><rect x="344" y="344" width="8" height="8" fill="#111827" /><rect x="504" y="344" width="8" height="8" fill="#111827" /><rect x="512" y="344" width="8" height="8" fill="#111827" /><rect x="88" y="352" width="8" height="8" fill="#111827" /><rect x="328" y="352" width="8" height="8" fill="#111827" /><rect x="384" y="352" width="8" height="8" fill="#111827" /><rect x="416" y="352" width="8" height="8" fill="#111827" /><rect x="456" y="352" width="8" height="8" fill="#111827" /><rect x="40" y="360" width="8" height="8" fill="#111827" /><rect x="80" y="360" width="8" height="8" fill="#111827" /><rect x="240" y="360" width="8" height="8" fill="#111827" /><rect x="248" y="360" width="8" height="8" fill="#111827" /><rect x="464" y="360" width="8" height="8" fill="#111827" /><rect x="480" y="360" width="8" height="8" fill="#111827" /><rect x="512" y="360" width="8" height="8" fill="#111827" /><rect x="40" y="368" width="8" height="8" fill="#111827" /><rect x="272" y="368" width="8" height="8" fill="#111827" /><rect x="312" y="368" width="8" height="8" fill="#111827" /><rect x="320" y="368" width="8" height="8" fill="#111827" /><rect x="336" y="368" width="8" height="8" fill="#111827" /><rect x="352" y="368" width="8" height="8" fill="#111827" /><rect x="368" y="368" width="8" height="8" fill="#111827" /><rect x="456" y="368" width="8" height="8" fill="#111827" /><rect x="480" y="368" width="8" height="8" fill="#111827" /><rect x="512" y="368" width="8" height="8" fill="#111827" /><rect x="40" y="376" width="8" height="8" fill="#111827" /><rect x="88" y="376" width="8" height="8" fill="#111827" /><rect x="96" y="376" width="8" height="8" fill="#111827" /><rect x="248" y="376" width="8" height="8" fill="#111827" /><rect x="328" y="376" width="8" height="8" fill="#111827" /><rect x="368" y="376" width="8" height="8" fill="#111827" /><rect x="464" y="376" width="8" height="8" fill="#111827" /><rect x="112" y="384" width="8" height="8" fill="#111827" /><rect x="224" y="384" width="8" height="8" fill="#111827" /><rect x="256" y="384" width="8" height="8" fill="#111827" /><rect x="512" y="384" width="8" height="8" fill="#111827" /><rect x="32" y="392" width="8" height="8" fill="#111827" /><rect x="112" y="392" width="8" height="8" fill="#111827" /><rect x="320" y="392" width="8" height="8" fill="#111827" /><rect x="344" y="392" width="8" height="8" fill="#111827" /><rect x="360" y="392" width="8" height="8" fill="#111827" /><rect x="368" y="392" width="8" height="8" fill="#111827" /><rect x="424" y="392" width="8" height="8" fill="#111827" /><rect x="504" y="392" width="8" height="8" fill="#111827" /><rect x="72" y="400" width="8" height="8" fill="#111827" /><rect x="80" y="400" width="8" height="8" fill="#111827" /><rect x="104" y="400" width="8" height="8" fill="#111827" /><rect x="216" y="400" width="8" height="8" fill="#111827" /><rect x="224" y="400" width="8" height="8" fill="#111827" /><rect x="248" y="400" width="8" height="8" fill="#111827" /><rect x="312" y="400" width="8" height="8" fill="#111827" /><rect x="344" y="400" width="8" height="8" fill="#111827" /><rect x="360" y="400" width="8" height="8" fill="#111827" /><rect x="424" y="400" width="8" height="8" fill="#111827" /><rect x="480" y="400" width="8" height="8" fill="#111827" /><rect x="504" y="400" width="8" height="8" fill="#111827" /><rect x="512" y="400" width="8" height="8" fill="#111827" /><rect x="72" y="408" width="8" height="8" fill="#111827" /><rect x="80" y="408" width="8" height="8" fill="#111827" /><rect x="112" y="408" width="8" height="8" fill="#111827" /><rect x="248" y="408" width="8" height="8" fill="#111827" /><rect x="264" y="408" width="8" height="8" fill="#111827" /><rect x="312" y="408" width="8" height="8" fill="#111827" /><rect x="368" y="408" width="8" height="8" fill="#111827" /><rect x="528" y="408" width="8" height="8" fill="#111827" /><rect x="32" y="416" width="8" height="8" fill="#111827" /><rect x="72" y="416" width="8" height="8" fill="#111827" /><rect x="112" y="416" width="8" height="8" fill="#111827" /><rect x="136" y="416" width="8" height="8" fill="#111827" /><rect x="184" y="416" width="8" height="8" fill="#111827" /><rect x="216" y="416" width="8" height="8" fill="#111827" /><rect x="360" y="416" width="8" height="8" fill="#111827" /><rect x="392" y="416" width="8" height="8" fill="#111827" /><rect x="424" y="416" width="8" height="8" fill="#111827" /><rect x="112" y="424" width="8" height="8" fill="#111827" /><rect x="136" y="424" width="8" height="8" fill="#111827" /><rect x="224" y="424" width="8" height="8" fill="#111827" /><rect x="248" y="424" width="8" height="8" fill="#111827" /><rect x="264" y="424" width="8" height="8" fill="#111827" /><rect x="272" y="424" width="8" height="8" fill="#111827" /><rect x="360" y="424" width="8" height="8" fill="#111827" /><rect x="80" y="432" width="8" height="8" fill="#111827" /><rect x="104" y="432" width="8" height="8" fill="#111827" /><rect x="176" y="432" width="8" height="8" fill="#111827" /><rect x="264" y="432" width="8" height="8" fill="#111827" /><rect x="432" y="432" width="8" height="8" fill="#111827" /><rect x="512" y="432" width="8" height="8" fill="#111827" /><rect x="104" y="440" width="8" height="8" fill="#111827" /><rect x="144" y="440" width="8" height="8" fill="#111827" /><rect x="224" y="440" width="8" height="8" fill="#111827" /><rect x="272" y="440" width="8" height="8" fill="#111827" /><rect x="344" y="440" width="8" height="8" fill="#111827" /><rect x="360" y="440" width="8" height="8" fill="#111827" /><rect x="392" y="440" width="8" height="8" fill="#111827" /><rect x="424" y="440" width="8" height="8" fill="#111827" /><rect x="432" y="440" width="8" height="8" fill="#111827" /><rect x="512" y="440" width="8" height="8" fill="#111827" /><rect x="72" y="448" width="8" height="8" fill="#111827" /><rect x="80" y="448" width="8" height="8" fill="#111827" /><rect x="144" y="448" width="8" height="8" fill="#111827" /><rect x="176" y="448" width="8" height="8" fill="#111827" /><rect x="184" y="448" width="8" height="8" fill="#111827" /><rect x="248" y="448" width="8" height="8" fill="#111827" /><rect x="320" y="448" width="8" height="8" fill="#111827" /><rect x="424" y="448" width="8" height="8" fill="#111827" /><rect x="72" y="456" width="8" height="8" fill="#111827" /><rect x="80" y="456" width="8" height="8" fill="#111827" /><rect x="104" y="456" width="8" height="8" fill="#111827" /><rect x="112" y="456" width="8" height="8" fill="#111827" /><rect x="168" y="456" width="8" height="8" fill="#111827" /><rect x="176" y="456" width="8" height="8" fill="#111827" /><rect x="192" y="456" width="8" height="8" fill="#111827" /><rect x="216" y="456" width="8" height="8" fill="#111827" /><rect x="424" y="456" width="8" height="8" fill="#111827" /><rect x="432" y="456" width="8" height="8" fill="#111827" /><rect x="448" y="456" width="8" height="8" fill="#111827" /><rect x="480" y="456" width="8" height="8" fill="#111827" /><rect x="160" y="464" width="8" height="8" fill="#111827" /><rect x="184" y="464" width="8" height="8" fill="#111827" /><rect x="200" y="464" width="8" height="8" fill="#111827" /><rect x="312" y="464" width="8" height="8" fill="#111827" /><rect x="360" y="464" width="8" height="8" fill="#111827" /><rect x="368" y="464" width="8" height="8" fill="#111827" /><rect x="392" y="464" width="8" height="8" fill="#111827" /><rect x="424" y="464" width="8" height="8" fill="#111827" /><rect x="504" y="464" width="8" height="8" fill="#111827" /><rect x="112" y="472" width="8" height="8" fill="#111827" /><rect x="144" y="472" width="8" height="8" fill="#111827" /><rect x="152" y="472" width="8" height="8" fill="#111827" /><rect x="424" y="472" width="8" height="8" fill="#111827" /><rect x="448" y="472" width="8" height="8" fill="#111827" /><rect x="504" y="472" width="8" height="8" fill="#111827" /><rect x="16" y="480" width="8" height="8" fill="#111827" /><rect x="24" y="480" width="8" height="8" fill="#111827" /><rect x="32" y="480" width="8" height="8" fill="#111827" /><rect x="40" y="480" width="8" height="8" fill="#111827" /><rect x="48" y="480" width="8" height="8" fill="#111827" /><rect x="56" y="480" width="8" height="8" fill="#111827" /><rect x="64" y="480" width="8" height="8" fill="#111827" /><rect x="112" y="480" width="8" height="8" fill="#111827" /><rect x="120" y="480" width="8" height="8" fill="#111827" /><rect x="176" y="480" width="8" height="8" fill="#111827" /><rect x="192" y="480" width="8" height="8" fill="#111827" /><rect x="320" y="480" width="8" height="8" fill="#111827" /><rect x="424" y="480" width="8" height="8" fill="#111827" /><rect x="432" y="480" width="8" height="8" fill="#111827" /><rect x="448" y="480" width="8" height="8" fill="#111827" /><rect x="16" y="488" width="8" height="8" fill="#111827" /><rect x="64" y="488" width="8" height="8" fill="#111827" /><rect x="112" y="488" width="8" height="8" fill="#111827" /><rect x="136" y="488" width="8" height="8" fill="#111827" /><rect x="144" y="488" width="8" height="8" fill="#111827" /><rect x="208" y="488" width="8" height="8" fill="#111827" /><rect x="320" y="488" width="8" height="8" fill="#111827" /><rect x="368" y="488" width="8" height="8" fill="#111827" /><rect x="408" y="488" width="8" height="8" fill="#111827" /><rect x="424" y="488" width="8" height="8" fill="#111827" /><rect x="448" y="488" width="8" height="8" fill="#111827" /><rect x="504" y="488" width="8" height="8" fill="#111827" /><rect x="16" y="496" width="8" height="8" fill="#111827" /><rect x="32" y="496" width="8" height="8" fill="#111827" /><rect x="40" y="496" width="8" height="8" fill="#111827" /><rect x="48" y="496" width="8" height="8" fill="#111827" /><rect x="64" y="496" width="8" height="8" fill="#111827" /><rect x="128" y="496" width="8" height="8" fill="#111827" /><rect x="144" y="496" width="8" height="8" fill="#111827" /><rect x="152" y="496" width="8" height="8" fill="#111827" /><rect x="168" y="496" width="8" height="8" fill="#111827" /><rect x="176" y="496" width="8" height="8" fill="#111827" /><rect x="208" y="496" width="8" height="8" fill="#111827" /><rect x="296" y="496" width="8" height="8" fill="#111827" /><rect x="312" y="496" width="8" height="8" fill="#111827" /><rect x="344" y="496" width="8" height="8" fill="#111827" /><rect x="408" y="496" width="8" height="8" fill="#111827" /><rect x="424" y="496" width="8" height="8" fill="#111827" /><rect x="504" y="496" width="8" height="8" fill="#111827" /><rect x="512" y="496" width="8" height="8" fill="#111827" /><rect x="16" y="504" width="8" height="8" fill="#111827" /><rect x="32" y="504" width="8" height="8" fill="#111827" /><rect x="40" y="504" width="8" height="8" fill="#111827" /><rect x="48" y="504" width="8" height="8" fill="#111827" /><rect x="64" y="504" width="8" height="8" fill="#111827" /><rect x="168" y="504" width="8" height="8" fill="#111827" /><rect x="200" y="504" width="8" height="8" fill="#111827" /><rect x="232" y="504" width="8" height="8" fill="#111827" /><rect x="248" y="504" width="8" height="8" fill="#111827" /><rect x="288" y="504" width="8" height="8" fill="#111827" /><rect x="304" y="504" width="8" height="8" fill="#111827" /><rect x="312" y="504" width="8" height="8" fill="#111827" /><rect x="368" y="504" width="8" height="8" fill="#111827" /><rect x="424" y="504" width="8" height="8" fill="#111827" /><rect x="448" y="504" width="8" height="8" fill="#111827" /><rect x="472" y="504" width="8" height="8" fill="#111827" /><rect x="16" y="512" width="8" height="8" fill="#111827" /><rect x="32" y="512" width="8" height="8" fill="#111827" /><rect x="40" y="512" width="8" height="8" fill="#111827" /><rect x="48" y="512" width="8" height="8" fill="#111827" /><rect x="64" y="512" width="8" height="8" fill="#111827" /><rect x="112" y="512" width="8" height="8" fill="#111827" /><rect x="152" y="512" width="8" height="8" fill="#111827" /><rect x="184" y="512" width="8" height="8" fill="#111827" /><rect x="224" y="512" width="8" height="8" fill="#111827" /><rect x="256" y="512" width="8" height="8" fill="#111827" /><rect x="280" y="512" width="8" height="8" fill="#111827" /><rect x="368" y="512" width="8" height="8" fill="#111827" /><rect x="392" y="512" width="8" height="8" fill="#111827" /><rect x="424" y="512" width="8" height="8" fill="#111827" /><rect x="448" y="512" width="8" height="8" fill="#111827" /><rect x="472" y="512" width="8" height="8" fill="#111827" /><rect x="480" y="512" width="8" height="8" fill="#111827" /><rect x="504" y="512" width="8" height="8" fill="#111827" /><rect x="16" y="520" width="8" height="8" fill="#111827" /><rect x="64" y="520" width="8" height="8" fill="#111827" /><rect x="104" y="520" width="8" height="8" fill="#111827" /><rect x="112" y="520" width="8" height="8" fill="#111827" /><rect x="120" y="520" width="8" height="8" fill="#111827" /><rect x="136" y="520" width="8" height="8" fill="#111827" /><rect x="208" y="520" width="8" height="8" fill="#111827" /><rect x="264" y="520" width="8" height="8" fill="#111827" /><rect x="296" y="520" width="8" height="8" fill="#111827" /><rect x="312" y="520" width="8" height="8" fill="#111827" /><rect x="328" y="520" width="8" height="8" fill="#111827" /><rect x="384" y="520" width="8" height="8" fill="#111827" /><rect x="448" y="520" width="8" height="8" fill="#111827" /><rect x="472" y="520" width="8" height="8" fill="#111827" /><rect x="528" y="520" width="8" height="8" fill="#111827" /><rect x="16" y="528" width="8" height="8" fill="#111827" /><rect x="24" y="528" width="8" height="8" fill="#111827" /><rect x="32" y="528" width="8" height="8" fill="#111827" /><rect x="40" y="528" width="8" height="8" fill="#111827" /><rect x="48" y="528" width="8" height="8" fill="#111827" /><rect x="56" y="528" width="8" height="8" fill="#111827" /><rect x="64" y="528" width="8" height="8" fill="#111827" /><rect x="152" y="528" width="8" height="8" fill="#111827" /><rect x="176" y="528" width="8" height="8" fill="#111827" /><rect x="184" y="528" width="8" height="8" fill="#111827" /><rect x="192" y="528" width="8" height="8" fill="#111827" /><rect x="208" y="528" width="8" height="8" fill="#111827" /><rect x="216" y="528" width="8" height="8" fill="#111827" /><rect x="240" y="528" width="8" height="8" fill="#111827" /><rect x="256" y="528" width="8" height="8" fill="#111827" /><rect x="304" y="528" width="8" height="8" fill="#111827" /><rect x="328" y="528" width="8" height="8" fill="#111827" /><rect x="344" y="528" width="8" height="8" fill="#111827" /><rect x="352" y="528" width="8" height="8" fill="#111827" /><rect x="416" y="528" width="8" height="8" fill="#111827" /><rect x="432" y="528" width="8" height="8" fill="#111827" /><rect x="472" y="528" width="8" height="8" fill="#111827" /><rect x="512" y="528" width="8" height="8" fill="#111827" /></svg>