<svg xmlns="http://www.w3.org/2000/svg" width="552" height="552" viewBox="0 0 552 552" shape-rendering="crispEdges"><rect x="16" y="16" width="8" height="8" fill="#111827" /><rect x="24" y="16" width="8" height="8" fill="#111827" /><rect x="32" y="16" width="8" height="8" fill="#111827" /><rect x="40" y="16" width="8" height="8" fill="#111827" /><rect x="48" y="16" width="8" height="8" fill="#111827" /><rect x="56" y="16" width="8" height="8" fill="#111827" /><rect x="64" y="16" width="8" height="8" fill="#111827" /><rect x="88" y="16" width="8" height="8" fill="#111827" /><rect x="248" y="16" width="8" height="8" fill="#111827" /><rect x="256" y="16" width="8" height="8" fill="#111827" /><rect x="264" y="16" width="8" height="8" fill="#111827" /><rect x="328" y="16" width="8" height="8" fill="#111827" /><rect x="336" y="16" width="8" height="8" fill="#111827" /><rect x="480" y="16" width="8" height="8" fill="#111827" /><rect x="488" y="16" width="8" height="8" fill="#111827" /><rect x="496" y="16" width="8" height="8" fill="#111827" /><rect x="504" y="16" width="8" height="8" fill="#111827" /><rect x="512" y="16" width="8" height="8" fill="#111827" /><rect x="520" y="16" width="8" height="8" fill="#111827" /><rect x="528" y="16" width="8" height="8" fill="#111827" /><rect x="16" y="24" width="8" height="8" fill="#111827" /><rect x="64" y="24" width="8" height="8" fill="#111827" /><rect x="112" y="24" width="8" height="8" fill="#111827" /><rect x="216" y="24" width="8" height="8" fill="#111827" /><rect x="248" y="24" width="8" height="8" fill="#111827" /><rect x="264" y="24" width="8" height="8" fill="#111827" /><rect x="344" y="24" width="8" height="8" fill="#111827" /><rect x="352" y="24" width="8" height="8" fill="#111827" /><rect x="368" y="24" width="8" height="8" fill="#111827" /><rect x="480" y="24" width="8" height="8" fill="#111827" /><rect x="528" y="24" width="8" height="8" fill="#111827" /><rect x="16" y="32" width="8" height="8" fill="#111827" /><rect x="32" y="32" width="8" height="8" fill="#111827" /><rect x="40" y="32" width="8" height="8" fill="#111827" /><rect x="48" y="32" width="8" height="8" fill="#111827" /><rect x="64" y="32" width="8" height="8" fill="#111827" /><rect x="288" y="32" width="8" height="8" fill="#111827" /><rect x="368" y="32" width="8" height="8" fill="#111827" /><rect x="392" y="32" width="8" height="8" fill="#111827" /><rect x="400" y="32" width="8" height="8" fill="#111827" /><rect x="432" y="32" width="8" height="8" fill="#111827" /><rect x="480" y="32" width="8" height="8" fill="#111827" /><rect x="496" y="32" width="8" height="8" fill="#111827" /><rect x="504" y="32" width="8" height="8" fill="#111827" /><rect x="512" y="32" width="8" height="8" fill="#111827" /><rect x="528" y="32" width="8" height="8" fill="#111827" /><rect x="16" y="40" width="8" height="8" fill="#111827" /><rect x="32" y="40" width="8" height="8" fill="#111827" /><rect x="40" y="40" width="8" height="8" fill="#111827" /><rect x="48" y="40" width="8" height="8" fill="#111827" /><rect x="64" y="40" width="8" height="8" fill="#111827" /><rect x="224" y="40" width="8" height="8" fill="#111827" /><rect x="256" y="40" width="8" height="8" fill="#111827" /><rect x="352" y="40" width="8" height="8" fill="#111827" /><rect x="392" y="40" width="8" height="8" fill="#111827" /><rect x="400" y="40" width="8" height="8" fill="#111827" /><rect x="480" y="40" width="8" height="8" fill="#111827" /><rect x="496" y="40" width="8" height="8" fill="#111827" /><rect x="504" y="40" width="8" height="8" fill="#111827" /><rect x="512" y="40" width="8" height="8" fill="#111827" /><rect x="528" y="40" width="8" height="8" fill="#111827" /><rect x="16" y="48" width="8" height="8" fill="#111827" /><rect x="32" y="48" width="8" height="8" fill="#111827" /><rect x="40" y="48" width="8" height="8" fill="#111827" /><rect x="48" y="48" width="8" height="8" fill="#111827" /><rect x="64" y="48" width="8" height="8" fill="#111827" /><rect x="312" y="48" width="8" height="8" fill="#111827" /><rect x="360" y="48" width="8" height="8" fill="#111827" /><rect x="480" y="48" width="8" height="8" fill="#111827" /><rect x="496" y="48" width="8" height="8" fill="#111827" /><rect x="504" y="48" width="8" height="8" fill="#111827" /><rect x="512" y="48" width="8" height="8" fill="#111827" /><rect x="528" y="48" width="8" height="8" fill="#111827" /><rect x="16" y="56" width="8" height="8" fill="#111827" /><rect x="64" y="56" width="8" height="8" fill="#111827" /><rect x="112" y="56" width="8" height="8" fill="#111827" /><rect x="344" y="56" width="8" height="8" fill="#111827" /><rect x="392" y="56" width="8" height="8" fill="#111827" /><rect x="400" y="56" width="8" height="8" fill="#111827" /><rect x="480" y="56" width="8" height="8" fill="#111827" /><rect x="528" y="56" width="8" height="8" fill="#111827" /><rect x="16" y="64" width="8" height="8" fill="#111827" /><rect x="24" y="64" width="8" height="8" fill="#111827" /><rect x="32" y="64" width="8" height="8" fill="#111827" /><rect x="40" y="64" width="8" height="8" fill="#111827" /><rect x="48" y="64" width="8" height="8" fill="#111827" /><rect x="56" y="64" width="8" height="8" fill="#111827" /><rect x="64" y="64" width="8" height="8" fill="#111827" /><rect x="480" y="64" width="8" height="8" fill="#111827" /><rect x="488" y="64" width="8" height="8" fill="#111827" /><rect x="496" y="64" width="8" height="8" fill="#111827" /><rect x="504" y="64" width="8" height="8" fill="#111827" /><rect x="512" y="64" width="8" height="8" fill="#111827" /><rect x="520" y="64" width="8" height="8" fill="#111827" /><rect x="528" y="64" width="8" height="8" fill="#111827" /><rect x="104" y="72" width="8" height="8" fill="#111827" /><rect x="112" y="72" width="8" height="8" fill="#111827" /><rect x="136" y="72" width="8" height="8" fill="#111827" /><rect x="144" y="72" width="8" height="8" fill="#111827" /><rect x="248" y="72" width="8" height="8" fill="#111827" /><rect x="344" y="72" width="8" height="8" fill="#111827" /><rect x="352" y="72" width="8" height="8" fill="#111827" /><rect x="112" y="80" width="8" height="8" fill="#111827" /><rect x="136" y="80" width="8" height="8" fill="#111827" /><rect x="144" y="80" width="8" height="8" fill="#111827" /><rect x="176" y="80" width="8" height="8" fill="#111827" /><rect x="320" y="80" width="8" height="8" fill="#111827" /><rect x="344" y="80" width="8" height="8" fill="#111827" /><rect x="104" y="88" width="8" height="8" fill="#111827" /><rect x="112" y="88" width="8" height="8" fill="#111827" /><rect x="144" y="88" width="8" height="8" fill="#111827" /><rect x="168" y="88" width="8" height="8" fill="#111827" /><rect x="248" y="88" width="8" height="8" fill="#111827" /><rect x="320" y="88" width="8" height="8" fill="#111827" /><rect x="352" y="88" width="8" height="8" fill="#111827" /><rect x="480" y="88" width="8" height="8" fill="#111827" /><rect x="512" y="88" width="8" height="8" fill="#111827" /><rect x="24" y="96" width="8" height="8" fill="#111827" /><rect x="104" y="96" width="8" height="8" fill="#111827" /><rect x="144" y="96" width="8" height="8" fill="#111827" /><rect x="152" y="96" width="8" height="8" fill="#111827" /><rect x="160" y="96" width="8" height="8" fill="#111827" /><rect x="176" y="96" width="8" height="8" fill="#111827" /><rect x="184" y="96" width="8" height="8" fill="#111827" /><rect x="216" y="96" width="8" height="8" fill="#111827" /><rect x="272" y="96" width="8" height="8" fill="#111827" /><rect x="424" y="96" width="8" height="8" fill="#111827" /><rect x="480" y="96" width="8" height="8" fill="#111827" /><rect x="504" y="96" width="8" height="8" fill="#111827" /><rect x="56" y="104" width="8" height="8" fill="#111827" /><rect x="104" y="104" width="8" height="8" fill="#111827" /><rect x="144" y="104" width="8" height="8" fill="#111827" /><rect x="152" y="104" width="8" height="8" fill="#111827" /><rect x="168" y="104" width="8" height="8" fill="#111827" /><rect x="216" y="104" width="8" height="8" fill="#111827" /><rect x="504" y="104" width="8" height="8" fill="#111827" /><rect x="512" y="104" width="8" height="8" fill="#111827" /><rect x="16" y="112" width="8" height="8" fill="#111827" /><rect x="24" y="112" width="8" height="8" fill="#111827" /><rect x="104" y="112" width="8" height="8" fill="#111827" /><rect x="112" y="112" width="8" height="8" fill="#111827" /><rect x="176" y="112" width="8" height="8" fill="#111827" /><rect x="192" y="112" width="8" height="8" fill="#111827" /><rect x="216" y="112" width="8" height="8" fill="#111827" /><rect x="320" y="112" width="8" height="8" fill="#111827" /><rect x="448" y="112" width="8" height="8" fill="#111827" /><rect x="504" y="112" width="8" height="8" fill="#111827" /><rect x="512" y="112" width="8" height="8" fill="#111827" /><rect x="24" y="120" width="8" height="8" fill="#111827" /><rect x="104" y="120" width="8" height="8" fill="#111827" /><rect x="112" y="120" width="8" height="8" fill="#111827" /><rect x="136" y="120" width="8" height="8" fill="#111827" /><rect x="192" y="120" width="8" height="8" fill="#111827" /><rect x="208" y="120" width="8" height="8" fill="#111827" /><rect x="280" y="120" width="8" height="8" fill="#111827" /><rect x="424" y="120" width="8" height="8" fill="#111827" /><rect x="504" y="120" width="8" height="8" fill="#111827" /><rect x="104" y="128" width="8" height="8" fill="#111827" /><rect x="168" y="128" width="8" height="8" fill="#111827" /><rect x="200" y="128" width="8" height="8" fill="#111827" /><rect x="248" y="128" width="8" height="8" fill="#111827" /><rect x="288" y="128" width="8" height="8" fill="#111827" /><rect x="312" y="128" width="8" height="8" fill="#111827" /><rect x="448" y="128" width="8" height="8" fill="#111827" /><rect x="16" y="136" width="8" height="8" fill="#111827" /><rect x="24" y="136" width="8" height="8" fill="#111827" /><rect x="56" y="136" width="8" height="8" fill="#111827" /><rect x="104" y="136" width="8" height="8" fill="#111827" /><rect x="112" y="136" width="8" height="8" fill="#111827" /><rect x="128" y="136" width="8" height="8" fill="#111827" /><rect x="136" y="136" width="8" height="8" fill="#111827" /><rect x="152" y="136" width="8" height="8" fill="#111827" /><rect x="168" y="136" width="8" height="8" fill="#111827" /><rect x="208" y="136" width="8" height="8" fill="#111827" /><rect x="320" y="136" width="8" height="8" fill="#111827" /><rect x="344" y="136" width="8" height="8" fill="#111827" /><rect x="424" y="136" width="8" height="8" fill="#111827" /><rect x="512" y="136" width="8" height="8" fill="#111827" /><rect x="528" y="136" width="8" height="8" fill="#111827" /><rect x="112" y="144" width="8" height="8" fill="#111827" /><rect x="120" y="144" width="8" height="8" fill="#111827" /><rect x="128" y="144" width="8" height="8" fill="#111827" /><rect x="136" y="144" width="8" height="8" fill="#111827" /><rect x="144" y="144" width="8" height="8" fill="#111827" /><rect x="184" y="144" width="8" height="8" fill="#111827" /><rect x="192" y="144" width="8" height="8" fill="#111827" /><rect x="208" y="144" width="8" height="8" fill="#111827" /><rect x="216" y="144" width="8" height="8" fill="#111827" /><rect x="296" y="144" width="8" height="8" fill="#111827" /><rect x="320" y="144" width="8" height="8" fill="#111827" /><rect x="344" y="144" width="8" height="8" fill="#111827" /><rect x="424" y="144" width="8" height="8" fill="#111827" /><rect x="448" y="144" width="8" height="8" fill="#111827" /><rect x="464" y="144" width="8" height="8" fill="#111827" /><rect x="512" y="144" width="8" height="8" fill="#111827" /><rect x="56" y="152" width="8" height="8" fill="#111827" /><rect x="104" y="152" width="8" height="8" fill="#111827" /><rect x="136" y="152" width="8" height="8" fill="#111827" /><rect x="144" y="152" width="8" height="8" fill="#111827" /><rect x="192" y="152" width="8" height="8" fill="#111827" /><rect x="208" y="152" width="8" height="8" fill="#111827" /><rect x="296" y="152" width="8" height="8" fill="#111827" /><rect x="400" y="152" width="8" height="8" fill="#111827" /><rect x="408" y="152" width="8" height="8" fill="#111827" /><rect x="416" y="152" width="8" height="8" fill="#111827" /><rect x="464" y="152" width="8" height="8" fill="#111827" /><rect x="504" y="152" width="8" height="8" fill="#111827" /><rect x="512" y="152" width="8" height="8" fill="#111827" /><rect x="528" y="152" width="8" height="8" fill="#111827" /><rect x="16" y="160" width="8" height="8" fill="#111827" /><rect x="48" y="160" width="8" height="8" fill="#111827" /><rect x="56" y="160" width="8" height="8" fill="#111827" /><rect x="104" y="160" width="8" height="8" fill="#111827" /><rect x="144" y="160" width="8" height="8" fill="#111827" /><rect x="160" y="160" width="8" height="8" fill="#111827" /><rect x="168" y="160" width="8" height="8" fill="#111827" /><rect x="184" y="160" width="8" height="8" fill="#111827" /><rect x="200" y="160" width="8" height="8" fill="#111827" /><rect x="216" y="160" width="8" height="8" fill="#111827" /><rect x="224" y="160" width="8" height="8" fill="#111827" /><rect x="232" y="160" width="8" height="8" fill="#111827" /><rect x="312" y="160" width="8" height="8" fill="#111827" /><rect x="320" y="160" width="8" height="8" fill="#111827" /><rect x="408" y="160" width="8" height="8" fill="#111827" /><rect x="416" y="160" width="8" height="8" fill="#111827" /><rect x="424" y="160" width="8" height="8" fill="#111827" /><rect x="448" y="160" width="8" height="8" fill="#111827" /><rect x="456" y="160" width="8" height="8" fill="#111827" /><rect x="504" y="160" width="8" height="8" fill="#111827" /><rect x="24" y="168" width="8" height="8" fill="#111827" /><rect x="56" y="168" width="8" height="8" fill="#111827" /><rect x="128" y="168" width="8" height="8" fill="#111827" /><rect x="136" y="168" width="8" height="8" fill="#111827" /><rect x="208" y="168" width="8" height="8" fill="#111827" /><rect x="320" y="168" width="8" height="8" fill="#111827" /><rect x="328" y="168" width="8" height="8" fill="#111827" /><rect x="336" y="168" width="8" height="8" fill="#111827" /><rect x="344" y="168" width="8" height="8" fill="#111827" /><rect x="408" y="168" width="8" height="8" fill="#111827" /><rect x="464" y="168" width="8" height="8" fill="#111827" /><rect x="512" y="168" width="8" height="8" fill="#111827" /><rect x="88" y="176" width="8" height="8" fill="#111827" /><rect x="104" y="176" width="8" height="8" fill="#111827" /><rect x="112" y="176" width="8" height="8" fill="#111827" /><rect x="144" y="176" width="8" height="8" fill="#111827" /><rect x="152" y="176" width="8" height="8" fill="#111827" /><rect x="176" y="176" width="8" height="8" fill="#111827" /><rect x="208" y="176" width="8" height="8" fill="#111827" /><rect x="216" y="176" width="8" height="8" fill="#111827" /><rect x="320" y="176" width="8" height="8" fill="#111827" /><rect x="384" y="176" width="8" height="8" fill="#111827" /><rect x="408" y="176" width="8" height="8" fill="#111827" /><rect x="464" y="176" width="8" height="8" fill="#111827" /><rect x="512" y="176" width="8" height="8" fill="#111827" /><rect x="104" y="184" width="8" height="8" fill="#111827" /><rect x="144" y="184" width="8" height="8" fill="#111827" /><rect x="168" y="184" width="8" height="8" fill="#111827" /><rect x="192" y="184" width="8" height="8" fill="#111827" /><rect x="200" y="184" width="8" height="8" fill="#111827" /><rect x="280" y="184" width="8" height="8" fill="#111827" /><rect x="416" y="184" width="8" height="8" fill="#111827" /><rect x="464" y="184" width="8" height="8" fill="#111827" /><rect x="504" y="184" width="8" height="8" fill="#111827" /><rect x="512" y="184" width="8" height="8" fill="#111827" /><rect x="16" y="192" width="8" height="8" fill="#111827" /><rect x="48" y="192" width="8" height="8" fill="#111827" /><rect x="120" y="192" width="8" height="8" fill="#111827" /><rect x="144" y="192" width="8" height="8" fill="#111827" /><rect x="160" y="192" width="8" height="8" fill="#111827" /><rect x="168" y="192" width="8" height="8" fill="#111827" /><rect x="184" y="192" width="8" height="8" fill="#111827" /><rect x="200" y="192" width="8" height="8" fill="#111827" /><rect x="216" y="192" width="8" height="8" fill="#111827" /><rect x="288" y="192" width="8" height="8" fill="#111827" /><rect x="384" y="192" width="8" height="8" fill="#111827" /><rect x="416" y="192" width="8" height="8" fill="#111827" /><rect x="424" y="192" width="8" height="8" fill="#111827" /><rect x="448" y="192" width="8" height="8" fill="#111827" /><rect x="16" y="200" width="8" height="8" fill="#111827" /><rect x="56" y="200" width="8" height="8" fill="#111827" /><rect x="96" y="200" width="8" height="8" fill="#111827" /><rect x="120" y="200" width="8" height="8" fill="#111827" /><rect x="136" y="200" width="8" height="8" fill="#111827" /><rect x="144" y="200" width="8" height="8" fill="#111827" /><rect x="200" y="200" width="8" height="8" fill="#111827" /><rect x="208" y="200" width="8" height="8" fill="#111827" /><rect x="216" y="200" width="8" height="8" fill="#111827" /><rect x="312" y="200" width="8" height="8" fill="#111827" /><rect x="320" y="200" width="8" height="8" fill="#111827" /><rect x="336" y="200" width="8" height="8" fill="#111827" /><rect x="408" y="200" width="8" height="8" fill="#111827" /><rect x="456" y="200" width="8" height="8" fill="#111827" /><rect x="504" y="200" width="8" height="8" fill="#111827" /><rect x="512" y="200" width="8" height="8" fill="#111827" /><rect x="24" y="208" width="8" height="8" fill="#111827" /><rect x="32" y="208" width="8" height="8" fill="#111827" /><rect x="104" y="208" width="8" height="8" fill="#111827" /><rect x="136" y="208" width="8" height="8" fill="#111827" /><rect x="152" y="208" width="8" height="8" fill="#111827" /><rect x="208" y="208" width="8" height="8" fill="#111827" /><rect x="216" y="208" width="8" height="8" fill="#111827" /><rect x="296" y="208" width="8" height="8" fill="#111827" /><rect x="320" y="208" width="8" height="8" fill="#111827" /><rect x="384" y="208" width="8" height="8" fill="#111827" /><rect x="456" y="208" width="8" height="8" fill="#111827" /><rect x="464" y="208" width="8" height="8" fill="#111827" /><rect x="504" y="208" width="8" height="8" fill="#111827" /><rect x="512" y="208" width="8" height="8" fill="#111827" /><rect x="16" y="216" width="8" height="8" fill="#111827" /><rect x="96" y="216" width="8" height="8" fill="#111827" /><rect x="104" y="216" width="8" height="8" fill="#111827" /><rect x="160" y="216" width="8" height="8" fill="#111827" /><rect x="200" y="216" width="8" height="8" fill="#111827" /><rect x="208" y="216" width="8" height="8" fill="#111827" /><rect x="216" y="216" width="8" height="8" fill="#111827" /><rect x="320" y="216" width="8" height="8" fill="#111827" /><rect x="408" y="216" width="8" height="8" fill="#111827" /><rect x="416" y="216" width="8" height="8" fill="#111827" /><rect x="424" y="216" width="8" height="8" fill="#111827" /><rect x="456" y="216" width="8" height="8" fill="#111827" /><rect x="464" y="216" width="8" height="8" fill="#111827" /><rect x="112" y="224" width="8" height="8" fill="#111827" /><rect x="120" y="224" width="8" height="8" fill="#111827" /><rect x="144" y="224" width="8" height="8" fill="#111827" /><rect x="184" y="224" width="8" height="8" fill="#111827" /><rect x="200" y="224" width="8" height="8" fill="#111827" /><rect x="224" y="224" width="8" height="8" fill="#111827" /><rect x="288" y="224" width="8" height="8" fill="#111827" /><rect x="320" y="224" width="8" height="8" fill="#111827" /><rect x="384" y="224" width="8" height="8" fill="#111827" /><rect x="408" y="224" width="8" height="8" fill="#111827" /><rect x="416" y="224" width="8" height="8" fill="#111827" /><rect x="424" y="224" width="8" height="8" fill="#111827" /><rect x="448" y="224" width="8" height="8" fill="#111827" /><rect x="56" y="232" width="8" height="8" fill="#111827" /><rect x="72" y="232" width="8" height="8" fill="#111827" /><rect x="120" y="232" width="8" height="8" fill="#111827" /><rect x="136" y="232" width="8" height="8" fill="#111827" /><rect x="144" y="232" width="8" height="8" fill="#111827" /><rect x="200" y="232" width="8" height="8" fill="#111827" /><rect x="240" y="232" width="8" height="8" fill="#111827" /><rect x="288" y="232" width="8" height="8" fill="#111827" /><rect x="336" y="232" width="8" height="8" fill="#111827" /><rect x="416" y="232" width="8" height="8" fill="#111827" /><rect x="424" y="232" width="8" height="8" fill="#111827" /><rect x="464" y="232" width="8" height="8" fill="#111827" /><rect x="32" y="240" width="8" height="8" fill="#111827" /><rect x="136" y="240" width="8" height="8" fill="#111827" /><rect x="152" y="240" width="8" height="8" fill="#111827" /><rect x="192" y="240" width="8" height="8" fill="#111827" /><rect x="208" y="240" width="8" height="8" fill="#111827" /><rect x="288" y="240" width="8" height="8" fill="#111827" /><rect x="336" y="240" width="8" height="8" fill="#111827" /><rect x="384" y="240" width="8" height="8" fill="#111827" /><rect x="448" y="240" width="8" height="8" fill="#111827" /><rect x="456" y="240" width="8" height="8" fill="#111827" /><rect x="464" y="240" width="8" height="8" fill="#111827" /><rect x="480" y="240" width="8" height="8" fill="#111827" /><rect x="56" y="248" width="8" height="8" fill="#111827" /><rect x="96" y="248" width="8" height="8" fill="#111827" /><rect x="136" y="248" width="8" height="8" fill="#111827" /><rect x="160" y="248" width="8" height="8" fill="#111827" /><rect x="168" y="248" width="8" height="8" fill="#111827" /><rect x="192" y="248" width="8" height="8" fill="#111827" /><rect x="208" y="248" width="8" height="8" fill="#111827" /><rect x="280" y="248" width="8" height="8" fill="#111827" /><rect x="296" y="248" width="8" height="8" fill="#111827" /><rect x="408" y="248" width="8" height="8" fill="#111827" /><rect x="416" y="248" width="8" height="8" fill="#111827" /><rect x="456" y="248" width="8" height="8" fill="#111827" /><rect x="464" y="248" width="8" height="8" fill="#111827" /><rect x="40" y="256" width="8" height="8" fill="#111827" /><rect x="128" y="256" width="8" height="8" fill="#111827" /><rect x="184" y="256" width="8" height="8" fill="#111827" /><rect x="200" y="256" width="8" height="8" fill="#111827" /><rect x="232" y="256" width="8" height="8" fill="#111827" /><rect x="384" y="256" width="8" height="8" fill="#111827" /><rect x="408" y="256" width="8" height="8" fill="#111827" /><rect x="416" y="256" width="8" height="8" fill="#111827" /><rect x="448" y="256" width="8" height="8" fill="#111827" /><rect x="16" y="264" width="8" height="8" fill="#111827" /><rect x="24" y="264" width="8" height="8" fill="#111827" /><rect x="88" y="264" width="8" height="8" fill="#111827" /><rect x="96" y="264" width="8" height="8" fill="#111827" /><rect x="152" y="264" width="8" height="8" fill="#111827" /><rect x="208" y="264" width="8" height="8" fill="#111827" /><rect x="408" y="264" width="8" height="8" fill="#111827" /><rect x="416" y="264" width="8" height="8" fill="#111827" /><rect x="456" y="264" width="8" height="8" fill="#111827" /><rect x="24" y="272" width="8" height="8" fill="#111827" /><rect x="32" y="272" width="8" height="8" fill="#111827" /><rect x="184" y="272" width="8" height="8" fill="#111827" /><rect x="208" y="272" width="8" height="8" fill="#111827" /><rect x="384" y="272" width="8" height="8" fill="#111827" /><rect x="408" y="272" width="8" height="8" fill="#111827" /><rect x="448" y="272" width="8" height="8" fill="#111827" /><rect x="120" y="280" width="8" height="8" fill="#111827" /><rect x="200" y="280" width="8" height="8" fill="#111827" /><rect x="296" y="280" width="8" height="8" fill="#111827" /><rect x="408" y="280" width="8" height="8" fill="#111827" /><rect x="416" y="280" width="8" height="8" fill="#111827" /><rect x="456" y="280" width="8" height="8" fill="#111827" /><rect x="120" y="288" width="8" height="8" fill="#111827" /><rect x="128" y="288" width="8" height="8" fill="#111827" /><rect x="168" y="288" width="8" height="8" fill="#111827" /><rect x="200" y="288" width="8" height="8" fill="#111827" /><rect x="232" y="288" width="8" height="8" fill="#111827" /><rect x="296" y="288" width="8" height="8" fill="#111827" /><rect x="384" y="288" width="8" height="8" fill="#111827" /><rect x="408" y="288" width="8" height="8" fill="#111827" /><rect x="416" y="288" width="8" height="8" fill="#111827" /><rect x="448" y="288" width="8" height="8" fill="#111827" /><rect x="16" y="296" width="8" height="8" fill="#111827" /><rect x="72" y="296" width="8" height="8" fill="#111827" /><rect x="80" y="296" width="8" height="8" fill="#111827" /><rect x="88" y="296" width="8" height="8" fill="#111827" /><rect x="120" y="296" width="8" height="8" fill="#111827" /><rect x="128" y="296" width="8" height="8" fill="#111827" /><rect x="176" y="296" width="8" height="8" fill="#111827" /><rect x="208" y="296" width="8" height="8" fill="#111827" /><rect x="280" y="296" width="8" height="8" fill="#111827" /><rect x="416" y="296" width="8" height="8" fill="#111827" /><rect x="496" y="296" width="8" height="8" fill="#111827" /><rect x="24" y="304" width="8" height="8" fill="#111827" /><rect x="200" y="304" width="8" height="8" fill="#111827" /><rect x="264" y="304" width="8" height="8" fill="#111827" /><rect x="296" y="304" width="8" height="8" fill="#111827" /><rect x="408" y="304" width="8" height="8" fill="#111827" /><rect x="448" y="304" width="8" height="8" fill="#111827" /><rect x="464" y="304" width="8" height="8" fill="#111827" /><rect x="472" y="304" width="8" height="8" fill="#111827" /><rect x="16" y="312" width="8" height="8" fill="#111827" /><rect x="56" y="312" width="8" height="8" fill="#111827" /><rect x="280" y="312" width="8" height="8" fill="#111827" /><rect x="296" y="312" width="8" height="8" fill="#111827" /><rect x="416" y="312" width="8" height="8" fill="#111827" /><rect x="456" y="312" width="8" height="8" fill="#111827" /><rect x="520" y="312" width="8" height="8" fill="#111827" /><rect x="40" y="320" width="8" height="8" fill="#111827" /><rect x="48" y="320" width="8" height="8" fill="#111827" /><rect x="120" y="320" width="8" height="8" fill="#111827" /><rect x="232" y="320" width="8" height="8" fill="#111827" /><rect x="288" y="320" width="8" height="8" fill="#111827" /><rect x="384" y="320" width="8" height="8" fill="#111827" /><rect x="416" y="320" width="8" height="8" fill="#111827" /><rect x="448" y="320" width="8" height="8" fill="#111827" /><rect x="472" y="320" width="8" height="8" fill="#111827" /><rect x="488" y="320" width="8" height="8" fill="#111827" /><rect x="520" y="320" width="8" height="8" fill="#111827" /><rect x="120" y="328" width="8" height="8" fill="#111827" /><rect x="128" y="328" width="8" height="8" fill="#111827" /><rect x="200" y="328" width="8" height="8" fill="#111827" /><rect x="240" y="328" width="8" height="8" fill="#111827" /><rect x="280" y="328" width="8" height="8" fill="#111827" /><rect x="328" y="328" width="8" height="8" fill="#111827" /><rect x="336" y="328" width="8" height="8" fill="#111827" /><rect x="344" y="328" width="8" height="8" fill="#111827" /><rect x="416" y="328" width="8" height="8" fill="#111827" /><rect x="472" y="328" width="8" height="8" fill="#111827" /><rect x="488" y="328" width="8" height="8" fill="#111827" /><rect x="520" y="328" width="8" height="8" fill="#111827" /><rect x="32" y="336" width="8" height="8" fill="#111827" /><rect x="264" y="336" width="8" height="8" fill="#111827" /><rect x="304" y="336" width="8" height="8" fill="#111827" /><rect x="328" y="336" width="8" height="8" fill="#111827" /><rect x="344" y="336" width="8" height="8" fill="#111827" /><rect x="464" y="336" width="8" height="8" fill="#111827" /><rect x="480" y="336" width="8" height="8" fill="#111827" /><rect x="80" y="344" width="8" height="8" fill="#111827" /><rect x="96" y="344" width="8" height="8" fill="#111827" /><rect x="120" y="344" width="8" height="8" fill="#111827" /><rect x="232" y="344" width="8" height="8" fill="#111827" /><rect x="264" y="344" width="8" height="8" fill="#111827" /><rect x="304" y="344" width="8" height="8" fill="#111827" /><rect x="344" y="344" width="8" height="8" fill="#111827" /><rect x="408" y="344" width="8" height="8" fill="#111827" /><rect x="416" y="344" width="8" height="8" fill="#111827" /><rect x="464" y="344" width="8" height="8" fill="#111827" /><rect x="520" y="344" width="8" height="8" fill="#111827" /><rect x="80" y="352" width="8" height="8" fill="#111827" /><rect x="232" y="352" width="8" height="8" fill="#111827" /><rect x="264" y="352" width="8" height="8" fill="#111827" /><rect x="384" y="352" width="8" height="8" fill="#111827" /><rect x="408" y="352" width="8" height="8" fill="#111827" /><rect x="416" y="352" width="8" height="8" fill="#111827" /><rect x="520" y="352" width="8" height="8" fill="#111827" /><rect x="88" y="360" width="8" height="8" fill="#111827" /><rect x="232" y="360" width="8" height="8" fill="#111827" /><rect x="272" y="360" width="8" height="8" fill="#111827" /><rect x="328" y="360" width="8" height="8" fill="#111827" /><rect x="392" y="360" width="8" height="8" fill="#111827" /><rect x="464" y="360" width="8" height="8" fill="#111827" /><rect x="512" y="360" width="8" height="8" fill="#111827" /><rect x="32" y="368" width="8" height="8" fill="#111827" /><rect x="80" y="368" width="8" height="8" fill="#111827" /><rect x="264" y="368" width="8" height="8" fill="#111827" /><rect x="464" y="368" width="8" height="8" fill="#111827" /><rect x="472" y="368" width="8" height="8" fill="#111827" /><rect x="480" y="368" width="8" height="8" fill="#111827" /><rect x="80" y="376" width="8" height="8" fill="#111827" /><rect x="104" y="376" width="8" height="8" fill="#111827" /><rect x="112" y="376" width="8" height="8" fill="#111827" /><rect x="264" y="376" width="8" height="8" fill="#111827" /><rect x="312" y="376" width="8" height="8" fill="#111827" /><rect x="344" y="376" width="8" height="8" fill="#111827" /><rect x="464" y="376" width="8" height="8" fill="#111827" /><rect x="472" y="376" width="8" height="8" fill="#111827" /><rect x="40" y="384" width="8" height="8" fill="#111827" /><rect x="80" y="384" width="8" height="8" fill="#111827" /><rect x="224" y="384" width="8" height="8" fill="#111827" /><rect x="344" y="384" width="8" height="8" fill="#111827" /><rect x="80" y="392" width="8" height="8" fill="#111827" /><rect x="112" y="392" width="8" height="8" fill="#111827" /><rect x="224" y="392" width="8" height="8" fill="#111827" /><rect x="224" y="400" width="8" height="8" fill="#111827" /><rect x="264" y="400" width="8" height="8" fill="#111827" /><rect x="352" y="400" width="8" height="8" fill="#111827" /><rect x="512" y="400" width="8" height="8" fill="#111827" /><rect x="520" y="400" width="8" height="8" fill="#111827" /><rect x="144" y="408" width="8" height="8" fill="#111827" /><rect x="264" y="408" width="8" height="8" fill="#111827" /><rect x="392" y="408" width="8" height="8" fill="#111827" /><rect x="520" y="408" width="8" height="8" fill="#111827" /><rect x="80" y="416" width="8" height="8" fill="#111827" /><rect x="112" y="416" width="8" height="8" fill="#111827" /><rect x="144" y="416" width="8" height="8" fill="#111827" /><rect x="256" y="416" width="8" height="8" fill="#111827" /><rect x="320" y="416" width="8" height="8" fill="#111827" /><rect x="344" y="416" width="8" height="8" fill="#111827" /><rect x="392" y="416" width="8" height="8" fill="#111827" /><rect x="520" y="416" width="8" height="8" fill="#111827" /><rect x="32" y="424" width="8" height="8" fill="#111827" /><rect x="40" y="424" width="8" height="8" fill="#111827" /><rect x="72" y="424" width="8" height="8" fill="#111827" /><rect x="80" y="424" width="8" height="8" fill="#111827" /><rect x="112" y="424" width="8" height="8" fill="#111827" /><rect x="216" y="424" width="8" height="8" fill="#111827" /><rect x="224" y="424" width="8" height="8" fill="#111827" /><rect x="344" y="424" width="8" height="8" fill="#111827" /><rect x="520" y="424" width="8" height="8" fill="#111827" /><rect x="136" y="432" width="8" height="8" fill="#111827" /><rect x="144" y="432" width="8" height="8" fill="#111827" /><rect x="176" y="432" width="8" height="8" fill="#111827" /><rect x="184" y="432" width="8" height="8" fill="#111827" /><rect x="192" y="432" width="8" height="8" fill="#111827" /><rect x="224" y="432" width="8" height="8" fill="#111827" /><rect x="352" y="432" width="8" height="8" fill="#111827" /><rect x="512" y="432" width="8" height="8" fill="#111827" /><rect x="520" y="432" width="8" height="8" fill="#111827" /><rect x="80" y="440" width="8" height="8" fill="#111827" /><rect x="112" y="440" width="8" height="8" fill="#111827" /><rect x="144" y="440" width="8" height="8" fill="#111827" /><rect x="168" y="440" width="8" height="8" fill="#111827" /><rect x="184" y="440" width="8" height="8" fill="#111827" /><rect x="312" y="440" width="8" height="8" fill="#111827" /><rect x="368" y="440" width="8" height="8" fill="#111827" /><rect x="472" y="440" width="8" height="8" fill="#111827" /><rect x="520" y="440" width="8" height="8" fill="#111827" /><rect x="104" y="448" width="8" height="8" fill="#111827" /><rect x="152" y="448" width="8" height="8" fill="#111827" /><rect x="256" y="448" width="8" height="8" fill="#111827" /><rect x="312" y="448" width="8" height="8" fill="#111827" /><rect x="320" y="448" width="8" height="8" fill="#111827" /><rect x="344" y="448" width="8" height="8" fill="#111827" /><rect x="400" y="448" width="8" height="8" fill="#111827" /><rect x="512" y="448" width="8" height="8" fill="#111827" /><rect x="520" y="448" width="8" height="8" fill="#111827" /><rect x="72" y="456" width="8" height="8" fill="#111827" /><rect x="80" y="456" width="8" height="8" fill="#111827" /><rect x="112" y="456" width="8" height="8" fill="#111827" /><rect x="168" y="456" width="8" height="8" fill="#111827" /><rect x="216" y="456" width="8" height="8" fill="#111827" /><rect x="272" y="456" width="8" height="8" fill="#111827" /><rect x="448" y="456" width="8" height="8" fill="#111827" /><rect x="160" y="464" width="8" height="8" fill="#111827" /><rect x="176" y="464" width="8" height="8" fill="#111827" /><rect x="200" y="464" width="8" height="8" fill="#111827" /><rect x="208" y="464" width="8" height="8" fill="#111827" /><rect x="216" y="464" width="8" height="8" fill="#111827" /><rect x="224" y="464" width="8" height="8" fill="#111827" /><rect x="512" y="464" width="8" height="8" fill="#111827" /><rect x="520" y="464" width="8" height="8" fill="#111827" /><rect x="104" y="472" width="8" height="8" fill="#111827" /><rect x="136" y="472" width="8" height="8" fill="#111827" /><rect x="144" y="472" width="8" height="8" fill="#111827" /><rect x="176" y="472" width="8" height="8" fill="#111827" /><rect x="184" y="472" width="8" height="8" fill="#111827" /><rect x="440" y="472" width="8" height="8" fill="#111827" /><rect x="448" y="472" width="8" height="8" fill="#111827" /><rect x="16" y="480" width="8" height="8" fill="#111827" /><rect x="24" y="480" width="8" height="8" fill="#111827" /><rect x="32" y="480" width="8" height="8" fill="#111827" /><rect x="40" y="480" width="8" height="8" fill="#111827" /><rect x="48" y="480" width="8" height="8" fill="#111827" /><rect x="56" y="480" width="8" height="8" fill="#111827" /><rect x="64" y="480" width="8" height="8" fill="#111827" /><rect x="104" y="480" width="8" height="8" fill="#111827" /><rect x="112" y="480" width="8" height="8" fill="#111827" /><rect x="152" y="480" width="8" height="8" fill="#111827" /><rect x="248" y="480" width="8" height="8" fill="#111827" /><rect x="312" y="480" width="8" height="8" fill="#111827" /><rect x="440" y="480" width="8" height="8" fill="#111827" /><rect x="448" y="480" width="8" height="8" fill="#111827" /><rect x="16" y="488" width="8" height="8" fill="#111827" /><rect x="64" y="488" width="8" height="8" fill="#111827" /><rect x="176" y="488" width="8" height="8" fill="#111827" /><rect x="200" y="488" width="8" height="8" fill="#111827" /><rect x="224" y="488" width="8" height="8" fill="#111827" /><rect x="344" y="488" width="8" height="8" fill="#111827" /><rect x="392" y="488" width="8" height="8" fill="#111827" /><rect x="448" y="488" width="8" height="8" fill="#111827" /><rect x="16" y="496" width="8" height="8" fill="#111827" /><rect x="32" y="496" width="8" height="8" fill="#111827" /><rect x="40" y="496" width="8" height="8" fill="#111827" /><rect x="48" y="496" width="8" height="8" fill="#111827" /><rect x="64" y="496" width="8" height="8" fill="#111827" /><rect x="120" y="496" width="8" height="8" fill="#111827" /><rect x="128" y="496" width="8" height="8" fill="#111827" /><rect x="136" y="496" width="8" height="8" fill="#111827" /><rect x="176" y="496" width="8" height="8" fill="#111827" /><rect x="200" y="496" width="8" height="8" fill="#111827" /><rect x="208" y="496" width="8" height="8" fill="#111827" /><rect x="216" y="496" width="8" height="8" fill="#111827" /><rect x="232" y="496" width="8" height="8" fill="#111827" /><rect x="304" y="496" width="8" height="8" fill="#111827" /><rect x="392" y="496" width="8" height="8" fill="#111827" /><rect x="416" y="496" width="8" height="8" fill="#111827" /><rect x="512" y="496" width="8" height="8" fill="#111827" /><rect x="520" y="496" width="8" height="8" fill="#111827" /><rect x="16" y="504" width="8" height="8" fill="#111827" /><rect x="32" y="504" width="8" height="8" fill="#111827" /><rect x="40" y="504" width="8" height="8" fill="#111827" /><rect x="48" y="504" width="8" height="8" fill="#111827" /><rect x="64" y="504" width="8" height="8" fill="#111827" /><rect x="104" y="504" width="8" height="8" fill="#111827" /><rect x="136" y="504" width="8" height="8" fill="#111827" /><rect x="144" y="504" width="8" height="8" fill="#111827" /><rect x="168" y="504" width="8" height="8" fill="#111827" /><rect x="176" y="504" width="8" height="8" fill="#111827" /><rect x="184" y="504" width="8" height="8" fill="#111827" /><rect x="256" y="504" width="8" height="8" fill="#111827" /><rect x="296" y="504" width="8" height="8" fill="#111827" /><rect x="312" y="504" width="8" height="8" fill="#111827" /><rect x="368" y="504" width="8" height="8" fill="#111827" /><rect x="392" y="504" width="8" height="8" fill="#111827" /><rect x="432" y="504" width="8" height="8" fill="#111827" /><rect x="448" y="504" width="8" height="8" fill="#111827" /><rect x="16" y="512" width="8" height="8" fill="#111827" /><rect x="32" y="512" width="8" height="8" fill="#111827" /><rect x="40" y="512" width="8" height="8" fill="#111827" /><rect x="48" y="512" width="8" height="8" fill="#111827" /><rect x="64" y="512" width="8" height="8" fill="#111827" /><rect x="88" y="512" width="8" height="8" fill="#111827" /><rect x="104" y="512" width="8" height="8" fill="#111827" /><rect x="112" y="512" width="8" height="8" fill="#111827" /><rect x="152" y="512" width="8" height="8" fill="#111827" /><rect x="176" y="512" width="8" height="8" fill="#111827" /><rect x="232" y="512" width="8" height="8" fill="#111827" /><rect x="256" y="512" width="8" height="8" fill="#111827" /><rect x="272" y="512" width="8" height="8" fill="#111827" /><rect x="296" y="512" width="8" height="8" fill="#111827" /><rect x="304" y="512" width="8" height="8" fill="#111827" /><rect x="312" y="512" width="8" height="8" fill="#111827" /><rect x="320" y="512" width="8" height="8" fill="#111827" /><rect x="392" y="512" width="8" height="8" fill="#111827" /><rect x="416" y="512" width="8" height="8" fill="#111827" /><rect x="448" y="512" width="8" height="8" fill="#111827" /><rect x="480" y="512" width="8" height="8" fill="#111827" /><rect x="16" y="520" width="8" height="8" fill="#111827" /><rect x="64" y="520" width="8" height="8" fill="#111827" /><rect x="88" y="520" width="8" height="8" fill="#111827" /><rect x="112" y="520" width="8" height="8" fill="#111827" /><rect x="144" y="520" width="8" height="8" fill="#111827" /><rect x="168" y="520" width="8" height="8" fill="#111827" /><rect x="200" y="520" width="8" height="8" fill="#111827" /><rect x="216" y="520" width="8" height="8" fill="#111827" /><rect x="224" y="520" width="8" height="8" fill="#111827" /><rect x="272" y="520" width="8" height="8" fill="#111827" /><rect x="288" y="520" width="8" height="8" fill="#111827" /><rect x="376" y="520" width="8" height="8" fill="#111827" /><rect x="384" y="520" width="8" height="8" fill="#111827" /><rect x="440" y="520" width="8" height="8" fill="#111827" /><rect x="448" y="520" width="8" height="8" fill="#111827" /><rect x="488" y="520" width="8" height="8" fill="#111827" /><rect x="528" y="520" width="8" height="8" fill="#111827" /><rect x="16" y="528" width="8" height="8" fill="#111827" /><rect x="24" y="528" width="8" height="8" fill="#111827" /><rect x="32" y="528" width="8" height="8" fill="#111827" /><rect x="40" y="528" width="8" height="8" fill="#111827" /><rect x="48" y="528" width="8" height="8" fill="#111827" /><rect x="56" y="528" width="8" height="8" fill="#111827" /><rect x="64" y="528" width="8" height="8" fill="#111827" /><rect x="88" y="528" width="8" height="8" fill="#111827" /><rect x="96" y="528" width="8" height="8" fill="#111827" /><rect x="136" y="528" width="8" height="8" fill="#111827" /><rect x="176" y="528" width="8" height="8" fill="#111827" /><rect x="216" y="528" width="8" height="8" fill="#111827" /><rect x="248" y="528" width="8" height="8" fill="#111827" /><rect x="256" y="528" width="8" height="8" fill="#111827" /><rect x="264" y="528" width="8" height="8" fill="#111827" /><rect x="304" y="528" width="8" height="8" fill="#111827" /><rect x="336" y="528" width="8" height="8" fill="#111827" /><rect x="440" y="528" width="8" height="8" fill="#111827" /><rect x="480" y="528" width="8" height="8" fill="#111827" /><rect x="488" y="528" width="8" height="8" fill="#111827" /><rect x="512" y="528" width="8" height="8" fill="#111827" /><rect x="520" y="528" width="8" height="8" fill="#111827" /></svg>