<svg xmlns="http://www.w3.org/2000/svg" width="552" height="552" viewBox="0 0 552 552" shape-rendering="crispEdges"><rect x="16" y="16" width="8" height="8" fill="#111827" /><rect x="24" y="16" width="8" height="8" fill="#111827" /><rect x="32" y="16" width="8" height="8" fill="#111827" /><rect x="40" y="16" width="8" height="8" fill="#111827" /><rect x="48" y="16" width="8" height="8" fill="#111827" /><rect x="56" y="16" width="8" height="8" fill="#111827" /><rect x="64" y="16" width="8" height="8" fill="#111827" /><rect x="88" y="16" width="8" height="8" fill="#111827" /><rect x="104" y="16" width="8" height="8" fill="#111827" /><rect x="272" y="16" width="8" height="8" fill="#111827" /><rect x="368" y="16" width="8" height="8" fill="#111827" /><rect x="480" y="16" width="8" height="8" fill="#111827" /><rect x="488" y="16" width="8" height="8" fill="#111827" /><rect x="496" y="16" width="8" height="8" fill="#111827" /><rect x="504" y="16" width="8" height="8" fill="#111827" /><rect x="512" y="16" width="8" height="8" fill="#111827" /><rect x="520" y="16" width="8" height="8" fill="#111827" /><rect x="528" y="16" width="8" height="8" fill="#111827" /><rect x="16" y="24" width="8" height="8" fill="#111827" /><rect x="64" y="24" width="8" height="8" fill="#111827" /><rect x="104" y="24" width="8" height="8" fill="#111827" /><rect x="112" y="24" width="8" height="8" fill="#111827" /><rect x="216" y="24" width="8" height="8" fill="#111827" /><rect x="256" y="24" width="8" height="8" fill="#111827" /><rect x="264" y="24" width="8" height="8" fill="#111827" /><rect x="272" y="24" width="8" height="8" fill="#111827" /><rect x="320" y="24" width="8" height="8" fill="#111827" /><rect x="352" y="24" width="8" height="8" fill="#111827" /><rect x="480" y="24" width="8" height="8" fill="#111827" /><rect x="528" y="24" width="8" height="8" fill="#111827" /><rect x="16" y="32" width="8" height="8" fill="#111827" /><rect x="32" y="32" width="8" height="8" fill="#111827" /><rect x="40" y="32" width="8" height="8" fill="#111827" /><rect x="48" y="32" width="8" height="8" fill="#111827" /><rect x="64" y="32" width="8" height="8" fill="#111827" /><rect x="104" y="32" width="8" height="8" fill="#111827" /><rect x="248" y="32" width="8" height="8" fill="#111827" /><rect x="320" y="32" width="8" height="8" fill="#111827" /><rect x="424" y="32" width="8" height="8" fill="#111827" /><rect x="480" y="32" width="8" height="8" fill="#111827" /><rect x="496" y="32" width="8" height="8" fill="#111827" /><rect x="504" y="32" width="8" height="8" fill="#111827" /><rect x="512" y="32" width="8" height="8" fill="#111827" /><rect x="528" y="32" width="8" height="8" fill="#111827" /><rect x="16" y="40" width="8" height="8" fill="#111827" /><rect x="32" y="40" width="8" height="8" fill="#111827" /><rect x="40" y="40" width="8" height="8" fill="#111827" /><rect x="48" y="40" width="8" height="8" fill="#111827" /><rect x="64" y="40" width="8" height="8" fill="#111827" /><rect x="112" y="40" width="8" height="8" fill="#111827" /><rect x="136" y="40" width="8" height="8" fill="#111827" /><rect x="224" y="40" width="8" height="8" fill="#111827" /><rect x="312" y="40" width="8" height="8" fill="#111827" /><rect x="480" y="40" width="8" height="8" fill="#111827" /><rect x="496" y="40" width="8" height="8" fill="#111827" /><rect x="504" y="40" width="8" height="8" fill="#111827" /><rect x="512" y="40" width="8" height="8" fill="#111827" /><rect x="528" y="40" width="8" height="8" fill="#111827" /><rect x="16" y="48" width="8" height="8" fill="#111827" /><rect x="32" y="48" width="8" height="8" fill="#111827" /><rect x="40" y="48" width="8" height="8" fill="#111827" /><rect x="48" y="48" width="8" height="8" fill="#111827" /><rect x="64" y="48" width="8" height="8" fill="#111827" /><rect x="136" y="48" width="8" height="8" fill="#111827" /><rect x="144" y="48" width="8" height="8" fill="#111827" /><rect x="224" y="48" width="8" height="8" fill="#111827" /><rect x="344" y="48" width="8" height="8" fill="#111827" /><rect x="352" y="48" width="8" height="8" fill="#111827" /><rect x="368" y="48" width="8" height="8" fill="#111827" /><rect x="424" y="48" width="8" height="8" fill="#111827" /><rect x="480" y="48" width="8" height="8" fill="#111827" /><rect x="496" y="48" width="8" height="8" fill="#111827" /><rect x="504" y="48" width="8" height="8" fill="#111827" /><rect x="512" y="48" width="8" height="8" fill="#111827" /><rect x="528" y="48" width="8" height="8" fill="#111827" /><rect x="16" y="56" width="8" height="8" fill="#111827" /><rect x="64" y="56" width="8" height="8" fill="#111827" /><rect x="144" y="56" width="8" height="8" fill="#111827" /><rect x="216" y="56" width="8" height="8" fill="#111827" /><rect x="312" y="56" width="8" height="8" fill="#111827" /><rect x="368" y="56" width="8" height="8" fill="#111827" /><rect x="400" y="56" width="8" height="8" fill="#111827" /><rect x="480" y="56" width="8" height="8" fill="#111827" /><rect x="528" y="56" width="8" height="8" fill="#111827" /><rect x="16" y="64" width="8" height="8" fill="#111827" /><rect x="24" y="64" width="8" height="8" fill="#111827" /><rect x="32" y="64" width="8" height="8" fill="#111827" /><rect x="40" y="64" width="8" height="8" fill="#111827" /><rect x="48" y="64" width="8" height="8" fill="#111827" /><rect x="56" y="64" width="8" height="8" fill="#111827" /><rect x="64" y="64" width="8" height="8" fill="#111827" /><rect x="480" y="64" width="8" height="8" fill="#111827" /><rect x="488" y="64" width="8" height="8" fill="#111827" /><rect x="496" y="64" width="8" height="8" fill="#111827" /><rect x="504" y="64" width="8" height="8" fill="#111827" /><rect x="512" y="64" width="8" height="8" fill="#111827" /><rect x="520" y="64" width="8" height="8" fill="#111827" /><rect x="528" y="64" width="8" height="8" fill="#111827" /><rect x="216" y="72" width="8" height="8" fill="#111827" /><rect x="312" y="72" width="8" height="8" fill="#111827" /><rect x="352" y="72" width="8" height="8" fill="#111827" /><rect x="216" y="80" width="8" height="8" fill="#111827" /><rect x="248" y="80" width="8" height="8" fill="#111827" /><rect x="392" y="80" width="8" height="8" fill="#111827" /><rect x="400" y="80" width="8" height="8" fill="#111827" /><rect x="80" y="88" width="8" height="8" fill="#111827" /><rect x="168" y="88" width="8" height="8" fill="#111827" /><rect x="192" y="88" width="8" height="8" fill="#111827" /><rect x="272" y="88" width="8" height="8" fill="#111827" /><rect x="320" y="88" width="8" height="8" fill="#111827" /><rect x="480" y="88" width="8" height="8" fill="#111827" /><rect x="512" y="88" width="8" height="8" fill="#111827" /><rect x="520" y="88" width="8" height="8" fill="#111827" /><rect x="136" y="96" width="8" height="8" fill="#111827" /><rect x="224" y="96" width="8" height="8" fill="#111827" /><rect x="264" y="96" width="8" height="8" fill="#111827" /><rect x="320" y="96" width="8" height="8" fill="#111827" /><rect x="352" y="96" width="8" height="8" fill="#111827" /><rect x="400" y="96" width="8" height="8" fill="#111827" /><rect x="496" y="96" width="8" height="8" fill="#111827" /><rect x="520" y="96" width="8" height="8" fill="#111827" /><rect x="528" y="96" width="8" height="8" fill="#111827" /><rect x="104" y="104" width="8" height="8" fill="#111827" /><rect x="152" y="104" width="8" height="8" fill="#111827" /><rect x="352" y="104" width="8" height="8" fill="#111827" /><rect x="432" y="104" width="8" height="8" fill="#111827" /><rect x="512" y="104" width="8" height="8" fill="#111827" /><rect x="152" y="112" width="8" height="8" fill="#111827" /><rect x="160" y="112" width="8" height="8" fill="#111827" /><rect x="208" y="112" width="8" height="8" fill="#111827" /><rect x="224" y="112" width="8" height="8" fill="#111827" /><rect x="248" y="112" width="8" height="8" fill="#111827" /><rect x="392" y="112" width="8" height="8" fill="#111827" /><rect x="440" y="112" width="8" height="8" fill="#111827" /><rect x="448" y="112" width="8" height="8" fill="#111827" /><rect x="528" y="112" width="8" height="8" fill="#111827" /><rect x="24" y="120" width="8" height="8" fill="#111827" /><rect x="136" y="120" width="8" height="8" fill="#111827" /><rect x="168" y="120" width="8" height="8" fill="#111827" /><rect x="208" y="120" width="8" height="8" fill="#111827" /><rect x="264" y="120" width="8" height="8" fill="#111827" /><rect x="344" y="120" width="8" height="8" fill="#111827" /><rect x="352" y="120" width="8" height="8" fill="#111827" /><rect x="440" y="120" width="8" height="8" fill="#111827" /><rect x="496" y="120" width="8" height="8" fill="#111827" /><rect x="504" y="120" width="8" height="8" fill="#111827" /><rect x="48" y="128" width="8" height="8" fill="#111827" /><rect x="120" y="128" width="8" height="8" fill="#111827" /><rect x="168" y="128" width="8" height="8" fill="#111827" /><rect x="208" y="128" width="8" height="8" fill="#111827" /><rect x="256" y="128" width="8" height="8" fill="#111827" /><rect x="288" y="128" width="8" height="8" fill="#111827" /><rect x="344" y="128" width="8" height="8" fill="#111827" /><rect x="400" y="128" width="8" height="8" fill="#111827" /><rect x="496" y="128" width="8" height="8" fill="#111827" /><rect x="504" y="128" width="8" height="8" fill="#111827" /><rect x="512" y="128" width="8" height="8" fill="#111827" /><rect x="56" y="136" width="8" height="8" fill="#111827" /><rect x="128" y="136" width="8" height="8" fill="#111827" /><rect x="152" y="136" width="8" height="8" fill="#111827" /><rect x="160" y="136" width="8" height="8" fill="#111827" /><rect x="168" y="136" width="8" height="8" fill="#111827" /><rect x="256" y="136" width="8" height="8" fill="#111827" /><rect x="288" y="136" width="8" height="8" fill="#111827" /><rect x="312" y="136" width="8" height="8" fill="#111827" /><rect x="344" y="136" width="8" height="8" fill="#111827" /><rect x="400" y="136" width="8" height="8" fill="#111827" /><rect x="496" y="136" width="8" height="8" fill="#111827" /><rect x="512" y="136" width="8" height="8" fill="#111827" /><rect x="520" y="136" width="8" height="8" fill="#111827" /><rect x="16" y="144" width="8" height="8" fill="#111827" /><rect x="48" y="144" width="8" height="8" fill="#111827" /><rect x="128" y="144" width="8" height="8" fill="#111827" /><rect x="232" y="144" width="8" height="8" fill="#111827" /><rect x="256" y="144" width="8" height="8" fill="#111827" /><rect x="280" y="144" width="8" height="8" fill="#111827" /><rect x="296" y="144" width="8" height="8" fill="#111827" /><rect x="304" y="144" width="8" height="8" fill="#111827" /><rect x="312" y="144" width="8" height="8" fill="#111827" /><rect x="344" y="144" width="8" height="8" fill="#111827" /><rect x="400" y="144" width="8" height="8" fill="#111827" /><rect x="464" y="144" width="8" height="8" fill="#111827" /><rect x="496" y="144" width="8" height="8" fill="#111827" /><rect x="512" y="144" width="8" height="8" fill="#111827" /><rect x="520" y="144" width="8" height="8" fill="#111827" /><rect x="528" y="144" width="8" height="8" fill="#111827" /><rect x="120" y="152" width="8" height="8" fill="#111827" /><rect x="136" y="152" width="8" height="8" fill="#111827" /><rect x="240" y="152" width="8" height="8" fill="#111827" /><rect x="248" y="152" width="8" height="8" fill="#111827" /><rect x="280" y="152" width="8" height="8" fill="#111827" /><rect x="296" y="152" width="8" height="8" fill="#111827" /><rect x="320" y="152" width="8" height="8" fill="#111827" /><rect x="352" y="152" width="8" height="8" fill="#111827" /><rect x="400" y="152" width="8" height="8" fill="#111827" /><rect x="416" y="152" width="8" height="8" fill="#111827" /><rect x="464" y="152" width="8" height="8" fill="#111827" /><rect x="496" y="152" width="8" height="8" fill="#111827" /><rect x="512" y="152" width="8" height="8" fill="#111827" /><rect x="520" y="152" width="8" height="8" fill="#111827" /><rect x="24" y="160" width="8" height="8" fill="#111827" /><rect x="96" y="160" width="8" height="8" fill="#111827" /><rect x="152" y="160" width="8" height="8" fill="#111827" /><rect x="160" y="160" width="8" height="8" fill="#111827" /><rect x="184" y="160" width="8" height="8" fill="#111827" /><rect x="232" y="160" width="8" height="8" fill="#111827" /><rect x="240" y="160" width="8" height="8" fill="#111827" /><rect x="424" y="160" width="8" height="8" fill="#111827" /><rect x="448" y="160" width="8" height="8" fill="#111827" /><rect x="512" y="160" width="8" height="8" fill="#111827" /><rect x="112" y="168" width="8" height="8" fill="#111827" /><rect x="120" y="168" width="8" height="8" fill="#111827" /><rect x="144" y="168" width="8" height="8" fill="#111827" /><rect x="224" y="168" width="8" height="8" fill="#111827" /><rect x="288" y="168" width="8" height="8" fill="#111827" /><rect x="296" y="168" width="8" height="8" fill="#111827" /><rect x="328" y="168" width="8" height="8" fill="#111827" /><rect x="336" y="168" width="8" height="8" fill="#111827" /><rect x="352" y="168" width="8" height="8" fill="#111827" /><rect x="408" y="168" width="8" height="8" fill="#111827" /><rect x="504" y="168" width="8" height="8" fill="#111827" /><rect x="24" y="176" width="8" height="8" fill="#111827" /><rect x="56" y="176" width="8" height="8" fill="#111827" /><rect x="96" y="176" width="8" height="8" fill="#111827" /><rect x="144" y="176" width="8" height="8" fill="#111827" /><rect x="192" y="176" width="8" height="8" fill="#111827" /><rect x="216" y="176" width="8" height="8" fill="#111827" /><rect x="224" y="176" width="8" height="8" fill="#111827" /><rect x="232" y="176" width="8" height="8" fill="#111827" /><rect x="248" y="176" width="8" height="8" fill="#111827" /><rect x="280" y="176" width="8" height="8" fill="#111827" /><rect x="288" y="176" width="8" height="8" fill="#111827" /><rect x="352" y="176" width="8" height="8" fill="#111827" /><rect x="376" y="176" width="8" height="8" fill="#111827" /><rect x="400" y="176" width="8" height="8" fill="#111827" /><rect x="488" y="176" width="8" height="8" fill="#111827" /><rect x="496" y="176" width="8" height="8" fill="#111827" /><rect x="504" y="176" width="8" height="8" fill="#111827" /><rect x="56" y="184" width="8" height="8" fill="#111827" /><rect x="120" y="184" width="8" height="8" fill="#111827" /><rect x="168" y="184" width="8" height="8" fill="#111827" /><rect x="192" y="184" width="8" height="8" fill="#111827" /><rect x="296" y="184" width="8" height="8" fill="#111827" /><rect x="320" y="184" width="8" height="8" fill="#111827" /><rect x="328" y="184" width="8" height="8" fill="#111827" /><rect x="416" y="184" width="8" height="8" fill="#111827" /><rect x="456" y="184" width="8" height="8" fill="#111827" /><rect x="464" y="184" width="8" height="8" fill="#111827" /><rect x="512" y="184" width="8" height="8" fill="#111827" /><rect x="24" y="192" width="8" height="8" fill="#111827" /><rect x="56" y="192" width="8" height="8" fill="#111827" /><rect x="96" y="192" width="8" height="8" fill="#111827" /><rect x="104" y="192" width="8" height="8" fill="#111827" /><rect x="112" y="192" width="8" height="8" fill="#111827" /><rect x="128" y="192" width="8" height="8" fill="#111827" /><rect x="136" y="192" width="8" height="8" fill="#111827" /><rect x="192" y="192" width="8" height="8" fill="#111827" /><rect x="200" y="192" width="8" height="8" fill="#111827" /><rect x="224" y="192" width="8" height="8" fill="#111827" /><rect x="240" y="192" width="8" height="8" fill="#111827" /><rect x="280" y="192" width="8" height="8" fill="#111827" /><rect x="296" y="192" width="8" height="8" fill="#111827" /><rect x="320" y="192" width="8" height="8" fill="#111827" /><rect x="328" y="192" width="8" height="8" fill="#111827" /><rect x="336" y="192" width="8" height="8" fill="#111827" /><rect x="352" y="192" width="8" height="8" fill="#111827" /><rect x="400" y="192" width="8" height="8" fill="#111827" /><rect x="416" y="192" width="8" height="8" fill="#111827" /><rect x="496" y="192" width="8" height="8" fill="#111827" /><rect x="48" y="200" width="8" height="8" fill="#111827" /><rect x="56" y="200" width="8" height="8" fill="#111827" /><rect x="88" y="200" width="8" height="8" fill="#111827" /><rect x="104" y="200" width="8" height="8" fill="#111827" /><rect x="112" y="200" width="8" height="8" fill="#111827" /><rect x="128" y="200" width="8" height="8" fill="#111827" /><rect x="152" y="200" width="8" height="8" fill="#111827" /><rect x="192" y="200" width="8" height="8" fill="#111827" /><rect x="200" y="200" width="8" height="8" fill="#111827" /><rect x="208" y="200" width="8" height="8" fill="#111827" /><rect x="328" y="200" width="8" height="8" fill="#111827" /><rect x="424" y="200" width="8" height="8" fill="#111827" /><rect x="432" y="200" width="8" height="8" fill="#111827" /><rect x="464" y="200" width="8" height="8" fill="#111827" /><rect x="512" y="200" width="8" height="8" fill="#111827" /><rect x="48" y="208" width="8" height="8" fill="#111827" /><rect x="96" y="208" width="8" height="8" fill="#111827" /><rect x="136" y="208" width="8" height="8" fill="#111827" /><rect x="168" y="208" width="8" height="8" fill="#111827" /><rect x="184" y="208" width="8" height="8" fill="#111827" /><rect x="312" y="208" width="8" height="8" fill="#111827" /><rect x="392" y="208" width="8" height="8" fill="#111827" /><rect x="416" y="208" width="8" height="8" fill="#111827" /><rect x="424" y="208" width="8" height="8" fill="#111827" /><rect x="16" y="216" width="8" height="8" fill="#111827" /><rect x="32" y="216" width="8" height="8" fill="#111827" /><rect x="144" y="216" width="8" height="8" fill="#111827" /><rect x="152" y="216" width="8" height="8" fill="#111827" /><rect x="160" y="216" width="8" height="8" fill="#111827" /><rect x="168" y="216" width="8" height="8" fill="#111827" /><rect x="192" y="216" width="8" height="8" fill="#111827" /><rect x="208" y="216" width="8" height="8" fill="#111827" /><rect x="216" y="216" width="8" height="8" fill="#111827" /><rect x="280" y="216" width="8" height="8" fill="#111827" /><rect x="392" y="216" width="8" height="8" fill="#111827" /><rect x="424" y="216" width="8" height="8" fill="#111827" /><rect x="456" y="216" width="8" height="8" fill="#111827" /><rect x="488" y="216" width="8" height="8" fill="#111827" /><rect x="496" y="216" width="8" height="8" fill="#111827" /><rect x="48" y="224" width="8" height="8" fill="#111827" /><rect x="120" y="224" width="8" height="8" fill="#111827" /><rect x="136" y="224" width="8" height="8" fill="#111827" /><rect x="144" y="224" width="8" height="8" fill="#111827" /><rect x="168" y="224" width="8" height="8" fill="#111827" /><rect x="208" y="224" width="8" height="8" fill="#111827" /><rect x="216" y="224" width="8" height="8" fill="#111827" /><rect x="280" y="224" width="8" height="8" fill="#111827" /><rect x="312" y="224" width="8" height="8" fill="#111827" /><rect x="384" y="224" width="8" height="8" fill="#111827" /><rect x="400" y="224" width="8" height="8" fill="#111827" /><rect x="456" y="224" width="8" height="8" fill="#111827" /><rect x="488" y="224" width="8" height="8" fill="#111827" /><rect x="40" y="232" width="8" height="8" fill="#111827" /><rect x="56" y="232" width="8" height="8" fill="#111827" /><rect x="72" y="232" width="8" height="8" fill="#111827" /><rect x="120" y="232" width="8" height="8" fill="#111827" /><rect x="128" y="232" width="8" height="8" fill="#111827" /><rect x="144" y="232" width="8" height="8" fill="#111827" /><rect x="168" y="232" width="8" height="8" fill="#111827" /><rect x="184" y="232" width="8" height="8" fill="#111827" /><rect x="200" y="232" width="8" height="8" fill="#111827" /><rect x="232" y="232" width="8" height="8" fill="#111827" /><rect x="240" y="232" width="8" height="8" fill="#111827" /><rect x="280" y="232" width="8" height="8" fill="#111827" /><rect x="288" y="232" width="8" height="8" fill="#111827" /><rect x="408" y="232" width="8" height="8" fill="#111827" /><rect x="416" y="232" width="8" height="8" fill="#111827" /><rect x="456" y="232" width="8" height="8" fill="#111827" /><rect x="464" y="232" width="8" height="8" fill="#111827" /><rect x="496" y="232" width="8" height="8" fill="#111827" /><rect x="40" y="240" width="8" height="8" fill="#111827" /><rect x="72" y="240" width="8" height="8" fill="#111827" /><rect x="120" y="240" width="8" height="8" fill="#111827" /><rect x="152" y="240" width="8" height="8" fill="#111827" /><rect x="232" y="240" width="8" height="8" fill="#111827" /><rect x="240" y="240" width="8" height="8" fill="#111827" /><rect x="296" y="240" width="8" height="8" fill="#111827" /><rect x="464" y="240" width="8" height="8" fill="#111827" /><rect x="496" y="240" width="8" height="8" fill="#111827" /><rect x="16" y="248" width="8" height="8" fill="#111827" /><rect x="24" y="248" width="8" height="8" fill="#111827" /><rect x="56" y="248" width="8" height="8" fill="#111827" /><rect x="136" y="248" width="8" height="8" fill="#111827" /><rect x="240" y="248" width="8" height="8" fill="#111827" /><rect x="280" y="248" width="8" height="8" fill="#111827" /><rect x="288" y="248" width="8" height="8" fill="#111827" /><rect x="296" y="248" width="8" height="8" fill="#111827" /><rect x="336" y="248" width="8" height="8" fill="#111827" /><rect x="416" y="248" width="8" height="8" fill="#111827" /><rect x="464" y="248" width="8" height="8" fill="#111827" /><rect x="184" y="256" width="8" height="8" fill="#111827" /><rect x="192" y="256" width="8" height="8" fill="#111827" /><rect x="232" y="256" width="8" height="8" fill="#111827" /><rect x="240" y="256" width="8" height="8" fill="#111827" /><rect x="336" y="256" width="8" height="8" fill="#111827" /><rect x="448" y="256" width="8" height="8" fill="#111827" /><rect x="16" y="264" width="8" height="8" fill="#111827" /><rect x="24" y="264" width="8" height="8" fill="#111827" /><rect x="32" y="264" width="8" height="8" fill="#111827" /><rect x="96" y="264" width="8" height="8" fill="#111827" /><rect x="120" y="264" width="8" height="8" fill="#111827" /><rect x="176" y="264" width="8" height="8" fill="#111827" /><rect x="208" y="264" width="8" height="8" fill="#111827" /><rect x="440" y="264" width="8" height="8" fill="#111827" /><rect x="456" y="264" width="8" height="8" fill="#111827" /><rect x="16" y="272" width="8" height="8" fill="#111827" /><rect x="40" y="272" width="8" height="8" fill="#111827" /><rect x="88" y="272" width="8" height="8" fill="#111827" /><rect x="128" y="272" width="8" height="8" fill="#111827" /><rect x="192" y="272" width="8" height="8" fill="#111827" /><rect x="200" y="272" width="8" height="8" fill="#111827" /><rect x="336" y="272" width="8" height="8" fill="#111827" /><rect x="376" y="272" width="8" height="8" fill="#111827" /><rect x="384" y="272" width="8" height="8" fill="#111827" /><rect x="408" y="272" width="8" height="8" fill="#111827" /><rect x="416" y="272" width="8" height="8" fill="#111827" /><rect x="440" y="272" width="8" height="8" fill="#111827" /><rect x="96" y="280" width="8" height="8" fill="#111827" /><rect x="120" y="280" width="8" height="8" fill="#111827" /><rect x="296" y="280" width="8" height="8" fill="#111827" /><rect x="328" y="280" width="8" height="8" fill="#111827" /><rect x="376" y="280" width="8" height="8" fill="#111827" /><rect x="416" y="280" width="8" height="8" fill="#111827" /><rect x="24" y="288" width="8" height="8" fill="#111827" /><rect x="88" y="288" width="8" height="8" fill="#111827" /><rect x="96" y="288" width="8" height="8" fill="#111827" /><rect x="200" y="288" width="8" height="8" fill="#111827" /><rect x="208" y="288" width="8" height="8" fill="#111827" /><rect x="240" y="288" width="8" height="8" fill="#111827" /><rect x="336" y="288" width="8" height="8" fill="#111827" /><rect x="376" y="288" width="8" height="8" fill="#111827" /><rect x="416" y="288" width="8" height="8" fill="#111827" /><rect x="88" y="296" width="8" height="8" fill="#111827" /><rect x="176" y="296" width="8" height="8" fill="#111827" /><rect x="200" y="296" width="8" height="8" fill="#111827" /><rect x="208" y="296" width="8" height="8" fill="#111827" /><rect x="288" y="296" width="8" height="8" fill="#111827" /><rect x="328" y="296" width="8" height="8" fill="#111827" /><rect x="384" y="296" width="8" height="8" fill="#111827" /><rect x="416" y="296" width="8" height="8" fill="#111827" /><rect x="456" y="296" width="8" height="8" fill="#111827" /><rect x="464" y="296" width="8" height="8" fill="#111827" /><rect x="488" y="296" width="8" height="8" fill="#111827" /><rect x="496" y="296" width="8" height="8" fill="#111827" /><rect x="56" y="304" width="8" height="8" fill="#111827" /><rect x="72" y="304" width="8" height="8" fill="#111827" /><rect x="96" y="304" width="8" height="8" fill="#111827" /><rect x="120" y="304" width="8" height="8" fill="#111827" /><rect x="280" y="304" width="8" height="8" fill="#111827" /><rect x="328" y="304" width="8" height="8" fill="#111827" /><rect x="448" y="304" width="8" height="8" fill="#111827" /><rect x="456" y="304" width="8" height="8" fill="#111827" /><rect x="472" y="304" width="8" height="8" fill="#111827" /><rect x="16" y="312" width="8" height="8" fill="#111827" /><rect x="32" y="312" width="8" height="8" fill="#111827" /><rect x="72" y="312" width="8" height="8" fill="#111827" /><rect x="120" y="312" width="8" height="8" fill="#111827" /><rect x="160" y="312" width="8" height="8" fill="#111827" /><rect x="440" y="312" width="8" height="8" fill="#111827" /><rect x="488" y="312" width="8" height="8" fill="#111827" /><rect x="32" y="320" width="8" height="8" fill="#111827" /><rect x="48" y="320" width="8" height="8" fill="#111827" /><rect x="288" y="320" width="8" height="8" fill="#111827" /><rect x="328" y="320" width="8" height="8" fill="#111827" /><rect x="376" y="320" width="8" height="8" fill="#111827" /><rect x="384" y="320" width="8" height="8" fill="#111827" /><rect x="408" y="320" width="8" height="8" fill="#111827" /><rect x="72" y="328" width="8" height="8" fill="#111827" /><rect x="80" y="328" width="8" height="8" fill="#111827" /><rect x="96" y="328" width="8" height="8" fill="#111827" /><rect x="128" y="328" width="8" height="8" fill="#111827" /><rect x="208" y="328" width="8" height="8" fill="#111827" /><rect x="272" y="328" width="8" height="8" fill="#111827" /><rect x="336" y="328" width="8" height="8" fill="#111827" /><rect x="344" y="328" width="8" height="8" fill="#111827" /><rect x="352" y="328" width="8" height="8" fill="#111827" /><rect x="376" y="328" width="8" height="8" fill="#111827" /><rect x="464" y="328" width="8" height="8" fill="#111827" /><rect x="488" y="328" width="8" height="8" fill="#111827" /><rect x="88" y="336" width="8" height="8" fill="#111827" /><rect x="296" y="336" width="8" height="8" fill="#111827" /><rect x="352" y="336" width="8" height="8" fill="#111827" /><rect x="376" y="336" width="8" height="8" fill="#111827" /><rect x="456" y="336" width="8" height="8" fill="#111827" /><rect x="464" y="336" width="8" height="8" fill="#111827" /><rect x="80" y="344" width="8" height="8" fill="#111827" /><rect x="232" y="344" width="8" height="8" fill="#111827" /><rect x="344" y="344" width="8" height="8" fill="#111827" /><rect x="464" y="344" width="8" height="8" fill="#111827" /><rect x="40" y="352" width="8" height="8" fill="#111827" /><rect x="240" y="352" width="8" height="8" fill="#111827" /><rect x="248" y="352" width="8" height="8" fill="#111827" /><rect x="272" y="352" width="8" height="8" fill="#111827" /><rect x="336" y="352" width="8" height="8" fill="#111827" /><rect x="472" y="352" width="8" height="8" fill="#111827" /><rect x="512" y="352" width="8" height="8" fill="#111827" /><rect x="520" y="352" width="8" height="8" fill="#111827" /><rect x="32" y="360" width="8" height="8" fill="#111827" /><rect x="72" y="360" width="8" height="8" fill="#111827" /><rect x="96" y="360" width="8" height="8" fill="#111827" /><rect x="248" y="360" width="8" height="8" fill="#111827" /><rect x="368" y="360" width="8" height="8" fill="#111827" /><rect x="472" y="360" width="8" height="8" fill="#111827" /><rect x="40" y="368" width="8" height="8" fill="#111827" /><rect x="256" y="368" width="8" height="8" fill="#111827" /><rect x="272" y="368" width="8" height="8" fill="#111827" /><rect x="344" y="368" width="8" height="8" fill="#111827" /><rect x="368" y="368" width="8" height="8" fill="#111827" /><rect x="480" y="368" width="8" height="8" fill="#111827" /><rect x="512" y="368" width="8" height="8" fill="#111827" /><rect x="528" y="368" width="8" height="8" fill="#111827" /><rect x="40" y="376" width="8" height="8" fill="#111827" /><rect x="72" y="376" width="8" height="8" fill="#111827" /><rect x="88" y="376" width="8" height="8" fill="#111827" /><rect x="256" y="376" width="8" height="8" fill="#111827" /><rect x="264" y="376" width="8" height="8" fill="#111827" /><rect x="312" y="376" width="8" height="8" fill="#111827" /><rect x="328" y="376" width="8" height="8" fill="#111827" /><rect x="464" y="376" width="8" height="8" fill="#111827" /><rect x="72" y="384" width="8" height="8" fill="#111827" /><rect x="80" y="384" width="8" height="8" fill="#111827" /><rect x="216" y="384" width="8" height="8" fill="#111827" /><rect x="312" y="384" width="8" height="8" fill="#111827" /><rect x="320" y="384" width="8" height="8" fill="#111827" /><rect x="328" y="384" width="8" height="8" fill="#111827" /><rect x="336" y="384" width="8" height="8" fill="#111827" /><rect x="360" y="384" width="8" height="8" fill="#111827" /><rect x="456" y="384" width="8" height="8" fill="#111827" /><rect x="512" y="384" width="8" height="8" fill="#111827" /><rect x="224" y="392" width="8" height="8" fill="#111827" /><rect x="264" y="392" width="8" height="8" fill="#111827" /><rect x="432" y="392" width="8" height="8" fill="#111827" /><rect x="480" y="392" width="8" height="8" fill="#111827" /><rect x="504" y="392" width="8" height="8" fill="#111827" /><rect x="528" y="392" width="8" height="8" fill="#111827" /><rect x="72" y="400" width="8" height="8" fill="#111827" /><rect x="104" y="400" width="8" height="8" fill="#111827" /><rect x="136" y="400" width="8" height="8" fill="#111827" /><rect x="312" y="400" width="8" height="8" fill="#111827" /><rect x="320" y="400" width="8" height="8" fill="#111827" /><rect x="344" y="400" width="8" height="8" fill="#111827" /><rect x="400" y="400" width="8" height="8" fill="#111827" /><rect x="432" y="400" width="8" height="8" fill="#111827" /><rect x="504" y="400" width="8" height="8" fill="#111827" /><rect x="32" y="408" width="8" height="8" fill="#111827" /><rect x="72" y="408" width="8" height="8" fill="#111827" /><rect x="136" y="408" width="8" height="8" fill="#111827" /><rect x="144" y="408" width="8" height="8" fill="#111827" /><rect x="224" y="408" width="8" height="8" fill="#111827" /><rect x="264" y="408" width="8" height="8" fill="#111827" /><rect x="272" y="408" width="8" height="8" fill="#111827" /><rect x="312" y="408" width="8" height="8" fill="#111827" /><rect x="320" y="408" width="8" height="8" fill="#111827" /><rect x="40" y="416" width="8" height="8" fill="#111827" /><rect x="136" y="416" width="8" height="8" fill="#111827" /><rect x="224" y="416" width="8" height="8" fill="#111827" /><rect x="264" y="416" width="8" height="8" fill="#111827" /><rect x="312" y="416" width="8" height="8" fill="#111827" /><rect x="136" y="424" width="8" height="8" fill="#111827" /><rect x="144" y="424" width="8" height="8" fill="#111827" /><rect x="256" y="424" width="8" height="8" fill="#111827" /><rect x="352" y="424" width="8" height="8" fill="#111827" /><rect x="72" y="432" width="8" height="8" fill="#111827" /><rect x="168" y="432" width="8" height="8" fill="#111827" /><rect x="176" y="432" width="8" height="8" fill="#111827" /><rect x="256" y="432" width="8" height="8" fill="#111827" /><rect x="312" y="432" width="8" height="8" fill="#111827" /><rect x="432" y="432" width="8" height="8" fill="#111827" /><rect x="512" y="432" width="8" height="8" fill="#111827" /><rect x="80" y="440" width="8" height="8" fill="#111827" /><rect x="104" y="440" width="8" height="8" fill="#111827" /><rect x="192" y="440" width="8" height="8" fill="#111827" /><rect x="344" y="440" width="8" height="8" fill="#111827" /><rect x="360" y="440" width="8" height="8" fill="#111827" /><rect x="392" y="440" width="8" height="8" fill="#111827" /><rect x="472" y="440" width="8" height="8" fill="#111827" /><rect x="504" y="440" width="8" height="8" fill="#111827" /><rect x="528" y="440" width="8" height="8" fill="#111827" /><rect x="72" y="448" width="8" height="8" fill="#111827" /><rect x="112" y="448" width="8" height="8" fill="#111827" /><rect x="168" y="448" width="8" height="8" fill="#111827" /><rect x="192" y="448" width="8" height="8" fill="#111827" /><rect x="224" y="448" width="8" height="8" fill="#111827" /><rect x="248" y="448" width="8" height="8" fill="#111827" /><rect x="256" y="448" width="8" height="8" fill="#111827" /><rect x="360" y="448" width="8" height="8" fill="#111827" /><rect x="368" y="448" width="8" height="8" fill="#111827" /><rect x="432" y="448" width="8" height="8" fill="#111827" /><rect x="504" y="448" width="8" height="8" fill="#111827" /><rect x="72" y="456" width="8" height="8" fill="#111827" /><rect x="104" y="456" width="8" height="8" fill="#111827" /><rect x="112" y="456" width="8" height="8" fill="#111827" /><rect x="216" y="456" width="8" height="8" fill="#111827" /><rect x="248" y="456" width="8" height="8" fill="#111827" /><rect x="320" y="456" width="8" height="8" fill="#111827" /><rect x="368" y="456" width="8" height="8" fill="#111827" /><rect x="448" y="456" width="8" height="8" fill="#111827" /><rect x="472" y="456" width="8" height="8" fill="#111827" /><rect x="520" y="456" width="8" height="8" fill="#111827" /><rect x="80" y="464" width="8" height="8" fill="#111827" /><rect x="104" y="464" width="8" height="8" fill="#111827" /><rect x="112" y="464" width="8" height="8" fill="#111827" /><rect x="152" y="464" width="8" height="8" fill="#111827" /><rect x="216" y="464" width="8" height="8" fill="#111827" /><rect x="248" y="464" width="8" height="8" fill="#111827" /><rect x="320" y="464" width="8" height="8" fill="#111827" /><rect x="368" y="464" width="8" height="8" fill="#111827" /><rect x="104" y="472" width="8" height="8" fill="#111827" /><rect x="160" y="472" width="8" height="8" fill="#111827" /><rect x="248" y="472" width="8" height="8" fill="#111827" /><rect x="312" y="472" width="8" height="8" fill="#111827" /><rect x="344" y="472" width="8" height="8" fill="#111827" /><rect x="352" y="472" width="8" height="8" fill="#111827" /><rect x="368" y="472" width="8" height="8" fill="#111827" /><rect x="392" y="472" width="8" height="8" fill="#111827" /><rect x="424" y="472" width="8" height="8" fill="#111827" /><rect x="440" y="472" width="8" height="8" fill="#111827" /><rect x="16" y="480" width="8" height="8" fill="#111827" /><rect x="24" y="480" width="8" height="8" fill="#111827" /><rect x="32" y="480" width="8" height="8" fill="#111827" /><rect x="40" y="480" width="8" height="8" fill="#111827" /><rect x="48" y="480" width="8" height="8" fill="#111827" /><rect x="56" y="480" width="8" height="8" fill="#111827" /><rect x="64" y="480" width="8" height="8" fill="#111827" /><rect x="104" y="480" width="8" height="8" fill="#111827" /><rect x="152" y="480" width="8" height="8" fill="#111827" /><rect x="160" y="480" width="8" height="8" fill="#111827" /><rect x="168" y="480" width="8" height="8" fill="#111827" /><rect x="184" y="480" width="8" height="8" fill="#111827" /><rect x="208" y="480" width="8" height="8" fill="#111827" /><rect x="344" y="480" width="8" height="8" fill="#111827" /><rect x="360" y="480" width="8" height="8" fill="#111827" /><rect x="392" y="480" width="8" height="8" fill="#111827" /><rect x="432" y="480" width="8" height="8" fill="#111827" /><rect x="440" y="480" width="8" height="8" fill="#111827" /><rect x="512" y="480" width="8" height="8" fill="#111827" /><rect x="16" y="488" width="8" height="8" fill="#111827" /><rect x="64" y="488" width="8" height="8" fill="#111827" /><rect x="120" y="488" width="8" height="8" fill="#111827" /><rect x="152" y="488" width="8" height="8" fill="#111827" /><rect x="184" y="488" width="8" height="8" fill="#111827" /><rect x="200" y="488" width="8" height="8" fill="#111827" /><rect x="312" y="488" width="8" height="8" fill="#111827" /><rect x="360" y="488" width="8" height="8" fill="#111827" /><rect x="392" y="488" width="8" height="8" fill="#111827" /><rect x="432" y="488" width="8" height="8" fill="#111827" /><rect x="448" y="488" width="8" height="8" fill="#111827" /><rect x="520" y="488" width="8" height="8" fill="#111827" /><rect x="528" y="488" width="8" height="8" fill="#111827" /><rect x="16" y="496" width="8" height="8" fill="#111827" /><rect x="32" y="496" width="8" height="8" fill="#111827" /><rect x="40" y="496" width="8" height="8" fill="#111827" /><rect x="48" y="496" width="8" height="8" fill="#111827" /><rect x="64" y="496" width="8" height="8" fill="#111827" /><rect x="152" y="496" width="8" height="8" fill="#111827" /><rect x="168" y="496" width="8" height="8" fill="#111827" /><rect x="232" y="496" width="8" height="8" fill="#111827" /><rect x="240" y="496" width="8" height="8" fill="#111827" /><rect x="312" y="496" width="8" height="8" fill="#111827" /><rect x="320" y="496" width="8" height="8" fill="#111827" /><rect x="344" y="496" width="8" height="8" fill="#111827" /><rect x="360" y="496" width="8" height="8" fill="#111827" /><rect x="368" y="496" width="8" height="8" fill="#111827" /><rect x="432" y="496" width="8" height="8" fill="#111827" /><rect x="520" y="496" width="8" height="8" fill="#111827" /><rect x="16" y="504" width="8" height="8" fill="#111827" /><rect x="32" y="504" width="8" height="8" fill="#111827" /><rect x="40" y="504" width="8" height="8" fill="#111827" /><rect x="48" y="504" width="8" height="8" fill="#111827" /><rect x="64" y="504" width="8" height="8" fill="#111827" /><rect x="112" y="504" width="8" height="8" fill="#111827" /><rect x="136" y="504" width="8" height="8" fill="#111827" /><rect x="144" y="504" width="8" height="8" fill="#111827" /><rect x="152" y="504" width="8" height="8" fill="#111827" /><rect x="168" y="504" width="8" height="8" fill="#111827" /><rect x="200" y="504" width="8" height="8" fill="#111827" /><rect x="448" y="504" width="8" height="8" fill="#111827" /><rect x="16" y="512" width="8" height="8" fill="#111827" /><rect x="32" y="512" width="8" height="8" fill="#111827" /><rect x="40" y="512" width="8" height="8" fill="#111827" /><rect x="48" y="512" width="8" height="8" fill="#111827" /><rect x="64" y="512" width="8" height="8" fill="#111827" /><rect x="120" y="512" width="8" height="8" fill="#111827" /><rect x="128" y="512" width="8" height="8" fill="#111827" /><rect x="144" y="512" width="8" height="8" fill="#111827" /><rect x="160" y="512" width="8" height="8" fill="#111827" /><rect x="200" y="512" width="8" height="8" fill="#111827" /><rect x="208" y="512" width="8" height="8" fill="#111827" /><rect x="248" y="512" width="8" height="8" fill="#111827" /><rect x="280" y="512" width="8" height="8" fill="#111827" /><rect x="352" y="512" width="8" height="8" fill="#111827" /><rect x="368" y="512" width="8" height="8" fill="#111827" /><rect x="424" y="512" width="8" height="8" fill="#111827" /><rect x="472" y="512" width="8" height="8" fill="#111827" /><rect x="480" y="512" width="8" height="8" fill="#111827" /><rect x="16" y="520" width="8" height="8" fill="#111827" /><rect x="64" y="520" width="8" height="8" fill="#111827" /><rect x="96" y="520" width="8" height="8" fill="#111827" /><rect x="136" y="520" width="8" height="8" fill="#111827" /><rect x="144" y="520" width="8" height="8" fill="#111827" /><rect x="160" y="520" width="8" height="8" fill="#111827" /><rect x="200" y="520" width="8" height="8" fill="#111827" /><rect x="272" y="520" width="8" height="8" fill="#111827" /><rect x="288" y="520" width="8" height="8" fill="#111827" /><rect x="304" y="520" width="8" height="8" fill="#111827" /><rect x="336" y="520" width="8" height="8" fill="#111827" /><rect x="344" y="520" width="8" height="8" fill="#111827" /><rect x="352" y="520" width="8" height="8" fill="#111827" /><rect x="392" y="520" width="8" height="8" fill="#111827" /><rect x="400" y="520" width="8" height="8" fill="#111827" /><rect x="424" y="520" width="8" height="8" fill="#111827" /><rect x="440" y="520" width="8" height="8" fill="#111827" /><rect x="496" y="520" width="8" height="8" fill="#111827" /><rect x="528" y="520" width="8" height="8" fill="#111827" /><rect x="16" y="528" width="8" height="8" fill="#111827" /><rect x="24" y="528" width="8" height="8" fill="#111827" /><rect x="32" y="528" width="8" height="8" fill="#111827" /><rect x="40" y="528" width="8" height="8" fill="#111827" /><rect x="48" y="528" width="8" height="8" fill="#111827" /><rect x="56" y="528" width="8" height="8" fill="#111827" /><rect x="64" y="528" width="8" height="8" fill="#111827" /><rect x="168" y="528" width="8" height="8" fill="#111827" /><rect x="184" y="528" width="8" height="8" fill="#111827" /><rect x="192" y="528" width="8" height="8" fill="#111827" /><rect x="248" y="528" width="8" height="8" fill="#111827" /><rect x="280" y="528" width="8" height="8" fill="#111827" /><rect x="288" y="528" width="8" height="8" fill="#111827" /><rect x="312" y="528" width="8" height="8" fill="#111827" /><rect x="328" y="528" width="8" height="8" fill="#111827" /><rect x="360" y="528" width="8" height="8" fill="#111827" /><rect x="384" y="528" width="8" height="8" fill="#111827" /><rect x="392" y="528" width="8" height="8" fill="#111827" /><rect x="408" y="528" width="8" height="8" fill="#111827" /><rect x="424" y="528" width="8" height="8" fill="#111827" /><rect x="432" y="528" width="8" height="8" fill="#111827" /><rect x="504" y="528" width="8" height="8" fill="#111827" /><rect x="512" y="528" width="8" height="8" fill="#111827" /></svg>