<svg xmlns="http://www.w3.org/2000/svg" width="584" height="584" viewBox="0 0 584 584" shape-rendering="crispEdges"><rect x="272" y="32" width="8" height="8" fill="#000000" /><rect x="368" y="32" width="8" height="8" fill="#000000" /><rect x="384" y="32" width="8" height="8" fill="#000000" /><rect x="128" y="40" width="8" height="8" fill="#000000" /><rect x="264" y="40" width="8" height="8" fill="#000000" /><rect x="328" y="40" width="8" height="8" fill="#000000" /><rect x="344" y="40" width="8" height="8" fill="#000000" /><rect x="368" y="40" width="8" height="8" fill="#000000" /><rect x="120" y="48" width="8" height="8" fill="#000000" /><rect x="232" y="48" width="8" height="8" fill="#000000" /><rect x="280" y="48" width="8" height="8" fill="#000000" /><rect x="296" y="48" width="8" height="8" fill="#000000" /><rect x="376" y="48" width="8" height="8" fill="#000000" /><rect x="440" y="48" width="8" height="8" fill="#000000" /><rect x="448" y="48" width="8" height="8" fill="#000000" /><rect x="152" y="56" width="8" height="8" fill="#000000" /><rect x="296" y="56" width="8" height="8" fill="#000000" /><rect x="360" y="56" width="8" height="8" fill="#000000" /><rect x="376" y="56" width="8" height="8" fill="#000000" /><rect x="440" y="56" width="8" height="8" fill="#000000" /><rect x="152" y="64" width="8" height="8" fill="#000000" /><rect x="232" y="64" width="8" height="8" fill="#000000" /><rect x="336" y="64" width="8" height="8" fill="#000000" /><rect x="408" y="64" width="8" height="8" fill="#000000" /><rect x="416" y="64" width="8" height="8" fill="#000000" /><rect x="440" y="64" width="8" height="8" fill="#000000" /><rect x="160" y="72" width="8" height="8" fill="#000000" /><rect x="200" y="72" width="8" height="8" fill="#000000" /><rect x="328" y="72" width="8" height="8" fill="#000000" /><rect x="336" y="72" width="8" height="8" fill="#000000" /><rect x="408" y="72" width="8" height="8" fill="#000000" /><rect x="416" y="72" width="8" height="8" fill="#000000" /><rect x="128" y="88" width="8" height="8" fill="#000000" /><rect x="208" y="88" width="8" height="8" fill="#000000" /><rect x="408" y="88" width="8" height="8" fill="#000000" /><rect x="160" y="96" width="8" height="8" fill="#000000" /><rect x="200" y="96" width="8" height="8" fill="#000000" /><rect x="408" y="96" width="8" height="8" fill="#000000" /><rect x="416" y="96" width="8" height="8" fill="#000000" /><rect x="88" y="104" width="8" height="8" fill="#000000" /><rect x="120" y="104" width="8" height="8" fill="#000000" /><rect x="160" y="104" width="8" height="8" fill="#000000" /><rect x="184" y="104" width="8" height="8" fill="#000000" /><rect x="232" y="104" width="8" height="8" fill="#000000" /><rect x="272" y="104" width="8" height="8" fill="#000000" /><rect x="280" y="104" width="8" height="8" fill="#000000" /><rect x="296" y="104" width="8" height="8" fill="#000000" /><rect x="328" y="104" width="8" height="8" fill="#000000" /><rect x="496" y="104" width="8" height="8" fill="#000000" /><rect x="520" y="104" width="8" height="8" fill="#000000" /><rect x="40" y="112" width="8" height="8" fill="#000000" /><rect x="88" y="112" width="8" height="8" fill="#000000" /><rect x="96" y="112" width="8" height="8" fill="#000000" /><rect x="120" y="112" width="8" height="8" fill="#000000" /><rect x="152" y="112" width="8" height="8" fill="#000000" /><rect x="168" y="112" width="8" height="8" fill="#000000" /><rect x="208" y="112" width="8" height="8" fill="#000000" /><rect x="264" y="112" width="8" height="8" fill="#000000" /><rect x="272" y="112" width="8" height="8" fill="#000000" /><rect x="336" y="112" width="8" height="8" fill="#000000" /><rect x="368" y="112" width="8" height="8" fill="#000000" /><rect x="416" y="112" width="8" height="8" fill="#000000" /><rect x="512" y="112" width="8" height="8" fill="#000000" /><rect x="32" y="120" width="8" height="8" fill="#000000" /><rect x="64" y="120" width="8" height="8" fill="#000000" /><rect x="72" y="120" width="8" height="8" fill="#000000" /><rect x="152" y="120" width="8" height="8" fill="#000000" /><rect x="208" y="120" width="8" height="8" fill="#000000" /><rect x="240" y="120" width="8" height="8" fill="#000000" /><rect x="296" y="120" width="8" height="8" fill="#000000" /><rect x="336" y="120" width="8" height="8" fill="#000000" /><rect x="360" y="120" width="8" height="8" fill="#000000" /><rect x="368" y="120" width="8" height="8" fill="#000000" /><rect x="448" y="120" width="8" height="8" fill="#000000" /><rect x="528" y="120" width="8" height="8" fill="#000000" /><rect x="544" y="120" width="8" height="8" fill="#000000" /><rect x="128" y="128" width="8" height="8" fill="#000000" /><rect x="152" y="128" width="8" height="8" fill="#000000" /><rect x="176" y="128" width="8" height="8" fill="#000000" /><rect x="208" y="128" width="8" height="8" fill="#000000" /><rect x="216" y="128" width="8" height="8" fill="#000000" /><rect x="224" y="128" width="8" height="8" fill="#000000" /><rect x="232" y="128" width="8" height="8" fill="#000000" /><rect x="280" y="128" width="8" height="8" fill="#000000" /><rect x="304" y="128" width="8" height="8" fill="#000000" /><rect x="328" y="128" width="8" height="8" fill="#000000" /><rect x="408" y="128" width="8" height="8" fill="#000000" /><rect x="456" y="128" width="8" height="8" fill="#000000" /><rect x="504" y="128" width="8" height="8" fill="#000000" /><rect x="64" y="136" width="8" height="8" fill="#000000" /><rect x="72" y="136" width="8" height="8" fill="#000000" /><rect x="160" y="136" width="8" height="8" fill="#000000" /><rect x="176" y="136" width="8" height="8" fill="#000000" /><rect x="200" y="136" width="8" height="8" fill="#000000" /><rect x="280" y="136" width="8" height="8" fill="#000000" /><rect x="296" y="136" width="8" height="8" fill="#000000" /><rect x="368" y="136" width="8" height="8" fill="#000000" /><rect x="408" y="136" width="8" height="8" fill="#000000" /><rect x="456" y="136" width="8" height="8" fill="#000000" /><rect x="504" y="136" width="8" height="8" fill="#000000" /><rect x="512" y="136" width="8" height="8" fill="#000000" /><rect x="520" y="136" width="8" height="8" fill="#000000" /><rect x="32" y="144" width="8" height="8" fill="#000000" /><rect x="128" y="144" width="8" height="8" fill="#000000" /><rect x="136" y="144" width="8" height="8" fill="#000000" /><rect x="152" y="144" width="8" height="8" fill="#000000" /><rect x="160" y="144" width="8" height="8" fill="#000000" /><rect x="224" y="144" width="8" height="8" fill="#000000" /><rect x="280" y="144" width="8" height="8" fill="#000000" /><rect x="296" y="144" width="8" height="8" fill="#000000" /><rect x="368" y="144" width="8" height="8" fill="#000000" /><rect x="408" y="144" width="8" height="8" fill="#000000" /><rect x="416" y="144" width="8" height="8" fill="#000000" /><rect x="504" y="144" width="8" height="8" fill="#000000" /><rect x="512" y="144" width="8" height="8" fill="#000000" /><rect x="528" y="144" width="8" height="8" fill="#000000" /><rect x="120" y="152" width="8" height="8" fill="#000000" /><rect x="160" y="152" width="8" height="8" fill="#000000" /><rect x="232" y="152" width="8" height="8" fill="#000000" /><rect x="272" y="152" width="8" height="8" fill="#000000" /><rect x="320" y="152" width="8" height="8" fill="#000000" /><rect x="328" y="152" width="8" height="8" fill="#000000" /><rect x="336" y="152" width="8" height="8" fill="#000000" /><rect x="360" y="152" width="8" height="8" fill="#000000" /><rect x="512" y="152" width="8" height="8" fill="#000000" /><rect x="520" y="152" width="8" height="8" fill="#000000" /><rect x="528" y="152" width="8" height="8" fill="#000000" /><rect x="536" y="152" width="8" height="8" fill="#000000" /><rect x="544" y="152" width="8" height="8" fill="#000000" /><rect x="32" y="160" width="8" height="8" fill="#000000" /><rect x="64" y="160" width="8" height="8" fill="#000000" /><rect x="144" y="160" width="8" height="8" fill="#000000" /><rect x="184" y="160" width="8" height="8" fill="#000000" /><rect x="192" y="160" width="8" height="8" fill="#000000" /><rect x="256" y="160" width="8" height="8" fill="#000000" /><rect x="272" y="160" width="8" height="8" fill="#000000" /><rect x="304" y="160" width="8" height="8" fill="#000000" /><rect x="312" y="160" width="8" height="8" fill="#000000" /><rect x="328" y="160" width="8" height="8" fill="#000000" /><rect x="336" y="160" width="8" height="8" fill="#000000" /><rect x="432" y="160" width="8" height="8" fill="#000000" /><rect x="456" y="160" width="8" height="8" fill="#000000" /><rect x="480" y="160" width="8" height="8" fill="#000000" /><rect x="512" y="160" width="8" height="8" fill="#000000" /><rect x="528" y="160" width="8" height="8" fill="#000000" /><rect x="536" y="160" width="8" height="8" fill="#000000" /><rect x="72" y="168" width="8" height="8" fill="#000000" /><rect x="128" y="168" width="8" height="8" fill="#000000" /><rect x="152" y="168" width="8" height="8" fill="#000000" /><rect x="256" y="168" width="8" height="8" fill="#000000" /><rect x="264" y="168" width="8" height="8" fill="#000000" /><rect x="312" y="168" width="8" height="8" fill="#000000" /><rect x="368" y="168" width="8" height="8" fill="#000000" /><rect x="480" y="168" width="8" height="8" fill="#000000" /><rect x="512" y="168" width="8" height="8" fill="#000000" /><rect x="528" y="168" width="8" height="8" fill="#000000" /><rect x="72" y="176" width="8" height="8" fill="#000000" /><rect x="104" y="176" width="8" height="8" fill="#000000" /><rect x="128" y="176" width="8" height="8" fill="#000000" /><rect x="200" y="176" width="8" height="8" fill="#000000" /><rect x="208" y="176" width="8" height="8" fill="#000000" /><rect x="256" y="176" width="8" height="8" fill="#000000" /><rect x="304" y="176" width="8" height="8" fill="#000000" /><rect x="440" y="176" width="8" height="8" fill="#000000" /><rect x="504" y="176" width="8" height="8" fill="#000000" /><rect x="536" y="176" width="8" height="8" fill="#000000" /><rect x="128" y="184" width="8" height="8" fill="#000000" /><rect x="192" y="184" width="8" height="8" fill="#000000" /><rect x="224" y="184" width="8" height="8" fill="#000000" /><rect x="232" y="184" width="8" height="8" fill="#000000" /><rect x="240" y="184" width="8" height="8" fill="#000000" /><rect x="264" y="184" width="8" height="8" fill="#000000" /><rect x="368" y="184" width="8" height="8" fill="#000000" /><rect x="440" y="184" width="8" height="8" fill="#000000" /><rect x="520" y="184" width="8" height="8" fill="#000000" /><rect x="32" y="192" width="8" height="8" fill="#000000" /><rect x="120" y="192" width="8" height="8" fill="#000000" /><rect x="136" y="192" width="8" height="8" fill="#000000" /><rect x="168" y="192" width="8" height="8" fill="#000000" /><rect x="232" y="192" width="8" height="8" fill="#000000" /><rect x="240" y="192" width="8" height="8" fill="#000000" /><rect x="264" y="192" width="8" height="8" fill="#000000" /><rect x="272" y="192" width="8" height="8" fill="#000000" /><rect x="304" y="192" width="8" height="8" fill="#000000" /><rect x="320" y="192" width="8" height="8" fill="#000000" /><rect x="456" y="192" width="8" height="8" fill="#000000" /><rect x="472" y="192" width="8" height="8" fill="#000000" /><rect x="504" y="192" width="8" height="8" fill="#000000" /><rect x="512" y="192" width="8" height="8" fill="#000000" /><rect x="520" y="192" width="8" height="8" fill="#000000" /><rect x="32" y="200" width="8" height="8" fill="#000000" /><rect x="40" y="200" width="8" height="8" fill="#000000" /><rect x="72" y="200" width="8" height="8" fill="#000000" /><rect x="104" y="200" width="8" height="8" fill="#000000" /><rect x="128" y="200" width="8" height="8" fill="#000000" /><rect x="152" y="200" width="8" height="8" fill="#000000" /><rect x="184" y="200" width="8" height="8" fill="#000000" /><rect x="232" y="200" width="8" height="8" fill="#000000" /><rect x="320" y="200" width="8" height="8" fill="#000000" /><rect x="472" y="200" width="8" height="8" fill="#000000" /><rect x="480" y="200" width="8" height="8" fill="#000000" /><rect x="528" y="200" width="8" height="8" fill="#000000" /><rect x="40" y="208" width="8" height="8" fill="#000000" /><rect x="216" y="208" width="8" height="8" fill="#000000" /><rect x="224" y="208" width="8" height="8" fill="#000000" /><rect x="240" y="208" width="8" height="8" fill="#000000" /><rect x="256" y="208" width="8" height="8" fill="#000000" /><rect x="296" y="208" width="8" height="8" fill="#000000" /><rect x="320" y="208" width="8" height="8" fill="#000000" /><rect x="336" y="208" width="8" height="8" fill="#000000" /><rect x="352" y="208" width="8" height="8" fill="#000000" /><rect x="512" y="208" width="8" height="8" fill="#000000" /><rect x="32" y="216" width="8" height="8" fill="#000000" /><rect x="216" y="216" width="8" height="8" fill="#000000" /><rect x="424" y="216" width="8" height="8" fill="#000000" /><rect x="480" y="216" width="8" height="8" fill="#000000" /><rect x="528" y="216" width="8" height="8" fill="#000000" /><rect x="120" y="224" width="8" height="8" fill="#000000" /><rect x="152" y="224" width="8" height="8" fill="#000000" /><rect x="160" y="224" width="8" height="8" fill="#000000" /><rect x="192" y="224" width="8" height="8" fill="#000000" /><rect x="200" y="224" width="8" height="8" fill="#000000" /><rect x="216" y="224" width="8" height="8" fill="#000000" /><rect x="240" y="224" width="8" height="8" fill="#000000" /><rect x="424" y="224" width="8" height="8" fill="#000000" /><rect x="456" y="224" width="8" height="8" fill="#000000" /><rect x="120" y="232" width="8" height="8" fill="#000000" /><rect x="128" y="232" width="8" height="8" fill="#000000" /><rect x="136" y="232" width="8" height="8" fill="#000000" /><rect x="168" y="232" width="8" height="8" fill="#000000" /><rect x="184" y="232" width="8" height="8" fill="#000000" /><rect x="208" y="232" width="8" height="8" fill="#000000" /><rect x="232" y="232" width="8" height="8" fill="#000000" /><rect x="296" y="232" width="8" height="8" fill="#000000" /><rect x="392" y="232" width="8" height="8" fill="#000000" /><rect x="104" y="240" width="8" height="8" fill="#000000" /><rect x="120" y="240" width="8" height="8" fill="#000000" /><rect x="152" y="240" width="8" height="8" fill="#000000" /><rect x="168" y="240" width="8" height="8" fill="#000000" /><rect x="184" y="240" width="8" height="8" fill="#000000" /><rect x="192" y="240" width="8" height="8" fill="#000000" /><rect x="224" y="240" width="8" height="8" fill="#000000" /><rect x="304" y="240" width="8" height="8" fill="#000000" /><rect x="328" y="240" width="8" height="8" fill="#000000" /><rect x="344" y="240" width="8" height="8" fill="#000000" /><rect x="408" y="240" width="8" height="8" fill="#000000" /><rect x="40" y="248" width="8" height="8" fill="#000000" /><rect x="112" y="248" width="8" height="8" fill="#000000" /><rect x="136" y="248" width="8" height="8" fill="#000000" /><rect x="144" y="248" width="8" height="8" fill="#000000" /><rect x="200" y="248" width="8" height="8" fill="#000000" /><rect x="216" y="248" width="8" height="8" fill="#000000" /><rect x="296" y="248" width="8" height="8" fill="#000000" /><rect x="320" y="248" width="8" height="8" fill="#000000" /><rect x="352" y="248" width="8" height="8" fill="#000000" /><rect x="424" y="248" width="8" height="8" fill="#000000" /><rect x="432" y="248" width="8" height="8" fill="#000000" /><rect x="472" y="248" width="8" height="8" fill="#000000" /><rect x="480" y="248" width="8" height="8" fill="#000000" /><rect x="496" y="248" width="8" height="8" fill="#000000" /><rect x="504" y="248" width="8" height="8" fill="#000000" /><rect x="32" y="256" width="8" height="8" fill="#000000" /><rect x="64" y="256" width="8" height="8" fill="#000000" /><rect x="88" y="256" width="8" height="8" fill="#000000" /><rect x="152" y="256" width="8" height="8" fill="#000000" /><rect x="160" y="256" width="8" height="8" fill="#000000" /><rect x="168" y="256" width="8" height="8" fill="#000000" /><rect x="176" y="256" width="8" height="8" fill="#000000" /><rect x="192" y="256" width="8" height="8" fill="#000000" /><rect x="216" y="256" width="8" height="8" fill="#000000" /><rect x="248" y="256" width="8" height="8" fill="#000000" /><rect x="256" y="256" width="8" height="8" fill="#000000" /><rect x="312" y="256" width="8" height="8" fill="#000000" /><rect x="440" y="256" width="8" height="8" fill="#000000" /><rect x="480" y="256" width="8" height="8" fill="#000000" /><rect x="504" y="256" width="8" height="8" fill="#000000" /><rect x="64" y="264" width="8" height="8" fill="#000000" /><rect x="72" y="264" width="8" height="8" fill="#000000" /><rect x="104" y="264" width="8" height="8" fill="#000000" /><rect x="112" y="264" width="8" height="8" fill="#000000" /><rect x="160" y="264" width="8" height="8" fill="#000000" /><rect x="216" y="264" width="8" height="8" fill="#000000" /><rect x="256" y="264" width="8" height="8" fill="#000000" /><rect x="312" y="264" width="8" height="8" fill="#000000" /><rect x="352" y="264" width="8" height="8" fill="#000000" /><rect x="432" y="264" width="8" height="8" fill="#000000" /><rect x="480" y="264" width="8" height="8" fill="#000000" /><rect x="512" y="264" width="8" height="8" fill="#000000" /><rect x="32" y="272" width="8" height="8" fill="#000000" /><rect x="48" y="272" width="8" height="8" fill="#000000" /><rect x="112" y="272" width="8" height="8" fill="#000000" /><rect x="160" y="272" width="8" height="8" fill="#000000" /><rect x="248" y="272" width="8" height="8" fill="#000000" /><rect x="392" y="272" width="8" height="8" fill="#000000" /><rect x="464" y="272" width="8" height="8" fill="#000000" /><rect x="32" y="280" width="8" height="8" fill="#000000" /><rect x="104" y="280" width="8" height="8" fill="#000000" /><rect x="112" y="280" width="8" height="8" fill="#000000" /><rect x="136" y="280" width="8" height="8" fill="#000000" /><rect x="320" y="280" width="8" height="8" fill="#000000" /><rect x="104" y="288" width="8" height="8" fill="#000000" /><rect x="192" y="288" width="8" height="8" fill="#000000" /><rect x="216" y="288" width="8" height="8" fill="#000000" /><rect x="352" y="288" width="8" height="8" fill="#000000" /><rect x="392" y="288" width="8" height="8" fill="#000000" /><rect x="400" y="288" width="8" height="8" fill="#000000" /><rect x="424" y="288" width="8" height="8" fill="#000000" /><rect x="432" y="288" width="8" height="8" fill="#000000" /><rect x="56" y="296" width="8" height="8" fill="#000000" /><rect x="208" y="296" width="8" height="8" fill="#000000" /><rect x="320" y="296" width="8" height="8" fill="#000000" /><rect x="344" y="296" width="8" height="8" fill="#000000" /><rect x="424" y="296" width="8" height="8" fill="#000000" /><rect x="432" y="296" width="8" height="8" fill="#000000" /><rect x="472" y="296" width="8" height="8" fill="#000000" /><rect x="104" y="304" width="8" height="8" fill="#000000" /><rect x="320" y="304" width="8" height="8" fill="#000000" /><rect x="432" y="304" width="8" height="8" fill="#000000" /><rect x="96" y="312" width="8" height="8" fill="#000000" /><rect x="104" y="312" width="8" height="8" fill="#000000" /><rect x="144" y="312" width="8" height="8" fill="#000000" /><rect x="224" y="312" width="8" height="8" fill="#000000" /><rect x="296" y="312" width="8" height="8" fill="#000000" /><rect x="320" y="312" width="8" height="8" fill="#000000" /><rect x="352" y="312" width="8" height="8" fill="#000000" /><rect x="432" y="312" width="8" height="8" fill="#000000" /><rect x="480" y="312" width="8" height="8" fill="#000000" /><rect x="88" y="320" width="8" height="8" fill="#000000" /><rect x="112" y="320" width="8" height="8" fill="#000000" /><rect x="136" y="320" width="8" height="8" fill="#000000" /><rect x="144" y="320" width="8" height="8" fill="#000000" /><rect x="248" y="320" width="8" height="8" fill="#000000" /><rect x="296" y="320" width="8" height="8" fill="#000000" /><rect x="312" y="320" width="8" height="8" fill="#000000" /><rect x="344" y="320" width="8" height="8" fill="#000000" /><rect x="432" y="320" width="8" height="8" fill="#000000" /><rect x="496" y="320" width="8" height="8" fill="#000000" /><rect x="48" y="328" width="8" height="8" fill="#000000" /><rect x="88" y="328" width="8" height="8" fill="#000000" /><rect x="112" y="328" width="8" height="8" fill="#000000" /><rect x="136" y="328" width="8" height="8" fill="#000000" /><rect x="168" y="328" width="8" height="8" fill="#000000" /><rect x="176" y="328" width="8" height="8" fill="#000000" /><rect x="288" y="328" width="8" height="8" fill="#000000" /><rect x="320" y="328" width="8" height="8" fill="#000000" /><rect x="424" y="328" width="8" height="8" fill="#000000" /><rect x="456" y="328" width="8" height="8" fill="#000000" /><rect x="536" y="328" width="8" height="8" fill="#000000" /><rect x="48" y="336" width="8" height="8" fill="#000000" /><rect x="64" y="336" width="8" height="8" fill="#000000" /><rect x="104" y="336" width="8" height="8" fill="#000000" /><rect x="256" y="336" width="8" height="8" fill="#000000" /><rect x="280" y="336" width="8" height="8" fill="#000000" /><rect x="312" y="336" width="8" height="8" fill="#000000" /><rect x="400" y="336" width="8" height="8" fill="#000000" /><rect x="424" y="336" width="8" height="8" fill="#000000" /><rect x="456" y="336" width="8" height="8" fill="#000000" /><rect x="56" y="344" width="8" height="8" fill="#000000" /><rect x="96" y="344" width="8" height="8" fill="#000000" /><rect x="112" y="344" width="8" height="8" fill="#000000" /><rect x="144" y="344" width="8" height="8" fill="#000000" /><rect x="256" y="344" width="8" height="8" fill="#000000" /><rect x="288" y="344" width="8" height="8" fill="#000000" /><rect x="368" y="344" width="8" height="8" fill="#000000" /><rect x="424" y="344" width="8" height="8" fill="#000000" /><rect x="432" y="344" width="8" height="8" fill="#000000" /><rect x="96" y="352" width="8" height="8" fill="#000000" /><rect x="104" y="352" width="8" height="8" fill="#000000" /><rect x="112" y="352" width="8" height="8" fill="#000000" /><rect x="136" y="352" width="8" height="8" fill="#000000" /><rect x="248" y="352" width="8" height="8" fill="#000000" /><rect x="272" y="352" width="8" height="8" fill="#000000" /><rect x="344" y="352" width="8" height="8" fill="#000000" /><rect x="360" y="352" width="8" height="8" fill="#000000" /><rect x="368" y="352" width="8" height="8" fill="#000000" /><rect x="392" y="352" width="8" height="8" fill="#000000" /><rect x="488" y="352" width="8" height="8" fill="#000000" /><rect x="496" y="352" width="8" height="8" fill="#000000" /><rect x="56" y="360" width="8" height="8" fill="#000000" /><rect x="96" y="360" width="8" height="8" fill="#000000" /><rect x="248" y="360" width="8" height="8" fill="#000000" /><rect x="256" y="360" width="8" height="8" fill="#000000" /><rect x="264" y="360" width="8" height="8" fill="#000000" /><rect x="312" y="360" width="8" height="8" fill="#000000" /><rect x="352" y="360" width="8" height="8" fill="#000000" /><rect x="368" y="360" width="8" height="8" fill="#000000" /><rect x="432" y="360" width="8" height="8" fill="#000000" /><rect x="496" y="360" width="8" height="8" fill="#000000" /><rect x="544" y="360" width="8" height="8" fill="#000000" /><rect x="48" y="368" width="8" height="8" fill="#000000" /><rect x="56" y="368" width="8" height="8" fill="#000000" /><rect x="288" y="368" width="8" height="8" fill="#000000" /><rect x="352" y="368" width="8" height="8" fill="#000000" /><rect x="360" y="368" width="8" height="8" fill="#000000" /><rect x="528" y="368" width="8" height="8" fill="#000000" /><rect x="104" y="376" width="8" height="8" fill="#000000" /><rect x="112" y="376" width="8" height="8" fill="#000000" /><rect x="248" y="376" width="8" height="8" fill="#000000" /><rect x="384" y="376" width="8" height="8" fill="#000000" /><rect x="56" y="384" width="8" height="8" fill="#000000" /><rect x="104" y="384" width="8" height="8" fill="#000000" /><rect x="120" y="384" width="8" height="8" fill="#000000" /><rect x="280" y="384" width="8" height="8" fill="#000000" /><rect x="328" y="384" width="8" height="8" fill="#000000" /><rect x="360" y="384" width="8" height="8" fill="#000000" /><rect x="384" y="384" width="8" height="8" fill="#000000" /><rect x="496" y="384" width="8" height="8" fill="#000000" /><rect x="520" y="384" width="8" height="8" fill="#000000" /><rect x="48" y="392" width="8" height="8" fill="#000000" /><rect x="112" y="392" width="8" height="8" fill="#000000" /><rect x="272" y="392" width="8" height="8" fill="#000000" /><rect x="328" y="392" width="8" height="8" fill="#000000" /><rect x="416" y="392" width="8" height="8" fill="#000000" /><rect x="480" y="392" width="8" height="8" fill="#000000" /><rect x="96" y="400" width="8" height="8" fill="#000000" /><rect x="120" y="400" width="8" height="8" fill="#000000" /><rect x="336" y="400" width="8" height="8" fill="#000000" /><rect x="344" y="400" width="8" height="8" fill="#000000" /><rect x="408" y="400" width="8" height="8" fill="#000000" /><rect x="48" y="408" width="8" height="8" fill="#000000" /><rect x="96" y="408" width="8" height="8" fill="#000000" /><rect x="280" y="408" width="8" height="8" fill="#000000" /><rect x="288" y="408" width="8" height="8" fill="#000000" /><rect x="376" y="408" width="8" height="8" fill="#000000" /><rect x="408" y="408" width="8" height="8" fill="#000000" /><rect x="448" y="408" width="8" height="8" fill="#000000" /><rect x="488" y="408" width="8" height="8" fill="#000000" /><rect x="496" y="408" width="8" height="8" fill="#000000" /><rect x="536" y="408" width="8" height="8" fill="#000000" /><rect x="544" y="408" width="8" height="8" fill="#000000" /><rect x="48" y="416" width="8" height="8" fill="#000000" /><rect x="96" y="416" width="8" height="8" fill="#000000" /><rect x="152" y="416" width="8" height="8" fill="#000000" /><rect x="240" y="416" width="8" height="8" fill="#000000" /><rect x="360" y="416" width="8" height="8" fill="#000000" /><rect x="376" y="416" width="8" height="8" fill="#000000" /><rect x="384" y="416" width="8" height="8" fill="#000000" /><rect x="448" y="416" width="8" height="8" fill="#000000" /><rect x="488" y="416" width="8" height="8" fill="#000000" /><rect x="48" y="424" width="8" height="8" fill="#000000" /><rect x="128" y="424" width="8" height="8" fill="#000000" /><rect x="160" y="424" width="8" height="8" fill="#000000" /><rect x="264" y="424" width="8" height="8" fill="#000000" /><rect x="280" y="424" width="8" height="8" fill="#000000" /><rect x="56" y="432" width="8" height="8" fill="#000000" /><rect x="152" y="432" width="8" height="8" fill="#000000" /><rect x="200" y="432" width="8" height="8" fill="#000000" /><rect x="232" y="432" width="8" height="8" fill="#000000" /><rect x="264" y="432" width="8" height="8" fill="#000000" /><rect x="272" y="432" width="8" height="8" fill="#000000" /><rect x="280" y="432" width="8" height="8" fill="#000000" /><rect x="288" y="432" width="8" height="8" fill="#000000" /><rect x="384" y="432" width="8" height="8" fill="#000000" /><rect x="440" y="432" width="8" height="8" fill="#000000" /><rect x="152" y="440" width="8" height="8" fill="#000000" /><rect x="200" y="440" width="8" height="8" fill="#000000" /><rect x="232" y="440" width="8" height="8" fill="#000000" /><rect x="272" y="440" width="8" height="8" fill="#000000" /><rect x="288" y="440" width="8" height="8" fill="#000000" /><rect x="368" y="440" width="8" height="8" fill="#000000" /><rect x="408" y="440" width="8" height="8" fill="#000000" /><rect x="416" y="440" width="8" height="8" fill="#000000" /><rect x="440" y="440" width="8" height="8" fill="#000000" /><rect x="520" y="440" width="8" height="8" fill="#000000" /><rect x="128" y="448" width="8" height="8" fill="#000000" /><rect x="184" y="448" width="8" height="8" fill="#000000" /><rect x="192" y="448" width="8" height="8" fill="#000000" /><rect x="200" y="448" width="8" height="8" fill="#000000" /><rect x="232" y="448" width="8" height="8" fill="#000000" /><rect x="272" y="448" width="8" height="8" fill="#000000" /><rect x="336" y="448" width="8" height="8" fill="#000000" /><rect x="408" y="448" width="8" height="8" fill="#000000" /><rect x="440" y="448" width="8" height="8" fill="#000000" /><rect x="448" y="448" width="8" height="8" fill="#000000" /><rect x="88" y="456" width="8" height="8" fill="#000000" /><rect x="208" y="456" width="8" height="8" fill="#000000" /><rect x="232" y="456" width="8" height="8" fill="#000000" /><rect x="240" y="456" width="8" height="8" fill="#000000" /><rect x="280" y="456" width="8" height="8" fill="#000000" /><rect x="288" y="456" width="8" height="8" fill="#000000" /><rect x="384" y="456" width="8" height="8" fill="#000000" /><rect x="88" y="464" width="8" height="8" fill="#000000" /><rect x="96" y="464" width="8" height="8" fill="#000000" /><rect x="168" y="464" width="8" height="8" fill="#000000" /><rect x="200" y="464" width="8" height="8" fill="#000000" /><rect x="272" y="464" width="8" height="8" fill="#000000" /><rect x="280" y="464" width="8" height="8" fill="#000000" /><rect x="288" y="464" width="8" height="8" fill="#000000" /><rect x="336" y="464" width="8" height="8" fill="#000000" /><rect x="376" y="464" width="8" height="8" fill="#000000" /><rect x="384" y="464" width="8" height="8" fill="#000000" /><rect x="448" y="464" width="8" height="8" fill="#000000" /><rect x="488" y="464" width="8" height="8" fill="#000000" /><rect x="520" y="464" width="8" height="8" fill="#000000" /><rect x="96" y="472" width="8" height="8" fill="#000000" /><rect x="120" y="472" width="8" height="8" fill="#000000" /><rect x="160" y="472" width="8" height="8" fill="#000000" /><rect x="168" y="472" width="8" height="8" fill="#000000" /><rect x="176" y="472" width="8" height="8" fill="#000000" /><rect x="184" y="472" width="8" height="8" fill="#000000" /><rect x="264" y="472" width="8" height="8" fill="#000000" /><rect x="280" y="472" width="8" height="8" fill="#000000" /><rect x="336" y="472" width="8" height="8" fill="#000000" /><rect x="384" y="472" width="8" height="8" fill="#000000" /><rect x="464" y="472" width="8" height="8" fill="#000000" /><rect x="488" y="472" width="8" height="8" fill="#000000" /><rect x="128" y="480" width="8" height="8" fill="#000000" /><rect x="160" y="480" width="8" height="8" fill="#000000" /><rect x="168" y="480" width="8" height="8" fill="#000000" /><rect x="232" y="480" width="8" height="8" fill="#000000" /><rect x="264" y="480" width="8" height="8" fill="#000000" /><rect x="336" y="480" width="8" height="8" fill="#000000" /><rect x="384" y="480" width="8" height="8" fill="#000000" /><rect x="456" y="480" width="8" height="8" fill="#000000" /><rect x="120" y="488" width="8" height="8" fill="#000000" /><rect x="160" y="488" width="8" height="8" fill="#000000" /><rect x="184" y="488" width="8" height="8" fill="#000000" /><rect x="360" y="488" width="8" height="8" fill="#000000" /><rect x="384" y="488" width="8" height="8" fill="#000000" /><rect x="448" y="488" width="8" height="8" fill="#000000" /><rect x="456" y="488" width="8" height="8" fill="#000000" /><rect x="168" y="496" width="8" height="8" fill="#000000" /><rect x="176" y="496" width="8" height="8" fill="#000000" /><rect x="184" y="496" width="8" height="8" fill="#000000" /><rect x="192" y="496" width="8" height="8" fill="#000000" /><rect x="224" y="496" width="8" height="8" fill="#000000" /><rect x="264" y="496" width="8" height="8" fill="#000000" /><rect x="336" y="496" width="8" height="8" fill="#000000" /><rect x="360" y="496" width="8" height="8" fill="#000000" /><rect x="368" y="496" width="8" height="8" fill="#000000" /><rect x="376" y="496" width="8" height="8" fill="#000000" /><rect x="408" y="496" width="8" height="8" fill="#000000" /><rect x="448" y="496" width="8" height="8" fill="#000000" /><rect x="456" y="496" width="8" height="8" fill="#000000" /><rect x="520" y="496" width="8" height="8" fill="#000000" /><rect x="128" y="504" width="8" height="8" fill="#000000" /><rect x="144" y="504" width="8" height="8" fill="#000000" /><rect x="208" y="504" width="8" height="8" fill="#000000" /><rect x="224" y="504" width="8" height="8" fill="#000000" /><rect x="240" y="504" width="8" height="8" fill="#000000" /><rect x="328" y="504" width="8" height="8" fill="#000000" /><rect x="360" y="504" width="8" height="8" fill="#000000" /><rect x="448" y="504" width="8" height="8" fill="#000000" /><rect x="456" y="504" width="8" height="8" fill="#000000" /><rect x="520" y="504" width="8" height="8" fill="#000000" /><rect x="120" y="512" width="8" height="8" fill="#000000" /><rect x="184" y="512" width="8" height="8" fill="#000000" /><rect x="320" y="512" width="8" height="8" fill="#000000" /><rect x="328" y="512" width="8" height="8" fill="#000000" /><rect x="448" y="512" width="8" height="8" fill="#000000" /><rect x="456" y="512" width="8" height="8" fill="#000000" /><rect x="520" y="512" width="8" height="8" fill="#000000" /><rect x="144" y="520" width="8" height="8" fill="#000000" /><rect x="152" y="520" width="8" height="8" fill="#000000" /><rect x="160" y="520" width="8" height="8" fill="#000000" /><rect x="216" y="520" width="8" height="8" fill="#000000" /><rect x="240" y="520" width="8" height="8" fill="#000000" /><rect x="264" y="520" width="8" height="8" fill="#000000" /><rect x="272" y="520" width="8" height="8" fill="#000000" /><rect x="288" y="520" width="8" height="8" fill="#000000" /><rect x="328" y="520" width="8" height="8" fill="#000000" /><rect x="336" y="520" width="8" height="8" fill="#000000" /><rect x="376" y="520" width="8" height="8" fill="#000000" /><rect x="384" y="520" width="8" height="8" fill="#000000" /><rect x="136" y="528" width="8" height="8" fill="#000000" /><rect x="144" y="528" width="8" height="8" fill="#000000" /><rect x="152" y="528" width="8" height="8" fill="#000000" /><rect x="160" y="528" width="8" height="8" fill="#000000" /><rect x="168" y="528" width="8" height="8" fill="#000000" /><rect x="176" y="528" width="8" height="8" fill="#000000" /><rect x="240" y="528" width="8" height="8" fill="#000000" /><rect x="368" y="528" width="8" height="8" fill="#000000" /><rect x="152" y="536" width="8" height="8" fill="#000000" /><rect x="184" y="536" width="8" height="8" fill="#000000" /><rect x="216" y="536" width="8" height="8" fill="#000000" /><rect x="232" y="536" width="8" height="8" fill="#000000" /><rect x="240" y="536" width="8" height="8" fill="#000000" /><rect x="320" y="536" width="8" height="8" fill="#000000" /><rect x="344" y="536" width="8" height="8" fill="#000000" /><rect x="392" y="536" width="8" height="8" fill="#000000" /><rect x="424" y="536" width="8" height="8" fill="#000000" /><rect x="440" y="536" width="8" height="8" fill="#000000" /><rect x="152" y="544" width="8" height="8" fill="#000000" /><rect x="160" y="544" width="8" height="8" fill="#000000" /><rect x="176" y="544" width="8" height="8" fill="#000000" /><rect x="192" y="544" width="8" height="8" fill="#000000" /><rect x="200" y="544" width="8" height="8" fill="#000000" /><rect x="264" y="544" width="8" height="8" fill="#000000" /><rect x="440" y="544" width="8" height="8" fill="#000000" /><rect x="528" y="544" width="8" height="8" fill="#000000" /></svg>