<svg xmlns="http://www.w3.org/2000/svg" width="584" height="584" viewBox="0 0 584 584" shape-rendering="crispEdges"><rect x="272" y="32" width="8" height="8" fill="#000000" /><rect x="288" y="32" width="8" height="8" fill="#000000" /><rect x="328" y="32" width="8" height="8" fill="#000000" /><rect x="344" y="32" width="8" height="8" fill="#000000" /><rect x="128" y="40" width="8" height="8" fill="#000000" /><rect x="280" y="40" width="8" height="8" fill="#000000" /><rect x="288" y="40" width="8" height="8" fill="#000000" /><rect x="368" y="40" width="8" height="8" fill="#000000" /><rect x="384" y="40" width="8" height="8" fill="#000000" /><rect x="240" y="48" width="8" height="8" fill="#000000" /><rect x="272" y="48" width="8" height="8" fill="#000000" /><rect x="280" y="48" width="8" height="8" fill="#000000" /><rect x="360" y="48" width="8" height="8" fill="#000000" /><rect x="376" y="48" width="8" height="8" fill="#000000" /><rect x="408" y="48" width="8" height="8" fill="#000000" /><rect x="416" y="48" width="8" height="8" fill="#000000" /><rect x="448" y="48" width="8" height="8" fill="#000000" /><rect x="384" y="56" width="8" height="8" fill="#000000" /><rect x="408" y="56" width="8" height="8" fill="#000000" /><rect x="416" y="56" width="8" height="8" fill="#000000" /><rect x="264" y="64" width="8" height="8" fill="#000000" /><rect x="368" y="64" width="8" height="8" fill="#000000" /><rect x="448" y="64" width="8" height="8" fill="#000000" /><rect x="368" y="72" width="8" height="8" fill="#000000" /><rect x="416" y="72" width="8" height="8" fill="#000000" /><rect x="128" y="88" width="8" height="8" fill="#000000" /><rect x="208" y="88" width="8" height="8" fill="#000000" /><rect x="240" y="88" width="8" height="8" fill="#000000" /><rect x="264" y="88" width="8" height="8" fill="#000000" /><rect x="360" y="88" width="8" height="8" fill="#000000" /><rect x="120" y="96" width="8" height="8" fill="#000000" /><rect x="160" y="96" width="8" height="8" fill="#000000" /><rect x="192" y="96" width="8" height="8" fill="#000000" /><rect x="336" y="96" width="8" height="8" fill="#000000" /><rect x="64" y="104" width="8" height="8" fill="#000000" /><rect x="88" y="104" width="8" height="8" fill="#000000" /><rect x="96" y="104" width="8" height="8" fill="#000000" /><rect x="120" y="104" width="8" height="8" fill="#000000" /><rect x="152" y="104" width="8" height="8" fill="#000000" /><rect x="184" y="104" width="8" height="8" fill="#000000" /><rect x="232" y="104" width="8" height="8" fill="#000000" /><rect x="264" y="104" width="8" height="8" fill="#000000" /><rect x="280" y="104" width="8" height="8" fill="#000000" /><rect x="328" y="104" width="8" height="8" fill="#000000" /><rect x="368" y="104" width="8" height="8" fill="#000000" /><rect x="416" y="104" width="8" height="8" fill="#000000" /><rect x="440" y="104" width="8" height="8" fill="#000000" /><rect x="488" y="104" width="8" height="8" fill="#000000" /><rect x="496" y="104" width="8" height="8" fill="#000000" /><rect x="512" y="104" width="8" height="8" fill="#000000" /><rect x="520" y="104" width="8" height="8" fill="#000000" /><rect x="528" y="104" width="8" height="8" fill="#000000" /><rect x="96" y="112" width="8" height="8" fill="#000000" /><rect x="120" y="112" width="8" height="8" fill="#000000" /><rect x="296" y="112" width="8" height="8" fill="#000000" /><rect x="440" y="112" width="8" height="8" fill="#000000" /><rect x="488" y="112" width="8" height="8" fill="#000000" /><rect x="496" y="112" width="8" height="8" fill="#000000" /><rect x="520" y="112" width="8" height="8" fill="#000000" /><rect x="32" y="120" width="8" height="8" fill="#000000" /><rect x="120" y="120" width="8" height="8" fill="#000000" /><rect x="128" y="120" width="8" height="8" fill="#000000" /><rect x="160" y="120" width="8" height="8" fill="#000000" /><rect x="184" y="120" width="8" height="8" fill="#000000" /><rect x="240" y="120" width="8" height="8" fill="#000000" /><rect x="288" y="120" width="8" height="8" fill="#000000" /><rect x="328" y="120" width="8" height="8" fill="#000000" /><rect x="336" y="120" width="8" height="8" fill="#000000" /><rect x="360" y="120" width="8" height="8" fill="#000000" /><rect x="368" y="120" width="8" height="8" fill="#000000" /><rect x="520" y="120" width="8" height="8" fill="#000000" /><rect x="528" y="120" width="8" height="8" fill="#000000" /><rect x="40" y="128" width="8" height="8" fill="#000000" /><rect x="120" y="128" width="8" height="8" fill="#000000" /><rect x="152" y="128" width="8" height="8" fill="#000000" /><rect x="160" y="128" width="8" height="8" fill="#000000" /><rect x="176" y="128" width="8" height="8" fill="#000000" /><rect x="192" y="128" width="8" height="8" fill="#000000" /><rect x="200" y="128" width="8" height="8" fill="#000000" /><rect x="224" y="128" width="8" height="8" fill="#000000" /><rect x="336" y="128" width="8" height="8" fill="#000000" /><rect x="360" y="128" width="8" height="8" fill="#000000" /><rect x="520" y="128" width="8" height="8" fill="#000000" /><rect x="528" y="128" width="8" height="8" fill="#000000" /><rect x="64" y="136" width="8" height="8" fill="#000000" /><rect x="120" y="136" width="8" height="8" fill="#000000" /><rect x="128" y="136" width="8" height="8" fill="#000000" /><rect x="152" y="136" width="8" height="8" fill="#000000" /><rect x="176" y="136" width="8" height="8" fill="#000000" /><rect x="184" y="136" width="8" height="8" fill="#000000" /><rect x="216" y="136" width="8" height="8" fill="#000000" /><rect x="224" y="136" width="8" height="8" fill="#000000" /><rect x="240" y="136" width="8" height="8" fill="#000000" /><rect x="264" y="136" width="8" height="8" fill="#000000" /><rect x="280" y="136" width="8" height="8" fill="#000000" /><rect x="296" y="136" width="8" height="8" fill="#000000" /><rect x="336" y="136" width="8" height="8" fill="#000000" /><rect x="368" y="136" width="8" height="8" fill="#000000" /><rect x="440" y="136" width="8" height="8" fill="#000000" /><rect x="512" y="136" width="8" height="8" fill="#000000" /><rect x="520" y="136" width="8" height="8" fill="#000000" /><rect x="536" y="136" width="8" height="8" fill="#000000" /><rect x="40" y="144" width="8" height="8" fill="#000000" /><rect x="120" y="144" width="8" height="8" fill="#000000" /><rect x="160" y="144" width="8" height="8" fill="#000000" /><rect x="168" y="144" width="8" height="8" fill="#000000" /><rect x="280" y="144" width="8" height="8" fill="#000000" /><rect x="336" y="144" width="8" height="8" fill="#000000" /><rect x="440" y="144" width="8" height="8" fill="#000000" /><rect x="456" y="144" width="8" height="8" fill="#000000" /><rect x="536" y="144" width="8" height="8" fill="#000000" /><rect x="40" y="152" width="8" height="8" fill="#000000" /><rect x="120" y="152" width="8" height="8" fill="#000000" /><rect x="152" y="152" width="8" height="8" fill="#000000" /><rect x="200" y="152" width="8" height="8" fill="#000000" /><rect x="232" y="152" width="8" height="8" fill="#000000" /><rect x="304" y="152" width="8" height="8" fill="#000000" /><rect x="360" y="152" width="8" height="8" fill="#000000" /><rect x="368" y="152" width="8" height="8" fill="#000000" /><rect x="456" y="152" width="8" height="8" fill="#000000" /><rect x="520" y="152" width="8" height="8" fill="#000000" /><rect x="528" y="152" width="8" height="8" fill="#000000" /><rect x="544" y="152" width="8" height="8" fill="#000000" /><rect x="120" y="160" width="8" height="8" fill="#000000" /><rect x="144" y="160" width="8" height="8" fill="#000000" /><rect x="152" y="160" width="8" height="8" fill="#000000" /><rect x="160" y="160" width="8" height="8" fill="#000000" /><rect x="208" y="160" width="8" height="8" fill="#000000" /><rect x="312" y="160" width="8" height="8" fill="#000000" /><rect x="360" y="160" width="8" height="8" fill="#000000" /><rect x="432" y="160" width="8" height="8" fill="#000000" /><rect x="480" y="160" width="8" height="8" fill="#000000" /><rect x="520" y="160" width="8" height="8" fill="#000000" /><rect x="528" y="160" width="8" height="8" fill="#000000" /><rect x="72" y="168" width="8" height="8" fill="#000000" /><rect x="176" y="168" width="8" height="8" fill="#000000" /><rect x="184" y="168" width="8" height="8" fill="#000000" /><rect x="200" y="168" width="8" height="8" fill="#000000" /><rect x="224" y="168" width="8" height="8" fill="#000000" /><rect x="232" y="168" width="8" height="8" fill="#000000" /><rect x="336" y="168" width="8" height="8" fill="#000000" /><rect x="440" y="168" width="8" height="8" fill="#000000" /><rect x="480" y="168" width="8" height="8" fill="#000000" /><rect x="512" y="168" width="8" height="8" fill="#000000" /><rect x="520" y="168" width="8" height="8" fill="#000000" /><rect x="528" y="168" width="8" height="8" fill="#000000" /><rect x="544" y="168" width="8" height="8" fill="#000000" /><rect x="40" y="176" width="8" height="8" fill="#000000" /><rect x="64" y="176" width="8" height="8" fill="#000000" /><rect x="112" y="176" width="8" height="8" fill="#000000" /><rect x="192" y="176" width="8" height="8" fill="#000000" /><rect x="232" y="176" width="8" height="8" fill="#000000" /><rect x="240" y="176" width="8" height="8" fill="#000000" /><rect x="264" y="176" width="8" height="8" fill="#000000" /><rect x="312" y="176" width="8" height="8" fill="#000000" /><rect x="336" y="176" width="8" height="8" fill="#000000" /><rect x="440" y="176" width="8" height="8" fill="#000000" /><rect x="536" y="176" width="8" height="8" fill="#000000" /><rect x="144" y="184" width="8" height="8" fill="#000000" /><rect x="168" y="184" width="8" height="8" fill="#000000" /><rect x="216" y="184" width="8" height="8" fill="#000000" /><rect x="328" y="184" width="8" height="8" fill="#000000" /><rect x="352" y="184" width="8" height="8" fill="#000000" /><rect x="472" y="184" width="8" height="8" fill="#000000" /><rect x="480" y="184" width="8" height="8" fill="#000000" /><rect x="520" y="184" width="8" height="8" fill="#000000" /><rect x="528" y="184" width="8" height="8" fill="#000000" /><rect x="128" y="192" width="8" height="8" fill="#000000" /><rect x="200" y="192" width="8" height="8" fill="#000000" /><rect x="224" y="192" width="8" height="8" fill="#000000" /><rect x="232" y="192" width="8" height="8" fill="#000000" /><rect x="312" y="192" width="8" height="8" fill="#000000" /><rect x="352" y="192" width="8" height="8" fill="#000000" /><rect x="360" y="192" width="8" height="8" fill="#000000" /><rect x="400" y="192" width="8" height="8" fill="#000000" /><rect x="472" y="192" width="8" height="8" fill="#000000" /><rect x="480" y="192" width="8" height="8" fill="#000000" /><rect x="520" y="192" width="8" height="8" fill="#000000" /><rect x="528" y="192" width="8" height="8" fill="#000000" /><rect x="40" y="200" width="8" height="8" fill="#000000" /><rect x="112" y="200" width="8" height="8" fill="#000000" /><rect x="120" y="200" width="8" height="8" fill="#000000" /><rect x="136" y="200" width="8" height="8" fill="#000000" /><rect x="176" y="200" width="8" height="8" fill="#000000" /><rect x="224" y="200" width="8" height="8" fill="#000000" /><rect x="232" y="200" width="8" height="8" fill="#000000" /><rect x="296" y="200" width="8" height="8" fill="#000000" /><rect x="392" y="200" width="8" height="8" fill="#000000" /><rect x="416" y="200" width="8" height="8" fill="#000000" /><rect x="424" y="200" width="8" height="8" fill="#000000" /><rect x="440" y="200" width="8" height="8" fill="#000000" /><rect x="472" y="200" width="8" height="8" fill="#000000" /><rect x="480" y="200" width="8" height="8" fill="#000000" /><rect x="512" y="200" width="8" height="8" fill="#000000" /><rect x="520" y="200" width="8" height="8" fill="#000000" /><rect x="528" y="200" width="8" height="8" fill="#000000" /><rect x="104" y="208" width="8" height="8" fill="#000000" /><rect x="128" y="208" width="8" height="8" fill="#000000" /><rect x="144" y="208" width="8" height="8" fill="#000000" /><rect x="152" y="208" width="8" height="8" fill="#000000" /><rect x="184" y="208" width="8" height="8" fill="#000000" /><rect x="248" y="208" width="8" height="8" fill="#000000" /><rect x="328" y="208" width="8" height="8" fill="#000000" /><rect x="336" y="208" width="8" height="8" fill="#000000" /><rect x="392" y="208" width="8" height="8" fill="#000000" /><rect x="408" y="208" width="8" height="8" fill="#000000" /><rect x="424" y="208" width="8" height="8" fill="#000000" /><rect x="520" y="208" width="8" height="8" fill="#000000" /><rect x="40" y="216" width="8" height="8" fill="#000000" /><rect x="104" y="216" width="8" height="8" fill="#000000" /><rect x="144" y="216" width="8" height="8" fill="#000000" /><rect x="184" y="216" width="8" height="8" fill="#000000" /><rect x="216" y="216" width="8" height="8" fill="#000000" /><rect x="336" y="216" width="8" height="8" fill="#000000" /><rect x="480" y="216" width="8" height="8" fill="#000000" /><rect x="520" y="216" width="8" height="8" fill="#000000" /><rect x="528" y="216" width="8" height="8" fill="#000000" /><rect x="40" y="224" width="8" height="8" fill="#000000" /><rect x="104" y="224" width="8" height="8" fill="#000000" /><rect x="144" y="224" width="8" height="8" fill="#000000" /><rect x="184" y="224" width="8" height="8" fill="#000000" /><rect x="208" y="224" width="8" height="8" fill="#000000" /><rect x="224" y="224" width="8" height="8" fill="#000000" /><rect x="232" y="224" width="8" height="8" fill="#000000" /><rect x="344" y="224" width="8" height="8" fill="#000000" /><rect x="352" y="224" width="8" height="8" fill="#000000" /><rect x="400" y="224" width="8" height="8" fill="#000000" /><rect x="464" y="224" width="8" height="8" fill="#000000" /><rect x="480" y="224" width="8" height="8" fill="#000000" /><rect x="504" y="224" width="8" height="8" fill="#000000" /><rect x="520" y="224" width="8" height="8" fill="#000000" /><rect x="528" y="224" width="8" height="8" fill="#000000" /><rect x="72" y="232" width="8" height="8" fill="#000000" /><rect x="128" y="232" width="8" height="8" fill="#000000" /><rect x="136" y="232" width="8" height="8" fill="#000000" /><rect x="176" y="232" width="8" height="8" fill="#000000" /><rect x="224" y="232" width="8" height="8" fill="#000000" /><rect x="296" y="232" width="8" height="8" fill="#000000" /><rect x="312" y="232" width="8" height="8" fill="#000000" /><rect x="392" y="232" width="8" height="8" fill="#000000" /><rect x="480" y="232" width="8" height="8" fill="#000000" /><rect x="512" y="232" width="8" height="8" fill="#000000" /><rect x="32" y="240" width="8" height="8" fill="#000000" /><rect x="56" y="240" width="8" height="8" fill="#000000" /><rect x="64" y="240" width="8" height="8" fill="#000000" /><rect x="136" y="240" width="8" height="8" fill="#000000" /><rect x="144" y="240" width="8" height="8" fill="#000000" /><rect x="184" y="240" width="8" height="8" fill="#000000" /><rect x="216" y="240" width="8" height="8" fill="#000000" /><rect x="248" y="240" width="8" height="8" fill="#000000" /><rect x="304" y="240" width="8" height="8" fill="#000000" /><rect x="312" y="240" width="8" height="8" fill="#000000" /><rect x="328" y="240" width="8" height="8" fill="#000000" /><rect x="392" y="240" width="8" height="8" fill="#000000" /><rect x="464" y="240" width="8" height="8" fill="#000000" /><rect x="472" y="240" width="8" height="8" fill="#000000" /><rect x="512" y="240" width="8" height="8" fill="#000000" /><rect x="32" y="248" width="8" height="8" fill="#000000" /><rect x="40" y="248" width="8" height="8" fill="#000000" /><rect x="88" y="248" width="8" height="8" fill="#000000" /><rect x="136" y="248" width="8" height="8" fill="#000000" /><rect x="152" y="248" width="8" height="8" fill="#000000" /><rect x="216" y="248" width="8" height="8" fill="#000000" /><rect x="224" y="248" width="8" height="8" fill="#000000" /><rect x="232" y="248" width="8" height="8" fill="#000000" /><rect x="304" y="248" width="8" height="8" fill="#000000" /><rect x="344" y="248" width="8" height="8" fill="#000000" /><rect x="392" y="248" width="8" height="8" fill="#000000" /><rect x="424" y="248" width="8" height="8" fill="#000000" /><rect x="432" y="248" width="8" height="8" fill="#000000" /><rect x="472" y="248" width="8" height="8" fill="#000000" /><rect x="480" y="248" width="8" height="8" fill="#000000" /><rect x="488" y="248" width="8" height="8" fill="#000000" /><rect x="496" y="248" width="8" height="8" fill="#000000" /><rect x="504" y="248" width="8" height="8" fill="#000000" /><rect x="48" y="256" width="8" height="8" fill="#000000" /><rect x="200" y="256" width="8" height="8" fill="#000000" /><rect x="208" y="256" width="8" height="8" fill="#000000" /><rect x="216" y="256" width="8" height="8" fill="#000000" /><rect x="304" y="256" width="8" height="8" fill="#000000" /><rect x="312" y="256" width="8" height="8" fill="#000000" /><rect x="344" y="256" width="8" height="8" fill="#000000" /><rect x="392" y="256" width="8" height="8" fill="#000000" /><rect x="424" y="256" width="8" height="8" fill="#000000" /><rect x="480" y="256" width="8" height="8" fill="#000000" /><rect x="504" y="256" width="8" height="8" fill="#000000" /><rect x="72" y="264" width="8" height="8" fill="#000000" /><rect x="88" y="264" width="8" height="8" fill="#000000" /><rect x="208" y="264" width="8" height="8" fill="#000000" /><rect x="232" y="264" width="8" height="8" fill="#000000" /><rect x="424" y="264" width="8" height="8" fill="#000000" /><rect x="432" y="264" width="8" height="8" fill="#000000" /><rect x="480" y="264" width="8" height="8" fill="#000000" /><rect x="56" y="272" width="8" height="8" fill="#000000" /><rect x="136" y="272" width="8" height="8" fill="#000000" /><rect x="152" y="272" width="8" height="8" fill="#000000" /><rect x="176" y="272" width="8" height="8" fill="#000000" /><rect x="200" y="272" width="8" height="8" fill="#000000" /><rect x="216" y="272" width="8" height="8" fill="#000000" /><rect x="248" y="272" width="8" height="8" fill="#000000" /><rect x="392" y="272" width="8" height="8" fill="#000000" /><rect x="400" y="272" width="8" height="8" fill="#000000" /><rect x="424" y="272" width="8" height="8" fill="#000000" /><rect x="432" y="272" width="8" height="8" fill="#000000" /><rect x="464" y="272" width="8" height="8" fill="#000000" /><rect x="472" y="272" width="8" height="8" fill="#000000" /><rect x="32" y="280" width="8" height="8" fill="#000000" /><rect x="104" y="280" width="8" height="8" fill="#000000" /><rect x="112" y="280" width="8" height="8" fill="#000000" /><rect x="192" y="280" width="8" height="8" fill="#000000" /><rect x="320" y="280" width="8" height="8" fill="#000000" /><rect x="432" y="280" width="8" height="8" fill="#000000" /><rect x="40" y="288" width="8" height="8" fill="#000000" /><rect x="168" y="288" width="8" height="8" fill="#000000" /><rect x="208" y="288" width="8" height="8" fill="#000000" /><rect x="248" y="288" width="8" height="8" fill="#000000" /><rect x="312" y="288" width="8" height="8" fill="#000000" /><rect x="344" y="288" width="8" height="8" fill="#000000" /><rect x="352" y="288" width="8" height="8" fill="#000000" /><rect x="424" y="288" width="8" height="8" fill="#000000" /><rect x="32" y="296" width="8" height="8" fill="#000000" /><rect x="112" y="296" width="8" height="8" fill="#000000" /><rect x="176" y="296" width="8" height="8" fill="#000000" /><rect x="432" y="296" width="8" height="8" fill="#000000" /><rect x="472" y="296" width="8" height="8" fill="#000000" /><rect x="136" y="304" width="8" height="8" fill="#000000" /><rect x="224" y="304" width="8" height="8" fill="#000000" /><rect x="400" y="304" width="8" height="8" fill="#000000" /><rect x="432" y="304" width="8" height="8" fill="#000000" /><rect x="464" y="304" width="8" height="8" fill="#000000" /><rect x="40" y="312" width="8" height="8" fill="#000000" /><rect x="88" y="312" width="8" height="8" fill="#000000" /><rect x="96" y="312" width="8" height="8" fill="#000000" /><rect x="136" y="312" width="8" height="8" fill="#000000" /><rect x="144" y="312" width="8" height="8" fill="#000000" /><rect x="192" y="312" width="8" height="8" fill="#000000" /><rect x="296" y="312" width="8" height="8" fill="#000000" /><rect x="424" y="312" width="8" height="8" fill="#000000" /><rect x="432" y="312" width="8" height="8" fill="#000000" /><rect x="96" y="320" width="8" height="8" fill="#000000" /><rect x="216" y="320" width="8" height="8" fill="#000000" /><rect x="280" y="320" width="8" height="8" fill="#000000" /><rect x="296" y="320" width="8" height="8" fill="#000000" /><rect x="344" y="320" width="8" height="8" fill="#000000" /><rect x="400" y="320" width="8" height="8" fill="#000000" /><rect x="464" y="320" width="8" height="8" fill="#000000" /><rect x="480" y="320" width="8" height="8" fill="#000000" /><rect x="504" y="320" width="8" height="8" fill="#000000" /><rect x="72" y="328" width="8" height="8" fill="#000000" /><rect x="88" y="328" width="8" height="8" fill="#000000" /><rect x="112" y="328" width="8" height="8" fill="#000000" /><rect x="176" y="328" width="8" height="8" fill="#000000" /><rect x="296" y="328" width="8" height="8" fill="#000000" /><rect x="312" y="328" width="8" height="8" fill="#000000" /><rect x="424" y="328" width="8" height="8" fill="#000000" /><rect x="432" y="328" width="8" height="8" fill="#000000" /><rect x="56" y="336" width="8" height="8" fill="#000000" /><rect x="96" y="336" width="8" height="8" fill="#000000" /><rect x="136" y="336" width="8" height="8" fill="#000000" /><rect x="144" y="336" width="8" height="8" fill="#000000" /><rect x="224" y="336" width="8" height="8" fill="#000000" /><rect x="256" y="336" width="8" height="8" fill="#000000" /><rect x="320" y="336" width="8" height="8" fill="#000000" /><rect x="344" y="336" width="8" height="8" fill="#000000" /><rect x="400" y="336" width="8" height="8" fill="#000000" /><rect x="424" y="336" width="8" height="8" fill="#000000" /><rect x="432" y="336" width="8" height="8" fill="#000000" /><rect x="464" y="336" width="8" height="8" fill="#000000" /><rect x="96" y="344" width="8" height="8" fill="#000000" /><rect x="104" y="344" width="8" height="8" fill="#000000" /><rect x="112" y="344" width="8" height="8" fill="#000000" /><rect x="136" y="344" width="8" height="8" fill="#000000" /><rect x="144" y="344" width="8" height="8" fill="#000000" /><rect x="264" y="344" width="8" height="8" fill="#000000" /><rect x="288" y="344" width="8" height="8" fill="#000000" /><rect x="360" y="344" width="8" height="8" fill="#000000" /><rect x="432" y="344" width="8" height="8" fill="#000000" /><rect x="512" y="344" width="8" height="8" fill="#000000" /><rect x="96" y="352" width="8" height="8" fill="#000000" /><rect x="256" y="352" width="8" height="8" fill="#000000" /><rect x="280" y="352" width="8" height="8" fill="#000000" /><rect x="312" y="352" width="8" height="8" fill="#000000" /><rect x="352" y="352" width="8" height="8" fill="#000000" /><rect x="56" y="360" width="8" height="8" fill="#000000" /><rect x="88" y="360" width="8" height="8" fill="#000000" /><rect x="96" y="360" width="8" height="8" fill="#000000" /><rect x="136" y="360" width="8" height="8" fill="#000000" /><rect x="248" y="360" width="8" height="8" fill="#000000" /><rect x="264" y="360" width="8" height="8" fill="#000000" /><rect x="280" y="360" width="8" height="8" fill="#000000" /><rect x="312" y="360" width="8" height="8" fill="#000000" /><rect x="368" y="360" width="8" height="8" fill="#000000" /><rect x="424" y="360" width="8" height="8" fill="#000000" /><rect x="432" y="360" width="8" height="8" fill="#000000" /><rect x="472" y="360" width="8" height="8" fill="#000000" /><rect x="96" y="368" width="8" height="8" fill="#000000" /><rect x="248" y="368" width="8" height="8" fill="#000000" /><rect x="272" y="368" width="8" height="8" fill="#000000" /><rect x="280" y="368" width="8" height="8" fill="#000000" /><rect x="320" y="368" width="8" height="8" fill="#000000" /><rect x="400" y="368" width="8" height="8" fill="#000000" /><rect x="424" y="368" width="8" height="8" fill="#000000" /><rect x="432" y="368" width="8" height="8" fill="#000000" /><rect x="48" y="376" width="8" height="8" fill="#000000" /><rect x="88" y="376" width="8" height="8" fill="#000000" /><rect x="96" y="376" width="8" height="8" fill="#000000" /><rect x="104" y="376" width="8" height="8" fill="#000000" /><rect x="248" y="376" width="8" height="8" fill="#000000" /><rect x="264" y="376" width="8" height="8" fill="#000000" /><rect x="288" y="376" width="8" height="8" fill="#000000" /><rect x="336" y="376" width="8" height="8" fill="#000000" /><rect x="344" y="376" width="8" height="8" fill="#000000" /><rect x="360" y="376" width="8" height="8" fill="#000000" /><rect x="408" y="376" width="8" height="8" fill="#000000" /><rect x="480" y="376" width="8" height="8" fill="#000000" /><rect x="536" y="376" width="8" height="8" fill="#000000" /><rect x="280" y="384" width="8" height="8" fill="#000000" /><rect x="328" y="384" width="8" height="8" fill="#000000" /><rect x="344" y="384" width="8" height="8" fill="#000000" /><rect x="480" y="384" width="8" height="8" fill="#000000" /><rect x="488" y="384" width="8" height="8" fill="#000000" /><rect x="496" y="384" width="8" height="8" fill="#000000" /><rect x="520" y="384" width="8" height="8" fill="#000000" /><rect x="536" y="384" width="8" height="8" fill="#000000" /><rect x="48" y="392" width="8" height="8" fill="#000000" /><rect x="112" y="392" width="8" height="8" fill="#000000" /><rect x="120" y="392" width="8" height="8" fill="#000000" /><rect x="128" y="392" width="8" height="8" fill="#000000" /><rect x="280" y="392" width="8" height="8" fill="#000000" /><rect x="328" y="392" width="8" height="8" fill="#000000" /><rect x="352" y="392" width="8" height="8" fill="#000000" /><rect x="408" y="392" width="8" height="8" fill="#000000" /><rect x="480" y="392" width="8" height="8" fill="#000000" /><rect x="488" y="392" width="8" height="8" fill="#000000" /><rect x="48" y="400" width="8" height="8" fill="#000000" /><rect x="328" y="400" width="8" height="8" fill="#000000" /><rect x="336" y="400" width="8" height="8" fill="#000000" /><rect x="352" y="400" width="8" height="8" fill="#000000" /><rect x="368" y="400" width="8" height="8" fill="#000000" /><rect x="48" y="408" width="8" height="8" fill="#000000" /><rect x="88" y="408" width="8" height="8" fill="#000000" /><rect x="96" y="408" width="8" height="8" fill="#000000" /><rect x="288" y="408" width="8" height="8" fill="#000000" /><rect x="336" y="408" width="8" height="8" fill="#000000" /><rect x="408" y="408" width="8" height="8" fill="#000000" /><rect x="520" y="408" width="8" height="8" fill="#000000" /><rect x="152" y="416" width="8" height="8" fill="#000000" /><rect x="264" y="416" width="8" height="8" fill="#000000" /><rect x="336" y="416" width="8" height="8" fill="#000000" /><rect x="408" y="416" width="8" height="8" fill="#000000" /><rect x="496" y="416" width="8" height="8" fill="#000000" /><rect x="520" y="416" width="8" height="8" fill="#000000" /><rect x="544" y="416" width="8" height="8" fill="#000000" /><rect x="96" y="424" width="8" height="8" fill="#000000" /><rect x="120" y="424" width="8" height="8" fill="#000000" /><rect x="152" y="424" width="8" height="8" fill="#000000" /><rect x="280" y="424" width="8" height="8" fill="#000000" /><rect x="360" y="424" width="8" height="8" fill="#000000" /><rect x="384" y="424" width="8" height="8" fill="#000000" /><rect x="448" y="424" width="8" height="8" fill="#000000" /><rect x="488" y="424" width="8" height="8" fill="#000000" /><rect x="48" y="432" width="8" height="8" fill="#000000" /><rect x="96" y="432" width="8" height="8" fill="#000000" /><rect x="128" y="432" width="8" height="8" fill="#000000" /><rect x="160" y="432" width="8" height="8" fill="#000000" /><rect x="240" y="432" width="8" height="8" fill="#000000" /><rect x="280" y="432" width="8" height="8" fill="#000000" /><rect x="328" y="432" width="8" height="8" fill="#000000" /><rect x="360" y="432" width="8" height="8" fill="#000000" /><rect x="368" y="432" width="8" height="8" fill="#000000" /><rect x="408" y="432" width="8" height="8" fill="#000000" /><rect x="488" y="432" width="8" height="8" fill="#000000" /><rect x="288" y="440" width="8" height="8" fill="#000000" /><rect x="488" y="440" width="8" height="8" fill="#000000" /><rect x="520" y="440" width="8" height="8" fill="#000000" /><rect x="536" y="440" width="8" height="8" fill="#000000" /><rect x="160" y="448" width="8" height="8" fill="#000000" /><rect x="192" y="448" width="8" height="8" fill="#000000" /><rect x="208" y="448" width="8" height="8" fill="#000000" /><rect x="336" y="448" width="8" height="8" fill="#000000" /><rect x="496" y="448" width="8" height="8" fill="#000000" /><rect x="520" y="448" width="8" height="8" fill="#000000" /><rect x="536" y="448" width="8" height="8" fill="#000000" /><rect x="120" y="456" width="8" height="8" fill="#000000" /><rect x="192" y="456" width="8" height="8" fill="#000000" /><rect x="288" y="456" width="8" height="8" fill="#000000" /><rect x="328" y="456" width="8" height="8" fill="#000000" /><rect x="360" y="456" width="8" height="8" fill="#000000" /><rect x="408" y="456" width="8" height="8" fill="#000000" /><rect x="448" y="456" width="8" height="8" fill="#000000" /><rect x="120" y="464" width="8" height="8" fill="#000000" /><rect x="192" y="464" width="8" height="8" fill="#000000" /><rect x="208" y="464" width="8" height="8" fill="#000000" /><rect x="232" y="464" width="8" height="8" fill="#000000" /><rect x="240" y="464" width="8" height="8" fill="#000000" /><rect x="528" y="464" width="8" height="8" fill="#000000" /><rect x="128" y="472" width="8" height="8" fill="#000000" /><rect x="176" y="472" width="8" height="8" fill="#000000" /><rect x="184" y="472" width="8" height="8" fill="#000000" /><rect x="232" y="472" width="8" height="8" fill="#000000" /><rect x="240" y="472" width="8" height="8" fill="#000000" /><rect x="280" y="472" width="8" height="8" fill="#000000" /><rect x="288" y="472" width="8" height="8" fill="#000000" /><rect x="360" y="472" width="8" height="8" fill="#000000" /><rect x="464" y="472" width="8" height="8" fill="#000000" /><rect x="96" y="480" width="8" height="8" fill="#000000" /><rect x="152" y="480" width="8" height="8" fill="#000000" /><rect x="176" y="480" width="8" height="8" fill="#000000" /><rect x="240" y="480" width="8" height="8" fill="#000000" /><rect x="464" y="480" width="8" height="8" fill="#000000" /><rect x="528" y="480" width="8" height="8" fill="#000000" /><rect x="152" y="488" width="8" height="8" fill="#000000" /><rect x="176" y="488" width="8" height="8" fill="#000000" /><rect x="184" y="488" width="8" height="8" fill="#000000" /><rect x="240" y="488" width="8" height="8" fill="#000000" /><rect x="328" y="488" width="8" height="8" fill="#000000" /><rect x="408" y="488" width="8" height="8" fill="#000000" /><rect x="448" y="488" width="8" height="8" fill="#000000" /><rect x="456" y="488" width="8" height="8" fill="#000000" /><rect x="120" y="496" width="8" height="8" fill="#000000" /><rect x="128" y="496" width="8" height="8" fill="#000000" /><rect x="160" y="496" width="8" height="8" fill="#000000" /><rect x="192" y="496" width="8" height="8" fill="#000000" /><rect x="264" y="496" width="8" height="8" fill="#000000" /><rect x="336" y="496" width="8" height="8" fill="#000000" /><rect x="408" y="496" width="8" height="8" fill="#000000" /><rect x="456" y="496" width="8" height="8" fill="#000000" /><rect x="528" y="496" width="8" height="8" fill="#000000" /><rect x="128" y="504" width="8" height="8" fill="#000000" /><rect x="136" y="504" width="8" height="8" fill="#000000" /><rect x="144" y="504" width="8" height="8" fill="#000000" /><rect x="160" y="504" width="8" height="8" fill="#000000" /><rect x="192" y="504" width="8" height="8" fill="#000000" /><rect x="216" y="504" width="8" height="8" fill="#000000" /><rect x="224" y="504" width="8" height="8" fill="#000000" /><rect x="240" y="504" width="8" height="8" fill="#000000" /><rect x="456" y="504" width="8" height="8" fill="#000000" /><rect x="200" y="512" width="8" height="8" fill="#000000" /><rect x="216" y="512" width="8" height="8" fill="#000000" /><rect x="224" y="512" width="8" height="8" fill="#000000" /><rect x="232" y="512" width="8" height="8" fill="#000000" /><rect x="320" y="512" width="8" height="8" fill="#000000" /><rect x="432" y="512" width="8" height="8" fill="#000000" /><rect x="528" y="512" width="8" height="8" fill="#000000" /><rect x="160" y="520" width="8" height="8" fill="#000000" /><rect x="192" y="520" width="8" height="8" fill="#000000" /><rect x="200" y="520" width="8" height="8" fill="#000000" /><rect x="272" y="520" width="8" height="8" fill="#000000" /><rect x="328" y="520" width="8" height="8" fill="#000000" /><rect x="376" y="520" width="8" height="8" fill="#000000" /><rect x="456" y="520" width="8" height="8" fill="#000000" /><rect x="136" y="528" width="8" height="8" fill="#000000" /><rect x="160" y="528" width="8" height="8" fill="#000000" /><rect x="248" y="528" width="8" height="8" fill="#000000" /><rect x="272" y="528" width="8" height="8" fill="#000000" /><rect x="312" y="528" width="8" height="8" fill="#000000" /><rect x="320" y="528" width="8" height="8" fill="#000000" /><rect x="328" y="528" width="8" height="8" fill="#000000" /><rect x="336" y="528" width="8" height="8" fill="#000000" /><rect x="456" y="528" width="8" height="8" fill="#000000" /><rect x="120" y="536" width="8" height="8" fill="#000000" /><rect x="128" y="536" width="8" height="8" fill="#000000" /><rect x="136" y="536" width="8" height="8" fill="#000000" /><rect x="168" y="536" width="8" height="8" fill="#000000" /><rect x="184" y="536" width="8" height="8" fill="#000000" /><rect x="192" y="536" width="8" height="8" fill="#000000" /><rect x="200" y="536" width="8" height="8" fill="#000000" /><rect x="232" y="536" width="8" height="8" fill="#000000" /><rect x="248" y="536" width="8" height="8" fill="#000000" /><rect x="352" y="536" width="8" height="8" fill="#000000" /><rect x="424" y="536" width="8" height="8" fill="#000000" /><rect x="104" y="544" width="8" height="8" fill="#000000" /><rect x="168" y="544" width="8" height="8" fill="#000000" /><rect x="192" y="544" width="8" height="8" fill="#000000" /><rect x="216" y="544" width="8" height="8" fill="#000000" /><rect x="224" y="544" width="8" height="8" fill="#000000" /><rect x="240" y="544" width="8" height="8" fill="#000000" /><rect x="248" y="544" width="8" height="8" fill="#000000" /><rect x="264" y="544" width="8" height="8" fill="#000000" /><rect x="272" y="544" width="8" height="8" fill="#000000" /><rect x="288" y="544" width="8" height="8" fill="#000000" /><rect x="320" y="544" width="8" height="8" fill="#000000" /><rect x="432" y="544" width="8" height="8" fill="#000000" /><rect x="496" y="544" width="8" height="8" fill="#000000" /><rect x="528" y="544" width="8" height="8" fill="#000000" /></svg>