<svg xmlns="http://www.w3.org/2000/svg" width="584" height="584" viewBox="0 0 584 584" shape-rendering="crispEdges"><rect x="120" y="32" width="8" height="8" fill="#000000" /><rect x="272" y="32" width="8" height="8" fill="#000000" /><rect x="344" y="32" width="8" height="8" fill="#000000" /><rect x="360" y="32" width="8" height="8" fill="#000000" /><rect x="368" y="32" width="8" height="8" fill="#000000" /><rect x="376" y="32" width="8" height="8" fill="#000000" /><rect x="264" y="40" width="8" height="8" fill="#000000" /><rect x="280" y="40" width="8" height="8" fill="#000000" /><rect x="328" y="40" width="8" height="8" fill="#000000" /><rect x="368" y="40" width="8" height="8" fill="#000000" /><rect x="120" y="48" width="8" height="8" fill="#000000" /><rect x="128" y="48" width="8" height="8" fill="#000000" /><rect x="264" y="48" width="8" height="8" fill="#000000" /><rect x="376" y="48" width="8" height="8" fill="#000000" /><rect x="128" y="56" width="8" height="8" fill="#000000" /><rect x="152" y="56" width="8" height="8" fill="#000000" /><rect x="376" y="56" width="8" height="8" fill="#000000" /><rect x="384" y="56" width="8" height="8" fill="#000000" /><rect x="152" y="64" width="8" height="8" fill="#000000" /><rect x="160" y="64" width="8" height="8" fill="#000000" /><rect x="232" y="64" width="8" height="8" fill="#000000" /><rect x="264" y="64" width="8" height="8" fill="#000000" /><rect x="328" y="64" width="8" height="8" fill="#000000" /><rect x="336" y="64" width="8" height="8" fill="#000000" /><rect x="408" y="64" width="8" height="8" fill="#000000" /><rect x="440" y="64" width="8" height="8" fill="#000000" /><rect x="128" y="72" width="8" height="8" fill="#000000" /><rect x="152" y="72" width="8" height="8" fill="#000000" /><rect x="160" y="72" width="8" height="8" fill="#000000" /><rect x="200" y="72" width="8" height="8" fill="#000000" /><rect x="328" y="72" width="8" height="8" fill="#000000" /><rect x="368" y="72" width="8" height="8" fill="#000000" /><rect x="376" y="72" width="8" height="8" fill="#000000" /><rect x="408" y="72" width="8" height="8" fill="#000000" /><rect x="416" y="72" width="8" height="8" fill="#000000" /><rect x="128" y="88" width="8" height="8" fill="#000000" /><rect x="368" y="88" width="8" height="8" fill="#000000" /><rect x="200" y="96" width="8" height="8" fill="#000000" /><rect x="264" y="96" width="8" height="8" fill="#000000" /><rect x="328" y="96" width="8" height="8" fill="#000000" /><rect x="416" y="96" width="8" height="8" fill="#000000" /><rect x="72" y="104" width="8" height="8" fill="#000000" /><rect x="96" y="104" width="8" height="8" fill="#000000" /><rect x="160" y="104" width="8" height="8" fill="#000000" /><rect x="184" y="104" width="8" height="8" fill="#000000" /><rect x="328" y="104" width="8" height="8" fill="#000000" /><rect x="496" y="104" width="8" height="8" fill="#000000" /><rect x="520" y="104" width="8" height="8" fill="#000000" /><rect x="528" y="104" width="8" height="8" fill="#000000" /><rect x="88" y="112" width="8" height="8" fill="#000000" /><rect x="120" y="112" width="8" height="8" fill="#000000" /><rect x="128" y="112" width="8" height="8" fill="#000000" /><rect x="168" y="112" width="8" height="8" fill="#000000" /><rect x="208" y="112" width="8" height="8" fill="#000000" /><rect x="304" y="112" width="8" height="8" fill="#000000" /><rect x="328" y="112" width="8" height="8" fill="#000000" /><rect x="336" y="112" width="8" height="8" fill="#000000" /><rect x="368" y="112" width="8" height="8" fill="#000000" /><rect x="416" y="112" width="8" height="8" fill="#000000" /><rect x="512" y="112" width="8" height="8" fill="#000000" /><rect x="64" y="120" width="8" height="8" fill="#000000" /><rect x="72" y="120" width="8" height="8" fill="#000000" /><rect x="120" y="120" width="8" height="8" fill="#000000" /><rect x="152" y="120" width="8" height="8" fill="#000000" /><rect x="240" y="120" width="8" height="8" fill="#000000" /><rect x="304" y="120" width="8" height="8" fill="#000000" /><rect x="368" y="120" width="8" height="8" fill="#000000" /><rect x="448" y="120" width="8" height="8" fill="#000000" /><rect x="528" y="120" width="8" height="8" fill="#000000" /><rect x="128" y="128" width="8" height="8" fill="#000000" /><rect x="152" y="128" width="8" height="8" fill="#000000" /><rect x="176" y="128" width="8" height="8" fill="#000000" /><rect x="184" y="128" width="8" height="8" fill="#000000" /><rect x="200" y="128" width="8" height="8" fill="#000000" /><rect x="208" y="128" width="8" height="8" fill="#000000" /><rect x="296" y="128" width="8" height="8" fill="#000000" /><rect x="456" y="128" width="8" height="8" fill="#000000" /><rect x="504" y="128" width="8" height="8" fill="#000000" /><rect x="536" y="128" width="8" height="8" fill="#000000" /><rect x="64" y="136" width="8" height="8" fill="#000000" /><rect x="160" y="136" width="8" height="8" fill="#000000" /><rect x="184" y="136" width="8" height="8" fill="#000000" /><rect x="200" y="136" width="8" height="8" fill="#000000" /><rect x="224" y="136" width="8" height="8" fill="#000000" /><rect x="408" y="136" width="8" height="8" fill="#000000" /><rect x="416" y="136" width="8" height="8" fill="#000000" /><rect x="440" y="136" width="8" height="8" fill="#000000" /><rect x="456" y="136" width="8" height="8" fill="#000000" /><rect x="504" y="136" width="8" height="8" fill="#000000" /><rect x="520" y="136" width="8" height="8" fill="#000000" /><rect x="536" y="136" width="8" height="8" fill="#000000" /><rect x="32" y="144" width="8" height="8" fill="#000000" /><rect x="144" y="144" width="8" height="8" fill="#000000" /><rect x="152" y="144" width="8" height="8" fill="#000000" /><rect x="184" y="144" width="8" height="8" fill="#000000" /><rect x="200" y="144" width="8" height="8" fill="#000000" /><rect x="232" y="144" width="8" height="8" fill="#000000" /><rect x="280" y="144" width="8" height="8" fill="#000000" /><rect x="296" y="144" width="8" height="8" fill="#000000" /><rect x="328" y="144" width="8" height="8" fill="#000000" /><rect x="360" y="144" width="8" height="8" fill="#000000" /><rect x="416" y="144" width="8" height="8" fill="#000000" /><rect x="448" y="144" width="8" height="8" fill="#000000" /><rect x="512" y="144" width="8" height="8" fill="#000000" /><rect x="120" y="152" width="8" height="8" fill="#000000" /><rect x="136" y="152" width="8" height="8" fill="#000000" /><rect x="160" y="152" width="8" height="8" fill="#000000" /><rect x="216" y="152" width="8" height="8" fill="#000000" /><rect x="232" y="152" width="8" height="8" fill="#000000" /><rect x="296" y="152" width="8" height="8" fill="#000000" /><rect x="328" y="152" width="8" height="8" fill="#000000" /><rect x="336" y="152" width="8" height="8" fill="#000000" /><rect x="360" y="152" width="8" height="8" fill="#000000" /><rect x="456" y="152" width="8" height="8" fill="#000000" /><rect x="512" y="152" width="8" height="8" fill="#000000" /><rect x="528" y="152" width="8" height="8" fill="#000000" /><rect x="536" y="152" width="8" height="8" fill="#000000" /><rect x="544" y="152" width="8" height="8" fill="#000000" /><rect x="32" y="160" width="8" height="8" fill="#000000" /><rect x="40" y="160" width="8" height="8" fill="#000000" /><rect x="64" y="160" width="8" height="8" fill="#000000" /><rect x="72" y="160" width="8" height="8" fill="#000000" /><rect x="120" y="160" width="8" height="8" fill="#000000" /><rect x="144" y="160" width="8" height="8" fill="#000000" /><rect x="176" y="160" width="8" height="8" fill="#000000" /><rect x="184" y="160" width="8" height="8" fill="#000000" /><rect x="200" y="160" width="8" height="8" fill="#000000" /><rect x="248" y="160" width="8" height="8" fill="#000000" /><rect x="256" y="160" width="8" height="8" fill="#000000" /><rect x="304" y="160" width="8" height="8" fill="#000000" /><rect x="312" y="160" width="8" height="8" fill="#000000" /><rect x="320" y="160" width="8" height="8" fill="#000000" /><rect x="328" y="160" width="8" height="8" fill="#000000" /><rect x="432" y="160" width="8" height="8" fill="#000000" /><rect x="456" y="160" width="8" height="8" fill="#000000" /><rect x="464" y="160" width="8" height="8" fill="#000000" /><rect x="480" y="160" width="8" height="8" fill="#000000" /><rect x="512" y="160" width="8" height="8" fill="#000000" /><rect x="528" y="160" width="8" height="8" fill="#000000" /><rect x="536" y="160" width="8" height="8" fill="#000000" /><rect x="64" y="168" width="8" height="8" fill="#000000" /><rect x="128" y="168" width="8" height="8" fill="#000000" /><rect x="168" y="168" width="8" height="8" fill="#000000" /><rect x="200" y="168" width="8" height="8" fill="#000000" /><rect x="216" y="168" width="8" height="8" fill="#000000" /><rect x="256" y="168" width="8" height="8" fill="#000000" /><rect x="304" y="168" width="8" height="8" fill="#000000" /><rect x="312" y="168" width="8" height="8" fill="#000000" /><rect x="328" y="168" width="8" height="8" fill="#000000" /><rect x="336" y="168" width="8" height="8" fill="#000000" /><rect x="368" y="168" width="8" height="8" fill="#000000" /><rect x="480" y="168" width="8" height="8" fill="#000000" /><rect x="512" y="168" width="8" height="8" fill="#000000" /><rect x="528" y="168" width="8" height="8" fill="#000000" /><rect x="128" y="176" width="8" height="8" fill="#000000" /><rect x="208" y="176" width="8" height="8" fill="#000000" /><rect x="248" y="176" width="8" height="8" fill="#000000" /><rect x="304" y="176" width="8" height="8" fill="#000000" /><rect x="408" y="176" width="8" height="8" fill="#000000" /><rect x="480" y="176" width="8" height="8" fill="#000000" /><rect x="504" y="176" width="8" height="8" fill="#000000" /><rect x="528" y="176" width="8" height="8" fill="#000000" /><rect x="536" y="176" width="8" height="8" fill="#000000" /><rect x="128" y="184" width="8" height="8" fill="#000000" /><rect x="152" y="184" width="8" height="8" fill="#000000" /><rect x="232" y="184" width="8" height="8" fill="#000000" /><rect x="240" y="184" width="8" height="8" fill="#000000" /><rect x="256" y="184" width="8" height="8" fill="#000000" /><rect x="352" y="184" width="8" height="8" fill="#000000" /><rect x="368" y="184" width="8" height="8" fill="#000000" /><rect x="440" y="184" width="8" height="8" fill="#000000" /><rect x="120" y="192" width="8" height="8" fill="#000000" /><rect x="136" y="192" width="8" height="8" fill="#000000" /><rect x="144" y="192" width="8" height="8" fill="#000000" /><rect x="152" y="192" width="8" height="8" fill="#000000" /><rect x="168" y="192" width="8" height="8" fill="#000000" /><rect x="208" y="192" width="8" height="8" fill="#000000" /><rect x="216" y="192" width="8" height="8" fill="#000000" /><rect x="240" y="192" width="8" height="8" fill="#000000" /><rect x="264" y="192" width="8" height="8" fill="#000000" /><rect x="320" y="192" width="8" height="8" fill="#000000" /><rect x="392" y="192" width="8" height="8" fill="#000000" /><rect x="432" y="192" width="8" height="8" fill="#000000" /><rect x="456" y="192" width="8" height="8" fill="#000000" /><rect x="504" y="192" width="8" height="8" fill="#000000" /><rect x="512" y="192" width="8" height="8" fill="#000000" /><rect x="32" y="200" width="8" height="8" fill="#000000" /><rect x="112" y="200" width="8" height="8" fill="#000000" /><rect x="128" y="200" width="8" height="8" fill="#000000" /><rect x="152" y="200" width="8" height="8" fill="#000000" /><rect x="200" y="200" width="8" height="8" fill="#000000" /><rect x="208" y="200" width="8" height="8" fill="#000000" /><rect x="232" y="200" width="8" height="8" fill="#000000" /><rect x="248" y="200" width="8" height="8" fill="#000000" /><rect x="320" y="200" width="8" height="8" fill="#000000" /><rect x="336" y="200" width="8" height="8" fill="#000000" /><rect x="480" y="200" width="8" height="8" fill="#000000" /><rect x="520" y="200" width="8" height="8" fill="#000000" /><rect x="528" y="200" width="8" height="8" fill="#000000" /><rect x="72" y="208" width="8" height="8" fill="#000000" /><rect x="144" y="208" width="8" height="8" fill="#000000" /><rect x="192" y="208" width="8" height="8" fill="#000000" /><rect x="216" y="208" width="8" height="8" fill="#000000" /><rect x="224" y="208" width="8" height="8" fill="#000000" /><rect x="240" y="208" width="8" height="8" fill="#000000" /><rect x="256" y="208" width="8" height="8" fill="#000000" /><rect x="312" y="208" width="8" height="8" fill="#000000" /><rect x="344" y="208" width="8" height="8" fill="#000000" /><rect x="440" y="208" width="8" height="8" fill="#000000" /><rect x="512" y="208" width="8" height="8" fill="#000000" /><rect x="32" y="216" width="8" height="8" fill="#000000" /><rect x="72" y="216" width="8" height="8" fill="#000000" /><rect x="160" y="216" width="8" height="8" fill="#000000" /><rect x="424" y="216" width="8" height="8" fill="#000000" /><rect x="440" y="216" width="8" height="8" fill="#000000" /><rect x="480" y="216" width="8" height="8" fill="#000000" /><rect x="528" y="216" width="8" height="8" fill="#000000" /><rect x="64" y="224" width="8" height="8" fill="#000000" /><rect x="160" y="224" width="8" height="8" fill="#000000" /><rect x="224" y="224" width="8" height="8" fill="#000000" /><rect x="240" y="224" width="8" height="8" fill="#000000" /><rect x="256" y="224" width="8" height="8" fill="#000000" /><rect x="392" y="224" width="8" height="8" fill="#000000" /><rect x="424" y="224" width="8" height="8" fill="#000000" /><rect x="432" y="224" width="8" height="8" fill="#000000" /><rect x="440" y="224" width="8" height="8" fill="#000000" /><rect x="456" y="224" width="8" height="8" fill="#000000" /><rect x="32" y="232" width="8" height="8" fill="#000000" /><rect x="48" y="232" width="8" height="8" fill="#000000" /><rect x="120" y="232" width="8" height="8" fill="#000000" /><rect x="128" y="232" width="8" height="8" fill="#000000" /><rect x="168" y="232" width="8" height="8" fill="#000000" /><rect x="184" y="232" width="8" height="8" fill="#000000" /><rect x="208" y="232" width="8" height="8" fill="#000000" /><rect x="224" y="232" width="8" height="8" fill="#000000" /><rect x="392" y="232" width="8" height="8" fill="#000000" /><rect x="416" y="232" width="8" height="8" fill="#000000" /><rect x="472" y="232" width="8" height="8" fill="#000000" /><rect x="512" y="232" width="8" height="8" fill="#000000" /><rect x="48" y="240" width="8" height="8" fill="#000000" /><rect x="64" y="240" width="8" height="8" fill="#000000" /><rect x="104" y="240" width="8" height="8" fill="#000000" /><rect x="112" y="240" width="8" height="8" fill="#000000" /><rect x="120" y="240" width="8" height="8" fill="#000000" /><rect x="128" y="240" width="8" height="8" fill="#000000" /><rect x="136" y="240" width="8" height="8" fill="#000000" /><rect x="192" y="240" width="8" height="8" fill="#000000" /><rect x="232" y="240" width="8" height="8" fill="#000000" /><rect x="296" y="240" width="8" height="8" fill="#000000" /><rect x="304" y="240" width="8" height="8" fill="#000000" /><rect x="320" y="240" width="8" height="8" fill="#000000" /><rect x="328" y="240" width="8" height="8" fill="#000000" /><rect x="344" y="240" width="8" height="8" fill="#000000" /><rect x="472" y="240" width="8" height="8" fill="#000000" /><rect x="480" y="240" width="8" height="8" fill="#000000" /><rect x="72" y="248" width="8" height="8" fill="#000000" /><rect x="136" y="248" width="8" height="8" fill="#000000" /><rect x="176" y="248" width="8" height="8" fill="#000000" /><rect x="200" y="248" width="8" height="8" fill="#000000" /><rect x="232" y="248" width="8" height="8" fill="#000000" /><rect x="248" y="248" width="8" height="8" fill="#000000" /><rect x="256" y="248" width="8" height="8" fill="#000000" /><rect x="296" y="248" width="8" height="8" fill="#000000" /><rect x="304" y="248" width="8" height="8" fill="#000000" /><rect x="320" y="248" width="8" height="8" fill="#000000" /><rect x="352" y="248" width="8" height="8" fill="#000000" /><rect x="424" y="248" width="8" height="8" fill="#000000" /><rect x="432" y="248" width="8" height="8" fill="#000000" /><rect x="464" y="248" width="8" height="8" fill="#000000" /><rect x="480" y="248" width="8" height="8" fill="#000000" /><rect x="496" y="248" width="8" height="8" fill="#000000" /><rect x="88" y="256" width="8" height="8" fill="#000000" /><rect x="104" y="256" width="8" height="8" fill="#000000" /><rect x="136" y="256" width="8" height="8" fill="#000000" /><rect x="160" y="256" width="8" height="8" fill="#000000" /><rect x="256" y="256" width="8" height="8" fill="#000000" /><rect x="296" y="256" width="8" height="8" fill="#000000" /><rect x="320" y="256" width="8" height="8" fill="#000000" /><rect x="440" y="256" width="8" height="8" fill="#000000" /><rect x="480" y="256" width="8" height="8" fill="#000000" /><rect x="32" y="264" width="8" height="8" fill="#000000" /><rect x="40" y="264" width="8" height="8" fill="#000000" /><rect x="64" y="264" width="8" height="8" fill="#000000" /><rect x="72" y="264" width="8" height="8" fill="#000000" /><rect x="104" y="264" width="8" height="8" fill="#000000" /><rect x="112" y="264" width="8" height="8" fill="#000000" /><rect x="176" y="264" width="8" height="8" fill="#000000" /><rect x="216" y="264" width="8" height="8" fill="#000000" /><rect x="304" y="264" width="8" height="8" fill="#000000" /><rect x="312" y="264" width="8" height="8" fill="#000000" /><rect x="432" y="264" width="8" height="8" fill="#000000" /><rect x="480" y="264" width="8" height="8" fill="#000000" /><rect x="512" y="264" width="8" height="8" fill="#000000" /><rect x="32" y="272" width="8" height="8" fill="#000000" /><rect x="48" y="272" width="8" height="8" fill="#000000" /><rect x="56" y="272" width="8" height="8" fill="#000000" /><rect x="176" y="272" width="8" height="8" fill="#000000" /><rect x="184" y="272" width="8" height="8" fill="#000000" /><rect x="200" y="272" width="8" height="8" fill="#000000" /><rect x="208" y="272" width="8" height="8" fill="#000000" /><rect x="256" y="272" width="8" height="8" fill="#000000" /><rect x="456" y="272" width="8" height="8" fill="#000000" /><rect x="464" y="272" width="8" height="8" fill="#000000" /><rect x="40" y="280" width="8" height="8" fill="#000000" /><rect x="48" y="280" width="8" height="8" fill="#000000" /><rect x="112" y="280" width="8" height="8" fill="#000000" /><rect x="136" y="280" width="8" height="8" fill="#000000" /><rect x="224" y="280" width="8" height="8" fill="#000000" /><rect x="344" y="280" width="8" height="8" fill="#000000" /><rect x="352" y="280" width="8" height="8" fill="#000000" /><rect x="456" y="280" width="8" height="8" fill="#000000" /><rect x="472" y="280" width="8" height="8" fill="#000000" /><rect x="32" y="288" width="8" height="8" fill="#000000" /><rect x="40" y="288" width="8" height="8" fill="#000000" /><rect x="56" y="288" width="8" height="8" fill="#000000" /><rect x="104" y="288" width="8" height="8" fill="#000000" /><rect x="144" y="288" width="8" height="8" fill="#000000" /><rect x="176" y="288" width="8" height="8" fill="#000000" /><rect x="208" y="288" width="8" height="8" fill="#000000" /><rect x="392" y="288" width="8" height="8" fill="#000000" /><rect x="400" y="288" width="8" height="8" fill="#000000" /><rect x="456" y="288" width="8" height="8" fill="#000000" /><rect x="56" y="296" width="8" height="8" fill="#000000" /><rect x="104" y="296" width="8" height="8" fill="#000000" /><rect x="112" y="296" width="8" height="8" fill="#000000" /><rect x="200" y="296" width="8" height="8" fill="#000000" /><rect x="312" y="296" width="8" height="8" fill="#000000" /><rect x="320" y="296" width="8" height="8" fill="#000000" /><rect x="392" y="296" width="8" height="8" fill="#000000" /><rect x="424" y="296" width="8" height="8" fill="#000000" /><rect x="432" y="296" width="8" height="8" fill="#000000" /><rect x="472" y="296" width="8" height="8" fill="#000000" /><rect x="40" y="304" width="8" height="8" fill="#000000" /><rect x="104" y="304" width="8" height="8" fill="#000000" /><rect x="112" y="304" width="8" height="8" fill="#000000" /><rect x="144" y="304" width="8" height="8" fill="#000000" /><rect x="344" y="304" width="8" height="8" fill="#000000" /><rect x="352" y="304" width="8" height="8" fill="#000000" /><rect x="392" y="304" width="8" height="8" fill="#000000" /><rect x="432" y="304" width="8" height="8" fill="#000000" /><rect x="64" y="312" width="8" height="8" fill="#000000" /><rect x="104" y="312" width="8" height="8" fill="#000000" /><rect x="144" y="312" width="8" height="8" fill="#000000" /><rect x="168" y="312" width="8" height="8" fill="#000000" /><rect x="192" y="312" width="8" height="8" fill="#000000" /><rect x="296" y="312" width="8" height="8" fill="#000000" /><rect x="320" y="312" width="8" height="8" fill="#000000" /><rect x="432" y="312" width="8" height="8" fill="#000000" /><rect x="480" y="312" width="8" height="8" fill="#000000" /><rect x="72" y="320" width="8" height="8" fill="#000000" /><rect x="88" y="320" width="8" height="8" fill="#000000" /><rect x="112" y="320" width="8" height="8" fill="#000000" /><rect x="136" y="320" width="8" height="8" fill="#000000" /><rect x="296" y="320" width="8" height="8" fill="#000000" /><rect x="304" y="320" width="8" height="8" fill="#000000" /><rect x="320" y="320" width="8" height="8" fill="#000000" /><rect x="64" y="328" width="8" height="8" fill="#000000" /><rect x="112" y="328" width="8" height="8" fill="#000000" /><rect x="136" y="328" width="8" height="8" fill="#000000" /><rect x="280" y="328" width="8" height="8" fill="#000000" /><rect x="288" y="328" width="8" height="8" fill="#000000" /><rect x="296" y="328" width="8" height="8" fill="#000000" /><rect x="320" y="328" width="8" height="8" fill="#000000" /><rect x="344" y="328" width="8" height="8" fill="#000000" /><rect x="472" y="328" width="8" height="8" fill="#000000" /><rect x="488" y="328" width="8" height="8" fill="#000000" /><rect x="536" y="328" width="8" height="8" fill="#000000" /><rect x="48" y="336" width="8" height="8" fill="#000000" /><rect x="288" y="336" width="8" height="8" fill="#000000" /><rect x="312" y="336" width="8" height="8" fill="#000000" /><rect x="352" y="336" width="8" height="8" fill="#000000" /><rect x="400" y="336" width="8" height="8" fill="#000000" /><rect x="480" y="336" width="8" height="8" fill="#000000" /><rect x="56" y="344" width="8" height="8" fill="#000000" /><rect x="136" y="344" width="8" height="8" fill="#000000" /><rect x="144" y="344" width="8" height="8" fill="#000000" /><rect x="248" y="344" width="8" height="8" fill="#000000" /><rect x="368" y="344" width="8" height="8" fill="#000000" /><rect x="392" y="344" width="8" height="8" fill="#000000" /><rect x="88" y="352" width="8" height="8" fill="#000000" /><rect x="96" y="352" width="8" height="8" fill="#000000" /><rect x="272" y="352" width="8" height="8" fill="#000000" /><rect x="360" y="352" width="8" height="8" fill="#000000" /><rect x="488" y="352" width="8" height="8" fill="#000000" /><rect x="496" y="352" width="8" height="8" fill="#000000" /><rect x="256" y="360" width="8" height="8" fill="#000000" /><rect x="368" y="360" width="8" height="8" fill="#000000" /><rect x="496" y="360" width="8" height="8" fill="#000000" /><rect x="536" y="360" width="8" height="8" fill="#000000" /><rect x="544" y="360" width="8" height="8" fill="#000000" /><rect x="88" y="368" width="8" height="8" fill="#000000" /><rect x="112" y="368" width="8" height="8" fill="#000000" /><rect x="248" y="368" width="8" height="8" fill="#000000" /><rect x="264" y="368" width="8" height="8" fill="#000000" /><rect x="272" y="368" width="8" height="8" fill="#000000" /><rect x="312" y="368" width="8" height="8" fill="#000000" /><rect x="320" y="368" width="8" height="8" fill="#000000" /><rect x="360" y="368" width="8" height="8" fill="#000000" /><rect x="528" y="368" width="8" height="8" fill="#000000" /><rect x="536" y="368" width="8" height="8" fill="#000000" /><rect x="56" y="376" width="8" height="8" fill="#000000" /><rect x="112" y="376" width="8" height="8" fill="#000000" /><rect x="272" y="376" width="8" height="8" fill="#000000" /><rect x="384" y="376" width="8" height="8" fill="#000000" /><rect x="56" y="384" width="8" height="8" fill="#000000" /><rect x="104" y="384" width="8" height="8" fill="#000000" /><rect x="120" y="384" width="8" height="8" fill="#000000" /><rect x="128" y="384" width="8" height="8" fill="#000000" /><rect x="264" y="384" width="8" height="8" fill="#000000" /><rect x="280" y="384" width="8" height="8" fill="#000000" /><rect x="336" y="384" width="8" height="8" fill="#000000" /><rect x="384" y="384" width="8" height="8" fill="#000000" /><rect x="496" y="384" width="8" height="8" fill="#000000" /><rect x="520" y="384" width="8" height="8" fill="#000000" /><rect x="48" y="392" width="8" height="8" fill="#000000" /><rect x="88" y="392" width="8" height="8" fill="#000000" /><rect x="112" y="392" width="8" height="8" fill="#000000" /><rect x="264" y="392" width="8" height="8" fill="#000000" /><rect x="280" y="392" width="8" height="8" fill="#000000" /><rect x="344" y="392" width="8" height="8" fill="#000000" /><rect x="360" y="392" width="8" height="8" fill="#000000" /><rect x="408" y="392" width="8" height="8" fill="#000000" /><rect x="480" y="392" width="8" height="8" fill="#000000" /><rect x="88" y="400" width="8" height="8" fill="#000000" /><rect x="96" y="400" width="8" height="8" fill="#000000" /><rect x="120" y="400" width="8" height="8" fill="#000000" /><rect x="240" y="400" width="8" height="8" fill="#000000" /><rect x="336" y="400" width="8" height="8" fill="#000000" /><rect x="520" y="400" width="8" height="8" fill="#000000" /><rect x="48" y="408" width="8" height="8" fill="#000000" /><rect x="56" y="408" width="8" height="8" fill="#000000" /><rect x="96" y="408" width="8" height="8" fill="#000000" /><rect x="280" y="408" width="8" height="8" fill="#000000" /><rect x="376" y="408" width="8" height="8" fill="#000000" /><rect x="488" y="408" width="8" height="8" fill="#000000" /><rect x="496" y="408" width="8" height="8" fill="#000000" /><rect x="152" y="416" width="8" height="8" fill="#000000" /><rect x="240" y="416" width="8" height="8" fill="#000000" /><rect x="328" y="416" width="8" height="8" fill="#000000" /><rect x="376" y="416" width="8" height="8" fill="#000000" /><rect x="384" y="416" width="8" height="8" fill="#000000" /><rect x="448" y="416" width="8" height="8" fill="#000000" /><rect x="232" y="424" width="8" height="8" fill="#000000" /><rect x="272" y="424" width="8" height="8" fill="#000000" /><rect x="448" y="424" width="8" height="8" fill="#000000" /><rect x="488" y="424" width="8" height="8" fill="#000000" /><rect x="152" y="432" width="8" height="8" fill="#000000" /><rect x="160" y="432" width="8" height="8" fill="#000000" /><rect x="200" y="432" width="8" height="8" fill="#000000" /><rect x="264" y="432" width="8" height="8" fill="#000000" /><rect x="280" y="432" width="8" height="8" fill="#000000" /><rect x="384" y="432" width="8" height="8" fill="#000000" /><rect x="440" y="432" width="8" height="8" fill="#000000" /><rect x="96" y="440" width="8" height="8" fill="#000000" /><rect x="152" y="440" width="8" height="8" fill="#000000" /><rect x="200" y="440" width="8" height="8" fill="#000000" /><rect x="336" y="440" width="8" height="8" fill="#000000" /><rect x="416" y="440" width="8" height="8" fill="#000000" /><rect x="520" y="440" width="8" height="8" fill="#000000" /><rect x="128" y="448" width="8" height="8" fill="#000000" /><rect x="192" y="448" width="8" height="8" fill="#000000" /><rect x="200" y="448" width="8" height="8" fill="#000000" /><rect x="272" y="448" width="8" height="8" fill="#000000" /><rect x="336" y="448" width="8" height="8" fill="#000000" /><rect x="448" y="448" width="8" height="8" fill="#000000" /><rect x="192" y="456" width="8" height="8" fill="#000000" /><rect x="208" y="456" width="8" height="8" fill="#000000" /><rect x="232" y="456" width="8" height="8" fill="#000000" /><rect x="288" y="456" width="8" height="8" fill="#000000" /><rect x="376" y="456" width="8" height="8" fill="#000000" /><rect x="384" y="456" width="8" height="8" fill="#000000" /><rect x="408" y="456" width="8" height="8" fill="#000000" /><rect x="496" y="456" width="8" height="8" fill="#000000" /><rect x="88" y="464" width="8" height="8" fill="#000000" /><rect x="96" y="464" width="8" height="8" fill="#000000" /><rect x="128" y="464" width="8" height="8" fill="#000000" /><rect x="168" y="464" width="8" height="8" fill="#000000" /><rect x="184" y="464" width="8" height="8" fill="#000000" /><rect x="264" y="464" width="8" height="8" fill="#000000" /><rect x="288" y="464" width="8" height="8" fill="#000000" /><rect x="336" y="464" width="8" height="8" fill="#000000" /><rect x="384" y="464" width="8" height="8" fill="#000000" /><rect x="88" y="472" width="8" height="8" fill="#000000" /><rect x="96" y="472" width="8" height="8" fill="#000000" /><rect x="120" y="472" width="8" height="8" fill="#000000" /><rect x="168" y="472" width="8" height="8" fill="#000000" /><rect x="176" y="472" width="8" height="8" fill="#000000" /><rect x="200" y="472" width="8" height="8" fill="#000000" /><rect x="232" y="472" width="8" height="8" fill="#000000" /><rect x="264" y="472" width="8" height="8" fill="#000000" /><rect x="384" y="472" width="8" height="8" fill="#000000" /><rect x="464" y="472" width="8" height="8" fill="#000000" /><rect x="120" y="480" width="8" height="8" fill="#000000" /><rect x="160" y="480" width="8" height="8" fill="#000000" /><rect x="336" y="480" width="8" height="8" fill="#000000" /><rect x="360" y="480" width="8" height="8" fill="#000000" /><rect x="384" y="480" width="8" height="8" fill="#000000" /><rect x="440" y="480" width="8" height="8" fill="#000000" /><rect x="456" y="480" width="8" height="8" fill="#000000" /><rect x="160" y="488" width="8" height="8" fill="#000000" /><rect x="184" y="488" width="8" height="8" fill="#000000" /><rect x="232" y="488" width="8" height="8" fill="#000000" /><rect x="264" y="488" width="8" height="8" fill="#000000" /><rect x="368" y="488" width="8" height="8" fill="#000000" /><rect x="384" y="488" width="8" height="8" fill="#000000" /><rect x="408" y="488" width="8" height="8" fill="#000000" /><rect x="440" y="488" width="8" height="8" fill="#000000" /><rect x="448" y="488" width="8" height="8" fill="#000000" /><rect x="456" y="488" width="8" height="8" fill="#000000" /><rect x="120" y="496" width="8" height="8" fill="#000000" /><rect x="168" y="496" width="8" height="8" fill="#000000" /><rect x="176" y="496" width="8" height="8" fill="#000000" /><rect x="184" y="496" width="8" height="8" fill="#000000" /><rect x="192" y="496" width="8" height="8" fill="#000000" /><rect x="200" y="496" width="8" height="8" fill="#000000" /><rect x="232" y="496" width="8" height="8" fill="#000000" /><rect x="264" y="496" width="8" height="8" fill="#000000" /><rect x="376" y="496" width="8" height="8" fill="#000000" /><rect x="448" y="496" width="8" height="8" fill="#000000" /><rect x="456" y="496" width="8" height="8" fill="#000000" /><rect x="520" y="496" width="8" height="8" fill="#000000" /><rect x="144" y="504" width="8" height="8" fill="#000000" /><rect x="168" y="504" width="8" height="8" fill="#000000" /><rect x="200" y="504" width="8" height="8" fill="#000000" /><rect x="208" y="504" width="8" height="8" fill="#000000" /><rect x="216" y="504" width="8" height="8" fill="#000000" /><rect x="224" y="504" width="8" height="8" fill="#000000" /><rect x="360" y="504" width="8" height="8" fill="#000000" /><rect x="448" y="504" width="8" height="8" fill="#000000" /><rect x="120" y="512" width="8" height="8" fill="#000000" /><rect x="184" y="512" width="8" height="8" fill="#000000" /><rect x="200" y="512" width="8" height="8" fill="#000000" /><rect x="224" y="512" width="8" height="8" fill="#000000" /><rect x="248" y="512" width="8" height="8" fill="#000000" /><rect x="312" y="512" width="8" height="8" fill="#000000" /><rect x="328" y="512" width="8" height="8" fill="#000000" /><rect x="368" y="512" width="8" height="8" fill="#000000" /><rect x="424" y="512" width="8" height="8" fill="#000000" /><rect x="448" y="512" width="8" height="8" fill="#000000" /><rect x="456" y="512" width="8" height="8" fill="#000000" /><rect x="144" y="520" width="8" height="8" fill="#000000" /><rect x="168" y="520" width="8" height="8" fill="#000000" /><rect x="184" y="520" width="8" height="8" fill="#000000" /><rect x="200" y="520" width="8" height="8" fill="#000000" /><rect x="264" y="520" width="8" height="8" fill="#000000" /><rect x="320" y="520" width="8" height="8" fill="#000000" /><rect x="328" y="520" width="8" height="8" fill="#000000" /><rect x="336" y="520" width="8" height="8" fill="#000000" /><rect x="376" y="520" width="8" height="8" fill="#000000" /><rect x="384" y="520" width="8" height="8" fill="#000000" /><rect x="408" y="520" width="8" height="8" fill="#000000" /><rect x="104" y="528" width="8" height="8" fill="#000000" /><rect x="136" y="528" width="8" height="8" fill="#000000" /><rect x="144" y="528" width="8" height="8" fill="#000000" /><rect x="160" y="528" width="8" height="8" fill="#000000" /><rect x="168" y="528" width="8" height="8" fill="#000000" /><rect x="200" y="528" width="8" height="8" fill="#000000" /><rect x="224" y="528" width="8" height="8" fill="#000000" /><rect x="328" y="528" width="8" height="8" fill="#000000" /><rect x="440" y="528" width="8" height="8" fill="#000000" /><rect x="488" y="528" width="8" height="8" fill="#000000" /><rect x="496" y="528" width="8" height="8" fill="#000000" /><rect x="136" y="536" width="8" height="8" fill="#000000" /><rect x="160" y="536" width="8" height="8" fill="#000000" /><rect x="176" y="536" width="8" height="8" fill="#000000" /><rect x="184" y="536" width="8" height="8" fill="#000000" /><rect x="192" y="536" width="8" height="8" fill="#000000" /><rect x="240" y="536" width="8" height="8" fill="#000000" /><rect x="320" y="536" width="8" height="8" fill="#000000" /><rect x="344" y="536" width="8" height="8" fill="#000000" /><rect x="360" y="536" width="8" height="8" fill="#000000" /><rect x="424" y="536" width="8" height="8" fill="#000000" /><rect x="504" y="536" width="8" height="8" fill="#000000" /><rect x="512" y="536" width="8" height="8" fill="#000000" /><rect x="112" y="544" width="8" height="8" fill="#000000" /><rect x="152" y="544" width="8" height="8" fill="#000000" /><rect x="200" y="544" width="8" height="8" fill="#000000" /><rect x="264" y="544" width="8" height="8" fill="#000000" /><rect x="344" y="544" width="8" height="8" fill="#000000" /><rect x="432" y="544" width="8" height="8" fill="#000000" /><rect x="464" y="544" width="8" height="8" fill="#000000" /><rect x="504" y="544" width="8" height="8" fill="#000000" /><rect x="528" y="544" width="8" height="8" fill="#000000" /></svg>