<svg xmlns="http://www.w3.org/2000/svg" width="584" height="584" viewBox="0 0 584 584" shape-rendering="crispEdges"><rect x="104" y="32" width="8" height="8" fill="#000000" /><rect x="280" y="32" width="8" height="8" fill="#000000" /><rect x="360" y="32" width="8" height="8" fill="#000000" /><rect x="376" y="32" width="8" height="8" fill="#000000" /><rect x="384" y="32" width="8" height="8" fill="#000000" /><rect x="272" y="40" width="8" height="8" fill="#000000" /><rect x="288" y="40" width="8" height="8" fill="#000000" /><rect x="328" y="40" width="8" height="8" fill="#000000" /><rect x="336" y="40" width="8" height="8" fill="#000000" /><rect x="360" y="40" width="8" height="8" fill="#000000" /><rect x="384" y="40" width="8" height="8" fill="#000000" /><rect x="264" y="48" width="8" height="8" fill="#000000" /><rect x="304" y="48" width="8" height="8" fill="#000000" /><rect x="416" y="48" width="8" height="8" fill="#000000" /><rect x="240" y="56" width="8" height="8" fill="#000000" /><rect x="360" y="56" width="8" height="8" fill="#000000" /><rect x="368" y="56" width="8" height="8" fill="#000000" /><rect x="408" y="56" width="8" height="8" fill="#000000" /><rect x="240" y="64" width="8" height="8" fill="#000000" /><rect x="328" y="64" width="8" height="8" fill="#000000" /><rect x="368" y="64" width="8" height="8" fill="#000000" /><rect x="208" y="72" width="8" height="8" fill="#000000" /><rect x="232" y="72" width="8" height="8" fill="#000000" /><rect x="384" y="72" width="8" height="8" fill="#000000" /><rect x="120" y="88" width="8" height="8" fill="#000000" /><rect x="208" y="88" width="8" height="8" fill="#000000" /><rect x="416" y="88" width="8" height="8" fill="#000000" /><rect x="184" y="96" width="8" height="8" fill="#000000" /><rect x="208" y="96" width="8" height="8" fill="#000000" /><rect x="240" y="96" width="8" height="8" fill="#000000" /><rect x="408" y="96" width="8" height="8" fill="#000000" /><rect x="64" y="104" width="8" height="8" fill="#000000" /><rect x="88" y="104" width="8" height="8" fill="#000000" /><rect x="96" y="104" width="8" height="8" fill="#000000" /><rect x="120" y="104" width="8" height="8" fill="#000000" /><rect x="160" y="104" width="8" height="8" fill="#000000" /><rect x="184" y="104" width="8" height="8" fill="#000000" /><rect x="264" y="104" width="8" height="8" fill="#000000" /><rect x="272" y="104" width="8" height="8" fill="#000000" /><rect x="496" y="104" width="8" height="8" fill="#000000" /><rect x="528" y="104" width="8" height="8" fill="#000000" /><rect x="72" y="112" width="8" height="8" fill="#000000" /><rect x="208" y="112" width="8" height="8" fill="#000000" /><rect x="240" y="112" width="8" height="8" fill="#000000" /><rect x="304" y="112" width="8" height="8" fill="#000000" /><rect x="328" y="112" width="8" height="8" fill="#000000" /><rect x="408" y="112" width="8" height="8" fill="#000000" /><rect x="440" y="112" width="8" height="8" fill="#000000" /><rect x="488" y="112" width="8" height="8" fill="#000000" /><rect x="528" y="112" width="8" height="8" fill="#000000" /><rect x="72" y="120" width="8" height="8" fill="#000000" /><rect x="176" y="120" width="8" height="8" fill="#000000" /><rect x="200" y="120" width="8" height="8" fill="#000000" /><rect x="240" y="120" width="8" height="8" fill="#000000" /><rect x="288" y="120" width="8" height="8" fill="#000000" /><rect x="328" y="120" width="8" height="8" fill="#000000" /><rect x="416" y="120" width="8" height="8" fill="#000000" /><rect x="512" y="120" width="8" height="8" fill="#000000" /><rect x="520" y="120" width="8" height="8" fill="#000000" /><rect x="528" y="120" width="8" height="8" fill="#000000" /><rect x="64" y="128" width="8" height="8" fill="#000000" /><rect x="72" y="128" width="8" height="8" fill="#000000" /><rect x="128" y="128" width="8" height="8" fill="#000000" /><rect x="176" y="128" width="8" height="8" fill="#000000" /><rect x="184" y="128" width="8" height="8" fill="#000000" /><rect x="200" y="128" width="8" height="8" fill="#000000" /><rect x="216" y="128" width="8" height="8" fill="#000000" /><rect x="232" y="128" width="8" height="8" fill="#000000" /><rect x="280" y="128" width="8" height="8" fill="#000000" /><rect x="296" y="128" width="8" height="8" fill="#000000" /><rect x="328" y="128" width="8" height="8" fill="#000000" /><rect x="440" y="128" width="8" height="8" fill="#000000" /><rect x="456" y="128" width="8" height="8" fill="#000000" /><rect x="504" y="128" width="8" height="8" fill="#000000" /><rect x="536" y="128" width="8" height="8" fill="#000000" /><rect x="32" y="136" width="8" height="8" fill="#000000" /><rect x="64" y="136" width="8" height="8" fill="#000000" /><rect x="120" y="136" width="8" height="8" fill="#000000" /><rect x="168" y="136" width="8" height="8" fill="#000000" /><rect x="208" y="136" width="8" height="8" fill="#000000" /><rect x="240" y="136" width="8" height="8" fill="#000000" /><rect x="336" y="136" width="8" height="8" fill="#000000" /><rect x="520" y="136" width="8" height="8" fill="#000000" /><rect x="208" y="144" width="8" height="8" fill="#000000" /><rect x="360" y="144" width="8" height="8" fill="#000000" /><rect x="408" y="144" width="8" height="8" fill="#000000" /><rect x="440" y="144" width="8" height="8" fill="#000000" /><rect x="504" y="144" width="8" height="8" fill="#000000" /><rect x="528" y="144" width="8" height="8" fill="#000000" /><rect x="536" y="144" width="8" height="8" fill="#000000" /><rect x="232" y="152" width="8" height="8" fill="#000000" /><rect x="296" y="152" width="8" height="8" fill="#000000" /><rect x="320" y="152" width="8" height="8" fill="#000000" /><rect x="328" y="152" width="8" height="8" fill="#000000" /><rect x="456" y="152" width="8" height="8" fill="#000000" /><rect x="512" y="152" width="8" height="8" fill="#000000" /><rect x="520" y="152" width="8" height="8" fill="#000000" /><rect x="528" y="152" width="8" height="8" fill="#000000" /><rect x="40" y="160" width="8" height="8" fill="#000000" /><rect x="64" y="160" width="8" height="8" fill="#000000" /><rect x="128" y="160" width="8" height="8" fill="#000000" /><rect x="152" y="160" width="8" height="8" fill="#000000" /><rect x="216" y="160" width="8" height="8" fill="#000000" /><rect x="224" y="160" width="8" height="8" fill="#000000" /><rect x="240" y="160" width="8" height="8" fill="#000000" /><rect x="256" y="160" width="8" height="8" fill="#000000" /><rect x="304" y="160" width="8" height="8" fill="#000000" /><rect x="408" y="160" width="8" height="8" fill="#000000" /><rect x="440" y="160" width="8" height="8" fill="#000000" /><rect x="504" y="160" width="8" height="8" fill="#000000" /><rect x="136" y="168" width="8" height="8" fill="#000000" /><rect x="184" y="168" width="8" height="8" fill="#000000" /><rect x="232" y="168" width="8" height="8" fill="#000000" /><rect x="264" y="168" width="8" height="8" fill="#000000" /><rect x="272" y="168" width="8" height="8" fill="#000000" /><rect x="296" y="168" width="8" height="8" fill="#000000" /><rect x="312" y="168" width="8" height="8" fill="#000000" /><rect x="320" y="168" width="8" height="8" fill="#000000" /><rect x="336" y="168" width="8" height="8" fill="#000000" /><rect x="416" y="168" width="8" height="8" fill="#000000" /><rect x="472" y="168" width="8" height="8" fill="#000000" /><rect x="480" y="168" width="8" height="8" fill="#000000" /><rect x="520" y="168" width="8" height="8" fill="#000000" /><rect x="528" y="168" width="8" height="8" fill="#000000" /><rect x="536" y="168" width="8" height="8" fill="#000000" /><rect x="544" y="168" width="8" height="8" fill="#000000" /><rect x="72" y="176" width="8" height="8" fill="#000000" /><rect x="200" y="176" width="8" height="8" fill="#000000" /><rect x="256" y="176" width="8" height="8" fill="#000000" /><rect x="304" y="176" width="8" height="8" fill="#000000" /><rect x="360" y="176" width="8" height="8" fill="#000000" /><rect x="408" y="176" width="8" height="8" fill="#000000" /><rect x="480" y="176" width="8" height="8" fill="#000000" /><rect x="536" y="176" width="8" height="8" fill="#000000" /><rect x="144" y="184" width="8" height="8" fill="#000000" /><rect x="184" y="184" width="8" height="8" fill="#000000" /><rect x="200" y="184" width="8" height="8" fill="#000000" /><rect x="216" y="184" width="8" height="8" fill="#000000" /><rect x="232" y="184" width="8" height="8" fill="#000000" /><rect x="256" y="184" width="8" height="8" fill="#000000" /><rect x="328" y="184" width="8" height="8" fill="#000000" /><rect x="336" y="184" width="8" height="8" fill="#000000" /><rect x="360" y="184" width="8" height="8" fill="#000000" /><rect x="480" y="184" width="8" height="8" fill="#000000" /><rect x="512" y="184" width="8" height="8" fill="#000000" /><rect x="520" y="184" width="8" height="8" fill="#000000" /><rect x="528" y="184" width="8" height="8" fill="#000000" /><rect x="72" y="192" width="8" height="8" fill="#000000" /><rect x="104" y="192" width="8" height="8" fill="#000000" /><rect x="112" y="192" width="8" height="8" fill="#000000" /><rect x="120" y="192" width="8" height="8" fill="#000000" /><rect x="144" y="192" width="8" height="8" fill="#000000" /><rect x="160" y="192" width="8" height="8" fill="#000000" /><rect x="168" y="192" width="8" height="8" fill="#000000" /><rect x="176" y="192" width="8" height="8" fill="#000000" /><rect x="200" y="192" width="8" height="8" fill="#000000" /><rect x="224" y="192" width="8" height="8" fill="#000000" /><rect x="264" y="192" width="8" height="8" fill="#000000" /><rect x="344" y="192" width="8" height="8" fill="#000000" /><rect x="424" y="192" width="8" height="8" fill="#000000" /><rect x="504" y="192" width="8" height="8" fill="#000000" /><rect x="32" y="200" width="8" height="8" fill="#000000" /><rect x="40" y="200" width="8" height="8" fill="#000000" /><rect x="104" y="200" width="8" height="8" fill="#000000" /><rect x="112" y="200" width="8" height="8" fill="#000000" /><rect x="128" y="200" width="8" height="8" fill="#000000" /><rect x="136" y="200" width="8" height="8" fill="#000000" /><rect x="160" y="200" width="8" height="8" fill="#000000" /><rect x="184" y="200" width="8" height="8" fill="#000000" /><rect x="200" y="200" width="8" height="8" fill="#000000" /><rect x="248" y="200" width="8" height="8" fill="#000000" /><rect x="320" y="200" width="8" height="8" fill="#000000" /><rect x="424" y="200" width="8" height="8" fill="#000000" /><rect x="472" y="200" width="8" height="8" fill="#000000" /><rect x="480" y="200" width="8" height="8" fill="#000000" /><rect x="520" y="200" width="8" height="8" fill="#000000" /><rect x="528" y="200" width="8" height="8" fill="#000000" /><rect x="40" y="208" width="8" height="8" fill="#000000" /><rect x="104" y="208" width="8" height="8" fill="#000000" /><rect x="200" y="208" width="8" height="8" fill="#000000" /><rect x="208" y="208" width="8" height="8" fill="#000000" /><rect x="256" y="208" width="8" height="8" fill="#000000" /><rect x="392" y="208" width="8" height="8" fill="#000000" /><rect x="456" y="208" width="8" height="8" fill="#000000" /><rect x="40" y="216" width="8" height="8" fill="#000000" /><rect x="72" y="216" width="8" height="8" fill="#000000" /><rect x="128" y="216" width="8" height="8" fill="#000000" /><rect x="152" y="216" width="8" height="8" fill="#000000" /><rect x="184" y="216" width="8" height="8" fill="#000000" /><rect x="200" y="216" width="8" height="8" fill="#000000" /><rect x="216" y="216" width="8" height="8" fill="#000000" /><rect x="232" y="216" width="8" height="8" fill="#000000" /><rect x="248" y="216" width="8" height="8" fill="#000000" /><rect x="256" y="216" width="8" height="8" fill="#000000" /><rect x="304" y="216" width="8" height="8" fill="#000000" /><rect x="328" y="216" width="8" height="8" fill="#000000" /><rect x="480" y="216" width="8" height="8" fill="#000000" /><rect x="520" y="216" width="8" height="8" fill="#000000" /><rect x="528" y="216" width="8" height="8" fill="#000000" /><rect x="64" y="224" width="8" height="8" fill="#000000" /><rect x="72" y="224" width="8" height="8" fill="#000000" /><rect x="104" y="224" width="8" height="8" fill="#000000" /><rect x="160" y="224" width="8" height="8" fill="#000000" /><rect x="200" y="224" width="8" height="8" fill="#000000" /><rect x="224" y="224" width="8" height="8" fill="#000000" /><rect x="344" y="224" width="8" height="8" fill="#000000" /><rect x="392" y="224" width="8" height="8" fill="#000000" /><rect x="408" y="224" width="8" height="8" fill="#000000" /><rect x="464" y="224" width="8" height="8" fill="#000000" /><rect x="56" y="232" width="8" height="8" fill="#000000" /><rect x="72" y="232" width="8" height="8" fill="#000000" /><rect x="152" y="232" width="8" height="8" fill="#000000" /><rect x="184" y="232" width="8" height="8" fill="#000000" /><rect x="192" y="232" width="8" height="8" fill="#000000" /><rect x="208" y="232" width="8" height="8" fill="#000000" /><rect x="216" y="232" width="8" height="8" fill="#000000" /><rect x="312" y="232" width="8" height="8" fill="#000000" /><rect x="320" y="232" width="8" height="8" fill="#000000" /><rect x="336" y="232" width="8" height="8" fill="#000000" /><rect x="344" y="232" width="8" height="8" fill="#000000" /><rect x="472" y="232" width="8" height="8" fill="#000000" /><rect x="480" y="232" width="8" height="8" fill="#000000" /><rect x="32" y="240" width="8" height="8" fill="#000000" /><rect x="48" y="240" width="8" height="8" fill="#000000" /><rect x="56" y="240" width="8" height="8" fill="#000000" /><rect x="160" y="240" width="8" height="8" fill="#000000" /><rect x="168" y="240" width="8" height="8" fill="#000000" /><rect x="192" y="240" width="8" height="8" fill="#000000" /><rect x="208" y="240" width="8" height="8" fill="#000000" /><rect x="248" y="240" width="8" height="8" fill="#000000" /><rect x="256" y="240" width="8" height="8" fill="#000000" /><rect x="352" y="240" width="8" height="8" fill="#000000" /><rect x="408" y="240" width="8" height="8" fill="#000000" /><rect x="424" y="240" width="8" height="8" fill="#000000" /><rect x="440" y="240" width="8" height="8" fill="#000000" /><rect x="464" y="240" width="8" height="8" fill="#000000" /><rect x="480" y="240" width="8" height="8" fill="#000000" /><rect x="40" y="248" width="8" height="8" fill="#000000" /><rect x="72" y="248" width="8" height="8" fill="#000000" /><rect x="104" y="248" width="8" height="8" fill="#000000" /><rect x="112" y="248" width="8" height="8" fill="#000000" /><rect x="128" y="248" width="8" height="8" fill="#000000" /><rect x="144" y="248" width="8" height="8" fill="#000000" /><rect x="160" y="248" width="8" height="8" fill="#000000" /><rect x="232" y="248" width="8" height="8" fill="#000000" /><rect x="248" y="248" width="8" height="8" fill="#000000" /><rect x="352" y="248" width="8" height="8" fill="#000000" /><rect x="424" y="248" width="8" height="8" fill="#000000" /><rect x="432" y="248" width="8" height="8" fill="#000000" /><rect x="472" y="248" width="8" height="8" fill="#000000" /><rect x="496" y="248" width="8" height="8" fill="#000000" /><rect x="64" y="256" width="8" height="8" fill="#000000" /><rect x="136" y="256" width="8" height="8" fill="#000000" /><rect x="184" y="256" width="8" height="8" fill="#000000" /><rect x="224" y="256" width="8" height="8" fill="#000000" /><rect x="240" y="256" width="8" height="8" fill="#000000" /><rect x="344" y="256" width="8" height="8" fill="#000000" /><rect x="392" y="256" width="8" height="8" fill="#000000" /><rect x="432" y="256" width="8" height="8" fill="#000000" /><rect x="464" y="256" width="8" height="8" fill="#000000" /><rect x="152" y="264" width="8" height="8" fill="#000000" /><rect x="192" y="264" width="8" height="8" fill="#000000" /><rect x="200" y="264" width="8" height="8" fill="#000000" /><rect x="224" y="264" width="8" height="8" fill="#000000" /><rect x="232" y="264" width="8" height="8" fill="#000000" /><rect x="248" y="264" width="8" height="8" fill="#000000" /><rect x="320" y="264" width="8" height="8" fill="#000000" /><rect x="344" y="264" width="8" height="8" fill="#000000" /><rect x="432" y="264" width="8" height="8" fill="#000000" /><rect x="472" y="264" width="8" height="8" fill="#000000" /><rect x="480" y="264" width="8" height="8" fill="#000000" /><rect x="40" y="272" width="8" height="8" fill="#000000" /><rect x="56" y="272" width="8" height="8" fill="#000000" /><rect x="112" y="272" width="8" height="8" fill="#000000" /><rect x="184" y="272" width="8" height="8" fill="#000000" /><rect x="200" y="272" width="8" height="8" fill="#000000" /><rect x="248" y="272" width="8" height="8" fill="#000000" /><rect x="392" y="272" width="8" height="8" fill="#000000" /><rect x="464" y="272" width="8" height="8" fill="#000000" /><rect x="40" y="280" width="8" height="8" fill="#000000" /><rect x="144" y="280" width="8" height="8" fill="#000000" /><rect x="168" y="280" width="8" height="8" fill="#000000" /><rect x="248" y="280" width="8" height="8" fill="#000000" /><rect x="424" y="280" width="8" height="8" fill="#000000" /><rect x="432" y="280" width="8" height="8" fill="#000000" /><rect x="464" y="280" width="8" height="8" fill="#000000" /><rect x="472" y="280" width="8" height="8" fill="#000000" /><rect x="112" y="288" width="8" height="8" fill="#000000" /><rect x="136" y="288" width="8" height="8" fill="#000000" /><rect x="144" y="288" width="8" height="8" fill="#000000" /><rect x="184" y="288" width="8" height="8" fill="#000000" /><rect x="192" y="288" width="8" height="8" fill="#000000" /><rect x="200" y="288" width="8" height="8" fill="#000000" /><rect x="216" y="288" width="8" height="8" fill="#000000" /><rect x="456" y="288" width="8" height="8" fill="#000000" /><rect x="472" y="288" width="8" height="8" fill="#000000" /><rect x="104" y="296" width="8" height="8" fill="#000000" /><rect x="112" y="296" width="8" height="8" fill="#000000" /><rect x="208" y="296" width="8" height="8" fill="#000000" /><rect x="248" y="296" width="8" height="8" fill="#000000" /><rect x="312" y="296" width="8" height="8" fill="#000000" /><rect x="320" y="296" width="8" height="8" fill="#000000" /><rect x="424" y="296" width="8" height="8" fill="#000000" /><rect x="432" y="296" width="8" height="8" fill="#000000" /><rect x="48" y="304" width="8" height="8" fill="#000000" /><rect x="56" y="304" width="8" height="8" fill="#000000" /><rect x="224" y="304" width="8" height="8" fill="#000000" /><rect x="248" y="304" width="8" height="8" fill="#000000" /><rect x="312" y="304" width="8" height="8" fill="#000000" /><rect x="456" y="304" width="8" height="8" fill="#000000" /><rect x="464" y="304" width="8" height="8" fill="#000000" /><rect x="40" y="312" width="8" height="8" fill="#000000" /><rect x="88" y="312" width="8" height="8" fill="#000000" /><rect x="112" y="312" width="8" height="8" fill="#000000" /><rect x="136" y="312" width="8" height="8" fill="#000000" /><rect x="144" y="312" width="8" height="8" fill="#000000" /><rect x="168" y="312" width="8" height="8" fill="#000000" /><rect x="344" y="312" width="8" height="8" fill="#000000" /><rect x="432" y="312" width="8" height="8" fill="#000000" /><rect x="488" y="312" width="8" height="8" fill="#000000" /><rect x="504" y="312" width="8" height="8" fill="#000000" /><rect x="512" y="312" width="8" height="8" fill="#000000" /><rect x="72" y="320" width="8" height="8" fill="#000000" /><rect x="144" y="320" width="8" height="8" fill="#000000" /><rect x="296" y="320" width="8" height="8" fill="#000000" /><rect x="312" y="320" width="8" height="8" fill="#000000" /><rect x="320" y="320" width="8" height="8" fill="#000000" /><rect x="344" y="320" width="8" height="8" fill="#000000" /><rect x="352" y="320" width="8" height="8" fill="#000000" /><rect x="96" y="328" width="8" height="8" fill="#000000" /><rect x="104" y="328" width="8" height="8" fill="#000000" /><rect x="112" y="328" width="8" height="8" fill="#000000" /><rect x="248" y="328" width="8" height="8" fill="#000000" /><rect x="392" y="328" width="8" height="8" fill="#000000" /><rect x="424" y="328" width="8" height="8" fill="#000000" /><rect x="432" y="328" width="8" height="8" fill="#000000" /><rect x="72" y="336" width="8" height="8" fill="#000000" /><rect x="224" y="336" width="8" height="8" fill="#000000" /><rect x="288" y="336" width="8" height="8" fill="#000000" /><rect x="464" y="336" width="8" height="8" fill="#000000" /><rect x="488" y="336" width="8" height="8" fill="#000000" /><rect x="536" y="336" width="8" height="8" fill="#000000" /><rect x="56" y="344" width="8" height="8" fill="#000000" /><rect x="88" y="344" width="8" height="8" fill="#000000" /><rect x="112" y="344" width="8" height="8" fill="#000000" /><rect x="136" y="344" width="8" height="8" fill="#000000" /><rect x="144" y="344" width="8" height="8" fill="#000000" /><rect x="224" y="344" width="8" height="8" fill="#000000" /><rect x="288" y="344" width="8" height="8" fill="#000000" /><rect x="432" y="344" width="8" height="8" fill="#000000" /><rect x="48" y="352" width="8" height="8" fill="#000000" /><rect x="136" y="352" width="8" height="8" fill="#000000" /><rect x="288" y="352" width="8" height="8" fill="#000000" /><rect x="320" y="352" width="8" height="8" fill="#000000" /><rect x="432" y="352" width="8" height="8" fill="#000000" /><rect x="496" y="352" width="8" height="8" fill="#000000" /><rect x="536" y="352" width="8" height="8" fill="#000000" /><rect x="88" y="360" width="8" height="8" fill="#000000" /><rect x="104" y="360" width="8" height="8" fill="#000000" /><rect x="136" y="360" width="8" height="8" fill="#000000" /><rect x="264" y="360" width="8" height="8" fill="#000000" /><rect x="312" y="360" width="8" height="8" fill="#000000" /><rect x="360" y="360" width="8" height="8" fill="#000000" /><rect x="432" y="360" width="8" height="8" fill="#000000" /><rect x="56" y="368" width="8" height="8" fill="#000000" /><rect x="88" y="368" width="8" height="8" fill="#000000" /><rect x="112" y="368" width="8" height="8" fill="#000000" /><rect x="288" y="368" width="8" height="8" fill="#000000" /><rect x="312" y="368" width="8" height="8" fill="#000000" /><rect x="360" y="368" width="8" height="8" fill="#000000" /><rect x="488" y="368" width="8" height="8" fill="#000000" /><rect x="528" y="368" width="8" height="8" fill="#000000" /><rect x="96" y="376" width="8" height="8" fill="#000000" /><rect x="112" y="376" width="8" height="8" fill="#000000" /><rect x="264" y="376" width="8" height="8" fill="#000000" /><rect x="288" y="376" width="8" height="8" fill="#000000" /><rect x="336" y="376" width="8" height="8" fill="#000000" /><rect x="352" y="376" width="8" height="8" fill="#000000" /><rect x="360" y="376" width="8" height="8" fill="#000000" /><rect x="408" y="376" width="8" height="8" fill="#000000" /><rect x="480" y="376" width="8" height="8" fill="#000000" /><rect x="120" y="384" width="8" height="8" fill="#000000" /><rect x="264" y="384" width="8" height="8" fill="#000000" /><rect x="272" y="384" width="8" height="8" fill="#000000" /><rect x="336" y="384" width="8" height="8" fill="#000000" /><rect x="344" y="384" width="8" height="8" fill="#000000" /><rect x="352" y="384" width="8" height="8" fill="#000000" /><rect x="376" y="384" width="8" height="8" fill="#000000" /><rect x="384" y="384" width="8" height="8" fill="#000000" /><rect x="488" y="384" width="8" height="8" fill="#000000" /><rect x="48" y="392" width="8" height="8" fill="#000000" /><rect x="96" y="392" width="8" height="8" fill="#000000" /><rect x="112" y="392" width="8" height="8" fill="#000000" /><rect x="120" y="392" width="8" height="8" fill="#000000" /><rect x="328" y="392" width="8" height="8" fill="#000000" /><rect x="344" y="392" width="8" height="8" fill="#000000" /><rect x="480" y="392" width="8" height="8" fill="#000000" /><rect x="128" y="400" width="8" height="8" fill="#000000" /><rect x="264" y="400" width="8" height="8" fill="#000000" /><rect x="288" y="400" width="8" height="8" fill="#000000" /><rect x="360" y="400" width="8" height="8" fill="#000000" /><rect x="376" y="400" width="8" height="8" fill="#000000" /><rect x="384" y="400" width="8" height="8" fill="#000000" /><rect x="528" y="400" width="8" height="8" fill="#000000" /><rect x="96" y="408" width="8" height="8" fill="#000000" /><rect x="272" y="408" width="8" height="8" fill="#000000" /><rect x="288" y="408" width="8" height="8" fill="#000000" /><rect x="408" y="408" width="8" height="8" fill="#000000" /><rect x="416" y="408" width="8" height="8" fill="#000000" /><rect x="440" y="408" width="8" height="8" fill="#000000" /><rect x="520" y="408" width="8" height="8" fill="#000000" /><rect x="48" y="416" width="8" height="8" fill="#000000" /><rect x="88" y="416" width="8" height="8" fill="#000000" /><rect x="96" y="416" width="8" height="8" fill="#000000" /><rect x="120" y="416" width="8" height="8" fill="#000000" /><rect x="232" y="416" width="8" height="8" fill="#000000" /><rect x="240" y="416" width="8" height="8" fill="#000000" /><rect x="288" y="416" width="8" height="8" fill="#000000" /><rect x="376" y="416" width="8" height="8" fill="#000000" /><rect x="384" y="416" width="8" height="8" fill="#000000" /><rect x="448" y="416" width="8" height="8" fill="#000000" /><rect x="488" y="416" width="8" height="8" fill="#000000" /><rect x="120" y="424" width="8" height="8" fill="#000000" /><rect x="160" y="424" width="8" height="8" fill="#000000" /><rect x="328" y="424" width="8" height="8" fill="#000000" /><rect x="336" y="424" width="8" height="8" fill="#000000" /><rect x="368" y="424" width="8" height="8" fill="#000000" /><rect x="384" y="424" width="8" height="8" fill="#000000" /><rect x="440" y="424" width="8" height="8" fill="#000000" /><rect x="448" y="424" width="8" height="8" fill="#000000" /><rect x="88" y="432" width="8" height="8" fill="#000000" /><rect x="264" y="432" width="8" height="8" fill="#000000" /><rect x="368" y="432" width="8" height="8" fill="#000000" /><rect x="376" y="432" width="8" height="8" fill="#000000" /><rect x="384" y="432" width="8" height="8" fill="#000000" /><rect x="96" y="440" width="8" height="8" fill="#000000" /><rect x="160" y="440" width="8" height="8" fill="#000000" /><rect x="200" y="440" width="8" height="8" fill="#000000" /><rect x="360" y="440" width="8" height="8" fill="#000000" /><rect x="368" y="440" width="8" height="8" fill="#000000" /><rect x="416" y="440" width="8" height="8" fill="#000000" /><rect x="440" y="440" width="8" height="8" fill="#000000" /><rect x="520" y="440" width="8" height="8" fill="#000000" /><rect x="96" y="448" width="8" height="8" fill="#000000" /><rect x="120" y="448" width="8" height="8" fill="#000000" /><rect x="152" y="448" width="8" height="8" fill="#000000" /><rect x="264" y="448" width="8" height="8" fill="#000000" /><rect x="288" y="448" width="8" height="8" fill="#000000" /><rect x="360" y="448" width="8" height="8" fill="#000000" /><rect x="376" y="448" width="8" height="8" fill="#000000" /><rect x="384" y="448" width="8" height="8" fill="#000000" /><rect x="448" y="448" width="8" height="8" fill="#000000" /><rect x="120" y="456" width="8" height="8" fill="#000000" /><rect x="160" y="456" width="8" height="8" fill="#000000" /><rect x="184" y="456" width="8" height="8" fill="#000000" /><rect x="272" y="456" width="8" height="8" fill="#000000" /><rect x="360" y="456" width="8" height="8" fill="#000000" /><rect x="440" y="456" width="8" height="8" fill="#000000" /><rect x="448" y="456" width="8" height="8" fill="#000000" /><rect x="536" y="456" width="8" height="8" fill="#000000" /><rect x="96" y="464" width="8" height="8" fill="#000000" /><rect x="128" y="464" width="8" height="8" fill="#000000" /><rect x="176" y="464" width="8" height="8" fill="#000000" /><rect x="184" y="464" width="8" height="8" fill="#000000" /><rect x="200" y="464" width="8" height="8" fill="#000000" /><rect x="272" y="464" width="8" height="8" fill="#000000" /><rect x="280" y="464" width="8" height="8" fill="#000000" /><rect x="336" y="464" width="8" height="8" fill="#000000" /><rect x="376" y="464" width="8" height="8" fill="#000000" /><rect x="384" y="464" width="8" height="8" fill="#000000" /><rect x="416" y="464" width="8" height="8" fill="#000000" /><rect x="448" y="464" width="8" height="8" fill="#000000" /><rect x="520" y="464" width="8" height="8" fill="#000000" /><rect x="160" y="472" width="8" height="8" fill="#000000" /><rect x="192" y="472" width="8" height="8" fill="#000000" /><rect x="208" y="472" width="8" height="8" fill="#000000" /><rect x="232" y="472" width="8" height="8" fill="#000000" /><rect x="280" y="472" width="8" height="8" fill="#000000" /><rect x="288" y="472" width="8" height="8" fill="#000000" /><rect x="416" y="472" width="8" height="8" fill="#000000" /><rect x="88" y="480" width="8" height="8" fill="#000000" /><rect x="152" y="480" width="8" height="8" fill="#000000" /><rect x="168" y="480" width="8" height="8" fill="#000000" /><rect x="200" y="480" width="8" height="8" fill="#000000" /><rect x="208" y="480" width="8" height="8" fill="#000000" /><rect x="264" y="480" width="8" height="8" fill="#000000" /><rect x="328" y="480" width="8" height="8" fill="#000000" /><rect x="360" y="480" width="8" height="8" fill="#000000" /><rect x="368" y="480" width="8" height="8" fill="#000000" /><rect x="376" y="480" width="8" height="8" fill="#000000" /><rect x="384" y="480" width="8" height="8" fill="#000000" /><rect x="448" y="480" width="8" height="8" fill="#000000" /><rect x="456" y="480" width="8" height="8" fill="#000000" /><rect x="464" y="480" width="8" height="8" fill="#000000" /><rect x="520" y="480" width="8" height="8" fill="#000000" /><rect x="120" y="488" width="8" height="8" fill="#000000" /><rect x="224" y="488" width="8" height="8" fill="#000000" /><rect x="232" y="488" width="8" height="8" fill="#000000" /><rect x="240" y="488" width="8" height="8" fill="#000000" /><rect x="328" y="488" width="8" height="8" fill="#000000" /><rect x="368" y="488" width="8" height="8" fill="#000000" /><rect x="408" y="488" width="8" height="8" fill="#000000" /><rect x="416" y="488" width="8" height="8" fill="#000000" /><rect x="440" y="488" width="8" height="8" fill="#000000" /><rect x="456" y="488" width="8" height="8" fill="#000000" /><rect x="536" y="488" width="8" height="8" fill="#000000" /><rect x="136" y="496" width="8" height="8" fill="#000000" /><rect x="144" y="496" width="8" height="8" fill="#000000" /><rect x="216" y="496" width="8" height="8" fill="#000000" /><rect x="384" y="496" width="8" height="8" fill="#000000" /><rect x="448" y="496" width="8" height="8" fill="#000000" /><rect x="136" y="504" width="8" height="8" fill="#000000" /><rect x="144" y="504" width="8" height="8" fill="#000000" /><rect x="152" y="504" width="8" height="8" fill="#000000" /><rect x="168" y="504" width="8" height="8" fill="#000000" /><rect x="192" y="504" width="8" height="8" fill="#000000" /><rect x="216" y="504" width="8" height="8" fill="#000000" /><rect x="232" y="504" width="8" height="8" fill="#000000" /><rect x="240" y="504" width="8" height="8" fill="#000000" /><rect x="320" y="504" width="8" height="8" fill="#000000" /><rect x="360" y="504" width="8" height="8" fill="#000000" /><rect x="376" y="504" width="8" height="8" fill="#000000" /><rect x="440" y="504" width="8" height="8" fill="#000000" /><rect x="456" y="504" width="8" height="8" fill="#000000" /><rect x="120" y="512" width="8" height="8" fill="#000000" /><rect x="224" y="512" width="8" height="8" fill="#000000" /><rect x="248" y="512" width="8" height="8" fill="#000000" /><rect x="256" y="512" width="8" height="8" fill="#000000" /><rect x="320" y="512" width="8" height="8" fill="#000000" /><rect x="336" y="512" width="8" height="8" fill="#000000" /><rect x="368" y="512" width="8" height="8" fill="#000000" /><rect x="424" y="512" width="8" height="8" fill="#000000" /><rect x="448" y="512" width="8" height="8" fill="#000000" /><rect x="456" y="512" width="8" height="8" fill="#000000" /><rect x="520" y="512" width="8" height="8" fill="#000000" /><rect x="312" y="520" width="8" height="8" fill="#000000" /><rect x="328" y="520" width="8" height="8" fill="#000000" /><rect x="416" y="520" width="8" height="8" fill="#000000" /><rect x="440" y="520" width="8" height="8" fill="#000000" /><rect x="448" y="520" width="8" height="8" fill="#000000" /><rect x="456" y="520" width="8" height="8" fill="#000000" /><rect x="504" y="520" width="8" height="8" fill="#000000" /><rect x="512" y="520" width="8" height="8" fill="#000000" /><rect x="112" y="528" width="8" height="8" fill="#000000" /><rect x="144" y="528" width="8" height="8" fill="#000000" /><rect x="168" y="528" width="8" height="8" fill="#000000" /><rect x="184" y="528" width="8" height="8" fill="#000000" /><rect x="216" y="528" width="8" height="8" fill="#000000" /><rect x="232" y="528" width="8" height="8" fill="#000000" /><rect x="248" y="528" width="8" height="8" fill="#000000" /><rect x="264" y="528" width="8" height="8" fill="#000000" /><rect x="280" y="528" width="8" height="8" fill="#000000" /><rect x="320" y="528" width="8" height="8" fill="#000000" /><rect x="376" y="528" width="8" height="8" fill="#000000" /><rect x="424" y="528" width="8" height="8" fill="#000000" /><rect x="448" y="528" width="8" height="8" fill="#000000" /><rect x="520" y="528" width="8" height="8" fill="#000000" /><rect x="152" y="536" width="8" height="8" fill="#000000" /><rect x="176" y="536" width="8" height="8" fill="#000000" /><rect x="184" y="536" width="8" height="8" fill="#000000" /><rect x="240" y="536" width="8" height="8" fill="#000000" /><rect x="320" y="536" width="8" height="8" fill="#000000" /><rect x="344" y="536" width="8" height="8" fill="#000000" /><rect x="376" y="536" width="8" height="8" fill="#000000" /><rect x="392" y="536" width="8" height="8" fill="#000000" /><rect x="440" y="536" width="8" height="8" fill="#000000" /><rect x="504" y="536" width="8" height="8" fill="#000000" /><rect x="104" y="544" width="8" height="8" fill="#000000" /><rect x="112" y="544" width="8" height="8" fill="#000000" /><rect x="120" y="544" width="8" height="8" fill="#000000" /><rect x="128" y="544" width="8" height="8" fill="#000000" /><rect x="136" y="544" width="8" height="8" fill="#000000" /><rect x="144" y="544" width="8" height="8" fill="#000000" /><rect x="224" y="544" width="8" height="8" fill="#000000" /><rect x="256" y="544" width="8" height="8" fill="#000000" /><rect x="272" y="544" width="8" height="8" fill="#000000" /><rect x="296" y="544" width="8" height="8" fill="#000000" /><rect x="304" y="544" width="8" height="8" fill="#000000" /><rect x="328" y="544" width="8" height="8" fill="#000000" /><rect x="336" y="544" width="8" height="8" fill="#000000" /><rect x="360" y="544" width="8" height="8" fill="#000000" /><rect x="368" y="544" width="8" height="8" fill="#000000" /><rect x="408" y="544" width="8" height="8" fill="#000000" /></svg>