<svg xmlns="http://www.w3.org/2000/svg" width="584" height="584" viewBox="0 0 584 584" shape-rendering="crispEdges"><rect x="112" y="32" width="8" height="8" fill="#000000" /><rect x="264" y="32" width="8" height="8" fill="#000000" /><rect x="272" y="32" width="8" height="8" fill="#000000" /><rect x="336" y="32" width="8" height="8" fill="#000000" /><rect x="368" y="32" width="8" height="8" fill="#000000" /><rect x="264" y="48" width="8" height="8" fill="#000000" /><rect x="272" y="48" width="8" height="8" fill="#000000" /><rect x="280" y="48" width="8" height="8" fill="#000000" /><rect x="336" y="48" width="8" height="8" fill="#000000" /><rect x="376" y="48" width="8" height="8" fill="#000000" /><rect x="416" y="48" width="8" height="8" fill="#000000" /><rect x="448" y="48" width="8" height="8" fill="#000000" /><rect x="160" y="56" width="8" height="8" fill="#000000" /><rect x="368" y="56" width="8" height="8" fill="#000000" /><rect x="408" y="56" width="8" height="8" fill="#000000" /><rect x="160" y="64" width="8" height="8" fill="#000000" /><rect x="232" y="64" width="8" height="8" fill="#000000" /><rect x="264" y="64" width="8" height="8" fill="#000000" /><rect x="328" y="64" width="8" height="8" fill="#000000" /><rect x="336" y="64" width="8" height="8" fill="#000000" /><rect x="368" y="64" width="8" height="8" fill="#000000" /><rect x="408" y="64" width="8" height="8" fill="#000000" /><rect x="160" y="72" width="8" height="8" fill="#000000" /><rect x="200" y="72" width="8" height="8" fill="#000000" /><rect x="336" y="72" width="8" height="8" fill="#000000" /><rect x="360" y="72" width="8" height="8" fill="#000000" /><rect x="152" y="88" width="8" height="8" fill="#000000" /><rect x="160" y="88" width="8" height="8" fill="#000000" /><rect x="264" y="88" width="8" height="8" fill="#000000" /><rect x="336" y="88" width="8" height="8" fill="#000000" /><rect x="416" y="88" width="8" height="8" fill="#000000" /><rect x="152" y="96" width="8" height="8" fill="#000000" /><rect x="160" y="96" width="8" height="8" fill="#000000" /><rect x="328" y="96" width="8" height="8" fill="#000000" /><rect x="408" y="96" width="8" height="8" fill="#000000" /><rect x="72" y="104" width="8" height="8" fill="#000000" /><rect x="88" y="104" width="8" height="8" fill="#000000" /><rect x="120" y="104" width="8" height="8" fill="#000000" /><rect x="152" y="104" width="8" height="8" fill="#000000" /><rect x="184" y="104" width="8" height="8" fill="#000000" /><rect x="208" y="104" width="8" height="8" fill="#000000" /><rect x="232" y="104" width="8" height="8" fill="#000000" /><rect x="240" y="104" width="8" height="8" fill="#000000" /><rect x="288" y="104" width="8" height="8" fill="#000000" /><rect x="304" y="104" width="8" height="8" fill="#000000" /><rect x="336" y="104" width="8" height="8" fill="#000000" /><rect x="440" y="104" width="8" height="8" fill="#000000" /><rect x="448" y="104" width="8" height="8" fill="#000000" /><rect x="488" y="104" width="8" height="8" fill="#000000" /><rect x="168" y="112" width="8" height="8" fill="#000000" /><rect x="176" y="112" width="8" height="8" fill="#000000" /><rect x="192" y="112" width="8" height="8" fill="#000000" /><rect x="264" y="112" width="8" height="8" fill="#000000" /><rect x="296" y="112" width="8" height="8" fill="#000000" /><rect x="336" y="112" width="8" height="8" fill="#000000" /><rect x="488" y="112" width="8" height="8" fill="#000000" /><rect x="40" y="120" width="8" height="8" fill="#000000" /><rect x="240" y="120" width="8" height="8" fill="#000000" /><rect x="264" y="120" width="8" height="8" fill="#000000" /><rect x="272" y="120" width="8" height="8" fill="#000000" /><rect x="288" y="120" width="8" height="8" fill="#000000" /><rect x="296" y="120" width="8" height="8" fill="#000000" /><rect x="304" y="120" width="8" height="8" fill="#000000" /><rect x="408" y="120" width="8" height="8" fill="#000000" /><rect x="416" y="120" width="8" height="8" fill="#000000" /><rect x="448" y="120" width="8" height="8" fill="#000000" /><rect x="504" y="120" width="8" height="8" fill="#000000" /><rect x="512" y="120" width="8" height="8" fill="#000000" /><rect x="528" y="120" width="8" height="8" fill="#000000" /><rect x="120" y="128" width="8" height="8" fill="#000000" /><rect x="176" y="128" width="8" height="8" fill="#000000" /><rect x="296" y="128" width="8" height="8" fill="#000000" /><rect x="360" y="128" width="8" height="8" fill="#000000" /><rect x="528" y="128" width="8" height="8" fill="#000000" /><rect x="536" y="128" width="8" height="8" fill="#000000" /><rect x="32" y="136" width="8" height="8" fill="#000000" /><rect x="40" y="136" width="8" height="8" fill="#000000" /><rect x="152" y="136" width="8" height="8" fill="#000000" /><rect x="168" y="136" width="8" height="8" fill="#000000" /><rect x="192" y="136" width="8" height="8" fill="#000000" /><rect x="208" y="136" width="8" height="8" fill="#000000" /><rect x="216" y="136" width="8" height="8" fill="#000000" /><rect x="264" y="136" width="8" height="8" fill="#000000" /><rect x="296" y="136" width="8" height="8" fill="#000000" /><rect x="440" y="136" width="8" height="8" fill="#000000" /><rect x="536" y="136" width="8" height="8" fill="#000000" /><rect x="40" y="144" width="8" height="8" fill="#000000" /><rect x="72" y="144" width="8" height="8" fill="#000000" /><rect x="144" y="144" width="8" height="8" fill="#000000" /><rect x="160" y="144" width="8" height="8" fill="#000000" /><rect x="280" y="144" width="8" height="8" fill="#000000" /><rect x="328" y="144" width="8" height="8" fill="#000000" /><rect x="360" y="144" width="8" height="8" fill="#000000" /><rect x="408" y="144" width="8" height="8" fill="#000000" /><rect x="440" y="144" width="8" height="8" fill="#000000" /><rect x="504" y="144" width="8" height="8" fill="#000000" /><rect x="536" y="144" width="8" height="8" fill="#000000" /><rect x="40" y="152" width="8" height="8" fill="#000000" /><rect x="152" y="152" width="8" height="8" fill="#000000" /><rect x="184" y="152" width="8" height="8" fill="#000000" /><rect x="192" y="152" width="8" height="8" fill="#000000" /><rect x="232" y="152" width="8" height="8" fill="#000000" /><rect x="320" y="152" width="8" height="8" fill="#000000" /><rect x="360" y="152" width="8" height="8" fill="#000000" /><rect x="432" y="152" width="8" height="8" fill="#000000" /><rect x="448" y="152" width="8" height="8" fill="#000000" /><rect x="512" y="152" width="8" height="8" fill="#000000" /><rect x="64" y="160" width="8" height="8" fill="#000000" /><rect x="72" y="160" width="8" height="8" fill="#000000" /><rect x="152" y="160" width="8" height="8" fill="#000000" /><rect x="184" y="160" width="8" height="8" fill="#000000" /><rect x="192" y="160" width="8" height="8" fill="#000000" /><rect x="224" y="160" width="8" height="8" fill="#000000" /><rect x="256" y="160" width="8" height="8" fill="#000000" /><rect x="312" y="160" width="8" height="8" fill="#000000" /><rect x="328" y="160" width="8" height="8" fill="#000000" /><rect x="432" y="160" width="8" height="8" fill="#000000" /><rect x="456" y="160" width="8" height="8" fill="#000000" /><rect x="480" y="160" width="8" height="8" fill="#000000" /><rect x="528" y="160" width="8" height="8" fill="#000000" /><rect x="64" y="168" width="8" height="8" fill="#000000" /><rect x="184" y="168" width="8" height="8" fill="#000000" /><rect x="200" y="168" width="8" height="8" fill="#000000" /><rect x="256" y="168" width="8" height="8" fill="#000000" /><rect x="304" y="168" width="8" height="8" fill="#000000" /><rect x="320" y="168" width="8" height="8" fill="#000000" /><rect x="336" y="168" width="8" height="8" fill="#000000" /><rect x="360" y="168" width="8" height="8" fill="#000000" /><rect x="416" y="168" width="8" height="8" fill="#000000" /><rect x="440" y="168" width="8" height="8" fill="#000000" /><rect x="448" y="168" width="8" height="8" fill="#000000" /><rect x="480" y="168" width="8" height="8" fill="#000000" /><rect x="504" y="168" width="8" height="8" fill="#000000" /><rect x="528" y="168" width="8" height="8" fill="#000000" /><rect x="40" y="176" width="8" height="8" fill="#000000" /><rect x="104" y="176" width="8" height="8" fill="#000000" /><rect x="112" y="176" width="8" height="8" fill="#000000" /><rect x="120" y="176" width="8" height="8" fill="#000000" /><rect x="128" y="176" width="8" height="8" fill="#000000" /><rect x="168" y="176" width="8" height="8" fill="#000000" /><rect x="192" y="176" width="8" height="8" fill="#000000" /><rect x="216" y="176" width="8" height="8" fill="#000000" /><rect x="232" y="176" width="8" height="8" fill="#000000" /><rect x="240" y="176" width="8" height="8" fill="#000000" /><rect x="264" y="176" width="8" height="8" fill="#000000" /><rect x="336" y="176" width="8" height="8" fill="#000000" /><rect x="440" y="176" width="8" height="8" fill="#000000" /><rect x="472" y="176" width="8" height="8" fill="#000000" /><rect x="520" y="176" width="8" height="8" fill="#000000" /><rect x="536" y="176" width="8" height="8" fill="#000000" /><rect x="40" y="184" width="8" height="8" fill="#000000" /><rect x="72" y="184" width="8" height="8" fill="#000000" /><rect x="152" y="184" width="8" height="8" fill="#000000" /><rect x="168" y="184" width="8" height="8" fill="#000000" /><rect x="176" y="184" width="8" height="8" fill="#000000" /><rect x="192" y="184" width="8" height="8" fill="#000000" /><rect x="216" y="184" width="8" height="8" fill="#000000" /><rect x="272" y="184" width="8" height="8" fill="#000000" /><rect x="304" y="184" width="8" height="8" fill="#000000" /><rect x="320" y="184" width="8" height="8" fill="#000000" /><rect x="440" y="184" width="8" height="8" fill="#000000" /><rect x="512" y="184" width="8" height="8" fill="#000000" /><rect x="72" y="192" width="8" height="8" fill="#000000" /><rect x="136" y="192" width="8" height="8" fill="#000000" /><rect x="144" y="192" width="8" height="8" fill="#000000" /><rect x="176" y="192" width="8" height="8" fill="#000000" /><rect x="200" y="192" width="8" height="8" fill="#000000" /><rect x="208" y="192" width="8" height="8" fill="#000000" /><rect x="216" y="192" width="8" height="8" fill="#000000" /><rect x="224" y="192" width="8" height="8" fill="#000000" /><rect x="240" y="192" width="8" height="8" fill="#000000" /><rect x="344" y="192" width="8" height="8" fill="#000000" /><rect x="440" y="192" width="8" height="8" fill="#000000" /><rect x="464" y="192" width="8" height="8" fill="#000000" /><rect x="504" y="192" width="8" height="8" fill="#000000" /><rect x="520" y="192" width="8" height="8" fill="#000000" /><rect x="32" y="200" width="8" height="8" fill="#000000" /><rect x="40" y="200" width="8" height="8" fill="#000000" /><rect x="64" y="200" width="8" height="8" fill="#000000" /><rect x="72" y="200" width="8" height="8" fill="#000000" /><rect x="120" y="200" width="8" height="8" fill="#000000" /><rect x="128" y="200" width="8" height="8" fill="#000000" /><rect x="216" y="200" width="8" height="8" fill="#000000" /><rect x="256" y="200" width="8" height="8" fill="#000000" /><rect x="304" y="200" width="8" height="8" fill="#000000" /><rect x="312" y="200" width="8" height="8" fill="#000000" /><rect x="320" y="200" width="8" height="8" fill="#000000" /><rect x="352" y="200" width="8" height="8" fill="#000000" /><rect x="392" y="200" width="8" height="8" fill="#000000" /><rect x="424" y="200" width="8" height="8" fill="#000000" /><rect x="520" y="200" width="8" height="8" fill="#000000" /><rect x="40" y="208" width="8" height="8" fill="#000000" /><rect x="104" y="208" width="8" height="8" fill="#000000" /><rect x="128" y="208" width="8" height="8" fill="#000000" /><rect x="144" y="208" width="8" height="8" fill="#000000" /><rect x="200" y="208" width="8" height="8" fill="#000000" /><rect x="208" y="208" width="8" height="8" fill="#000000" /><rect x="216" y="208" width="8" height="8" fill="#000000" /><rect x="248" y="208" width="8" height="8" fill="#000000" /><rect x="256" y="208" width="8" height="8" fill="#000000" /><rect x="336" y="208" width="8" height="8" fill="#000000" /><rect x="352" y="208" width="8" height="8" fill="#000000" /><rect x="392" y="208" width="8" height="8" fill="#000000" /><rect x="408" y="208" width="8" height="8" fill="#000000" /><rect x="40" y="216" width="8" height="8" fill="#000000" /><rect x="120" y="216" width="8" height="8" fill="#000000" /><rect x="128" y="216" width="8" height="8" fill="#000000" /><rect x="144" y="216" width="8" height="8" fill="#000000" /><rect x="160" y="216" width="8" height="8" fill="#000000" /><rect x="176" y="216" width="8" height="8" fill="#000000" /><rect x="312" y="216" width="8" height="8" fill="#000000" /><rect x="328" y="216" width="8" height="8" fill="#000000" /><rect x="336" y="216" width="8" height="8" fill="#000000" /><rect x="344" y="216" width="8" height="8" fill="#000000" /><rect x="408" y="216" width="8" height="8" fill="#000000" /><rect x="440" y="216" width="8" height="8" fill="#000000" /><rect x="456" y="216" width="8" height="8" fill="#000000" /><rect x="472" y="216" width="8" height="8" fill="#000000" /><rect x="480" y="216" width="8" height="8" fill="#000000" /><rect x="528" y="216" width="8" height="8" fill="#000000" /><rect x="104" y="224" width="8" height="8" fill="#000000" /><rect x="136" y="224" width="8" height="8" fill="#000000" /><rect x="200" y="224" width="8" height="8" fill="#000000" /><rect x="224" y="224" width="8" height="8" fill="#000000" /><rect x="232" y="224" width="8" height="8" fill="#000000" /><rect x="312" y="224" width="8" height="8" fill="#000000" /><rect x="344" y="224" width="8" height="8" fill="#000000" /><rect x="352" y="224" width="8" height="8" fill="#000000" /><rect x="392" y="224" width="8" height="8" fill="#000000" /><rect x="400" y="224" width="8" height="8" fill="#000000" /><rect x="440" y="224" width="8" height="8" fill="#000000" /><rect x="472" y="224" width="8" height="8" fill="#000000" /><rect x="480" y="224" width="8" height="8" fill="#000000" /><rect x="504" y="224" width="8" height="8" fill="#000000" /><rect x="528" y="224" width="8" height="8" fill="#000000" /><rect x="48" y="232" width="8" height="8" fill="#000000" /><rect x="72" y="232" width="8" height="8" fill="#000000" /><rect x="208" y="232" width="8" height="8" fill="#000000" /><rect x="216" y="232" width="8" height="8" fill="#000000" /><rect x="240" y="232" width="8" height="8" fill="#000000" /><rect x="312" y="232" width="8" height="8" fill="#000000" /><rect x="328" y="232" width="8" height="8" fill="#000000" /><rect x="408" y="232" width="8" height="8" fill="#000000" /><rect x="424" y="232" width="8" height="8" fill="#000000" /><rect x="48" y="240" width="8" height="8" fill="#000000" /><rect x="56" y="240" width="8" height="8" fill="#000000" /><rect x="64" y="240" width="8" height="8" fill="#000000" /><rect x="112" y="240" width="8" height="8" fill="#000000" /><rect x="136" y="240" width="8" height="8" fill="#000000" /><rect x="168" y="240" width="8" height="8" fill="#000000" /><rect x="176" y="240" width="8" height="8" fill="#000000" /><rect x="248" y="240" width="8" height="8" fill="#000000" /><rect x="328" y="240" width="8" height="8" fill="#000000" /><rect x="464" y="240" width="8" height="8" fill="#000000" /><rect x="472" y="240" width="8" height="8" fill="#000000" /><rect x="40" y="248" width="8" height="8" fill="#000000" /><rect x="48" y="248" width="8" height="8" fill="#000000" /><rect x="96" y="248" width="8" height="8" fill="#000000" /><rect x="136" y="248" width="8" height="8" fill="#000000" /><rect x="176" y="248" width="8" height="8" fill="#000000" /><rect x="192" y="248" width="8" height="8" fill="#000000" /><rect x="320" y="248" width="8" height="8" fill="#000000" /><rect x="472" y="248" width="8" height="8" fill="#000000" /><rect x="488" y="248" width="8" height="8" fill="#000000" /><rect x="48" y="256" width="8" height="8" fill="#000000" /><rect x="64" y="256" width="8" height="8" fill="#000000" /><rect x="136" y="256" width="8" height="8" fill="#000000" /><rect x="168" y="256" width="8" height="8" fill="#000000" /><rect x="200" y="256" width="8" height="8" fill="#000000" /><rect x="216" y="256" width="8" height="8" fill="#000000" /><rect x="224" y="256" width="8" height="8" fill="#000000" /><rect x="256" y="256" width="8" height="8" fill="#000000" /><rect x="312" y="256" width="8" height="8" fill="#000000" /><rect x="400" y="256" width="8" height="8" fill="#000000" /><rect x="480" y="256" width="8" height="8" fill="#000000" /><rect x="88" y="264" width="8" height="8" fill="#000000" /><rect x="104" y="264" width="8" height="8" fill="#000000" /><rect x="112" y="264" width="8" height="8" fill="#000000" /><rect x="136" y="264" width="8" height="8" fill="#000000" /><rect x="160" y="264" width="8" height="8" fill="#000000" /><rect x="168" y="264" width="8" height="8" fill="#000000" /><rect x="184" y="264" width="8" height="8" fill="#000000" /><rect x="192" y="264" width="8" height="8" fill="#000000" /><rect x="256" y="264" width="8" height="8" fill="#000000" /><rect x="304" y="264" width="8" height="8" fill="#000000" /><rect x="320" y="264" width="8" height="8" fill="#000000" /><rect x="352" y="264" width="8" height="8" fill="#000000" /><rect x="424" y="264" width="8" height="8" fill="#000000" /><rect x="432" y="264" width="8" height="8" fill="#000000" /><rect x="472" y="264" width="8" height="8" fill="#000000" /><rect x="480" y="264" width="8" height="8" fill="#000000" /><rect x="152" y="272" width="8" height="8" fill="#000000" /><rect x="192" y="272" width="8" height="8" fill="#000000" /><rect x="216" y="272" width="8" height="8" fill="#000000" /><rect x="248" y="272" width="8" height="8" fill="#000000" /><rect x="312" y="272" width="8" height="8" fill="#000000" /><rect x="392" y="272" width="8" height="8" fill="#000000" /><rect x="400" y="272" width="8" height="8" fill="#000000" /><rect x="424" y="272" width="8" height="8" fill="#000000" /><rect x="432" y="272" width="8" height="8" fill="#000000" /><rect x="464" y="272" width="8" height="8" fill="#000000" /><rect x="48" y="280" width="8" height="8" fill="#000000" /><rect x="112" y="280" width="8" height="8" fill="#000000" /><rect x="168" y="280" width="8" height="8" fill="#000000" /><rect x="184" y="280" width="8" height="8" fill="#000000" /><rect x="256" y="280" width="8" height="8" fill="#000000" /><rect x="312" y="280" width="8" height="8" fill="#000000" /><rect x="344" y="280" width="8" height="8" fill="#000000" /><rect x="40" y="288" width="8" height="8" fill="#000000" /><rect x="144" y="288" width="8" height="8" fill="#000000" /><rect x="248" y="288" width="8" height="8" fill="#000000" /><rect x="344" y="288" width="8" height="8" fill="#000000" /><rect x="400" y="288" width="8" height="8" fill="#000000" /><rect x="432" y="288" width="8" height="8" fill="#000000" /><rect x="144" y="296" width="8" height="8" fill="#000000" /><rect x="256" y="296" width="8" height="8" fill="#000000" /><rect x="424" y="296" width="8" height="8" fill="#000000" /><rect x="472" y="296" width="8" height="8" fill="#000000" /><rect x="40" y="304" width="8" height="8" fill="#000000" /><rect x="56" y="304" width="8" height="8" fill="#000000" /><rect x="176" y="304" width="8" height="8" fill="#000000" /><rect x="248" y="304" width="8" height="8" fill="#000000" /><rect x="256" y="304" width="8" height="8" fill="#000000" /><rect x="352" y="304" width="8" height="8" fill="#000000" /><rect x="432" y="304" width="8" height="8" fill="#000000" /><rect x="464" y="304" width="8" height="8" fill="#000000" /><rect x="40" y="312" width="8" height="8" fill="#000000" /><rect x="64" y="312" width="8" height="8" fill="#000000" /><rect x="88" y="312" width="8" height="8" fill="#000000" /><rect x="96" y="312" width="8" height="8" fill="#000000" /><rect x="104" y="312" width="8" height="8" fill="#000000" /><rect x="144" y="312" width="8" height="8" fill="#000000" /><rect x="216" y="312" width="8" height="8" fill="#000000" /><rect x="312" y="312" width="8" height="8" fill="#000000" /><rect x="424" y="312" width="8" height="8" fill="#000000" /><rect x="432" y="312" width="8" height="8" fill="#000000" /><rect x="456" y="312" width="8" height="8" fill="#000000" /><rect x="512" y="312" width="8" height="8" fill="#000000" /><rect x="40" y="320" width="8" height="8" fill="#000000" /><rect x="48" y="320" width="8" height="8" fill="#000000" /><rect x="248" y="320" width="8" height="8" fill="#000000" /><rect x="256" y="320" width="8" height="8" fill="#000000" /><rect x="280" y="320" width="8" height="8" fill="#000000" /><rect x="296" y="320" width="8" height="8" fill="#000000" /><rect x="480" y="320" width="8" height="8" fill="#000000" /><rect x="488" y="320" width="8" height="8" fill="#000000" /><rect x="504" y="320" width="8" height="8" fill="#000000" /><rect x="40" y="328" width="8" height="8" fill="#000000" /><rect x="72" y="328" width="8" height="8" fill="#000000" /><rect x="112" y="328" width="8" height="8" fill="#000000" /><rect x="216" y="328" width="8" height="8" fill="#000000" /><rect x="224" y="328" width="8" height="8" fill="#000000" /><rect x="296" y="328" width="8" height="8" fill="#000000" /><rect x="48" y="336" width="8" height="8" fill="#000000" /><rect x="72" y="336" width="8" height="8" fill="#000000" /><rect x="136" y="336" width="8" height="8" fill="#000000" /><rect x="288" y="336" width="8" height="8" fill="#000000" /><rect x="304" y="336" width="8" height="8" fill="#000000" /><rect x="312" y="336" width="8" height="8" fill="#000000" /><rect x="320" y="336" width="8" height="8" fill="#000000" /><rect x="352" y="336" width="8" height="8" fill="#000000" /><rect x="400" y="336" width="8" height="8" fill="#000000" /><rect x="424" y="336" width="8" height="8" fill="#000000" /><rect x="464" y="336" width="8" height="8" fill="#000000" /><rect x="480" y="336" width="8" height="8" fill="#000000" /><rect x="488" y="336" width="8" height="8" fill="#000000" /><rect x="48" y="344" width="8" height="8" fill="#000000" /><rect x="64" y="344" width="8" height="8" fill="#000000" /><rect x="136" y="344" width="8" height="8" fill="#000000" /><rect x="264" y="344" width="8" height="8" fill="#000000" /><rect x="344" y="344" width="8" height="8" fill="#000000" /><rect x="368" y="344" width="8" height="8" fill="#000000" /><rect x="480" y="344" width="8" height="8" fill="#000000" /><rect x="488" y="344" width="8" height="8" fill="#000000" /><rect x="88" y="352" width="8" height="8" fill="#000000" /><rect x="96" y="352" width="8" height="8" fill="#000000" /><rect x="136" y="352" width="8" height="8" fill="#000000" /><rect x="360" y="352" width="8" height="8" fill="#000000" /><rect x="496" y="352" width="8" height="8" fill="#000000" /><rect x="536" y="352" width="8" height="8" fill="#000000" /><rect x="56" y="360" width="8" height="8" fill="#000000" /><rect x="96" y="360" width="8" height="8" fill="#000000" /><rect x="256" y="360" width="8" height="8" fill="#000000" /><rect x="424" y="360" width="8" height="8" fill="#000000" /><rect x="432" y="360" width="8" height="8" fill="#000000" /><rect x="472" y="360" width="8" height="8" fill="#000000" /><rect x="544" y="360" width="8" height="8" fill="#000000" /><rect x="56" y="368" width="8" height="8" fill="#000000" /><rect x="400" y="368" width="8" height="8" fill="#000000" /><rect x="424" y="368" width="8" height="8" fill="#000000" /><rect x="432" y="368" width="8" height="8" fill="#000000" /><rect x="488" y="368" width="8" height="8" fill="#000000" /><rect x="56" y="376" width="8" height="8" fill="#000000" /><rect x="112" y="376" width="8" height="8" fill="#000000" /><rect x="264" y="376" width="8" height="8" fill="#000000" /><rect x="328" y="376" width="8" height="8" fill="#000000" /><rect x="352" y="376" width="8" height="8" fill="#000000" /><rect x="384" y="376" width="8" height="8" fill="#000000" /><rect x="408" y="376" width="8" height="8" fill="#000000" /><rect x="472" y="376" width="8" height="8" fill="#000000" /><rect x="488" y="376" width="8" height="8" fill="#000000" /><rect x="536" y="376" width="8" height="8" fill="#000000" /><rect x="272" y="384" width="8" height="8" fill="#000000" /><rect x="328" y="384" width="8" height="8" fill="#000000" /><rect x="336" y="384" width="8" height="8" fill="#000000" /><rect x="360" y="384" width="8" height="8" fill="#000000" /><rect x="384" y="384" width="8" height="8" fill="#000000" /><rect x="488" y="384" width="8" height="8" fill="#000000" /><rect x="496" y="384" width="8" height="8" fill="#000000" /><rect x="520" y="384" width="8" height="8" fill="#000000" /><rect x="88" y="392" width="8" height="8" fill="#000000" /><rect x="120" y="392" width="8" height="8" fill="#000000" /><rect x="264" y="392" width="8" height="8" fill="#000000" /><rect x="272" y="392" width="8" height="8" fill="#000000" /><rect x="280" y="392" width="8" height="8" fill="#000000" /><rect x="288" y="392" width="8" height="8" fill="#000000" /><rect x="328" y="392" width="8" height="8" fill="#000000" /><rect x="408" y="392" width="8" height="8" fill="#000000" /><rect x="488" y="392" width="8" height="8" fill="#000000" /><rect x="496" y="392" width="8" height="8" fill="#000000" /><rect x="536" y="392" width="8" height="8" fill="#000000" /><rect x="544" y="392" width="8" height="8" fill="#000000" /><rect x="88" y="400" width="8" height="8" fill="#000000" /><rect x="120" y="400" width="8" height="8" fill="#000000" /><rect x="416" y="400" width="8" height="8" fill="#000000" /><rect x="536" y="400" width="8" height="8" fill="#000000" /><rect x="56" y="408" width="8" height="8" fill="#000000" /><rect x="120" y="408" width="8" height="8" fill="#000000" /><rect x="336" y="408" width="8" height="8" fill="#000000" /><rect x="360" y="408" width="8" height="8" fill="#000000" /><rect x="416" y="408" width="8" height="8" fill="#000000" /><rect x="448" y="408" width="8" height="8" fill="#000000" /><rect x="496" y="408" width="8" height="8" fill="#000000" /><rect x="520" y="408" width="8" height="8" fill="#000000" /><rect x="536" y="408" width="8" height="8" fill="#000000" /><rect x="544" y="408" width="8" height="8" fill="#000000" /><rect x="160" y="416" width="8" height="8" fill="#000000" /><rect x="496" y="416" width="8" height="8" fill="#000000" /><rect x="520" y="416" width="8" height="8" fill="#000000" /><rect x="536" y="416" width="8" height="8" fill="#000000" /><rect x="120" y="424" width="8" height="8" fill="#000000" /><rect x="360" y="424" width="8" height="8" fill="#000000" /><rect x="368" y="424" width="8" height="8" fill="#000000" /><rect x="448" y="424" width="8" height="8" fill="#000000" /><rect x="520" y="424" width="8" height="8" fill="#000000" /><rect x="536" y="424" width="8" height="8" fill="#000000" /><rect x="128" y="432" width="8" height="8" fill="#000000" /><rect x="232" y="432" width="8" height="8" fill="#000000" /><rect x="264" y="432" width="8" height="8" fill="#000000" /><rect x="328" y="432" width="8" height="8" fill="#000000" /><rect x="384" y="432" width="8" height="8" fill="#000000" /><rect x="488" y="432" width="8" height="8" fill="#000000" /><rect x="536" y="432" width="8" height="8" fill="#000000" /><rect x="48" y="440" width="8" height="8" fill="#000000" /><rect x="56" y="440" width="8" height="8" fill="#000000" /><rect x="384" y="440" width="8" height="8" fill="#000000" /><rect x="416" y="440" width="8" height="8" fill="#000000" /><rect x="448" y="440" width="8" height="8" fill="#000000" /><rect x="488" y="440" width="8" height="8" fill="#000000" /><rect x="496" y="440" width="8" height="8" fill="#000000" /><rect x="520" y="440" width="8" height="8" fill="#000000" /><rect x="536" y="440" width="8" height="8" fill="#000000" /><rect x="544" y="440" width="8" height="8" fill="#000000" /><rect x="336" y="448" width="8" height="8" fill="#000000" /><rect x="448" y="448" width="8" height="8" fill="#000000" /><rect x="536" y="448" width="8" height="8" fill="#000000" /><rect x="208" y="456" width="8" height="8" fill="#000000" /><rect x="264" y="456" width="8" height="8" fill="#000000" /><rect x="272" y="456" width="8" height="8" fill="#000000" /><rect x="288" y="456" width="8" height="8" fill="#000000" /><rect x="328" y="456" width="8" height="8" fill="#000000" /><rect x="368" y="456" width="8" height="8" fill="#000000" /><rect x="384" y="456" width="8" height="8" fill="#000000" /><rect x="496" y="456" width="8" height="8" fill="#000000" /><rect x="120" y="464" width="8" height="8" fill="#000000" /><rect x="176" y="464" width="8" height="8" fill="#000000" /><rect x="272" y="464" width="8" height="8" fill="#000000" /><rect x="408" y="464" width="8" height="8" fill="#000000" /><rect x="528" y="464" width="8" height="8" fill="#000000" /><rect x="96" y="472" width="8" height="8" fill="#000000" /><rect x="160" y="472" width="8" height="8" fill="#000000" /><rect x="208" y="472" width="8" height="8" fill="#000000" /><rect x="328" y="472" width="8" height="8" fill="#000000" /><rect x="368" y="472" width="8" height="8" fill="#000000" /><rect x="384" y="472" width="8" height="8" fill="#000000" /><rect x="416" y="472" width="8" height="8" fill="#000000" /><rect x="520" y="472" width="8" height="8" fill="#000000" /><rect x="152" y="480" width="8" height="8" fill="#000000" /><rect x="224" y="480" width="8" height="8" fill="#000000" /><rect x="336" y="480" width="8" height="8" fill="#000000" /><rect x="368" y="480" width="8" height="8" fill="#000000" /><rect x="384" y="480" width="8" height="8" fill="#000000" /><rect x="456" y="480" width="8" height="8" fill="#000000" /><rect x="464" y="480" width="8" height="8" fill="#000000" /><rect x="544" y="480" width="8" height="8" fill="#000000" /><rect x="152" y="488" width="8" height="8" fill="#000000" /><rect x="184" y="488" width="8" height="8" fill="#000000" /><rect x="200" y="488" width="8" height="8" fill="#000000" /><rect x="208" y="488" width="8" height="8" fill="#000000" /><rect x="224" y="488" width="8" height="8" fill="#000000" /><rect x="408" y="488" width="8" height="8" fill="#000000" /><rect x="456" y="488" width="8" height="8" fill="#000000" /><rect x="120" y="496" width="8" height="8" fill="#000000" /><rect x="136" y="496" width="8" height="8" fill="#000000" /><rect x="168" y="496" width="8" height="8" fill="#000000" /><rect x="184" y="496" width="8" height="8" fill="#000000" /><rect x="232" y="496" width="8" height="8" fill="#000000" /><rect x="376" y="496" width="8" height="8" fill="#000000" /><rect x="416" y="496" width="8" height="8" fill="#000000" /><rect x="448" y="496" width="8" height="8" fill="#000000" /><rect x="456" y="496" width="8" height="8" fill="#000000" /><rect x="136" y="504" width="8" height="8" fill="#000000" /><rect x="184" y="504" width="8" height="8" fill="#000000" /><rect x="192" y="504" width="8" height="8" fill="#000000" /><rect x="200" y="504" width="8" height="8" fill="#000000" /><rect x="232" y="504" width="8" height="8" fill="#000000" /><rect x="240" y="504" width="8" height="8" fill="#000000" /><rect x="368" y="504" width="8" height="8" fill="#000000" /><rect x="448" y="504" width="8" height="8" fill="#000000" /><rect x="144" y="512" width="8" height="8" fill="#000000" /><rect x="160" y="512" width="8" height="8" fill="#000000" /><rect x="168" y="512" width="8" height="8" fill="#000000" /><rect x="224" y="512" width="8" height="8" fill="#000000" /><rect x="232" y="512" width="8" height="8" fill="#000000" /><rect x="240" y="512" width="8" height="8" fill="#000000" /><rect x="248" y="512" width="8" height="8" fill="#000000" /><rect x="264" y="512" width="8" height="8" fill="#000000" /><rect x="368" y="512" width="8" height="8" fill="#000000" /><rect x="408" y="512" width="8" height="8" fill="#000000" /><rect x="528" y="512" width="8" height="8" fill="#000000" /><rect x="136" y="520" width="8" height="8" fill="#000000" /><rect x="144" y="520" width="8" height="8" fill="#000000" /><rect x="160" y="520" width="8" height="8" fill="#000000" /><rect x="176" y="520" width="8" height="8" fill="#000000" /><rect x="224" y="520" width="8" height="8" fill="#000000" /><rect x="232" y="520" width="8" height="8" fill="#000000" /><rect x="240" y="520" width="8" height="8" fill="#000000" /><rect x="288" y="520" width="8" height="8" fill="#000000" /><rect x="312" y="520" width="8" height="8" fill="#000000" /><rect x="336" y="520" width="8" height="8" fill="#000000" /><rect x="360" y="520" width="8" height="8" fill="#000000" /><rect x="368" y="520" width="8" height="8" fill="#000000" /><rect x="424" y="520" width="8" height="8" fill="#000000" /><rect x="448" y="520" width="8" height="8" fill="#000000" /><rect x="456" y="520" width="8" height="8" fill="#000000" /><rect x="504" y="520" width="8" height="8" fill="#000000" /><rect x="512" y="520" width="8" height="8" fill="#000000" /><rect x="136" y="528" width="8" height="8" fill="#000000" /><rect x="160" y="528" width="8" height="8" fill="#000000" /><rect x="168" y="528" width="8" height="8" fill="#000000" /><rect x="216" y="528" width="8" height="8" fill="#000000" /><rect x="240" y="528" width="8" height="8" fill="#000000" /><rect x="248" y="528" width="8" height="8" fill="#000000" /><rect x="496" y="528" width="8" height="8" fill="#000000" /><rect x="104" y="536" width="8" height="8" fill="#000000" /><rect x="112" y="536" width="8" height="8" fill="#000000" /><rect x="136" y="536" width="8" height="8" fill="#000000" /><rect x="144" y="536" width="8" height="8" fill="#000000" /><rect x="176" y="536" width="8" height="8" fill="#000000" /><rect x="200" y="536" width="8" height="8" fill="#000000" /><rect x="208" y="536" width="8" height="8" fill="#000000" /><rect x="216" y="536" width="8" height="8" fill="#000000" /><rect x="296" y="536" width="8" height="8" fill="#000000" /><rect x="304" y="536" width="8" height="8" fill="#000000" /><rect x="336" y="536" width="8" height="8" fill="#000000" /><rect x="360" y="536" width="8" height="8" fill="#000000" /><rect x="376" y="536" width="8" height="8" fill="#000000" /><rect x="400" y="536" width="8" height="8" fill="#000000" /><rect x="424" y="536" width="8" height="8" fill="#000000" /><rect x="136" y="544" width="8" height="8" fill="#000000" /><rect x="168" y="544" width="8" height="8" fill="#000000" /><rect x="208" y="544" width="8" height="8" fill="#000000" /><rect x="216" y="544" width="8" height="8" fill="#000000" /><rect x="248" y="544" width="8" height="8" fill="#000000" /><rect x="256" y="544" width="8" height="8" fill="#000000" /><rect x="328" y="544" width="8" height="8" fill="#000000" /><rect x="368" y="544" width="8" height="8" fill="#000000" /><rect x="432" y="544" width="8" height="8" fill="#000000" /><rect x="504" y="544" width="8" height="8" fill="#000000" /><rect x="528" y="544" width="8" height="8" fill="#000000" /></svg>