<svg xmlns="http://www.w3.org/2000/svg" width="588" height="588" viewBox="0 0 588 588" shape-rendering="crispEdges"><rect x="240" y="48" width="12" height="12" fill="#000000" /><rect x="252" y="48" width="12" height="12" fill="#000000" /><rect x="288" y="48" width="12" height="12" fill="#000000" /><rect x="324" y="48" width="12" height="12" fill="#000000" /><rect x="336" y="48" width="12" height="12" fill="#000000" /><rect x="384" y="48" width="12" height="12" fill="#000000" /><rect x="408" y="48" width="12" height="12" fill="#000000" /><rect x="168" y="60" width="12" height="12" fill="#000000" /><rect x="204" y="60" width="12" height="12" fill="#000000" /><rect x="228" y="60" width="12" height="12" fill="#000000" /><rect x="384" y="60" width="12" height="12" fill="#000000" /><rect x="192" y="72" width="12" height="12" fill="#000000" /><rect x="384" y="72" width="12" height="12" fill="#000000" /><rect x="180" y="84" width="12" height="12" fill="#000000" /><rect x="216" y="84" width="12" height="12" fill="#000000" /><rect x="240" y="84" width="12" height="12" fill="#000000" /><rect x="264" y="84" width="12" height="12" fill="#000000" /><rect x="300" y="84" width="12" height="12" fill="#000000" /><rect x="324" y="84" width="12" height="12" fill="#000000" /><rect x="168" y="96" width="12" height="12" fill="#000000" /><rect x="192" y="96" width="12" height="12" fill="#000000" /><rect x="324" y="96" width="12" height="12" fill="#000000" /><rect x="336" y="96" width="12" height="12" fill="#000000" /><rect x="348" y="96" width="12" height="12" fill="#000000" /><rect x="204" y="108" width="12" height="12" fill="#000000" /><rect x="228" y="108" width="12" height="12" fill="#000000" /><rect x="252" y="108" width="12" height="12" fill="#000000" /><rect x="264" y="108" width="12" height="12" fill="#000000" /><rect x="252" y="132" width="12" height="12" fill="#000000" /><rect x="288" y="132" width="12" height="12" fill="#000000" /><rect x="300" y="132" width="12" height="12" fill="#000000" /><rect x="384" y="132" width="12" height="12" fill="#000000" /><rect x="264" y="144" width="12" height="12" fill="#000000" /><rect x="48" y="156" width="12" height="12" fill="#000000" /><rect x="84" y="156" width="12" height="12" fill="#000000" /><rect x="132" y="156" width="12" height="12" fill="#000000" /><rect x="180" y="156" width="12" height="12" fill="#000000" /><rect x="276" y="156" width="12" height="12" fill="#000000" /><rect x="300" y="156" width="12" height="12" fill="#000000" /><rect x="516" y="156" width="12" height="12" fill="#000000" /><rect x="60" y="168" width="12" height="12" fill="#000000" /><rect x="84" y="168" width="12" height="12" fill="#000000" /><rect x="168" y="168" width="12" height="12" fill="#000000" /><rect x="180" y="168" width="12" height="12" fill="#000000" /><rect x="192" y="168" width="12" height="12" fill="#000000" /><rect x="276" y="168" width="12" height="12" fill="#000000" /><rect x="288" y="168" width="12" height="12" fill="#000000" /><rect x="336" y="168" width="12" height="12" fill="#000000" /><rect x="48" y="180" width="12" height="12" fill="#000000" /><rect x="96" y="180" width="12" height="12" fill="#000000" /><rect x="240" y="180" width="12" height="12" fill="#000000" /><rect x="276" y="180" width="12" height="12" fill="#000000" /><rect x="288" y="180" width="12" height="12" fill="#000000" /><rect x="348" y="180" width="12" height="12" fill="#000000" /><rect x="480" y="180" width="12" height="12" fill="#000000" /><rect x="516" y="180" width="12" height="12" fill="#000000" /><rect x="72" y="192" width="12" height="12" fill="#000000" /><rect x="192" y="192" width="12" height="12" fill="#000000" /><rect x="204" y="192" width="12" height="12" fill="#000000" /><rect x="264" y="192" width="12" height="12" fill="#000000" /><rect x="276" y="192" width="12" height="12" fill="#000000" /><rect x="288" y="192" width="12" height="12" fill="#000000" /><rect x="300" y="192" width="12" height="12" fill="#000000" /><rect x="312" y="192" width="12" height="12" fill="#000000" /><rect x="324" y="192" width="12" height="12" fill="#000000" /><rect x="348" y="192" width="12" height="12" fill="#000000" /><rect x="72" y="204" width="12" height="12" fill="#000000" /><rect x="84" y="204" width="12" height="12" fill="#000000" /><rect x="180" y="204" width="12" height="12" fill="#000000" /><rect x="216" y="204" width="12" height="12" fill="#000000" /><rect x="228" y="204" width="12" height="12" fill="#000000" /><rect x="312" y="204" width="12" height="12" fill="#000000" /><rect x="324" y="204" width="12" height="12" fill="#000000" /><rect x="516" y="204" width="12" height="12" fill="#000000" /><rect x="528" y="204" width="12" height="12" fill="#000000" /><rect x="108" y="216" width="12" height="12" fill="#000000" /><rect x="192" y="216" width="12" height="12" fill="#000000" /><rect x="324" y="216" width="12" height="12" fill="#000000" /><rect x="60" y="228" width="12" height="12" fill="#000000" /><rect x="72" y="228" width="12" height="12" fill="#000000" /><rect x="96" y="228" width="12" height="12" fill="#000000" /><rect x="216" y="228" width="12" height="12" fill="#000000" /><rect x="252" y="228" width="12" height="12" fill="#000000" /><rect x="264" y="228" width="12" height="12" fill="#000000" /><rect x="348" y="228" width="12" height="12" fill="#000000" /><rect x="48" y="240" width="12" height="12" fill="#000000" /><rect x="60" y="240" width="12" height="12" fill="#000000" /><rect x="84" y="240" width="12" height="12" fill="#000000" /><rect x="204" y="240" width="12" height="12" fill="#000000" /><rect x="216" y="240" width="12" height="12" fill="#000000" /><rect x="264" y="240" width="12" height="12" fill="#000000" /><rect x="276" y="240" width="12" height="12" fill="#000000" /><rect x="288" y="240" width="12" height="12" fill="#000000" /><rect x="528" y="240" width="12" height="12" fill="#000000" /><rect x="156" y="252" width="12" height="12" fill="#000000" /><rect x="240" y="252" width="12" height="12" fill="#000000" /><rect x="252" y="252" width="12" height="12" fill="#000000" /><rect x="276" y="252" width="12" height="12" fill="#000000" /><rect x="312" y="252" width="12" height="12" fill="#000000" /><rect x="336" y="252" width="12" height="12" fill="#000000" /><rect x="348" y="252" width="12" height="12" fill="#000000" /><rect x="372" y="252" width="12" height="12" fill="#000000" /><rect x="420" y="252" width="12" height="12" fill="#000000" /><rect x="48" y="264" width="12" height="12" fill="#000000" /><rect x="108" y="264" width="12" height="12" fill="#000000" /><rect x="132" y="264" width="12" height="12" fill="#000000" /><rect x="168" y="264" width="12" height="12" fill="#000000" /><rect x="192" y="264" width="12" height="12" fill="#000000" /><rect x="240" y="264" width="12" height="12" fill="#000000" /><rect x="288" y="264" width="12" height="12" fill="#000000" /><rect x="348" y="264" width="12" height="12" fill="#000000" /><rect x="132" y="276" width="12" height="12" fill="#000000" /><rect x="144" y="276" width="12" height="12" fill="#000000" /><rect x="360" y="276" width="12" height="12" fill="#000000" /><rect x="504" y="276" width="12" height="12" fill="#000000" /><rect x="48" y="288" width="12" height="12" fill="#000000" /><rect x="72" y="288" width="12" height="12" fill="#000000" /><rect x="84" y="288" width="12" height="12" fill="#000000" /><rect x="132" y="288" width="12" height="12" fill="#000000" /><rect x="156" y="288" width="12" height="12" fill="#000000" /><rect x="228" y="288" width="12" height="12" fill="#000000" /><rect x="264" y="288" width="12" height="12" fill="#000000" /><rect x="300" y="288" width="12" height="12" fill="#000000" /><rect x="312" y="288" width="12" height="12" fill="#000000" /><rect x="324" y="288" width="12" height="12" fill="#000000" /><rect x="372" y="288" width="12" height="12" fill="#000000" /><rect x="420" y="288" width="12" height="12" fill="#000000" /><rect x="480" y="288" width="12" height="12" fill="#000000" /><rect x="60" y="300" width="12" height="12" fill="#000000" /><rect x="96" y="300" width="12" height="12" fill="#000000" /><rect x="192" y="300" width="12" height="12" fill="#000000" /><rect x="204" y="300" width="12" height="12" fill="#000000" /><rect x="216" y="300" width="12" height="12" fill="#000000" /><rect x="324" y="300" width="12" height="12" fill="#000000" /><rect x="348" y="300" width="12" height="12" fill="#000000" /><rect x="372" y="300" width="12" height="12" fill="#000000" /><rect x="480" y="300" width="12" height="12" fill="#000000" /><rect x="504" y="300" width="12" height="12" fill="#000000" /><rect x="192" y="312" width="12" height="12" fill="#000000" /><rect x="252" y="312" width="12" height="12" fill="#000000" /><rect x="312" y="312" width="12" height="12" fill="#000000" /><rect x="456" y="312" width="12" height="12" fill="#000000" /><rect x="60" y="324" width="12" height="12" fill="#000000" /><rect x="156" y="324" width="12" height="12" fill="#000000" /><rect x="192" y="324" width="12" height="12" fill="#000000" /><rect x="312" y="324" width="12" height="12" fill="#000000" /><rect x="348" y="324" width="12" height="12" fill="#000000" /><rect x="360" y="324" width="12" height="12" fill="#000000" /><rect x="480" y="324" width="12" height="12" fill="#000000" /><rect x="528" y="324" width="12" height="12" fill="#000000" /><rect x="48" y="336" width="12" height="12" fill="#000000" /><rect x="60" y="336" width="12" height="12" fill="#000000" /><rect x="72" y="336" width="12" height="12" fill="#000000" /><rect x="108" y="336" width="12" height="12" fill="#000000" /><rect x="144" y="336" width="12" height="12" fill="#000000" /><rect x="228" y="336" width="12" height="12" fill="#000000" /><rect x="240" y="336" width="12" height="12" fill="#000000" /><rect x="264" y="336" width="12" height="12" fill="#000000" /><rect x="348" y="336" width="12" height="12" fill="#000000" /><rect x="468" y="336" width="12" height="12" fill="#000000" /><rect x="480" y="336" width="12" height="12" fill="#000000" /><rect x="504" y="336" width="12" height="12" fill="#000000" /><rect x="84" y="348" width="12" height="12" fill="#000000" /><rect x="108" y="348" width="12" height="12" fill="#000000" /><rect x="132" y="348" width="12" height="12" fill="#000000" /><rect x="168" y="348" width="12" height="12" fill="#000000" /><rect x="192" y="348" width="12" height="12" fill="#000000" /><rect x="264" y="348" width="12" height="12" fill="#000000" /><rect x="276" y="348" width="12" height="12" fill="#000000" /><rect x="312" y="348" width="12" height="12" fill="#000000" /><rect x="348" y="348" width="12" height="12" fill="#000000" /><rect x="360" y="348" width="12" height="12" fill="#000000" /><rect x="456" y="348" width="12" height="12" fill="#000000" /><rect x="480" y="348" width="12" height="12" fill="#000000" /><rect x="516" y="348" width="12" height="12" fill="#000000" /><rect x="528" y="348" width="12" height="12" fill="#000000" /><rect x="60" y="360" width="12" height="12" fill="#000000" /><rect x="144" y="360" width="12" height="12" fill="#000000" /><rect x="156" y="360" width="12" height="12" fill="#000000" /><rect x="192" y="360" width="12" height="12" fill="#000000" /><rect x="252" y="360" width="12" height="12" fill="#000000" /><rect x="336" y="360" width="12" height="12" fill="#000000" /><rect x="348" y="360" width="12" height="12" fill="#000000" /><rect x="360" y="360" width="12" height="12" fill="#000000" /><rect x="48" y="372" width="12" height="12" fill="#000000" /><rect x="72" y="372" width="12" height="12" fill="#000000" /><rect x="84" y="372" width="12" height="12" fill="#000000" /><rect x="96" y="372" width="12" height="12" fill="#000000" /><rect x="144" y="372" width="12" height="12" fill="#000000" /><rect x="192" y="372" width="12" height="12" fill="#000000" /><rect x="228" y="372" width="12" height="12" fill="#000000" /><rect x="252" y="372" width="12" height="12" fill="#000000" /><rect x="276" y="372" width="12" height="12" fill="#000000" /><rect x="468" y="372" width="12" height="12" fill="#000000" /><rect x="516" y="372" width="12" height="12" fill="#000000" /><rect x="528" y="372" width="12" height="12" fill="#000000" /><rect x="48" y="384" width="12" height="12" fill="#000000" /><rect x="204" y="384" width="12" height="12" fill="#000000" /><rect x="324" y="384" width="12" height="12" fill="#000000" /><rect x="336" y="384" width="12" height="12" fill="#000000" /><rect x="516" y="384" width="12" height="12" fill="#000000" /><rect x="528" y="384" width="12" height="12" fill="#000000" /><rect x="60" y="396" width="12" height="12" fill="#000000" /><rect x="84" y="396" width="12" height="12" fill="#000000" /><rect x="108" y="396" width="12" height="12" fill="#000000" /><rect x="180" y="396" width="12" height="12" fill="#000000" /><rect x="192" y="396" width="12" height="12" fill="#000000" /><rect x="276" y="396" width="12" height="12" fill="#000000" /><rect x="360" y="396" width="12" height="12" fill="#000000" /><rect x="396" y="396" width="12" height="12" fill="#000000" /><rect x="84" y="408" width="12" height="12" fill="#000000" /><rect x="108" y="408" width="12" height="12" fill="#000000" /><rect x="132" y="408" width="12" height="12" fill="#000000" /><rect x="144" y="408" width="12" height="12" fill="#000000" /><rect x="156" y="408" width="12" height="12" fill="#000000" /><rect x="168" y="408" width="12" height="12" fill="#000000" /><rect x="240" y="408" width="12" height="12" fill="#000000" /><rect x="252" y="408" width="12" height="12" fill="#000000" /><rect x="264" y="408" width="12" height="12" fill="#000000" /><rect x="288" y="408" width="12" height="12" fill="#000000" /><rect x="324" y="408" width="12" height="12" fill="#000000" /><rect x="336" y="408" width="12" height="12" fill="#000000" /><rect x="84" y="420" width="12" height="12" fill="#000000" /><rect x="96" y="420" width="12" height="12" fill="#000000" /><rect x="108" y="420" width="12" height="12" fill="#000000" /><rect x="156" y="420" width="12" height="12" fill="#000000" /><rect x="204" y="420" width="12" height="12" fill="#000000" /><rect x="216" y="420" width="12" height="12" fill="#000000" /><rect x="312" y="420" width="12" height="12" fill="#000000" /><rect x="408" y="420" width="12" height="12" fill="#000000" /><rect x="516" y="420" width="12" height="12" fill="#000000" /><rect x="96" y="432" width="12" height="12" fill="#000000" /><rect x="108" y="432" width="12" height="12" fill="#000000" /><rect x="204" y="432" width="12" height="12" fill="#000000" /><rect x="216" y="432" width="12" height="12" fill="#000000" /><rect x="228" y="432" width="12" height="12" fill="#000000" /><rect x="240" y="432" width="12" height="12" fill="#000000" /><rect x="252" y="432" width="12" height="12" fill="#000000" /><rect x="276" y="432" width="12" height="12" fill="#000000" /><rect x="288" y="432" width="12" height="12" fill="#000000" /><rect x="384" y="432" width="12" height="12" fill="#000000" /><rect x="396" y="432" width="12" height="12" fill="#000000" /><rect x="408" y="432" width="12" height="12" fill="#000000" /><rect x="516" y="432" width="12" height="12" fill="#000000" /><rect x="204" y="444" width="12" height="12" fill="#000000" /><rect x="312" y="444" width="12" height="12" fill="#000000" /><rect x="372" y="444" width="12" height="12" fill="#000000" /><rect x="384" y="444" width="12" height="12" fill="#000000" /><rect x="180" y="456" width="12" height="12" fill="#000000" /><rect x="252" y="456" width="12" height="12" fill="#000000" /><rect x="276" y="456" width="12" height="12" fill="#000000" /><rect x="372" y="456" width="12" height="12" fill="#000000" /><rect x="384" y="456" width="12" height="12" fill="#000000" /><rect x="420" y="456" width="12" height="12" fill="#000000" /><rect x="204" y="468" width="12" height="12" fill="#000000" /><rect x="216" y="468" width="12" height="12" fill="#000000" /><rect x="264" y="468" width="12" height="12" fill="#000000" /><rect x="276" y="468" width="12" height="12" fill="#000000" /><rect x="288" y="468" width="12" height="12" fill="#000000" /><rect x="312" y="468" width="12" height="12" fill="#000000" /><rect x="324" y="468" width="12" height="12" fill="#000000" /><rect x="360" y="468" width="12" height="12" fill="#000000" /><rect x="372" y="468" width="12" height="12" fill="#000000" /><rect x="420" y="468" width="12" height="12" fill="#000000" /><rect x="168" y="480" width="12" height="12" fill="#000000" /><rect x="228" y="480" width="12" height="12" fill="#000000" /><rect x="312" y="480" width="12" height="12" fill="#000000" /><rect x="372" y="480" width="12" height="12" fill="#000000" /><rect x="420" y="480" width="12" height="12" fill="#000000" /><rect x="504" y="480" width="12" height="12" fill="#000000" /><rect x="180" y="492" width="12" height="12" fill="#000000" /><rect x="240" y="492" width="12" height="12" fill="#000000" /><rect x="252" y="492" width="12" height="12" fill="#000000" /><rect x="288" y="492" width="12" height="12" fill="#000000" /><rect x="312" y="492" width="12" height="12" fill="#000000" /><rect x="528" y="492" width="12" height="12" fill="#000000" /><rect x="264" y="504" width="12" height="12" fill="#000000" /><rect x="360" y="504" width="12" height="12" fill="#000000" /><rect x="432" y="504" width="12" height="12" fill="#000000" /><rect x="180" y="516" width="12" height="12" fill="#000000" /><rect x="228" y="516" width="12" height="12" fill="#000000" /><rect x="288" y="516" width="12" height="12" fill="#000000" /><rect x="300" y="516" width="12" height="12" fill="#000000" /><rect x="324" y="516" width="12" height="12" fill="#000000" /><rect x="360" y="516" width="12" height="12" fill="#000000" /><rect x="156" y="528" width="12" height="12" fill="#000000" /><rect x="264" y="528" width="12" height="12" fill="#000000" /><rect x="372" y="528" width="12" height="12" fill="#000000" /><rect x="504" y="528" width="12" height="12" fill="#000000" /></svg>